<?xml version="1.0" encoding="utf-8"?>
<!-- Generator: Adobe Illustrator 26.2.1, SVG Export Plug-In . SVG Version: 6.00 Build 0)  -->
<svg version="1.1" id="Layer_1" xmlns="http://www.w3.org/2000/svg" xmlns:xlink="http://www.w3.org/1999/xlink" x="0px" y="0px"
	 viewBox="0 0 1131.7 745" style="enable-background:new 0 0 1131.7 745;" xml:space="preserve">
<style type="text/css">
	.st0{opacity:0.17;}
	.st1{opacity:0.75;}
	.st2{fill:#FFFFFF;}
	.st3{opacity:0.45;}
	.st4{opacity:0.6;}
	.st5{opacity:0.8;}
	.st6{opacity:0.2;}
	.st7{fill:#FFFFFF;fill-opacity:0;}
</style>
<g id="a">
</g>
<g id="b">
	<g id="c">
		<g>
			<g class="st0">
				<g class="st1">
					<path class="st2" d="M829,123.8c-2.5,0.2-5.1,1.6-7.6,4.1c-3.8,3.8-5.1,8.2-3.8,13.1s5.4,10.8,12.2,17.8
						c-0.9-3.5-0.7-7.2,0.6-11s3.5-7.2,6.5-10.2c3.6-3.6,7.6-6,11.9-7.2c4.3-1.2,8.8-1.1,13.3,0.3c4.5,1.4,8.9,4.2,13,8.4
						c3.9,3.9,6.7,8.2,8.2,12.9c1.5,4.7,1.6,9.4,0.2,14.2c-1.3,4.8-4.1,9.3-8.3,13.5c-5.8,5.8-11.6,9-17.5,9.8s-11.7-0.5-17.6-3.8
						s-12.2-8.3-18.9-15c-10.2-10.2-16.1-19.6-17.8-28.3c-1.7-8.7,1.2-16.8,8.8-24.4c5.8-5.8,11.9-8.8,18.3-8.8s12.2,2,17.4,6.2
						l-10.8,10.8C834.3,124.3,831.6,123.5,829,123.8L829,123.8z M839,159.8c-0.3,3.7,1.2,7.2,4.5,10.5s6.8,4.9,10.5,5
						s7.3-1.6,10.7-5c3-3,4.5-6.3,4.4-9.9s-1.7-6.9-4.8-10s-6.6-4.9-10.2-5.1c-3.6-0.2-7,1.4-10.3,4.6
						C840.9,152.7,839.3,156.1,839,159.8L839,159.8z"/>
				</g>
				<g class="st3">
					<path class="st2" d="M508.3,192c-1.7-4.6-5.7-8.6-11.8-11.9c-9.2-5-18-5-26.4,0s-17.2,15.9-26.4,32.5
						c6.1-3.6,13.1-5.2,20.9-4.9s15.3,2.5,22.5,6.4c8.7,4.7,15.3,10.8,20,18.2c4.6,7.4,6.9,15.7,6.7,24.9c-0.2,9.2-3,18.8-8.5,28.8
						c-5.2,9.5-11.7,16.9-19.5,22.2s-16.6,8.1-26.2,8.2s-19.5-2.6-29.6-8.1c-13.9-7.6-23.1-16.6-27.7-27.1s-5.5-22.1-2.6-34.8
						s8.7-27.2,17.5-43.3c13.3-24.4,27.6-40.6,42.9-48.5c15.2-7.9,31.9-6.9,50.1,3c14,7.6,22.8,17.4,26.4,29.2
						c3.6,11.8,2.9,23.8-2.1,35.8l-26-14.2C510,202,510,196.5,508.3,192L508.3,192z M446.8,230.1c-7.1,1.5-12.8,6.2-17,14.1
						c-4.3,7.9-5.5,15.3-3.5,22.3s7.1,12.7,15.2,17.1c7.2,3.9,14.1,4.9,20.7,2.7c6.6-2.1,12-6.9,16-14.4s5.5-15,4-21.8
						c-1.6-6.8-6.3-12.3-14.2-16.6C460.9,229.8,453.8,228.6,446.8,230.1L446.8,230.1z"/>
				</g>
				<g class="st3">
					<path class="st2" d="M301.5,247.8c18.5,1.7,36.1,10.8,52.6,27.4c11.3,11.3,19,22.9,23.1,34.9s4.8,23.4,2.2,34.2
						c-2.6,10.8-8.2,20.5-16.7,29c-9.7,9.7-20.5,15.5-32.2,17.2c-11.8,1.7-22.3,0.2-31.5-4.4l-0.9,0.9c6.2,11.7,8.2,23.7,6.1,35.8
						s-8.7,23.8-19.8,34.9c-9.3,9.3-19.7,15.4-31.2,18.4c-11.5,3-23.5,2.4-35.8-1.7c-12.4-4.2-24.3-12-35.9-23.7
						c-17.5-17.5-27.3-36.1-29.4-55.9c-2.2-19.8,5-38.6,21.6-56.3l31.5,31.5c-7.3,7.9-10.7,16.5-10.4,26c0.3,9.4,4.7,18.4,13.2,26.9
						c7.9,7.9,16.1,11.7,24.8,11.6c8.6-0.2,16.5-3.7,23.4-10.7c9.3-9.3,13-18.8,11.1-28.8c-1.9-9.9-9-21-21.3-33.4l-6.7-6.7
						l26.7-26.7l6.7,6.7c21.9,21.9,40.3,25.6,54.9,10.9c6.6-6.6,9.9-13.8,9.6-21.4s-4.1-15.2-11.5-22.6S310.8,291,302.9,291
						s-15.1,2.7-21.8,8.1l-31.8-31.8C265.6,252.6,283,246.2,301.5,247.8L301.5,247.8z"/>
				</g>
				<g class="st3">
					<path class="st2" d="M542.7,172.4c16.9,1.5,30.7,2.5,41.3,2.8s20.5-0.5,29.8-2.4c9.2-1.9,16.5-5.6,21.9-11
						c4.9-4.9,7.6-9.9,8.1-15s-1.7-10-6.5-14.9s-10.1-6.9-15.9-6.3c-5.8,0.6-11.6,3.7-17.2,9.1l-19.6-19.6
						c11.9-11.1,24.1-16.4,36.5-15.9s23.7,5.8,33.7,15.8c11,10.9,16.5,22.3,16.5,33.9s-4.7,22.3-14.2,31.8
						c-7.5,7.5-16.7,12.6-27.5,15.4c-10.9,2.8-21.4,4.1-31.6,4c-10.2-0.1-23.1-0.8-38.6-2.1l42.5,42.5l-16.7,16.7L514,186l15-15
						L542.7,172.4L542.7,172.4z"/>
				</g>
				<g class="st1">
					<path class="st2" d="M41.3,442.4c16.9,1.5,30.7,2.5,41.3,2.8s20.5-0.5,29.8-2.4s16.5-5.6,21.9-11c4.9-4.9,7.6-9.9,8.1-15
						s-1.7-10-6.5-14.8s-10.1-6.9-15.9-6.3c-5.8,0.6-11.6,3.7-17.2,9.2l-19.6-19.6c11.9-11.1,24.1-16.5,36.5-15.9
						c12.4,0.5,23.7,5.8,33.7,15.8c10.9,11,16.4,22.3,16.5,33.9s-4.7,22.3-14.2,31.8c-7.5,7.5-16.7,12.6-27.5,15.4
						c-10.9,2.8-21.4,4.1-31.6,4s-23.1-0.8-38.6-2.1l42.5,42.5l-16.7,16.7l-71.2-71.2l15-15L41.3,442.4L41.3,442.4z"/>
				</g>
				<g class="st4">
					<path class="st2" d="M957.5,133.7c8,0.7,14.5,1.2,19.5,1.3c5,0.2,9.7-0.2,14-1.1c4.3-0.9,7.8-2.6,10.3-5.2
						c2.3-2.3,3.6-4.7,3.8-7.1c0.2-2.4-0.8-4.7-3.1-7s-4.8-3.2-7.5-2.9s-5.4,1.7-8.1,4.3l-9.2-9.2c5.6-5.2,11.3-7.8,17.2-7.5
						c5.9,0.2,11.2,2.7,15.8,7.4c5.2,5.2,7.8,10.5,7.8,16s-2.2,10.5-6.7,15c-3.5,3.5-7.8,6-13,7.3s-10.1,1.9-14.9,1.9
						s-10.9-0.4-18.2-1l20,20l-7.9,7.9l-33.5-33.5l7.1-7.1L957.5,133.7L957.5,133.7z"/>
				</g>
				<g class="st4">
					<path class="st2" d="M178.1,224.8c10.3,0.9,18.7,1.5,25.2,1.7s12.5-0.3,18.2-1.5s10.1-3.4,13.4-6.7c3-3,4.6-6,4.9-9.1
						c0.3-3.1-1-6.1-4-9.1c-2.9-2.9-6.2-4.2-9.7-3.8s-7.1,2.2-10.5,5.6l-12-12c7.3-6.8,14.7-10,22.3-9.7s14.4,3.5,20.6,9.6
						c6.7,6.7,10,13.6,10.1,20.7s-2.9,13.6-8.7,19.4c-4.6,4.6-10.2,7.7-16.8,9.4c-6.6,1.7-13.1,2.5-19.3,2.4s-14.1-0.5-23.5-1.3
						l26,26L204,276.7l-43.5-43.5l9.1-9.1L178.1,224.8L178.1,224.8z"/>
				</g>
				<g class="st5">
					<path class="st2" d="M1095.8,134.1c4.7,0.4,8.6,0.7,11.5,0.8c2.9,0.1,5.7-0.1,8.3-0.7c2.6-0.5,4.6-1.6,6.1-3.1
						c1.4-1.4,2.1-2.8,2.2-4.2s-0.5-2.8-1.8-4.1s-2.8-1.9-4.4-1.8s-3.2,1-4.8,2.6l-5.5-5.5c3.3-3.1,6.7-4.6,10.2-4.4
						c3.5,0.1,6.6,1.6,9.4,4.4c3.1,3.1,4.6,6.2,4.6,9.5s-1.3,6.2-4,8.9c-2.1,2.1-4.7,3.5-7.7,4.3s-6,1.1-8.8,1.1s-6.4-0.2-10.8-0.6
						l11.9,11.9l-4.7,4.7l-19.9-19.9l4.2-4.2L1095.8,134.1L1095.8,134.1z"/>
				</g>
				<g class="st3">
					<path class="st2" d="M43.4,276.8v-31.4H102v177.2H67V276.8H43.4L43.4,276.8z"/>
				</g>
				<g class="st1">
					<path class="st2" d="M1055.4,105.8l6.4-6.4l12,12l-36.4,36.4l-7.2-7.2l30-30L1055.4,105.8L1055.4,105.8z"/>
				</g>
				<g class="st1">
					<path class="st2" d="M125,114.1l76.1,189.6L170.8,334L98.5,147.4l-72.9,72.9L0,194.8L102.8,92L125,114.1L125,114.1z"/>
				</g>
				<g class="st5">
					<path class="st2" d="M1022,167c4,0.4,7.8,2.3,11.4,5.9c2.4,2.4,4.1,5,5,7.5c0.9,2.6,1.1,5.1,0.5,7.4s-1.8,4.4-3.6,6.3
						c-2.1,2.1-4.4,3.4-7,3.7c-2.5,0.4-4.8,0-6.8-1l-0.2,0.2c1.3,2.5,1.8,5.1,1.3,7.8c-0.5,2.6-1.9,5.1-4.3,7.5c-2,2-4.3,3.3-6.8,4
						s-5.1,0.5-7.8-0.4s-5.3-2.6-7.8-5.1c-3.8-3.8-5.9-7.8-6.4-12.1c-0.5-4.3,1.1-8.4,4.7-12.2l6.8,6.8c-1.6,1.7-2.3,3.6-2.3,5.6
						s1,4,2.9,5.8c1.7,1.7,3.5,2.5,5.4,2.5s3.6-0.8,5.1-2.3c2-2,2.8-4.1,2.4-6.2s-1.9-4.5-4.6-7.2l-1.5-1.5l5.8-5.8l1.5,1.5
						c4.8,4.8,8.7,5.5,11.9,2.4c1.4-1.4,2.1-3,2.1-4.6c-0.1-1.7-0.9-3.3-2.5-4.9s-3.2-2.4-4.9-2.4s-3.3,0.6-4.7,1.8l-6.9-6.9
						C1014.2,168,1018,166.6,1022,167L1022,167z"/>
				</g>
				<g class="st4">
					<path class="st2" d="M1095,121.7l25.2,62.8l-10,10l-24-61.8l-24.2,24.2l-8.5-8.5l34.1-34.1L1095,121.7L1095,121.7z"/>
				</g>
				<g class="st4">
					<path class="st2" d="M947,123.2l52.6,131l-20.9,20.9l-50-128.9l-50.4,50.4l-17.7-17.7l71-71L947,123.2L947,123.2z"/>
				</g>
				<g class="st4">
					<path class="st2" d="M668.4,207.8l26.9,66.9l-10.7,10.7L659,219.5l-25.7,25.7l-9-9l36.3-36.3L668.4,207.8L668.4,207.8z"/>
				</g>
				<g class="st4">
					<path class="st2" d="M345.4,382.9l7.8-23.7L457,281.6l35.1,11.6l-32.4,98.3l19,6.3L470,424l-19-6.3l-10.1,30.6l-30.2-10
						l10.1-30.6L345.4,382.9L345.4,382.9z M453.2,316.2l-66,51.4l44.2,14.6L453.2,316.2L453.2,316.2z"/>
				</g>
				<g class="st1">
					<path class="st2" d="M578,367.1l-11.2-22.3l18.5-128.3l33-16.6l46.6,92.4l17.8-9l12.5,24.7l-17.8,9l14.5,28.8l-28.4,14.3
						L649,331.4L578,367.1L578,367.1z M607.1,243.7l-10.3,83l41.6-20.9L607.1,243.7z"/>
				</g>
				<g class="st5">
					<path class="st2" d="M1008,168l-4.2-8.4l7-48.3l12.4-6.3l17.5,34.8l6.7-3.4l4.7,9.3l-6.7,3.4l5.5,10.8l-10.7,5.4l-5.5-10.8
						L1008,168L1008,168z M1018.9,121.6l-3.9,31.2l15.6-7.9L1018.9,121.6L1018.9,121.6z"/>
				</g>
				<g class="st6">
					<path class="st2" d="M252.5,207.5c-5.5-5.5-9.1-11.9-10.8-19.2c-1.7-7.3-1.1-15.1,1.8-23.4c2.9-8.3,8.5-16.5,16.6-24.6
						s16.3-13.6,24.6-16.6c8.3-2.9,16.1-3.6,23.4-1.8c7.3,1.7,13.7,5.3,19.2,10.8c5.6,5.6,9.1,11.8,10.6,18.8s1.1,13.9-1.1,20.8
						c8-3.1,15.9-4,23.7-2.4c7.8,1.5,14.9,5.5,21.3,11.9c6.9,6.9,11.2,14.6,12.8,23.3s0.8,17.3-2.6,26.2s-8.8,17-16.4,24.6
						S359.8,269,351,272.3s-17.5,4.1-26.1,2.5s-16.4-5.9-23.3-12.8c-6.4-6.4-10.4-13.5-11.9-21.4s-0.7-15.7,2.5-23.6
						C276.8,221.6,263.6,218.5,252.5,207.5L252.5,207.5z M314,222.3c-0.7,6.5,1.8,12.5,7.2,18c5.1,5.1,11,7.5,17.6,7.1
						c6.7-0.3,13-3.5,19-9.4s9.1-12.3,9.3-19s-2.2-12.5-7.1-17.5c-5.4-5.4-11.3-7.8-17.9-7.2s-12.7,3.7-18.5,9.5
						S314.7,215.8,314,222.3L314,222.3z M293.7,149.3c-5.7,0.2-11.2,3-16.4,8.1s-7.7,10.5-8,16.2c-0.2,5.7,2.2,11.1,7.2,16.2
						c4.6,4.6,9.8,6.7,15.6,6.3c5.8-0.4,11.2-3,16-7.8c4.9-4.9,7.5-10.3,7.8-16.2c0.4-5.9-1.8-11.2-6.3-15.7
						C304.7,151.4,299.4,149.1,293.7,149.3L293.7,149.3z"/>
				</g>
				<g class="st3">
					<path class="st2" d="M683,202.6c-5.5-5.5-9.1-11.9-10.8-19.2c-1.7-7.3-1.1-15.1,1.8-23.4c2.9-8.3,8.5-16.5,16.6-24.6
						s16.3-13.6,24.6-16.6c8.3-2.9,16.1-3.6,23.4-1.8c7.3,1.7,13.7,5.3,19.2,10.8c5.6,5.6,9.1,11.8,10.6,18.8s1.1,13.9-1.1,20.8
						c8-3.1,15.9-4,23.7-2.4c7.8,1.5,14.9,5.5,21.3,11.9c6.9,6.9,11.2,14.6,12.8,23.3c1.6,8.6,0.8,17.3-2.6,26.2
						c-3.3,8.8-8.8,17-16.4,24.6c-7.6,7.6-15.8,13.1-24.6,16.4s-17.5,4.1-26.1,2.5s-16.4-5.9-23.3-12.8
						c-6.4-6.4-10.4-13.5-11.9-21.4s-0.7-15.7,2.5-23.6C707.2,216.8,694,213.7,683,202.6L683,202.6z M744.5,217.4
						c-0.7,6.5,1.8,12.5,7.2,18c5.1,5.1,11,7.5,17.6,7.1c6.7-0.3,13-3.5,19-9.4c6-6,9.1-12.3,9.3-19s-2.2-12.5-7.2-17.5
						c-5.4-5.4-11.3-7.8-17.9-7.2s-12.7,3.7-18.5,9.5S745.2,210.9,744.5,217.4L744.5,217.4z M724.1,144.4c-5.7,0.2-11.2,3-16.3,8.1
						s-7.7,10.5-8,16.2c-0.2,5.7,2.2,11.1,7.2,16.2c4.6,4.6,9.8,6.7,15.6,6.3c5.8-0.4,11.2-3,16-7.8s7.5-10.3,7.8-16.2
						c0.3-5.9-1.8-11.2-6.3-15.7C735.2,146.5,729.9,144.2,724.1,144.4L724.1,144.4z"/>
				</g>
				<g class="st3">
					<path class="st2" d="M18.9,556.1c-5.5-5.5-9.1-11.9-10.8-19.2S7,521.8,9.9,513.5s8.5-16.5,16.6-24.6s16.3-13.6,24.6-16.6
						c8.3-2.9,16.1-3.5,23.4-1.8s13.7,5.3,19.2,10.8c5.6,5.6,9.1,11.8,10.6,18.8s1.1,13.9-1.1,20.8c8-3.1,15.9-4,23.7-2.4
						s14.9,5.5,21.3,11.9c6.9,6.9,11.2,14.7,12.8,23.3s0.8,17.3-2.6,26.2c-3.4,8.8-8.8,17-16.4,24.6s-15.8,13.1-24.6,16.3
						c-8.8,3.3-17.5,4.1-26.1,2.5s-16.4-5.9-23.3-12.8c-6.4-6.4-10.4-13.5-11.9-21.4s-0.7-15.7,2.5-23.7
						C43.2,570.2,29.9,567.2,18.9,556.1L18.9,556.1z M80.4,570.9c-0.7,6.5,1.8,12.5,7.2,18c5.1,5.1,10.9,7.5,17.6,7.2s13-3.5,19-9.4
						c6-6,9.1-12.3,9.3-19s-2.2-12.5-7.2-17.5c-5.4-5.4-11.3-7.8-17.9-7.2c-6.5,0.6-12.7,3.7-18.5,9.5S81.1,564.4,80.4,570.9
						L80.4,570.9z M60,497.9c-5.7,0.2-11.2,3-16.3,8.1s-7.7,10.5-8,16.2c-0.2,5.7,2.2,11.1,7.2,16.2c4.6,4.6,9.8,6.7,15.6,6.3
						c5.8-0.3,11.2-3,16-7.8s7.5-10.3,7.8-16.2S80.5,509.5,76,505C71.1,500,65.8,497.7,60,497.9L60,497.9z"/>
				</g>
				<g class="st5">
					<path class="st2" d="M391,189.4c2.4,2,5.5,2.9,9.5,2.9c5.1,0,8.9-2.1,11.2-6.4c2.3-4.3,3.5-11.5,3.5-21.6
						c-1.9,2.7-4.6,4.7-8,6.2s-7.2,2.2-11.1,2.2c-5.3,0-10.1-1.1-14.4-3.3c-4.3-2.2-7.6-5.5-10.1-9.8c-2.5-4.4-3.7-9.6-3.7-15.9
						c0-9.2,2.7-16.5,8.2-22c5.5-5.4,12.9-8.1,22.4-8.1c11.8,0,20.1,3.8,25,11.3c4.9,7.6,7.3,18.9,7.3,34.1
						c0,10.8-0.9,19.6-2.8,26.5s-5.1,12.1-9.6,15.7s-10.7,5.4-18.5,5.4c-6.1,0-11.4-1.2-15.7-3.5c-4.3-2.4-7.6-5.5-9.9-9.3
						c-2.3-3.9-3.6-8.1-3.9-12.8h16.2C387.2,184.7,388.7,187.5,391,189.4L391,189.4z M409.9,154.6c2.5-2.6,3.7-6.2,3.7-10.7
						c0-4.9-1.3-8.7-3.9-11.4c-2.6-2.7-6.2-4-10.6-4s-8,1.4-10.6,4.2s-3.9,6.4-3.9,11s1.3,8,3.8,10.8s6.3,4.2,11.4,4.2
						C404,158.6,407.4,157.3,409.9,154.6L409.9,154.6z"/>
				</g>
				<g class="st3">
					<path class="st2" d="M814.8,269.9c8-6.6,14.3-12.2,19-16.6s8.7-9.1,11.8-13.9s4.7-9.5,4.7-14.2c0-4.2-1-7.5-3-10
						c-2-2.4-5.1-3.6-9.2-3.6s-7.3,1.4-9.6,4.2s-3.4,6.6-3.5,11.4h-16.9c0.3-10,3.3-17.5,8.9-22.6c5.6-5.1,12.7-7.7,21.3-7.7
						c9.5,0,16.7,2.5,21.8,7.5s7.6,11.6,7.6,19.9c0,6.5-1.7,12.6-5.2,18.5s-7.5,11-12,15.4s-10.3,9.6-17.5,15.7h36.7v14.4h-61.5
						v-12.9L814.8,269.9L814.8,269.9z"/>
				</g>
				<g class="st1">
					<path class="st2" d="M937.2,247.5c3-0.3,6-1.9,8.8-4.7c3.6-3.6,4.8-7.8,3.4-12.5s-5.6-10.6-12.8-17.7c0.5,3.2,0.1,6.6-1.3,10.1
						c-1.4,3.5-3.5,6.6-6.3,9.5c-3.8,3.8-7.9,6.4-12.5,7.8c-4.6,1.5-9.3,1.5-14.1,0.2s-9.5-4.2-13.9-8.6c-6.5-6.5-9.8-13.6-9.7-21.3
						c0-7.7,3.4-14.9,10.1-21.6c8.3-8.3,16.9-11.5,25.7-9.6s18.5,8.2,29.3,19c7.6,7.6,13.2,14.5,16.8,20.7s5,12.1,4.3,17.9
						c-0.7,5.7-3.8,11.3-9.3,16.9c-4.3,4.3-8.9,7.2-13.6,8.6c-4.7,1.4-9.2,1.5-13.6,0.4c-4.3-1.1-8.3-3.2-11.8-6.2l11.4-11.4
						C931.1,246.9,934.2,247.8,937.2,247.5L937.2,247.5z M926,209.6c-0.1-3.6-1.8-7-4.9-10.2c-3.5-3.5-7.1-5.2-10.8-5.3
						s-7.2,1.5-10.4,4.7s-4.7,6.7-4.6,10.5c0.1,3.8,1.8,7.3,5,10.6s6.5,4.8,10.3,4.9s7.4-1.5,11-5.1
						C924.6,216.6,926.1,213.2,926,209.6z"/>
				</g>
			</g>
			<polygon class="st7" points="123.9,0 170.8,121 201.1,90.8 164.7,0 			"/>
		</g>
	</g>
</g>
</svg>
