<?xml version="1.0" encoding="UTF-8"?><svg xmlns="http://www.w3.org/2000/svg" xmlns:xlink="http://www.w3.org/1999/xlink" viewBox="0 0 2400 400"><defs><style>.e{fill:url(#b);}.f{fill:#00b7e5;}.g{fill:#fff;}.h{fill:#a5e2fc;}.i{fill:#7ad6fa;}.i,.j{mix-blend-mode:multiply;}.j{fill:url(#c);}.k{isolation:isolate;}.l{fill:url(#d);opacity:.65;}</style><radialGradient id="b" cx="1497.53" cy="77.09" fx="1497.53" fy="77.09" r="857.81" gradientTransform="matrix(1, 0, 0, 1, 0, 0)" gradientUnits="userSpaceOnUse"><stop offset="0" stop-color="#a5e2fc"/><stop offset="1" stop-color="#00b7e5"/></radialGradient><linearGradient id="c" x1="117.3" y1="247.05" x2="99.52" y2="412.01" gradientTransform="matrix(1, 0, 0, 1, 0, 0)" gradientUnits="userSpaceOnUse"><stop offset="0" stop-color="#00b2db" stop-opacity=".7"/><stop offset="1" stop-color="#0064a1"/></linearGradient><radialGradient id="d" cx="119.22" cy="319.96" fx="119.22" fy="319.96" r="1764.64" gradientTransform="matrix(1, 0, 0, 1, 0, 0)" gradientUnits="userSpaceOnUse"><stop offset="0" stop-color="#003a8d"/><stop offset="1" stop-color="#000036"/></radialGradient></defs><g class="k"><g id="a"><rect class="e" width="2400" height="400"/><g><polygon class="g" points="2355.57 358.39 2361.7 365.56 2369.1 340.85 2372.42 343.07 2380.08 312.44 2383.15 315.4 2400 248.2 2390.3 240.54 2384.42 243.5 2358.63 205.94 2352.76 209.4 2348.93 195.07 2344.59 197.05 2318.28 160.48 2288.4 206.93 2275.13 196.8 2246.78 231.39 2245.5 227.19 2234.01 246.22 2228.14 252.89 2232.27 267.77 2237.62 268.17 2247.55 336.16 2279.47 330.23 2291.72 367.29 2298.11 361.11 2303.73 375.44 2307.05 372.23 2322.73 400 2347.76 400 2355.57 358.39"/><g><polygon class="h" points="2246.82 231.35 2246.78 231.39 2245.5 227.19 2243.16 231.07 2252.22 255.28 2246.82 231.35"/><polygon class="h" points="2314.19 174.65 2310.44 172.67 2288.53 206.73 2297.27 228.79 2314.19 174.65"/><polygon class="h" points="2318.52 160.81 2318.28 160.48 2310.44 172.67 2314.19 174.65 2318.52 160.81"/><polygon class="h" points="2337.19 186.76 2318.52 160.81 2314.19 174.65 2337.19 186.76"/><polygon class="h" points="2388.95 292.26 2398.63 253.65 2359.29 245.57 2388.95 292.26"/><polygon class="h" points="2230.53 261.49 2232.27 267.77 2237.35 268.15 2269.91 254.66 2230.53 261.49"/><polygon class="h" points="2390.05 240.66 2384.42 243.5 2384.2 243.18 2382.63 248.87 2390.05 240.66"/><polygon class="h" points="2348.81 195.13 2344.87 196.92 2341.41 223.14 2348.81 195.13"/><polygon class="h" points="2364.48 214.47 2358.63 205.94 2352.76 209.4 2352.73 209.32 2346.22 236.4 2364.48 214.47"/><polygon class="h" points="2267.18 206.5 2249.1 228.56 2281.59 227.78 2267.18 206.5"/><polygon class="h" points="2244.81 317.38 2247.55 336.16 2247.67 336.13 2294.37 291.08 2244.81 317.38"/><polygon class="h" points="2367.61 329.58 2334.88 266.25 2356.89 359.94 2361.7 365.56 2369.1 340.85 2372.42 343.07 2376.67 326.07 2368.16 308.82 2367.61 329.58"/><polygon class="h" points="2350.18 387.1 2343.98 377.44 2343.61 397.67 2323.25 330.46 2320.52 389.75 2317.06 374.44 2315.06 379.55 2309.25 353.33 2306.75 372.51 2307.05 372.23 2322.73 400 2347.76 400 2350.18 387.1"/><polygon class="h" points="2299.06 341.72 2301.43 324.31 2284.43 345.24 2291.72 367.29 2298.11 361.11 2302.95 373.46 2304.16 339.08 2299.06 341.72"/><polygon class="h" points="2331.9 218.67 2335.82 204.77 2301.63 234.9 2331.9 218.67"/><polygon class="h" points="2366.88 226.7 2361.66 223.63 2351.64 235.71 2362.28 225.51 2366.88 226.7"/><polygon class="h" points="2264.23 230.08 2269.1 235.02 2281.99 229.73 2264.23 230.08"/><polygon class="h" points="2304.6 265.41 2305.19 305.42 2318.82 253.8 2253.31 272.73 2304.6 265.41"/></g><path class="i" d="M2331.93,331.42c-.32-3.82-.67-7.74-2.29-11.24-1.89,1.36-3.77,2.73-5.66,4.09-.06-1.86-.11-3.72-.17-5.58-3.43,.58-6.66,2.2-9.13,4.58-.91-7.26-1.1-14.61-.57-21.91-5.43,5.17-10.86,10.35-16.29,15.52,.8-16.32,1.78-32.63,2.94-48.92-7.38,2.94-14.76,5.89-22.14,8.83,1.98-5.76,5.1-11.15,9.13-15.8-9.39,1.9-18.77,3.8-28.16,5.7,4.07-5.85,26.07-12.09,26.07-12.09l-10.79-.39,17.61-14.48-12.28-1.64,21.34-8.8,11.5-21.86s-13.95,5.37-15.67,6.2c6-16.74,13.65-31.29,17.62-48.04l-26.59,41.34-13.28-10.13-28.35,34.59-1.28-4.2-11.49,19.03-5.87,6.67,4.13,14.88,5.36,.4,9.92,67.99,31.92-5.93,12.26,37.06,6.38-6.18,5.62,14.33,3.32-3.21,15.69,27.77h14.98l-5.78-68.58Z"/><polygon class="f" points="2352.76 209.4 2350.64 227.65 2346.22 236.4 2352.76 209.4"/><polygon class="f" points="2331.9 218.67 2317 230.67 2301.63 234.9 2331.9 218.67"/><polygon class="f" points="2289.07 240.34 2274.03 238.72 2285.25 242.88 2289.07 240.34"/><polygon class="f" points="2288.35 209.85 2294.56 227.41 2280.12 208.47 2287.76 214.7 2288.35 209.85"/><polygon class="f" points="2250.28 237.91 2248.01 232.03 2248.97 230.41 2261.98 230.41 2250.76 232.6 2250.28 237.91"/><polygon class="f" points="2335.86 190.77 2340.14 198.2 2327.92 208.04 2337.38 197.85 2335.86 190.77"/><polygon class="f" points="2335.06 197.51 2328.63 204.76 2330.15 200.35 2335.06 197.51"/><polygon class="f" points="2342.1 208.21 2339.87 228.32 2339.7 211.4 2342.1 208.21"/><polygon class="h" points="2355.72 243.66 2367.28 262.93 2351.79 246.76 2352.41 238.79 2355.72 243.66"/><polygon class="h" points="2350.32 241.88 2349.21 246.28 2347.24 241.29 2350.32 241.88"/></g><g><polygon class="g" points="2179.61 247.76 2186.57 236.23 2187.35 238.78 2204.53 217.81 2212.58 223.95 2230.69 195.79 2246.64 217.96 2249.27 216.76 2251.59 225.45 2255.15 223.35 2270.79 246.12 2274.35 244.32 2280.23 248.96 2270.01 289.7 2268.16 287.91 2263.51 306.48 2261.5 305.13 2257.01 320.11 2253.29 315.77 2244.78 361.15 2223.88 324.15 2221.87 326.1 2218.46 317.41 2214.59 321.16 2207.16 298.69 2187.81 302.29 2181.79 261.07 2178.55 260.83 2176.05 251.81 2179.61 247.76"/><g><polygon class="h" points="2187.37 238.75 2187.35 238.78 2186.57 236.23 2185.15 238.58 2190.65 253.25 2187.37 238.75"/><polygon class="h" points="2228.21 204.38 2225.94 203.18 2212.66 223.83 2217.96 237.2 2228.21 204.38"/><polygon class="h" points="2230.83 195.99 2230.69 195.79 2225.94 203.18 2228.21 204.38 2230.83 195.99"/><polygon class="h" points="2242.15 211.72 2230.83 195.99 2228.21 204.38 2242.15 211.72"/><polygon class="h" points="2273.53 275.68 2279.4 252.27 2255.55 247.37 2273.53 275.68"/><polygon class="h" points="2177.49 257.02 2178.55 260.83 2181.63 261.06 2201.37 252.88 2177.49 257.02"/><polygon class="h" points="2274.2 244.39 2270.79 246.12 2270.65 245.92 2269.7 249.37 2274.2 244.39"/><polygon class="h" points="2249.2 216.79 2246.81 217.88 2244.71 233.77 2249.2 216.79"/><polygon class="h" points="2258.7 228.52 2255.15 223.35 2251.59 225.45 2251.58 225.39 2247.63 241.81 2258.7 228.52"/><polygon class="h" points="2199.71 223.68 2188.75 237.06 2208.45 236.58 2199.71 223.68"/><polygon class="h" points="2186.15 290.9 2187.81 302.29 2187.89 302.27 2216.2 274.96 2186.15 290.9"/><polygon class="h" points="2260.6 298.3 2240.76 259.91 2254.1 316.71 2257.01 320.11 2261.5 305.13 2263.51 306.48 2266.09 296.17 2260.93 285.72 2260.6 298.3"/><polygon class="h" points="2246.05 339.57 2233.7 298.83 2232.05 334.78 2229.95 325.5 2228.74 328.59 2225.21 312.7 2223.7 324.33 2223.88 324.15 2244.78 361.15 2250.03 333.17 2246.27 327.31 2246.05 339.57"/><polygon class="h" points="2219.04 305.66 2220.47 295.1 2210.17 307.79 2214.59 321.16 2218.46 317.41 2221.4 324.9 2222.13 304.06 2219.04 305.66"/><polygon class="h" points="2238.95 231.07 2241.32 222.64 2220.6 240.9 2238.95 231.07"/><polygon class="h" points="2260.15 235.93 2256.99 234.07 2250.91 241.39 2257.36 235.21 2260.15 235.93"/><polygon class="h" points="2197.93 237.98 2200.88 240.98 2208.69 237.77 2197.93 237.98"/><polygon class="h" points="2222.4 259.4 2222.75 283.66 2231.02 252.36 2191.31 263.83 2222.4 259.4"/></g><path class="i" d="M2237.58,292.6l-3.43,2.48c-.03-1.13-.07-2.25-.1-3.38-2.08,.35-4.04,1.34-5.54,2.78-.55-4.4-.67-8.86-.35-13.29l-9.88,9.41c.49-9.89,1.08-19.78,1.78-29.66-4.47,1.79-8.95,3.57-13.42,5.36,1.2-3.49,3.09-6.76,5.54-9.58-5.69,1.15-11.38,2.3-17.07,3.46,2.46-3.55,15.81-7.33,15.81-7.33l-6.54-.24,10.67-8.78-7.45-.99,12.94-5.34,6.97-13.25s-8.46,3.26-9.5,3.76c3.64-10.15,8.28-18.97,10.68-29.12l-16.12,25.06-8.05-6.14-17.18,20.97-.77-2.55-6.97,11.53-3.56,4.04,2.5,9.02,3.25,.24,6.02,41.22,19.35-3.59,7.43,22.47,3.87-3.74,3.41,8.69,2.01-1.95,20.18,35.73c-1.7-20.16-3.4-40.31-5.1-60.47-.2-2.32-.4-4.69-1.39-6.81Z"/><polygon class="f" points="2251.59 225.45 2250.31 236.51 2247.63 241.81 2251.59 225.45"/><polygon class="f" points="2238.95 231.07 2229.92 238.34 2220.6 240.9 2238.95 231.07"/><polygon class="f" points="2212.98 244.2 2203.87 243.22 2210.67 245.74 2212.98 244.2"/><polygon class="f" points="2212.55 225.72 2216.31 236.36 2207.56 224.88 2212.19 228.66 2212.55 225.72"/><polygon class="f" points="2189.47 242.73 2188.09 239.16 2188.67 238.18 2196.56 238.18 2189.76 239.51 2189.47 242.73"/><polygon class="f" points="2241.35 214.15 2243.94 218.65 2236.53 224.62 2242.27 218.44 2241.35 214.15"/><polygon class="f" points="2240.86 218.23 2236.97 222.63 2237.89 219.96 2240.86 218.23"/><polygon class="f" points="2245.13 224.72 2243.78 236.92 2243.67 226.66 2245.13 224.72"/><polygon class="h" points="2253.39 246.22 2260.39 257.89 2251.01 248.09 2251.38 243.26 2253.39 246.22"/><polygon class="h" points="2250.11 245.13 2249.44 247.8 2248.25 244.77 2250.11 245.13"/></g><g><g><polygon class="g" points="195.08 374.69 201.2 380.62 234.91 246.21 215.5 230.89 203.76 236.82 152.17 161.7 140.43 168.62 132.77 139.96 124.08 143.91 71.48 70.78 11.72 163.68 0 154.74 0 400 188.75 400 195.08 374.69"/><g><polygon class="h" points="63.29 99.11 55.79 95.16 11.98 163.28 29.46 207.39 63.29 99.11"/><polygon class="h" points="71.94 71.43 71.48 70.78 55.79 95.16 63.29 99.11 71.94 71.43"/><polygon class="h" points="109.28 123.34 71.94 71.43 63.29 99.11 109.28 123.34"/><polygon class="h" points="212.81 334.34 232.18 257.11 153.49 240.95 212.81 334.34"/><polygon class="h" points="215.02 231.13 203.76 236.82 203.32 236.18 200.18 247.56 215.02 231.13"/><polygon class="h" points="132.53 140.07 124.65 143.66 117.73 196.1 132.53 140.07"/><polygon class="h" points="163.88 178.75 152.17 161.7 140.43 168.62 140.38 168.45 127.35 222.62 163.88 178.75"/><polygon class="h" points="0 344.53 0 354.8 23.65 331.98 0 344.53"/><polygon class="h" points="104.68 282.32 132.32 400 165.5 400 104.68 282.32"/><polygon class="h" points="171.23 367.46 170.37 400 187.29 400 171.23 367.46"/><polygon class="h" points="37.77 398.43 36.49 400 37.55 400 37.77 398.43"/><polygon class="h" points="98.71 187.16 106.55 159.35 38.17 219.61 98.71 187.16"/><polygon class="h" points="168.67 203.22 158.24 197.08 138.19 221.23 159.47 200.85 168.67 203.22"/><polygon class="h" points="0 278.38 0 286.93 44.1 280.64 45.29 360.66 72.56 257.41 0 278.38"/></g><polygon class="i" points="19.89 229.27 0 226.62 0 245.62 19.89 229.27"/><path class="i" d="M6.25,259.01L0,258.78v2.12c3.82-1.2,6.25-1.89,6.25-1.89Z"/><path class="i" d="M38,208.39l23-43.72s-27.91,10.74-31.35,12.41c12.01-33.48,27.3-62.58,35.25-96.08L11.72,163.68,0,154.74v69.33l38-15.67Z"/><path class="i" d="M94.19,390.18c-3.77,2.73-7.54,5.45-11.31,8.18-.11-3.72-.22-7.44-.33-11.16-6.86,1.16-13.33,4.4-18.27,9.16-1.83-14.53-2.21-29.23-1.14-43.83-10.86,10.35-21.73,20.69-32.59,31.04,1.61-32.64,3.57-65.25,5.88-97.85C24.28,290.57,12.14,295.41,0,300.26v99.74H97.24c-.65-3.38-1.59-6.68-3.05-9.82Z"/><path class="i" d="M10.42,271.79c-3.47,.7-6.95,1.41-10.42,2.11v12.43c3.01-5.14,6.49-10.02,10.42-14.54Z"/><polygon class="f" points="140.43 168.62 136.19 205.12 127.35 222.62 140.43 168.62"/><polygon class="f" points="98.71 187.16 68.92 211.16 38.17 219.61 98.71 187.16"/><polygon class="f" points="13.05 230.5 0 229.09 0 233.57 5.41 235.58 13.05 230.5"/><polygon class="f" points="11.62 169.52 10.43 179.22 0 170.71 0 173.11 24.03 204.63 11.62 169.52"/><polygon class="f" points="106.63 131.36 115.2 146.21 90.75 165.89 109.66 145.52 106.63 131.36"/><polygon class="f" points="105.03 144.83 92.18 159.33 95.21 150.53 105.03 144.83"/><polygon class="f" points="119.12 166.24 114.66 206.46 114.3 172.62 119.12 166.24"/><polygon class="h" points="146.36 237.14 169.46 275.67 138.5 243.33 139.72 227.39 146.36 237.14"/><polygon class="h" points="135.55 233.58 133.33 242.38 129.4 232.39 135.55 233.58"/></g><polygon class="j" points="195.08 374.69 201.2 380.62 233.94 250.07 0 250.07 0 400 188.75 400 195.08 374.69"/></g><rect class="l" y="250.12" width="2400" height="149.88"/></g></g></svg>