<?xml version="1.0" encoding="UTF-8"?><svg xmlns="http://www.w3.org/2000/svg" xmlns:xlink="http://www.w3.org/1999/xlink" viewBox="0 0 2400 600"><defs><style>.e{fill:url(#b);}.f{fill:#00b7e5;}.g{fill:#fff;}.h{fill:#a5e2fc;}.i{fill:#7ad6fa;}.i,.j{mix-blend-mode:multiply;}.j{fill:url(#c);}.k{isolation:isolate;}.l{fill:url(#d);opacity:.65;}</style><radialGradient id="b" cx="1497.53" cy="115.64" fx="1497.53" fy="115.64" r="916.64" gradientTransform="matrix(1, 0, 0, 1, 0, 0)" gradientUnits="userSpaceOnUse"><stop offset="0" stop-color="#a5e2fc"/><stop offset="1" stop-color="#00b7e5"/></radialGradient><linearGradient id="c" x1="152.93" y1="400.59" x2="129.74" y2="615.65" gradientTransform="matrix(1, 0, 0, 1, 0, 0)" gradientUnits="userSpaceOnUse"><stop offset="0" stop-color="#00b2db" stop-opacity=".7"/><stop offset="1" stop-color="#0064a1"/></linearGradient><radialGradient id="d" cx="119.22" cy="495.61" fx="119.22" fy="495.61" r="1765.4" gradientTransform="matrix(1, 0, 0, 1, 0, 0)" gradientUnits="userSpaceOnUse"><stop offset="0" stop-color="#003a8d"/><stop offset="1" stop-color="#000036"/></radialGradient></defs><g class="k"><g id="a"><rect class="e" width="2400" height="600"/><g><g><polygon class="g" points="2337.01 541.02 2345.7 551.18 2356.2 516.15 2360.91 519.31 2371.77 475.88 2376.11 480.08 2400 384.82 2386.24 373.96 2377.92 378.16 2341.36 324.93 2333.03 329.83 2327.6 309.51 2321.45 312.32 2284.17 260.48 2241.81 326.33 2222.99 311.97 2182.81 361 2181 355.05 2164.71 382.01 2156.39 391.47 2162.24 412.56 2169.83 413.13 2183.9 509.5 2229.14 501.09 2246.52 553.63 2255.57 544.87 2263.53 565.19 2268.24 560.63 2290.48 600 2325.95 600 2337.01 541.02"/><g><polygon class="h" points="2182.86 360.93 2182.81 361 2181 355.05 2177.68 360.54 2190.53 394.85 2182.86 360.93"/><polygon class="h" points="2278.36 280.56 2273.05 277.76 2242 326.04 2254.39 357.3 2278.36 280.56"/><polygon class="h" points="2284.5 260.94 2284.17 260.48 2273.05 277.76 2278.36 280.56 2284.5 260.94"/><polygon class="h" points="2310.96 297.73 2284.5 260.94 2278.36 280.56 2310.96 297.73"/><polygon class="h" points="2384.33 447.28 2398.06 392.54 2342.29 381.09 2384.33 447.28"/><polygon class="h" points="2159.77 403.67 2162.24 412.56 2169.45 413.1 2215.6 393.98 2159.77 403.67"/><polygon class="h" points="2385.9 374.13 2377.92 378.16 2377.61 377.71 2375.38 385.78 2385.9 374.13"/><polygon class="h" points="2327.43 309.59 2321.85 312.13 2316.95 349.3 2327.43 309.59"/><polygon class="h" points="2349.66 337.01 2341.36 324.93 2333.03 329.83 2333 329.71 2323.76 368.1 2349.66 337.01"/><polygon class="h" points="2211.73 325.71 2186.1 356.99 2232.15 355.87 2211.73 325.71"/><polygon class="h" points="2180.01 482.89 2183.9 509.5 2184.08 509.47 2250.27 445.61 2180.01 482.89"/><polygon class="h" points="2354.09 500.18 2307.7 410.41 2338.89 543.22 2345.7 551.18 2356.2 516.15 2360.91 519.31 2366.93 495.21 2354.86 470.76 2354.09 500.18"/><polygon class="h" points="2329.38 581.71 2320.58 568.01 2320.07 596.69 2291.2 501.43 2287.34 585.47 2282.44 563.78 2279.6 571.01 2271.36 533.85 2267.82 561.04 2268.24 560.63 2290.48 600 2325.95 600 2329.38 581.71"/><polygon class="h" points="2256.92 517.39 2260.27 492.7 2236.18 522.37 2246.52 553.63 2255.57 544.87 2262.43 562.38 2264.14 513.65 2256.92 517.39"/><polygon class="h" points="2303.46 342.97 2309.02 323.26 2260.56 365.96 2303.46 342.97"/><polygon class="h" points="2353.05 354.35 2345.66 350 2331.45 367.12 2346.53 352.67 2353.05 354.35"/><polygon class="h" points="2207.55 359.14 2214.45 366.15 2232.73 358.64 2207.55 359.14"/><polygon class="h" points="2264.76 409.22 2265.6 465.94 2284.93 392.76 2192.07 419.59 2264.76 409.22"/></g><path class="i" d="M2303.51,502.79c-.46-5.42-.95-10.97-3.25-15.93-2.67,1.93-5.34,3.86-8.02,5.79-.08-2.64-.16-5.27-.24-7.91-4.86,.82-9.45,3.12-12.95,6.49-1.29-10.3-1.57-20.72-.81-31.06-7.7,7.33-15.4,14.67-23.1,22,1.14-23.13,2.53-46.25,4.17-69.35-10.46,4.17-20.92,8.35-31.38,12.52,2.8-8.17,7.22-15.81,12.95-22.4-13.31,2.69-26.61,5.39-39.92,8.08,5.76-8.29,36.96-17.14,36.96-17.14l-15.29-.56,24.96-20.52-17.41-2.32,30.25-12.48,16.3-30.99s-19.78,7.61-22.22,8.79c8.51-23.73,19.35-44.35,24.98-68.1l-37.69,58.6-18.82-14.36-40.18,49.03-1.81-5.95-16.29,26.97-8.33,9.46,5.85,21.09,7.59,.57,14.07,96.37,45.25-8.41,17.38,52.54,9.05-8.76,7.96,20.31,4.71-4.55,22.24,39.37h21.24l-8.2-97.21Z"/><polygon class="f" points="2333.03 329.83 2330.03 355.69 2323.76 368.1 2333.03 329.83"/><polygon class="f" points="2303.46 342.97 2282.35 359.98 2260.56 365.96 2303.46 342.97"/><polygon class="f" points="2242.76 373.68 2221.44 371.39 2237.34 377.28 2242.76 373.68"/><polygon class="f" points="2241.74 330.47 2250.54 355.35 2230.07 328.5 2240.9 337.34 2241.74 330.47"/><polygon class="f" points="2187.77 370.24 2184.56 361.89 2185.91 359.6 2204.35 359.6 2188.45 362.71 2187.77 370.24"/><polygon class="f" points="2309.08 303.42 2315.15 313.94 2297.83 327.89 2311.23 313.45 2309.08 303.42"/><polygon class="f" points="2307.94 312.96 2298.84 323.24 2300.99 317 2307.94 312.96"/><polygon class="f" points="2317.93 328.14 2314.77 356.65 2314.52 332.66 2317.93 328.14"/><polygon class="h" points="2337.24 378.39 2353.61 405.7 2331.66 382.78 2332.54 371.48 2337.24 378.39"/><polygon class="h" points="2329.57 375.87 2328.01 382.1 2325.22 375.02 2329.57 375.87"/></g><g><polygon class="g" points="2087.59 384.2 2097.47 367.86 2098.56 371.47 2122.92 341.74 2134.33 350.45 2160.01 310.53 2182.61 341.95 2186.34 340.25 2189.63 352.57 2194.68 349.6 2216.84 381.87 2221.89 379.32 2230.23 385.9 2215.74 443.65 2213.11 441.11 2206.53 467.43 2203.67 465.52 2197.31 486.76 2192.04 480.6 2179.98 544.93 2150.35 492.49 2147.5 495.25 2142.67 482.93 2137.18 488.24 2126.65 456.39 2099.22 461.49 2090.69 403.07 2086.09 402.72 2082.54 389.94 2087.59 384.2"/><g><polygon class="h" points="2098.6 371.43 2098.56 371.47 2097.47 367.86 2095.45 371.19 2103.24 391.99 2098.6 371.43"/><polygon class="h" points="2156.49 322.7 2153.27 321.01 2134.44 350.27 2141.95 369.22 2156.49 322.7"/><polygon class="h" points="2160.21 310.81 2160.01 310.53 2153.27 321.01 2156.49 322.7 2160.21 310.81"/><polygon class="h" points="2176.25 333.11 2160.21 310.81 2156.49 322.7 2176.25 333.11"/><polygon class="h" points="2220.73 423.77 2229.05 390.59 2195.24 383.65 2220.73 423.77"/><polygon class="h" points="2084.59 397.33 2086.09 402.72 2090.46 403.05 2118.44 391.46 2084.59 397.33"/><polygon class="h" points="2221.68 379.43 2216.84 381.87 2216.65 381.59 2215.3 386.49 2221.68 379.43"/><polygon class="h" points="2186.24 340.3 2182.85 341.84 2179.88 364.37 2186.24 340.3"/><polygon class="h" points="2199.71 356.92 2194.68 349.6 2189.63 352.57 2189.61 352.49 2184.01 375.77 2199.71 356.92"/><polygon class="h" points="2116.09 350.07 2100.56 369.03 2128.47 368.36 2116.09 350.07"/><polygon class="h" points="2096.87 445.36 2099.22 461.49 2099.33 461.47 2139.46 422.76 2096.87 445.36"/><polygon class="h" points="2202.4 455.84 2174.27 401.42 2193.18 481.93 2197.31 486.76 2203.67 465.52 2206.53 467.43 2210.18 452.83 2202.86 438 2202.4 455.84"/><polygon class="h" points="2181.77 514.35 2164.27 456.6 2161.93 507.54 2158.96 494.39 2157.24 498.78 2152.24 476.25 2150.1 492.73 2150.35 492.49 2179.98 544.93 2187.42 505.27 2182.08 496.96 2181.77 514.35"/><polygon class="h" points="2143.49 466.27 2145.52 451.31 2130.92 469.29 2137.18 488.24 2142.67 482.93 2146.83 493.55 2147.87 464.01 2143.49 466.27"/><polygon class="h" points="2171.71 360.53 2175.07 348.58 2145.7 374.47 2171.71 360.53"/><polygon class="h" points="2201.77 367.43 2197.28 364.8 2188.67 375.17 2197.81 366.41 2201.77 367.43"/><polygon class="h" points="2113.56 370.34 2117.74 374.59 2128.82 370.03 2113.56 370.34"/><polygon class="h" points="2148.24 400.7 2148.75 435.08 2160.47 390.72 2104.18 406.98 2148.24 400.7"/></g><path class="i" d="M2169.76,447.76l-4.86,3.51c-.05-1.6-.1-3.2-.14-4.79-2.95,.5-5.73,1.89-7.85,3.93-.78-6.24-.95-12.56-.49-18.83l-14,13.34c.69-14.02,1.53-28.04,2.53-42.04-6.34,2.53-12.68,5.06-19.02,7.59,1.7-4.95,4.38-9.59,7.85-13.58-8.07,1.63-16.13,3.27-24.2,4.9,3.49-5.03,22.41-10.39,22.41-10.39l-9.27-.34,15.13-12.44-10.55-1.41,18.34-7.56,9.88-18.79s-11.99,4.61-13.47,5.33c5.16-14.39,11.73-26.89,15.14-41.28l-22.85,35.52-11.41-8.71-24.36,29.72-1.1-3.61-9.87,16.35-5.05,5.73,3.55,12.79,4.6,.34,8.53,58.42,27.43-5.1,10.53,31.85,5.49-5.31,4.83,12.31,2.85-2.76,28.61,50.65c-2.41-28.57-4.82-57.15-7.23-85.72-.28-3.29-.57-6.65-1.97-9.66Z"/><polygon class="f" points="2189.63 352.57 2187.81 368.25 2184.01 375.77 2189.63 352.57"/><polygon class="f" points="2171.71 360.53 2158.91 370.84 2145.7 374.47 2171.71 360.53"/><polygon class="f" points="2134.9 379.15 2121.98 377.76 2131.62 381.34 2134.9 379.15"/><polygon class="f" points="2134.29 352.96 2139.62 368.04 2127.21 351.76 2133.77 357.12 2134.29 352.96"/><polygon class="f" points="2101.57 377.07 2099.62 372.01 2100.44 370.62 2111.62 370.62 2101.98 372.5 2101.57 377.07"/><polygon class="f" points="2175.11 336.56 2178.79 342.94 2168.29 351.4 2176.41 342.64 2175.11 336.56"/><polygon class="f" points="2174.42 342.35 2168.9 348.58 2170.2 344.79 2174.42 342.35"/><polygon class="f" points="2180.48 351.54 2178.56 368.83 2178.41 354.29 2180.48 351.54"/><polygon class="h" points="2192.18 382.01 2202.11 398.56 2188.8 384.67 2189.33 377.82 2192.18 382.01"/><polygon class="h" points="2187.53 380.48 2186.58 384.26 2184.89 379.97 2187.53 380.48"/></g></g><g><g><polygon class="g" points="254.33 567 262.32 574.73 306.27 399.49 280.96 379.52 265.65 387.25 198.4 289.32 183.08 298.34 173.09 260.98 161.77 266.13 93.19 170.78 15.28 291.9 0 280.24 0 600 246.08 600 254.33 567"/><g><polygon class="h" points="82.52 207.72 72.74 202.57 15.62 291.38 38.41 348.88 82.52 207.72"/><polygon class="h" points="93.8 171.62 93.19 170.78 72.74 202.57 82.52 207.72 93.8 171.62"/><polygon class="h" points="142.48 239.3 93.8 171.62 82.52 207.72 142.48 239.3"/><polygon class="h" points="277.45 514.4 302.7 413.7 200.11 392.64 277.45 514.4"/><polygon class="h" points="280.33 379.84 265.65 387.25 265.08 386.42 260.98 401.26 280.33 379.84"/><polygon class="h" points="172.78 261.12 162.51 265.79 153.49 334.16 172.78 261.12"/><polygon class="h" points="213.66 311.55 198.4 289.32 183.08 298.34 183.02 298.12 166.03 368.74 213.66 311.55"/><polygon class="h" points="0 527.68 0 541.07 30.83 511.32 0 527.68"/><polygon class="h" points="136.48 446.57 172.52 600 215.76 600 136.48 446.57"/><polygon class="h" points="223.24 557.58 222.12 600 244.17 600 223.24 557.58"/><polygon class="h" points="49.24 597.95 47.57 600 48.96 600 49.24 597.95"/><polygon class="h" points="128.69 322.51 138.91 286.25 49.77 364.81 128.69 322.51"/><polygon class="h" points="219.91 343.45 206.3 335.45 180.16 366.94 207.91 340.35 219.91 343.45"/><polygon class="h" points="0 441.44 0 452.59 57.5 444.39 59.05 548.72 94.6 414.1 0 441.44"/></g><polygon class="i" points="25.93 377.41 0 373.96 0 398.73 25.93 377.41"/><path class="i" d="M8.14,416.18l-8.14-.3v2.77c4.98-1.57,8.14-2.47,8.14-2.47Z"/><path class="i" d="M49.54,350.2l29.99-57s-36.38,14-40.87,16.18c15.66-43.65,35.6-81.58,45.95-125.26L15.28,291.9l-15.28-11.66v90.39l49.54-20.43Z"/><path class="i" d="M122.8,587.2c-4.92,3.55-9.83,7.11-14.75,10.66-.14-4.85-.29-9.7-.43-14.54-8.94,1.52-17.38,5.74-23.82,11.94-2.38-18.94-2.88-38.11-1.49-57.14-14.16,13.49-28.32,26.98-42.49,40.47,2.09-42.55,4.65-85.07,7.66-127.57-15.83,6.32-31.66,12.63-47.49,18.95v130.04H126.78c-.85-4.4-2.08-8.71-3.98-12.8Z"/><path class="i" d="M13.59,432.84c-4.53,.92-9.06,1.83-13.59,2.75v16.21c3.92-6.7,8.46-13.06,13.59-18.96Z"/><polygon class="f" points="183.08 298.34 177.56 345.92 166.03 368.74 183.08 298.34"/><polygon class="f" points="128.69 322.51 89.85 353.8 49.77 364.81 128.69 322.51"/><polygon class="f" points="17.02 379.01 0 377.18 0 383.02 7.06 385.63 17.02 379.01"/><polygon class="f" points="15.15 299.51 13.59 312.16 0 301.06 0 304.19 31.33 345.28 15.15 299.51"/><polygon class="f" points="139.02 249.77 150.19 269.12 118.32 294.78 142.97 268.22 139.02 249.77"/><polygon class="f" points="136.93 267.32 120.18 286.23 124.13 274.75 136.93 267.32"/><polygon class="f" points="155.3 295.23 149.49 347.67 149.02 303.56 155.3 295.23"/><polygon class="h" points="190.82 387.68 220.94 437.9 180.56 395.74 182.17 374.97 190.82 387.68"/><polygon class="h" points="176.72 383.03 173.83 394.5 168.71 381.48 176.72 383.03"/></g><polygon class="j" points="254.33 567 262.32 574.73 305 404.52 0 404.52 0 600 246.08 600 254.33 567"/></g><rect class="l" y="404.52" width="2400" height="195.48"/></g></g></svg>