<?xml version="1.0" encoding="utf-8"?>
<!-- Generator: Adobe Illustrator 25.2.1, SVG Export Plug-In . SVG Version: 6.00 Build 0)  -->
<svg version="1.1" id="Layer_1" xmlns:svgjs="http://svgjs.com/svgjs"
	 xmlns="http://www.w3.org/2000/svg" xmlns:xlink="http://www.w3.org/1999/xlink" x="0px" y="0px" viewBox="0 0 34 34"
	 style="enable-background:new 0 0 34 34;" xml:space="preserve">
<style type="text/css">
	.st0{fill:#FFFFFF;stroke:#FFFFFF;stroke-miterlimit:10;}
	.st1{fill:#FFFFFF;stroke:#FFFFFF;stroke-width:0.5;stroke-miterlimit:10;}
	.st2{fill:#FFFFFF;}
</style>
<g>
	<g id="Layer_2_1_">
		<path class="st0" d="M28,1.9c2.3,0,4.1,1.8,4.1,4.1v22c0,2.3-1.8,4.1-4.1,4.1H6c-2.3,0-4.1-1.8-4.1-4.1V6c0-2.3,1.8-4.1,4.1-4.1
			C6,1.9,28,1.9,28,1.9z M28,0.5H6C3,0.5,0.5,3,0.5,6v22c0,3,2.5,5.5,5.5,5.5h22c3,0,5.5-2.5,5.5-5.5V6C33.5,3,31,0.5,28,0.5z"/>
	</g>
	<g id="Layer_3">
		<path class="st1" d="M25.2,22.5H8.8c-0.4,0-0.7-0.3-0.7-0.7V8.1c0-0.4,0.3-0.7,0.7-0.7h16.5c0.4,0,0.7,0.3,0.7,0.7v13.8
			C25.9,22.2,25.6,22.5,25.2,22.5z M9.4,21.1h15.1V8.8H9.4V21.1z"/>
		<path class="st1" d="M26.6,8.8H7.4C7,8.8,6.7,8.4,6.7,8.1S7,7.4,7.4,7.4h19.2c0.4,0,0.7,0.3,0.7,0.7C27.3,8.5,27,8.8,26.6,8.8z"/>
		<path class="st1" d="M26.6,22.5H7.4c-0.4,0-0.7-0.3-0.7-0.7s0.3-0.7,0.7-0.7h19.2c0.4,0,0.7,0.3,0.7,0.7S27,22.5,26.6,22.5z"/>
		<path class="st1" d="M19.8,26.6c-0.2,0-0.4-0.1-0.6-0.3L17,23.1l-2.2,3.3c-0.2,0.3-0.6,0.4-1,0.2c-0.3-0.2-0.4-0.6-0.2-1l0,0
			l2.8-4.1c0.2-0.3,0.7-0.4,1-0.1c0.1,0,0.1,0.1,0.1,0.1l2.8,4.1c0.2,0.3,0.1,0.7-0.2,1C20,26.6,19.9,26.6,19.8,26.6L19.8,26.6z"/>
		<path class="st2" d="M12.9,18.4c-0.4,0-0.7-0.3-0.7-0.7v-2.8c0-0.4,0.3-0.7,0.7-0.7s0.7,0.3,0.7,0.7v2.8
			C13.6,18.1,13.3,18.4,12.9,18.4z"/>
		<path class="st2" d="M17,18.4c-0.4,0-0.7-0.3-0.7-0.7v-6.9c0-0.4,0.3-0.7,0.7-0.7s0.7,0.3,0.7,0.7v6.9
			C17.7,18.1,17.4,18.4,17,18.4z"/>
		<path class="st2" d="M21.1,18.4c-0.4,0-0.7-0.3-0.7-0.7v-4.1c0-0.4,0.3-0.7,0.7-0.7s0.7,0.3,0.7,0.7v4.1
			C21.8,18.1,21.5,18.4,21.1,18.4z"/>
	</g>
</g>
</svg>
