<svg width="35" height="35" viewBox="0 0 35 35" fill="none" xmlns="http://www.w3.org/2000/svg">
<path d="M33.8818 31.8795L25.5517 23.2158C27.6935 20.6697 28.867 17.4662 28.867 14.1312C28.867 6.3394 22.5276 0 14.7358 0C6.94396 0 0.604568 6.3394 0.604568 14.1312C0.604568 21.9231 6.94396 28.2625 14.7358 28.2625C17.661 28.2625 20.4485 27.3802 22.8318 25.7053L31.2251 34.4348C31.5759 34.7991 32.0478 35 32.5534 35C33.0321 35 33.4861 34.8175 33.8308 34.4857C34.5632 33.781 34.5865 32.6124 33.8818 31.8795ZM14.7358 3.68641C20.4952 3.68641 25.1806 8.37184 25.1806 14.1312C25.1806 19.8906 20.4952 24.5761 14.7358 24.5761C8.9764 24.5761 4.29098 19.8906 4.29098 14.1312C4.29098 8.37184 8.9764 3.68641 14.7358 3.68641Z" fill="white"/>
</svg>
