<svg width="42" height="42" viewBox="0 0 42 42" fill="none" xmlns="http://www.w3.org/2000/svg">
<path d="M21.0001 12.7843C19.9212 12.7843 18.8529 12.9968 17.8562 13.4096C16.8595 13.8225 15.9538 14.4276 15.191 15.1905C14.4281 15.9533 13.823 16.859 13.4101 17.8557C12.9973 18.8524 12.7848 19.9207 12.7848 20.9996C12.7848 22.0784 12.9973 23.1467 13.4101 24.1434C13.823 25.1402 14.4281 26.0458 15.191 26.8087C15.9538 27.5715 16.8595 28.1767 17.8562 28.5895C18.8529 29.0024 19.9212 29.2149 21.0001 29.2149C23.1789 29.2149 25.2685 28.3493 26.8092 26.8087C28.3498 25.268 29.2154 23.1784 29.2154 20.9996C29.2154 18.8207 28.3498 16.7312 26.8092 15.1905C25.2685 13.6498 23.1789 12.7843 21.0001 12.7843ZM15.4849 20.9996C15.4849 19.5369 16.0659 18.134 17.1002 17.0997C18.1345 16.0654 19.5373 15.4844 21.0001 15.4844C22.4628 15.4844 23.8656 16.0654 24.8999 17.0997C25.9342 18.134 26.5153 19.5369 26.5153 20.9996C26.5153 22.4623 25.9342 23.8651 24.8999 24.8994C23.8656 25.9337 22.4628 26.5148 21.0001 26.5148C19.5373 26.5148 18.1345 25.9337 17.1002 24.8994C16.0659 23.8651 15.4849 22.4623 15.4849 20.9996Z" fill="white" stroke="white" stroke-width="0.2"/>
<mask id="path-2-outside-1" maskUnits="userSpaceOnUse" x="0" y="0" width="42" height="42" fill="black">
<rect fill="white" width="42" height="42"/>
<path d="M25.4897 4.35638C24.1721 -0.118792 17.8269 -0.118792 16.5093 4.35638L16.2743 5.15391C16.1823 5.4663 16.0216 5.75414 15.8038 5.99633C15.5861 6.23853 15.317 6.42893 15.0161 6.55359C14.7153 6.67825 14.3903 6.734 14.0651 6.71676C13.7399 6.69952 13.4227 6.60972 13.1367 6.45395L12.4067 6.05394C8.30652 3.82386 3.82386 8.30902 6.05644 12.4067L6.45395 13.1367C6.60972 13.4227 6.69952 13.7399 6.71676 14.0651C6.734 14.3903 6.67825 14.7153 6.55359 15.0161C6.42893 15.317 6.23853 15.5861 5.99633 15.8038C5.75414 16.0216 5.4663 16.1823 5.15391 16.2743L4.35638 16.5093C-0.118792 17.8269 -0.118792 24.1721 4.35638 25.4897L5.15391 25.7247C5.4663 25.8167 5.75414 25.9774 5.99633 26.1952C6.23853 26.4129 6.42893 26.682 6.55359 26.9829C6.67825 27.2837 6.734 27.6087 6.71676 27.9339C6.69952 28.2591 6.60972 28.5763 6.45395 28.8623L6.05394 29.5923C3.82386 33.6925 8.30652 38.1776 12.4067 35.9426L13.1367 35.545C13.4227 35.3893 13.7399 35.2995 14.0651 35.2822C14.3903 35.265 14.7153 35.3208 15.0161 35.4454C15.317 35.5701 15.5861 35.7605 15.8038 36.0027C16.0216 36.2449 16.1823 36.5327 16.2743 36.8451L16.5093 37.6426C17.8269 42.1178 24.1721 42.1178 25.4897 37.6426L25.7247 36.8451C25.8167 36.5327 25.9774 36.2449 26.1952 36.0027C26.4129 35.7605 26.682 35.5701 26.9829 35.4454C27.2837 35.3208 27.6087 35.265 27.9339 35.2822C28.2591 35.2995 28.5763 35.3893 28.8623 35.545L29.5923 35.9451C33.6925 38.1776 38.1776 33.69 35.9426 29.5923L35.545 28.8623C35.3893 28.5763 35.2995 28.2591 35.2822 27.9339C35.265 27.6087 35.3208 27.2837 35.4454 26.9829C35.5701 26.682 35.7605 26.4129 36.0027 26.1952C36.2449 25.9774 36.5327 25.8167 36.8451 25.7247L37.6426 25.4897C42.1178 24.1721 42.1178 17.8269 37.6426 16.5093L36.8451 16.2743C36.5327 16.1823 36.2449 16.0216 36.0027 15.8038C35.7605 15.5861 35.5701 15.317 35.4454 15.0161C35.3208 14.7153 35.265 14.3903 35.2822 14.0651C35.2995 13.7399 35.3893 13.4227 35.545 13.1367L35.9451 12.4067C38.1776 8.30652 33.69 3.82386 29.5923 6.05644L28.8623 6.45395C28.5763 6.60972 28.2591 6.69952 27.9339 6.71676C27.6087 6.734 27.2837 6.67825 26.9829 6.55359C26.682 6.42893 26.4129 6.23853 26.1952 5.99633C25.9774 5.75414 25.8167 5.4663 25.7247 5.15391L25.4897 4.35638ZM18.9069 5.0639C19.5219 2.97632 22.4771 2.97632 23.0921 5.0639L23.3271 5.86143C23.5246 6.53167 23.8697 7.1492 24.3369 7.66875C24.8042 8.1883 25.3818 8.59669 26.0274 8.86399C26.673 9.1313 27.3702 9.25073 28.068 9.21353C28.7657 9.17634 29.4463 8.98346 30.0598 8.64904L30.7874 8.24902C32.6974 7.21148 34.7875 9.29906 33.7475 11.2116L33.35 11.9417C33.016 12.5553 32.8236 13.2358 32.7868 13.9334C32.7501 14.631 32.8698 15.328 33.1373 15.9733C33.4049 16.6186 33.8134 17.1959 34.3329 17.6628C34.8525 18.1298 35.47 18.4746 36.1401 18.6719L36.9351 18.9069C39.0227 19.5219 39.0227 22.4771 36.9351 23.0921L36.1376 23.3271C35.4673 23.5246 34.8498 23.8697 34.3303 24.3369C33.8107 24.8042 33.4023 25.3818 33.135 26.0274C32.8677 26.673 32.7483 27.3702 32.7855 28.068C32.8227 28.7657 33.0155 29.4463 33.35 30.0598L33.75 30.7874C34.7875 32.6974 32.6999 34.7875 30.7874 33.7475L30.0598 33.35C29.4462 33.0156 28.7654 32.8228 28.0675 32.7858C27.3696 32.7487 26.6723 32.8684 26.0266 33.1359C25.381 33.4035 24.8035 33.8122 24.3363 34.332C23.8692 34.8518 23.5244 35.4696 23.3271 36.1401L23.0921 36.9351C22.4771 39.0227 19.5219 39.0227 18.9069 36.9351L18.6719 36.1376C18.4743 35.4677 18.1293 34.8505 17.6622 34.3312C17.1951 33.8119 16.6178 33.4037 15.9725 33.1364C15.3273 32.8692 14.6304 32.7496 13.9329 32.7866C13.2354 32.8235 12.5551 33.016 11.9417 33.35L11.2116 33.75C9.30156 34.7875 7.21148 32.6999 8.25152 30.7874L8.64904 30.0598C8.98393 29.4462 9.17719 28.7654 9.21463 28.0674C9.25207 27.3693 9.13274 26.6717 8.86541 26.0258C8.59807 25.3799 8.18951 24.802 7.6697 24.3346C7.14989 23.8672 6.53202 23.5221 5.86143 23.3246L5.0639 23.0896C2.97632 22.4746 2.97632 19.5194 5.0639 18.9044L5.86143 18.6694C6.53097 18.4717 7.14783 18.1267 7.66686 17.6598C8.18588 17.1929 8.59395 16.6159 8.86118 15.971C9.12841 15.326 9.24805 14.6294 9.21135 13.9323C9.17464 13.2351 8.98252 12.555 8.64904 11.9417L8.24902 11.2116C7.21148 9.30156 9.29906 7.21148 11.2116 8.25152L11.9417 8.64904C12.5551 8.98299 13.2354 9.17549 13.9329 9.21244C14.6304 9.24939 15.3273 9.12985 15.9725 8.86259C16.6178 8.59532 17.1951 8.18709 17.6622 7.6678C18.1293 7.14852 18.4743 6.53132 18.6719 5.86143L18.9069 5.0639Z"/>
</mask>
<path d="M25.4897 4.35638C24.1721 -0.118792 17.8269 -0.118792 16.5093 4.35638L16.2743 5.15391C16.1823 5.4663 16.0216 5.75414 15.8038 5.99633C15.5861 6.23853 15.317 6.42893 15.0161 6.55359C14.7153 6.67825 14.3903 6.734 14.0651 6.71676C13.7399 6.69952 13.4227 6.60972 13.1367 6.45395L12.4067 6.05394C8.30652 3.82386 3.82386 8.30902 6.05644 12.4067L6.45395 13.1367C6.60972 13.4227 6.69952 13.7399 6.71676 14.0651C6.734 14.3903 6.67825 14.7153 6.55359 15.0161C6.42893 15.317 6.23853 15.5861 5.99633 15.8038C5.75414 16.0216 5.4663 16.1823 5.15391 16.2743L4.35638 16.5093C-0.118792 17.8269 -0.118792 24.1721 4.35638 25.4897L5.15391 25.7247C5.4663 25.8167 5.75414 25.9774 5.99633 26.1952C6.23853 26.4129 6.42893 26.682 6.55359 26.9829C6.67825 27.2837 6.734 27.6087 6.71676 27.9339C6.69952 28.2591 6.60972 28.5763 6.45395 28.8623L6.05394 29.5923C3.82386 33.6925 8.30652 38.1776 12.4067 35.9426L13.1367 35.545C13.4227 35.3893 13.7399 35.2995 14.0651 35.2822C14.3903 35.265 14.7153 35.3208 15.0161 35.4454C15.317 35.5701 15.5861 35.7605 15.8038 36.0027C16.0216 36.2449 16.1823 36.5327 16.2743 36.8451L16.5093 37.6426C17.8269 42.1178 24.1721 42.1178 25.4897 37.6426L25.7247 36.8451C25.8167 36.5327 25.9774 36.2449 26.1952 36.0027C26.4129 35.7605 26.682 35.5701 26.9829 35.4454C27.2837 35.3208 27.6087 35.265 27.9339 35.2822C28.2591 35.2995 28.5763 35.3893 28.8623 35.545L29.5923 35.9451C33.6925 38.1776 38.1776 33.69 35.9426 29.5923L35.545 28.8623C35.3893 28.5763 35.2995 28.2591 35.2822 27.9339C35.265 27.6087 35.3208 27.2837 35.4454 26.9829C35.5701 26.682 35.7605 26.4129 36.0027 26.1952C36.2449 25.9774 36.5327 25.8167 36.8451 25.7247L37.6426 25.4897C42.1178 24.1721 42.1178 17.8269 37.6426 16.5093L36.8451 16.2743C36.5327 16.1823 36.2449 16.0216 36.0027 15.8038C35.7605 15.5861 35.5701 15.317 35.4454 15.0161C35.3208 14.7153 35.265 14.3903 35.2822 14.0651C35.2995 13.7399 35.3893 13.4227 35.545 13.1367L35.9451 12.4067C38.1776 8.30652 33.69 3.82386 29.5923 6.05644L28.8623 6.45395C28.5763 6.60972 28.2591 6.69952 27.9339 6.71676C27.6087 6.734 27.2837 6.67825 26.9829 6.55359C26.682 6.42893 26.4129 6.23853 26.1952 5.99633C25.9774 5.75414 25.8167 5.4663 25.7247 5.15391L25.4897 4.35638ZM18.9069 5.0639C19.5219 2.97632 22.4771 2.97632 23.0921 5.0639L23.3271 5.86143C23.5246 6.53167 23.8697 7.1492 24.3369 7.66875C24.8042 8.1883 25.3818 8.59669 26.0274 8.86399C26.673 9.1313 27.3702 9.25073 28.068 9.21353C28.7657 9.17634 29.4463 8.98346 30.0598 8.64904L30.7874 8.24902C32.6974 7.21148 34.7875 9.29906 33.7475 11.2116L33.35 11.9417C33.016 12.5553 32.8236 13.2358 32.7868 13.9334C32.7501 14.631 32.8698 15.328 33.1373 15.9733C33.4049 16.6186 33.8134 17.1959 34.3329 17.6628C34.8525 18.1298 35.47 18.4746 36.1401 18.6719L36.9351 18.9069C39.0227 19.5219 39.0227 22.4771 36.9351 23.0921L36.1376 23.3271C35.4673 23.5246 34.8498 23.8697 34.3303 24.3369C33.8107 24.8042 33.4023 25.3818 33.135 26.0274C32.8677 26.673 32.7483 27.3702 32.7855 28.068C32.8227 28.7657 33.0155 29.4463 33.35 30.0598L33.75 30.7874C34.7875 32.6974 32.6999 34.7875 30.7874 33.7475L30.0598 33.35C29.4462 33.0156 28.7654 32.8228 28.0675 32.7858C27.3696 32.7487 26.6723 32.8684 26.0266 33.1359C25.381 33.4035 24.8035 33.8122 24.3363 34.332C23.8692 34.8518 23.5244 35.4696 23.3271 36.1401L23.0921 36.9351C22.4771 39.0227 19.5219 39.0227 18.9069 36.9351L18.6719 36.1376C18.4743 35.4677 18.1293 34.8505 17.6622 34.3312C17.1951 33.8119 16.6178 33.4037 15.9725 33.1364C15.3273 32.8692 14.6304 32.7496 13.9329 32.7866C13.2354 32.8235 12.5551 33.016 11.9417 33.35L11.2116 33.75C9.30156 34.7875 7.21148 32.6999 8.25152 30.7874L8.64904 30.0598C8.98393 29.4462 9.17719 28.7654 9.21463 28.0674C9.25207 27.3693 9.13274 26.6717 8.86541 26.0258C8.59807 25.3799 8.18951 24.802 7.6697 24.3346C7.14989 23.8672 6.53202 23.5221 5.86143 23.3246L5.0639 23.0896C2.97632 22.4746 2.97632 19.5194 5.0639 18.9044L5.86143 18.6694C6.53097 18.4717 7.14783 18.1267 7.66686 17.6598C8.18588 17.1929 8.59395 16.6159 8.86118 15.971C9.12841 15.326 9.24805 14.6294 9.21135 13.9323C9.17464 13.2351 8.98252 12.555 8.64904 11.9417L8.24902 11.2116C7.21148 9.30156 9.29906 7.21148 11.2116 8.25152L11.9417 8.64904C12.5551 8.98299 13.2354 9.17549 13.9329 9.21244C14.6304 9.24939 15.3273 9.12985 15.9725 8.86259C16.6178 8.59532 17.1951 8.18709 17.6622 7.6678C18.1293 7.14852 18.4743 6.53132 18.6719 5.86143L18.9069 5.0639Z" fill="white"/>
<path d="M25.4897 4.35638C24.1721 -0.118792 17.8269 -0.118792 16.5093 4.35638L16.2743 5.15391C16.1823 5.4663 16.0216 5.75414 15.8038 5.99633C15.5861 6.23853 15.317 6.42893 15.0161 6.55359C14.7153 6.67825 14.3903 6.734 14.0651 6.71676C13.7399 6.69952 13.4227 6.60972 13.1367 6.45395L12.4067 6.05394C8.30652 3.82386 3.82386 8.30902 6.05644 12.4067L6.45395 13.1367C6.60972 13.4227 6.69952 13.7399 6.71676 14.0651C6.734 14.3903 6.67825 14.7153 6.55359 15.0161C6.42893 15.317 6.23853 15.5861 5.99633 15.8038C5.75414 16.0216 5.4663 16.1823 5.15391 16.2743L4.35638 16.5093C-0.118792 17.8269 -0.118792 24.1721 4.35638 25.4897L5.15391 25.7247C5.4663 25.8167 5.75414 25.9774 5.99633 26.1952C6.23853 26.4129 6.42893 26.682 6.55359 26.9829C6.67825 27.2837 6.734 27.6087 6.71676 27.9339C6.69952 28.2591 6.60972 28.5763 6.45395 28.8623L6.05394 29.5923C3.82386 33.6925 8.30652 38.1776 12.4067 35.9426L13.1367 35.545C13.4227 35.3893 13.7399 35.2995 14.0651 35.2822C14.3903 35.265 14.7153 35.3208 15.0161 35.4454C15.317 35.5701 15.5861 35.7605 15.8038 36.0027C16.0216 36.2449 16.1823 36.5327 16.2743 36.8451L16.5093 37.6426C17.8269 42.1178 24.1721 42.1178 25.4897 37.6426L25.7247 36.8451C25.8167 36.5327 25.9774 36.2449 26.1952 36.0027C26.4129 35.7605 26.682 35.5701 26.9829 35.4454C27.2837 35.3208 27.6087 35.265 27.9339 35.2822C28.2591 35.2995 28.5763 35.3893 28.8623 35.545L29.5923 35.9451C33.6925 38.1776 38.1776 33.69 35.9426 29.5923L35.545 28.8623C35.3893 28.5763 35.2995 28.2591 35.2822 27.9339C35.265 27.6087 35.3208 27.2837 35.4454 26.9829C35.5701 26.682 35.7605 26.4129 36.0027 26.1952C36.2449 25.9774 36.5327 25.8167 36.8451 25.7247L37.6426 25.4897C42.1178 24.1721 42.1178 17.8269 37.6426 16.5093L36.8451 16.2743C36.5327 16.1823 36.2449 16.0216 36.0027 15.8038C35.7605 15.5861 35.5701 15.317 35.4454 15.0161C35.3208 14.7153 35.265 14.3903 35.2822 14.0651C35.2995 13.7399 35.3893 13.4227 35.545 13.1367L35.9451 12.4067C38.1776 8.30652 33.69 3.82386 29.5923 6.05644L28.8623 6.45395C28.5763 6.60972 28.2591 6.69952 27.9339 6.71676C27.6087 6.734 27.2837 6.67825 26.9829 6.55359C26.682 6.42893 26.4129 6.23853 26.1952 5.99633C25.9774 5.75414 25.8167 5.4663 25.7247 5.15391L25.4897 4.35638ZM18.9069 5.0639C19.5219 2.97632 22.4771 2.97632 23.0921 5.0639L23.3271 5.86143C23.5246 6.53167 23.8697 7.1492 24.3369 7.66875C24.8042 8.1883 25.3818 8.59669 26.0274 8.86399C26.673 9.1313 27.3702 9.25073 28.068 9.21353C28.7657 9.17634 29.4463 8.98346 30.0598 8.64904L30.7874 8.24902C32.6974 7.21148 34.7875 9.29906 33.7475 11.2116L33.35 11.9417C33.016 12.5553 32.8236 13.2358 32.7868 13.9334C32.7501 14.631 32.8698 15.328 33.1373 15.9733C33.4049 16.6186 33.8134 17.1959 34.3329 17.6628C34.8525 18.1298 35.47 18.4746 36.1401 18.6719L36.9351 18.9069C39.0227 19.5219 39.0227 22.4771 36.9351 23.0921L36.1376 23.3271C35.4673 23.5246 34.8498 23.8697 34.3303 24.3369C33.8107 24.8042 33.4023 25.3818 33.135 26.0274C32.8677 26.673 32.7483 27.3702 32.7855 28.068C32.8227 28.7657 33.0155 29.4463 33.35 30.0598L33.75 30.7874C34.7875 32.6974 32.6999 34.7875 30.7874 33.7475L30.0598 33.35C29.4462 33.0156 28.7654 32.8228 28.0675 32.7858C27.3696 32.7487 26.6723 32.8684 26.0266 33.1359C25.381 33.4035 24.8035 33.8122 24.3363 34.332C23.8692 34.8518 23.5244 35.4696 23.3271 36.1401L23.0921 36.9351C22.4771 39.0227 19.5219 39.0227 18.9069 36.9351L18.6719 36.1376C18.4743 35.4677 18.1293 34.8505 17.6622 34.3312C17.1951 33.8119 16.6178 33.4037 15.9725 33.1364C15.3273 32.8692 14.6304 32.7496 13.9329 32.7866C13.2354 32.8235 12.5551 33.016 11.9417 33.35L11.2116 33.75C9.30156 34.7875 7.21148 32.6999 8.25152 30.7874L8.64904 30.0598C8.98393 29.4462 9.17719 28.7654 9.21463 28.0674C9.25207 27.3693 9.13274 26.6717 8.86541 26.0258C8.59807 25.3799 8.18951 24.802 7.6697 24.3346C7.14989 23.8672 6.53202 23.5221 5.86143 23.3246L5.0639 23.0896C2.97632 22.4746 2.97632 19.5194 5.0639 18.9044L5.86143 18.6694C6.53097 18.4717 7.14783 18.1267 7.66686 17.6598C8.18588 17.1929 8.59395 16.6159 8.86118 15.971C9.12841 15.326 9.24805 14.6294 9.21135 13.9323C9.17464 13.2351 8.98252 12.555 8.64904 11.9417L8.24902 11.2116C7.21148 9.30156 9.29906 7.21148 11.2116 8.25152L11.9417 8.64904C12.5551 8.98299 13.2354 9.17549 13.9329 9.21244C14.6304 9.24939 15.3273 9.12985 15.9725 8.86259C16.6178 8.59532 17.1951 8.18709 17.6622 7.6678C18.1293 7.14852 18.4743 6.53132 18.6719 5.86143L18.9069 5.0639Z" stroke="white" stroke-width="0.4" mask="url(#path-2-outside-1)"/>
</svg>
