<svg width="37" height="36" viewBox="0 0 37 36" fill="none" xmlns="http://www.w3.org/2000/svg">
<path d="M3.95575 1.09595C3.95575 0.543662 3.50804 0.0959473 2.95575 0.0959473H0.999999C0.447715 0.0959473 0 0.543662 0 1.09595V34.6977C0 35.25 0.447715 35.6977 1 35.6977H34.6018C35.1541 35.6977 35.6018 35.25 35.6018 34.6977V32.742C35.6018 32.1897 35.1541 31.742 34.6018 31.742H4.95575C4.40347 31.742 3.95575 31.2943 3.95575 30.742V1.09595Z" fill="white"/>
<path d="M20.4858 18.3487C20.0953 18.7393 19.4621 18.7393 19.0716 18.3487L11.9948 11.2719C11.6043 10.8814 10.9711 10.8814 10.5806 11.2719L9.19807 12.6544C8.80755 13.045 8.80755 13.6781 9.19807 14.0686L19.0716 23.9422C19.4621 24.3327 20.0953 24.3327 20.4858 23.9422L25.0052 19.4228C25.3958 19.0322 26.0289 19.0322 26.4195 19.4228L33.4963 26.4996C33.8868 26.8901 34.52 26.8901 34.9105 26.4996L36.293 25.1171C36.6835 24.7265 36.6835 24.0934 36.293 23.7029L26.4195 13.8293C26.0289 13.4388 25.3958 13.4388 25.0052 13.8293L20.4858 18.3487Z" fill="white"/>
</svg>
