<svg width="49" height="33" viewBox="0 0 49 33" fill="none" xmlns="http://www.w3.org/2000/svg">
<path fill-rule="evenodd" clip-rule="evenodd" d="M33.6687 7.11689C30.921 3.4084 26.4897 1 21.493 1C13.1615 1 6.3925 7.69722 6.3925 15.9771C6.3925 16.0792 6.39166 16.1978 6.39073 16.3289C6.38794 16.7234 6.38433 17.2317 6.40038 17.7491C5.15363 18.1705 4.02481 18.9221 3.13634 19.8492C1.89077 21.149 1 22.9191 1 24.8501C1 28.4493 3.67482 31.4154 7.1464 31.9233C7.30066 31.9728 7.46518 31.9995 7.63597 31.9995H8.1314L8.20412 32L8.27684 31.9995H39.4537L39.5072 31.9997C44.1893 31.9997 48 28.235 48 23.5725C48 20.0598 45.8372 17.058 42.7697 15.7901C42.7918 15.5486 42.8031 15.3043 42.8031 15.0576C42.8031 10.6257 39.181 7.0479 34.7315 7.0479C34.3718 7.0479 34.017 7.07135 33.6687 7.11689ZM7.93294 28.8189H8.1314L8.15163 28.819L8.20412 28.8194L8.25662 28.819L39.4539 28.8189L39.4659 28.819L39.5072 28.8191C42.4436 28.8191 44.809 26.4619 44.809 23.5725C44.809 21.0575 43.0166 18.9439 40.6133 18.4399C40.177 18.3484 39.799 18.0791 39.5709 17.6972C39.3427 17.3153 39.2854 16.8557 39.4127 16.4298C39.5421 15.9967 39.6121 15.5366 39.6121 15.0576C39.6121 12.3989 37.4353 10.2285 34.7315 10.2285C34.2621 10.2285 33.8107 10.2937 33.3849 10.4143C32.7034 10.6073 31.9759 10.3292 31.5985 9.73161C29.4928 6.39687 25.7553 4.18063 21.493 4.18063C14.9072 4.18063 9.58352 9.47038 9.58352 15.9771C9.58352 16.1261 9.58291 16.2785 9.5823 16.432C9.5789 17.2849 9.57534 18.1732 9.67517 18.697C9.7587 19.1352 9.65372 19.5883 9.38585 19.9457C9.11798 20.303 8.71184 20.5318 8.26653 20.5762C7.28728 20.6739 6.24757 21.2075 5.44383 22.0462C4.64098 22.8839 4.19102 23.9008 4.19102 24.8501C4.19102 26.8982 5.76433 28.5966 7.7948 28.7991C7.84151 28.8038 7.88758 28.8104 7.93294 28.8189Z" fill="white" stroke="white" stroke-width="0.2" stroke-linecap="round" stroke-linejoin="round"/>
</svg>
