<svg width="43" height="43" viewBox="0 0 43 43" fill="none" xmlns="http://www.w3.org/2000/svg">
<g clip-path="url(#clip0)">
<path d="M22.8493 43H20.1506C17.968 43 16.1921 41.2242 16.1921 39.0416V38.1286C15.2642 37.8321 14.3626 37.4579 13.4965 37.0096L12.8494 37.6567C11.2824 39.2257 8.77217 39.1796 7.25062 37.6561L5.34325 35.7488C3.81902 34.2262 3.77518 31.7169 5.34376 30.15L5.99027 29.5035C5.54204 28.6373 5.16789 27.7359 4.87135 26.8078H3.95844C1.77585 26.8078 0 25.032 0 22.8494V20.1506C0 17.968 1.77585 16.1922 3.95852 16.1922H4.87143C5.16798 15.2642 5.54213 14.3627 5.99035 13.4965L5.34334 12.8496C3.77569 11.2836 3.81894 8.77402 5.34384 7.25079L7.25138 5.34334C8.77645 3.81617 11.2861 3.77804 12.8501 5.34384L13.4965 5.99027C14.3627 5.54213 15.2642 5.16789 16.1922 4.87135V3.95844C16.1922 1.77577 17.968 0 20.1507 0H22.8494C25.032 0 26.8078 1.77577 26.8078 3.95844V4.87143C27.7358 5.16789 28.6373 5.54213 29.5035 5.99035L30.1505 5.34334C31.7175 3.77434 34.2277 3.82037 35.7493 5.34393L37.6567 7.25121C39.1809 8.77376 39.2247 11.2831 37.6562 12.85L37.0096 13.4965C37.4579 14.3627 37.832 15.2641 38.1286 16.1922H39.0415C41.2242 16.1922 43 17.968 43 20.1506V22.8494C43 25.032 41.2242 26.8078 39.0415 26.8078H38.1286C37.832 27.7358 37.4579 28.6373 37.0096 29.5035L37.6567 30.1505C39.2243 31.7164 39.1811 34.2261 37.6562 35.7493L35.7486 37.6567C34.2235 39.1839 31.7139 39.222 30.1499 37.6562L29.5035 37.0098C28.6373 37.458 27.7358 37.8322 26.8078 38.1287V39.0417C26.8078 41.2242 25.032 43 22.8493 43V43ZM13.9176 34.3639C15.1209 35.0755 16.4159 35.6131 17.7667 35.9617C18.323 36.1052 18.7117 36.6069 18.7117 37.1815V39.0416C18.7117 39.835 19.3573 40.4805 20.1507 40.4805H22.8494C23.6428 40.4805 24.2884 39.835 24.2884 39.0416V37.1815C24.2884 36.6069 24.677 36.1052 25.2334 35.9617C26.5842 35.6131 27.8792 35.0755 29.0824 34.3639C29.5775 34.0711 30.2078 34.1507 30.6146 34.5575L31.9321 35.8751C32.5002 36.4438 33.4124 36.4307 33.9666 35.8757L35.8753 33.9671C36.4281 33.4149 36.4465 32.5025 35.8758 31.9325L34.5576 30.6144C34.151 30.2078 34.0714 29.5774 34.3641 29.0824C35.0757 27.8792 35.6132 26.5842 35.9618 25.2333C36.1054 24.677 36.6071 24.2884 37.1816 24.2884H39.0416C39.835 24.2884 40.4806 23.6429 40.4806 22.8495V20.1507C40.4806 19.3573 39.835 18.7118 39.0416 18.7118H37.1816C36.607 18.7118 36.1054 18.3231 35.9618 17.7669C35.6132 16.416 35.0756 15.121 34.3641 13.9178C34.0714 13.4228 34.151 12.7924 34.5576 12.3858L35.8753 11.0681C36.4449 10.4992 36.43 9.58715 35.8758 9.03361L33.9672 7.12507C33.414 6.57111 32.5016 6.5549 31.9327 7.12456L30.6147 8.4427C30.208 8.84943 29.5774 8.92905 29.0825 8.63628C27.8793 7.92468 26.5842 7.3871 25.2334 7.03848C24.6771 6.89495 24.2884 6.39323 24.2884 5.81869V3.95844C24.2884 3.16504 23.6429 2.51953 22.8495 2.51953H20.1508C19.3574 2.51953 18.7118 3.16504 18.7118 3.95844V5.81852C18.7118 6.39306 18.3231 6.89478 17.7668 7.03831C16.416 7.38693 15.121 7.92451 13.9177 8.63611C13.4226 8.9288 12.7922 8.84918 12.3856 8.44253L11.068 7.1249C10.5 6.55616 9.58766 6.56934 9.03361 7.12431L7.1249 9.03294C6.57211 9.58505 6.55364 10.4974 7.12439 11.0675L8.44253 12.3856C8.84918 12.7922 8.9288 13.4226 8.63611 13.9176C7.92451 15.1208 7.38701 16.4158 7.03839 17.7667C6.89478 18.323 6.39306 18.7116 5.81861 18.7116H3.95852C3.16512 18.7117 2.51953 19.3572 2.51953 20.1506V22.8494C2.51953 23.6428 3.16512 24.2883 3.95852 24.2883H5.81852C6.39306 24.2883 6.8947 24.677 7.03831 25.2332C7.38693 26.5841 7.92451 27.8791 8.63603 29.0823C8.92872 29.5773 8.8491 30.2077 8.44245 30.6143L7.12481 31.932C6.55523 32.5009 6.5701 33.4129 7.12431 33.9665L9.03286 35.875C9.58606 36.429 10.4985 36.4452 11.0674 35.8755L12.3854 34.5574C12.6851 34.2578 13.3085 34.0036 13.9176 34.3639V34.3639Z" fill="white"/>
<path d="M21.5 30.8559C16.3411 30.8559 12.1441 26.6588 12.1441 21.5C12.1441 16.3412 16.3411 12.1442 21.5 12.1442C26.6589 12.1442 30.8559 16.3412 30.8559 21.5C30.8559 26.6588 26.6589 30.8559 21.5 30.8559V30.8559ZM21.5 14.6637C17.7304 14.6637 14.6637 17.7305 14.6637 21.5C14.6637 25.2696 17.7304 28.3363 21.5 28.3363C25.2696 28.3363 28.3363 25.2696 28.3363 21.5C28.3363 17.7305 25.2696 14.6637 21.5 14.6637V14.6637Z" fill="white"/>
</g>
<defs>
<clipPath id="clip0">
<rect width="43" height="43" fill="white"/>
</clipPath>
</defs>
</svg>
