<svg width="38" height="40" viewBox="0 0 38 40" fill="none" xmlns="http://www.w3.org/2000/svg">
<path d="M28.6924 36.8188L23.1754 39.4298L23.104 39.4635V39.3846V28.9669C22.0726 28.0394 21.2881 26.8696 20.8216 25.5631C20.3525 24.2495 20.2196 22.8394 20.4351 21.4613C20.6506 20.0832 21.2075 18.7809 22.0552 17.6732C22.9029 16.5655 24.0143 15.6876 25.2882 15.1195C26.562 14.5513 27.9579 14.311 29.3484 14.4205C30.7389 14.53 32.0799 14.9857 33.2492 15.7462C34.4185 16.5067 35.3788 17.5477 36.0427 18.7744C36.7066 20.0011 37.053 21.3745 37.0501 22.7693M28.6924 36.8188L37.0001 22.7692M28.6924 36.8188L34.2095 39.4298L34.2809 39.4635V39.3846V28.9669M28.6924 36.8188L34.2309 28.9446M37.0501 22.7693L37.0001 22.7692M37.0501 22.7693C37.0501 22.7693 37.0501 22.7692 37.0501 22.7692L37.0001 22.7692M37.0501 22.7693C37.0495 23.9426 36.801 25.1026 36.3209 26.1732C35.8439 27.237 35.1488 28.1888 34.2809 28.9669M37.0001 22.7692C36.9995 23.9355 36.7525 25.0885 36.2753 26.1527C35.7981 27.2169 35.1014 28.1683 34.2309 28.9446M34.2809 28.9669V28.9446H34.2309M34.2809 28.9669C34.2753 28.9719 34.2698 28.9769 34.2642 28.9819L34.2309 28.9446M28.671 33.6528L25.9732 34.9302V30.6632C27.7332 31.2816 29.6516 31.2816 31.4117 30.6632V34.9302L28.7138 33.6528L28.6924 33.6426L28.671 33.6528ZM28.6924 28.2576C27.6069 28.2576 26.5458 27.9357 25.6432 27.3327C24.7406 26.7296 24.0372 25.8724 23.6218 24.8695C23.2064 23.8666 23.0977 22.7631 23.3094 21.6984C23.5212 20.6338 24.0439 19.6558 24.8115 18.8883C25.5791 18.1207 26.557 17.598 27.6217 17.3862C28.6864 17.1744 29.7899 17.2831 30.7928 17.6985C31.7957 18.1139 32.6529 18.8174 33.2559 19.72C33.859 20.6225 34.1809 21.6836 34.1809 22.7691C34.1791 24.2242 33.6003 25.6192 32.5713 26.6481C31.5424 27.677 30.1475 28.2558 28.6924 28.2576Z" fill="white" stroke="white" stroke-width="0.1"/>
<path d="M7.92285 17.1808H7.87285V17.2308V20.0001V20.0501H7.92285H17.6152H17.6652V20.0001V17.2308V17.1808H17.6152H7.92285Z" fill="white" stroke="white" stroke-width="0.1"/>
<path d="M7.92285 8.87322H7.87285V8.92322V11.6924V11.7424H7.92285H21.769H21.819V11.6924V8.92322V8.87322H21.769H7.92285Z" fill="white" stroke="white" stroke-width="0.1"/>
<path d="M0.95 36.6155L0.95 36.6155C0.950746 37.363 1.24801 38.0796 1.77654 38.6082C2.30508 39.1367 3.02172 39.434 3.76918 39.4347H17.6154H17.6654V39.3847V36.6155V36.5655H17.6154H3.81923V3.43471H25.8731V8.92317V8.97317H25.9231H28.6923H28.7423V8.92317V3.38471V3.38466C28.7416 2.6372 28.4443 1.92056 27.9158 1.39202C27.3872 0.863484 26.6706 0.566225 25.9231 0.565479H25.9231L3.76923 0.565478L3.76918 0.565479C3.02172 0.566225 2.30508 0.863484 1.77654 1.39202C1.24801 1.92056 0.950746 2.6372 0.95 3.38466V3.38471L0.95 36.6155Z" fill="white" stroke="white" stroke-width="0.1"/>
</svg>
