<?xml version="1.0" encoding="utf-8"?>
<!-- Generator: Adobe Illustrator 25.2.1, SVG Export Plug-In . SVG Version: 6.00 Build 0)  -->
<svg version="1.1" id="Layer_1" xmlns:svgjs="http://svgjs.com/svgjs"
	 xmlns="http://www.w3.org/2000/svg" xmlns:xlink="http://www.w3.org/1999/xlink" x="0px" y="0px" viewBox="0 0 33 33"
	 style="enable-background:new 0 0 33 33;" xml:space="preserve">
<style type="text/css">
	.st0{fill:#FFFFFF;}
</style>
<g>
	<g>
		<g>
			<path class="st0" d="M31.8,0c-0.2,0-0.4,0-0.5,0.1l-8.9,4.5L12.3,0.1c0,0,0,0-0.1,0c0,0-0.1,0-0.1,0c0,0-0.1,0-0.1,0
				c-0.1,0-0.2,0-0.3,0c0,0-0.1,0-0.1,0c0,0-0.1,0-0.1,0c0,0,0,0-0.1,0L0.7,4.8C0.3,5,0,5.4,0,5.9v25.9c0,0.4,0.2,0.8,0.5,1
				c0.3,0.2,0.8,0.3,1.1,0.1l10.1-4.5l10.1,4.5c0,0,0,0,0.1,0c0.3,0.1,0.6,0.1,0.9,0c0,0,0,0,0.1,0l9.4-4.7c0.4-0.2,0.7-0.6,0.7-1.1
				V1.2C33,0.5,32.5,0,31.8,0z M10.6,26.3L2.4,30V6.7L10.6,3V26.3z M21.2,30L13,26.3V3l8.3,3.7V30z M30.6,26.4l-7.1,3.5V6.6l7.1-3.5
				V26.4z"/>
		</g>
	</g>
</g>
</svg>
