<?xml version="1.0" encoding="utf-8"?>
<!-- Generator: Adobe Illustrator 25.2.1, SVG Export Plug-In . SVG Version: 6.00 Build 0)  -->
<svg version="1.1" id="Layer_1" xmlns:svgjs="http://svgjs.com/svgjs"
	 xmlns="http://www.w3.org/2000/svg" xmlns:xlink="http://www.w3.org/1999/xlink" x="0px" y="0px" viewBox="0 0 34 34"
	 style="enable-background:new 0 0 34 34;" xml:space="preserve">
<style type="text/css">
	.st0{fill:#FFFFFF;stroke:#FFFFFF;stroke-width:0.75;stroke-miterlimit:10;}
	.st1{fill:#FFFFFF;}
</style>
<g>
	<path class="st0" d="M17,0.5L2.7,3.7v14.4c0,4.1,2.4,8.1,6.3,10.5l8,4.9l8-4.9c4-2.4,6.3-6.4,6.3-10.5V3.7L17,0.5z M29.1,18.1
		c0,3.4-2,6.6-5.3,8.6L17,31l-6.9-4.2c-3.3-2-5.3-5.3-5.3-8.6V5.4L17,2.7l12.1,2.7V18.1z"/>
	<path class="st1" d="M10.6,15L9,16.5l5.4,5.4L25,11.3l-1.5-1.5l-9,9L10.6,15z"/>
</g>
</svg>
