<svg width="43" height="35" viewBox="0 0 43 35" fill="none" xmlns="http://www.w3.org/2000/svg">
<path d="M21.6788 0.654785C25.9406 0.654785 30.2025 0.654785 34.4809 0.654785C37.3882 0.654785 39.1557 2.4364 39.1557 5.3669C39.1557 10.5181 39.1557 19.4718 39.1557 22.4481C39.1557 23.0004 38.708 23.4419 38.1557 23.4419H36.6568C36.1045 23.4419 35.6568 22.9952 35.6568 22.443C35.6568 19.7258 35.6568 12.0703 35.6568 7.07481C35.6568 5.09339 34.8144 4.24421 32.8486 4.24421C24.3745 4.24421 18.9127 4.24421 10.4385 4.24421C8.47281 4.24421 7.63035 5.09339 7.63035 7.07481C7.63035 12.0703 7.63035 19.7258 7.63035 22.443C7.63035 22.9952 7.18263 23.4419 6.63035 23.4419H5.15236C4.60008 23.4419 4.15236 22.9938 4.15236 22.4415C4.15236 16.5944 4.15231 11.259 4.15231 5.35025C4.11928 2.4364 5.87027 0.654785 8.79411 0.654785C13.089 0.654785 17.3839 0.654785 21.6788 0.654785Z" fill="white"/>
<path fill-rule="evenodd" clip-rule="evenodd" d="M0.307617 27.7671C0.307617 26.7993 1.09223 26.0146 2.06009 26.0146H41.2478C42.2156 26.0146 43.0002 26.7993 43.0002 27.7671V29.9625C43.0002 32.608 40.8556 34.7526 38.2102 34.7526H5.09771C2.45222 34.7526 0.307617 32.608 0.307617 29.9625V27.7671ZM3.81256 29.5196V29.9625C3.81256 30.6722 4.38795 31.2476 5.09771 31.2476H38.2102C38.9199 31.2476 39.4953 30.6722 39.4953 29.9625V29.5196H3.81256Z" fill="white"/>
</svg>
