<svg width="37" height="37" viewBox="0 0 37 37" fill="none" xmlns="http://www.w3.org/2000/svg">
<path d="M7.52084 15.2953L2.93574 19.8804C1.05539 21.7607 -0.000976562 24.311 -0.000976562 26.9702C-0.000976562 29.6294 1.05539 32.1797 2.93574 34.0601C4.81609 35.9404 7.36639 36.9968 10.0256 36.9968C12.6848 36.9968 15.2351 35.9404 17.1155 34.0601L23.2245 27.9477C24.3584 26.8137 25.2037 25.4242 25.6894 23.8958C26.1752 22.3675 26.2873 20.7449 26.0162 19.1643C25.7451 17.5837 25.0988 16.0912 24.1316 14.812C23.1643 13.5329 21.9044 12.5044 20.4574 11.813L18.499 13.7713C18.3002 13.9705 18.1273 14.194 17.9844 14.4364C19.1023 14.7578 20.1171 15.3654 20.9282 16.1991C21.7394 17.0328 22.319 18.0638 22.6096 19.1902C22.9002 20.3165 22.8918 21.4992 22.5853 22.6214C22.2787 23.7435 21.6847 24.7662 20.8618 25.5883L14.7561 31.6974C13.5019 32.9515 11.8009 33.6561 10.0273 33.6561C8.25363 33.6561 6.55263 32.9515 5.29847 31.6974C4.04432 30.4432 3.33974 28.7422 3.33974 26.9686C3.33974 25.1949 4.04432 23.4939 5.29847 22.2398L7.94861 19.593C7.5747 18.1918 7.43024 16.7393 7.52084 15.2919V15.2953Z" fill="white"/>
<path d="M13.7729 9.04573C12.639 10.1798 11.7937 11.5693 11.3079 13.0976C10.8222 14.626 10.7101 16.2486 10.9812 17.8292C11.2523 19.4098 11.8985 20.9023 12.8658 22.1814C13.833 23.4606 15.093 24.489 16.54 25.1805L19.13 22.5872C17.9969 22.2832 16.9638 21.6864 16.1344 20.8567C15.305 20.027 14.7087 18.9936 14.4052 17.8604C14.1018 16.7272 14.1019 15.5341 14.4057 14.401C14.7094 13.2678 15.306 12.2346 16.1356 11.4051L22.2413 5.29611C23.4954 4.04195 25.1964 3.33737 26.9701 3.33737C28.7437 3.33737 30.4447 4.04195 31.6989 5.29611C32.953 6.55026 33.6576 8.25127 33.6576 10.0249C33.6576 11.7986 32.953 13.4996 31.6989 14.7537L29.0488 17.4005C29.423 18.8041 29.5668 20.2578 29.4765 21.7015L34.0616 17.1164C35.942 15.2361 36.9983 12.6858 36.9983 10.0266C36.9983 7.36737 35.942 4.81707 34.0616 2.93672C32.1813 1.05637 29.631 0 26.9718 0C24.3125 0 21.7622 1.05637 19.8819 2.93672L13.7729 9.04573Z" fill="white"/>
</svg>
