<svg width="38" height="27" viewBox="0 0 38 27" fill="none" xmlns="http://www.w3.org/2000/svg">
<path d="M13.3009 27L1.8993 27C0.854145 27 -0.000976488 26.15 -0.000976397 25.1112C-0.000976307 24.0724 0.854145 23.2224 1.8993 23.2224L13.3009 23.2224C14.3461 23.2224 15.2012 24.0724 15.2012 25.1112C15.2012 26.15 14.3461 27 13.3009 27ZM13.3009 16.6117L1.8993 16.6117C0.854146 16.6117 -0.00097558 15.7618 -0.000975489 14.7229C-0.000975398 13.6841 0.854146 12.8342 1.8993 12.8342L13.3009 12.8342C14.3461 12.8342 15.2012 13.6841 15.2012 14.7229C15.2012 15.7618 14.3461 16.6117 13.3009 16.6117ZM13.3009 6.22343L1.8993 6.22343C0.854147 6.22343 -0.000974672 5.37348 -0.000974581 4.33466C-0.00097449 3.29583 0.854147 2.44588 1.8993 2.44588L13.3009 2.44588C14.3461 2.44588 15.2012 3.29583 15.2012 4.33466C15.2012 5.37349 14.3461 6.22343 13.3009 6.22343ZM23.0873 0.273785L19.6859 3.6547C19.3058 4.03245 19.3058 4.61797 19.6859 4.99573L23.0873 8.37664C23.2184 8.51068 23.3868 8.60261 23.5709 8.64058C23.755 8.67855 23.9463 8.66081 24.1201 8.58966C24.294 8.5185 24.4424 8.3972 24.5462 8.24139C24.65 8.08559 24.7045 7.90244 24.7026 7.71557L24.7026 0.934857C24.7026 0.103795 23.6764 -0.311736 23.0873 0.273785ZM24.7026 6.22344L25.2727 6.22344C29.7383 6.22344 33.7289 9.45325 34.1659 13.873C34.2828 15.0548 34.1497 16.2478 33.7752 17.3754C33.4007 18.503 32.7932 19.5404 31.9915 20.4208C31.1898 21.3012 30.2118 22.0053 29.1201 22.4878C28.0285 22.9702 26.8474 23.2205 25.6527 23.2224L20.902 23.2224C19.8569 23.2224 19.0018 24.0724 19.0018 25.1112C19.0018 26.15 19.8569 27 20.902 27L25.6527 27C32.9878 27 38.8786 20.5782 37.8905 13.0986C37.0923 6.9034 31.4865 2.44588 25.2156 2.44588L24.7026 2.44588" fill="white"/>
</svg>
