<svg width="24" height="37" viewBox="0 0 24 37" fill="none" xmlns="http://www.w3.org/2000/svg">
<path d="M21.4054 0H2.59459C1.16351 0 0 1.18516 0 2.64286V34.3571C0 35.8148 1.16351 37 2.59459 37H21.4054C22.8365 37 24 35.8148 24 34.3571V2.64286C24 1.18516 22.8365 0 21.4054 0ZM21.0811 34.0268H2.91892V2.97321H21.0811V34.0268ZM10.3784 29.8147C10.3784 30.2528 10.5492 30.673 10.8533 30.9827C11.1575 31.2925 11.5699 31.4665 12 31.4665C12.4301 31.4665 12.8425 31.2925 13.1467 30.9827C13.4508 30.673 13.6216 30.2528 13.6216 29.8147C13.6216 29.3766 13.4508 28.9565 13.1467 28.6467C12.8425 28.337 12.4301 28.1629 12 28.1629C11.5699 28.1629 11.1575 28.337 10.8533 28.6467C10.5492 28.9565 10.3784 29.3766 10.3784 29.8147Z" fill="white"/>
</svg>
