<svg width="36" height="44" viewBox="0 0 36 44" fill="none" xmlns="http://www.w3.org/2000/svg">
<path d="M16.4551 28.082H16.3551V28.182V34.3638V34.4638H16.4551H19.546H19.646V34.3638V28.182V28.082H19.546H16.4551Z" fill="white" stroke="white" stroke-width="0.2"/>
<path d="M24.1816 24.9909H24.0816V25.0909V34.3637V34.4637H24.1816H27.2725H27.3725V34.3637V25.0909V24.9909H27.2725H24.1816Z" fill="white" stroke="white" stroke-width="0.2"/>
<path d="M8.72656 18.8093H8.62656V18.9093V34.3638V34.4638H8.72656H11.8175H11.9175V34.3638V18.9093V18.8093H11.8175H8.72656Z" fill="white" stroke="white" stroke-width="0.2"/>
<path d="M27.3727 12.7274V8.19104H31.8091V40.4456H4.19091V8.19104H8.62727V12.7274V12.8274H8.72727H27.2727H27.3727V12.7274ZM31.9091 4.90013H27.3727V3.45468C27.3727 2.6084 27.0365 1.79678 26.4381 1.19837C25.8397 0.599954 25.0281 0.26377 24.1818 0.26377H11.8182C10.9719 0.26377 10.1603 0.599954 9.56187 1.19837C8.96346 1.79678 8.62727 2.6084 8.62727 3.45468V4.90013H4.09091C3.24463 4.90013 2.43301 5.23632 1.8346 5.83473C1.23618 6.43314 0.9 7.24476 0.9 8.09104V40.5456C0.9 41.3919 1.23618 42.2035 1.8346 42.8019C2.43301 43.4003 3.24463 43.7365 4.09091 43.7365H31.9091C32.7554 43.7365 33.567 43.4003 34.1654 42.8019C34.7638 42.2035 35.1 41.3919 35.1 40.5456V8.09104C35.1 7.24476 34.7638 6.43314 34.1654 5.83473C33.567 5.23632 32.7554 4.90013 31.9091 4.90013ZM11.9182 3.55468H24.0818V9.5365H11.9182V3.55468Z" fill="white" stroke="white" stroke-width="0.2"/>
</svg>
