<?xml version="1.0" encoding="utf-8"?>
<!-- Generator: Adobe Illustrator 25.2.1, SVG Export Plug-In . SVG Version: 6.00 Build 0)  -->
<svg version="1.1" id="Layer_1" xmlns:svgjs="http://svgjs.com/svgjs"
	 xmlns="http://www.w3.org/2000/svg" xmlns:xlink="http://www.w3.org/1999/xlink" x="0px" y="0px" viewBox="0 0 34 34"
	 style="enable-background:new 0 0 34 34;" xml:space="preserve">
<style type="text/css">
	.st0{fill:#FFFFFF;stroke:#FFFFFF;stroke-miterlimit:10;}
	.st1{fill:#FFFFFF;}
</style>
<g>
	<path class="st0" d="M17,33.5c-0.1,0-0.2,0-0.3-0.1L0.9,26.6c-0.3-0.1-0.4-0.4-0.4-0.6V8.1c0-0.3,0.2-0.5,0.4-0.6l15.8-6.9
		c0.2-0.1,0.4-0.1,0.5,0L33,7.5c0.3,0.1,0.4,0.4,0.4,0.6V26c0,0.3-0.2,0.5-0.4,0.6l-15.8,6.9C17.2,33.5,17.1,33.5,17,33.5L17,33.5z
		 M1.9,25.5L17,32.1l15.1-6.6v-17L17,1.9L1.9,8.5V25.5z"/>
	<path class="st0" d="M32.8,26.6c-0.1,0-0.2,0-0.3-0.1L17,19.8L1.5,26.6c-0.3,0.2-0.8,0-0.9-0.4c-0.1-0.3,0-0.8,0.4-0.9l15.8-6.9
		c0.2-0.1,0.4-0.1,0.5,0l15.8,6.9c0.3,0.2,0.5,0.6,0.4,0.9C33.3,26.5,33.1,26.6,32.8,26.6L32.8,26.6z"/>
	<path class="st1" d="M24.8,14.9c-0.1,0-0.2,0-0.3-0.1L17,11.6l-7.6,3.3c-0.3,0.2-0.8,0-0.9-0.4c-0.2-0.3,0-0.8,0.4-0.9l7.8-3.4
		c0.2-0.1,0.4-0.1,0.5,0l7.8,3.4c0.3,0.2,0.5,0.6,0.4,0.9C25.4,14.8,25.1,14.9,24.8,14.9L24.8,14.9z"/>
	<path class="st1" d="M22.6,15.9c-0.3,0-0.6-0.2-0.7-0.5c-0.1-0.4,0.1-0.7,0.5-0.8l2-0.5l-0.5-2c-0.1-0.4,0.1-0.7,0.5-0.8
		s0.7,0.1,0.8,0.5l0.7,2.7c0.1,0.4-0.1,0.7-0.5,0.8L22.6,15.9C22.7,15.9,22.7,15.9,22.6,15.9L22.6,15.9z"/>
	<path class="st1" d="M11.4,15.9c-0.1,0-0.1,0-0.2,0l-2.7-0.7c-0.4-0.1-0.6-0.5-0.5-0.8l0.7-2.7c0.1-0.4,0.5-0.6,0.8-0.5
		c0.4,0.1,0.6,0.5,0.5,0.8l-0.5,2l2,0.5c0.4,0.1,0.6,0.5,0.5,0.8C12,15.7,11.7,15.9,11.4,15.9L11.4,15.9z"/>
	<path class="st0" d="M17,19.8c-0.4,0-0.7-0.3-0.7-0.7V1.2c0-0.4,0.3-0.7,0.7-0.7s0.7,0.3,0.7,0.7v17.9C17.7,19.4,17.4,19.8,17,19.8
		z"/>
</g>
</svg>
