<svg width="42" height="32" viewBox="0 0 42 32" fill="none" xmlns="http://www.w3.org/2000/svg">
<path fill-rule="evenodd" clip-rule="evenodd" d="M12.9197 2.75C15.3936 2.75 17.4684 4.57699 17.6716 7.16034C17.7312 7.91739 18.3932 8.48282 19.1503 8.42326C19.9073 8.3637 20.4727 7.70171 20.4132 6.94466C20.0949 2.89925 16.7971 0 12.9197 0C8.7685 0 5.4033 3.3652 5.4033 7.51639C5.4033 11.6676 8.7685 15.0328 12.9197 15.0328C15.6956 15.0328 18.1183 13.7091 19.3488 11.4105C19.7072 10.741 19.455 9.90776 18.7855 9.54934C18.1161 9.19093 17.2828 9.44311 16.9244 10.1126C16.2303 11.4091 14.8103 12.2828 12.9197 12.2828C10.2873 12.2828 8.1533 10.1488 8.1533 7.51639C8.1533 4.88398 10.2873 2.75 12.9197 2.75Z" fill="white"/>
<path d="M12.9147 15.064C15.2649 15.064 17.0424 15.539 18.3902 16.2101C19.0699 16.5487 19.8954 16.272 20.2339 15.5923C20.5725 14.9125 20.2958 14.087 19.6161 13.7485C17.8508 12.8694 15.6474 12.314 12.9147 12.314C7.34286 12.314 4.05955 14.6236 2.20568 17.0504C1.2985 18.238 0.756681 19.4213 0.440468 20.3083C0.281824 20.7532 0.178204 21.1286 0.113113 21.3997C0.0805283 21.5354 0.0574722 21.6455 0.0419369 21.7258C0.0341644 21.7659 0.0282631 21.7987 0.0239849 21.8235L0.0187511 21.8547L0.0169849 21.8657L0.016304 21.87L0.0160122 21.8719C-0.0986958 22.6226 0.416603 23.3258 1.16728 23.4405C1.91593 23.5549 2.6157 23.0424 2.73326 22.2951L2.73395 22.291C2.73515 22.284 2.73771 22.2696 2.74183 22.2483C2.75009 22.2056 2.7646 22.1355 2.78711 22.0417C2.83222 21.8538 2.90893 21.5735 3.03078 21.2317C3.27555 20.5451 3.69541 19.6304 4.39099 18.7198C5.74264 16.9505 8.22916 15.064 12.9147 15.064Z" fill="white"/>
<path fill-rule="evenodd" clip-rule="evenodd" d="M25.3269 16.7877C28.5088 16.7877 31.0883 14.2083 31.0883 11.0263C31.0883 7.84437 28.5088 5.26489 25.3269 5.26489C22.1449 5.26489 19.5654 7.84437 19.5654 11.0263C19.5654 14.2083 22.1449 16.7877 25.3269 16.7877ZM25.3269 19.5377C30.0276 19.5377 33.8383 15.7271 33.8383 11.0263C33.8383 6.32559 30.0276 2.51489 25.3269 2.51489C20.6261 2.51489 16.8154 6.32559 16.8154 11.0263C16.8154 15.7271 20.6261 19.5377 25.3269 19.5377Z" fill="white"/>
<path d="M12.2175 29.9438C12.1108 30.6945 11.4165 31.2174 10.6653 31.1121C9.91326 31.0067 9.38904 30.3116 9.49443 29.5596L9.49492 29.5561L9.49557 29.5516L9.49736 29.5394L9.50303 29.5026C9.50776 29.4727 9.51448 29.432 9.52349 29.3813C9.54149 29.2799 9.56867 29.1381 9.6075 28.9618C9.68508 28.6096 9.80964 28.1171 10.0014 27.5308C10.3835 26.3622 11.0401 24.7979 12.1415 23.2262C14.3816 20.0298 18.4012 16.9053 25.3253 16.9053C32.2493 16.9053 36.269 20.0298 38.5092 23.2262C39.6108 24.7979 40.2674 26.3621 40.6496 27.5308C40.8414 28.117 40.966 28.6095 41.0436 28.9618C41.0824 29.1381 41.1096 29.2798 41.1276 29.3812C41.1366 29.4319 41.1433 29.4726 41.1481 29.5026L41.1537 29.5393L41.1555 29.5515L41.1562 29.5561L41.1564 29.5579C41.2619 30.31 40.7379 31.0067 39.9859 31.1121C39.2344 31.2174 38.5397 30.6941 38.4335 29.943L38.4319 29.9325C38.4297 29.919 38.4259 29.8953 38.4199 29.862C38.4081 29.7954 38.3882 29.6907 38.3579 29.5534C38.2974 29.2783 38.1958 28.8747 38.0359 28.3857C37.7147 27.4036 37.1654 26.1003 36.2573 24.8045C34.478 22.2658 31.2629 19.6553 25.3253 19.6553C19.3876 19.6553 16.1726 22.2658 14.3936 24.8045C13.4855 26.1003 12.9363 27.4036 12.6151 28.3856C12.4552 28.8747 12.3537 29.2783 12.2931 29.5533C12.2629 29.6906 12.243 29.7953 12.2312 29.8619C12.2252 29.8952 12.2214 29.9189 12.2192 29.9324L12.2176 29.9426C12.2176 29.943 12.2175 29.9434 12.2175 29.9438Z" fill="white"/>
</svg>
