<svg width="37" height="37" viewBox="0 0 37 37" fill="none" xmlns="http://www.w3.org/2000/svg">
<path d="M7.52182 15.2953L2.93672 19.8804C1.05637 21.7607 0 24.311 0 26.9702C0 29.6294 1.05637 32.1797 2.93672 34.0601C4.81707 35.9404 7.36737 36.9968 10.0266 36.9968C12.6858 36.9968 15.2361 35.9404 17.1164 34.0601L23.2255 27.9477C24.3594 26.8137 25.2047 25.4242 25.6904 23.8958C26.1762 22.3675 26.2882 20.7449 26.0172 19.1643C25.7461 17.5837 25.0998 16.0912 24.1326 14.812C23.1653 13.5329 21.9053 12.5044 20.4584 11.813L18.5 13.7713C18.3012 13.9705 18.1283 14.194 17.9853 14.4364C19.1033 14.7578 20.118 15.3654 20.9292 16.1991C21.7404 17.0328 22.3199 18.0638 22.6106 19.1902C22.9012 20.3165 22.8928 21.4992 22.5863 22.6214C22.2797 23.7435 21.6856 24.7662 20.8627 25.5883L14.7571 31.6974C13.5029 32.9515 11.8019 33.6561 10.0283 33.6561C8.25461 33.6561 6.55361 32.9515 5.29945 31.6974C4.04529 30.4432 3.34071 28.7422 3.34071 26.9686C3.34071 25.1949 4.04529 23.4939 5.29945 22.2398L7.94958 19.593C7.57568 18.1918 7.43122 16.7393 7.52182 15.2919V15.2953Z" fill="white"/>
<path d="M13.7739 9.04573C12.64 10.1798 11.7947 11.5693 11.3089 13.0976C10.8231 14.626 10.7111 16.2486 10.9822 17.8292C11.2532 19.4098 11.8995 20.9023 12.8668 22.1814C13.834 23.4606 15.094 24.489 16.541 25.1805L19.1309 22.5872C17.9979 22.2832 16.9647 21.6864 16.1354 20.8567C15.306 20.027 14.7096 18.9936 14.4062 17.8604C14.1027 16.7272 14.1029 15.5341 14.4066 14.401C14.7104 13.2678 15.307 12.2346 16.1366 11.4051L22.2423 5.29611C23.4964 4.04195 25.1974 3.33737 26.9711 3.33737C28.7447 3.33737 30.4457 4.04195 31.6999 5.29611C32.954 6.55026 33.6586 8.25127 33.6586 10.0249C33.6586 11.7986 32.954 13.4996 31.6999 14.7537L29.0497 17.4005C29.424 18.8041 29.5677 20.2578 29.4775 21.7015L34.0626 17.1164C35.9429 15.2361 36.9993 12.6858 36.9993 10.0266C36.9993 7.36737 35.9429 4.81707 34.0626 2.93672C32.1823 1.05637 29.632 0 26.9727 0C24.3135 0 21.7632 1.05637 19.8829 2.93672L13.7739 9.04573Z" fill="white"/>
</svg>
