<?xml version="1.0" encoding="utf-8"?>
<!-- Generator: Adobe Illustrator 25.2.1, SVG Export Plug-In . SVG Version: 6.00 Build 0)  -->
<svg version="1.1" id="Layer_1" xmlns:svgjs="http://svgjs.com/svgjs"
	 xmlns="http://www.w3.org/2000/svg" xmlns:xlink="http://www.w3.org/1999/xlink" x="0px" y="0px" viewBox="0 0 34 34"
	 style="enable-background:new 0 0 34 34;" xml:space="preserve">
<style type="text/css">
	.st0{fill:#FFFFFF;stroke:#FFFFFF;stroke-width:0.75;stroke-miterlimit:10;}
	.st1{fill:#FFFFFF;stroke:#FFFFFF;stroke-width:0.25;stroke-miterlimit:10;}
</style>
<g>
	<g>
		<g>
			<path class="st0" d="M29.9,6.3l-9.5-5.7c-0.3-0.2-0.7-0.1-0.9,0.2l-15.6,26c-0.2,0.3-0.1,0.7,0.2,0.9l9.5,5.7
				c0.3,0.2,0.7,0.1,0.9-0.2l15.6-26C30.3,6.9,30.2,6.5,29.9,6.3z M13.7,31.9l-8.4-5l3.8-6.3l2.9,1.7c0.3,0.2,0.7,0.1,0.9-0.2
				c0.2-0.3,0.1-0.7-0.2-0.9c0,0,0,0,0,0l-2.8-1.7l1.2-2.1l4.4,2.7c0.3,0.2,0.7,0.1,0.9-0.2c0.2-0.3,0.1-0.7-0.2-0.9l-4.4-2.7
				l1.2-2.1l2.8,1.7c0.3,0.2,0.7,0.1,0.9-0.2c0.2-0.3,0.1-0.7-0.2-0.9l-2.8-1.7l1.2-2.1l4.4,2.7c0.3,0.2,0.7,0.1,0.9-0.2
				c0.2-0.3,0.1-0.7-0.2-0.9L15.5,10l1.2-2.1l2.9,1.7c0.3,0.2,0.7,0.1,0.9-0.2s0.1-0.7-0.2-0.9c0,0,0,0,0,0l-2.8-1.7l1.2-2.1
				l4.4,2.7c0.3,0.2,0.7,0.1,0.9-0.2s0.1-0.7-0.2-0.9l-4.4-2.7l0.9-1.5l8.4,5L13.7,31.9z"/>
		</g>
	</g>
	<g>
		<g>
			<path class="st1" d="M12.1,25.3c-0.7-0.4-1.6-0.2-2,0.5c-0.4,0.7-0.2,1.6,0.5,2c0.7,0.4,1.6,0.2,2-0.5S12.8,25.7,12.1,25.3z
				 M11.9,26.8C11.9,26.8,11.9,26.8,11.9,26.8c-0.2,0.3-0.5,0.4-0.8,0.2c-0.3-0.2-0.4-0.5-0.2-0.8c0.2-0.3,0.5-0.4,0.8-0.2
				C11.9,26.2,12,26.5,11.9,26.8z"/>
		</g>
	</g>
</g>
</svg>
