<svg width="39" height="26" viewBox="0 0 39 26" fill="none" xmlns="http://www.w3.org/2000/svg">
<path d="M3.15856 15.0313V15.041C3.10383 15.2474 3.00894 15.441 2.87933 15.6108C2.74972 15.7805 2.58793 15.923 2.40321 16.0301C2.21848 16.1373 2.01445 16.207 1.80277 16.2352C1.59109 16.2635 1.37592 16.2497 1.16956 16.1947C-0.231187 15.8243 0.0158133 14.209 0.0158133 14.209L0.0710632 14.0075C0.0710632 14.0075 0.155564 13.7345 0.223814 13.5363C1.05783 11.1978 2.28561 9.01926 3.85406 7.09475C6.77581 3.53925 11.6801 0 19.4606 0C27.2443 0 32.1486 3.53925 35.0638 7.09475C36.6323 9.01926 37.86 11.1978 38.6941 13.5363C38.7641 13.7372 38.8292 13.9398 38.8891 14.144L38.8988 14.1863L38.9053 14.1993V14.2058C39.0084 14.6194 38.9448 15.0569 38.7283 15.4241C38.5118 15.7913 38.1597 16.0587 37.7479 16.1687C37.336 16.2787 36.8975 16.2225 36.5267 16.0121C36.1559 15.8018 35.8827 15.4542 35.7658 15.0443L35.7626 15.0313L35.7366 14.95C35.5521 14.3748 35.3351 13.8106 35.0866 13.26C34.424 11.7872 33.5718 10.4072 32.5516 9.15525C30.1368 6.214 26.1036 3.25 19.4606 3.25C12.8176 3.25 8.78106 6.214 6.36956 9.15525C5.04524 10.7818 4.00673 12.6215 3.29831 14.5958C3.25816 14.7131 3.22024 14.8312 3.18456 14.95L3.15856 15.0313Z" fill="white"/>
<path d="M19.4604 9.75C17.3056 9.75 15.2389 10.606 13.7152 12.1298C12.1915 13.6535 11.3354 15.7201 11.3354 17.875C11.3354 20.0299 12.1915 22.0965 13.7152 23.6202C15.2389 25.144 17.3056 26 19.4604 26C21.6153 26 23.682 25.144 25.2057 23.6202C26.7294 22.0965 27.5854 20.0299 27.5854 17.875C27.5854 15.7201 26.7294 13.6535 25.2057 12.1298C23.682 10.606 21.6153 9.75 19.4604 9.75ZM14.5854 17.875C14.5854 16.5821 15.0991 15.3421 16.0133 14.4279C16.9275 13.5136 18.1675 13 19.4604 13C20.7534 13 21.9934 13.5136 22.9076 14.4279C23.8218 15.3421 24.3354 16.5821 24.3354 17.875C24.3354 19.1679 23.8218 20.4079 22.9076 21.3221C21.9934 22.2364 20.7534 22.75 19.4604 22.75C18.1675 22.75 16.9275 22.2364 16.0133 21.3221C15.0991 20.4079 14.5854 19.1679 14.5854 17.875Z" fill="white"/>
</svg>
