<svg width="38" height="34" viewBox="0 0 38 34" fill="none" xmlns="http://www.w3.org/2000/svg">
<path d="M37.7715 31.544L20.1586 1.03734C19.9192 0.622891 19.4771 0.367432 18.9983 0.367432C18.5195 0.367432 18.0774 0.622891 17.838 1.03734L0.179536 31.623C-0.0598453 32.0374 -0.0598453 32.5483 0.179536 32.9628C0.418917 33.3772 0.861237 33.6327 1.33982 33.6327H36.6566H36.6602C37.4003 33.6327 38 33.033 38 32.2929C38 32.0154 37.9157 31.7578 37.7715 31.544ZM3.66039 30.953L18.9981 4.38689L34.3359 30.953H3.66039Z" fill="white"/>
<path d="M17.6584 11.6806V23.0922C17.6584 23.8323 18.2582 24.432 18.9983 24.432C19.7384 24.432 20.3381 23.8323 20.3381 23.0922V11.6806C20.3381 10.9405 19.7384 10.3408 18.9983 10.3408C18.2582 10.3408 17.6584 10.9407 17.6584 11.6806Z" fill="white"/>
<path d="M18.9983 28.9651C19.9186 28.9651 20.6647 28.219 20.6647 27.2987C20.6647 26.3784 19.9186 25.6323 18.9983 25.6323C18.078 25.6323 17.3319 26.3784 17.3319 27.2987C17.3319 28.219 18.078 28.9651 18.9983 28.9651Z" fill="white"/>
</svg>
