<svg width="39" height="26" viewBox="0 0 39 26" fill="none" xmlns="http://www.w3.org/2000/svg">
<path d="M3.15954 15.0313V15.041C3.10481 15.2474 3.00992 15.441 2.88031 15.6108C2.7507 15.7805 2.58891 15.923 2.40418 16.0301C2.21946 16.1373 2.01542 16.207 1.80374 16.2352C1.59207 16.2635 1.3769 16.2497 1.17054 16.1947C-0.23021 15.8243 0.0167898 14.209 0.0167898 14.209L0.0720397 14.0075C0.0720397 14.0075 0.15654 13.7345 0.22479 13.5363C1.05881 11.1978 2.28659 9.01926 3.85504 7.09475C6.77679 3.53925 11.681 0 19.4615 0C27.2453 0 32.1495 3.53925 35.0648 7.09475C36.6332 9.01926 37.861 11.1978 38.695 13.5363C38.7651 13.7372 38.8301 13.9398 38.89 14.144L38.8998 14.1863L38.9063 14.1993V14.2058C39.0094 14.6194 38.9458 15.0569 38.7293 15.4241C38.5128 15.7913 38.1607 16.0587 37.7488 16.1687C37.337 16.2787 36.8984 16.2225 36.5277 16.0121C36.1569 15.8018 35.8837 15.4542 35.7668 15.0443L35.7635 15.0313L35.7375 14.95C35.5531 14.3748 35.3361 13.8106 35.0875 13.26C34.425 11.7872 33.5728 10.4072 32.5525 9.15525C30.1378 6.214 26.1045 3.25 19.4615 3.25C12.8185 3.25 8.78204 6.214 6.37054 9.15525C5.04622 10.7818 4.00771 12.6215 3.29929 14.5958C3.25914 14.7131 3.22121 14.8312 3.18554 14.95L3.15954 15.0313Z" fill="white"/>
<path d="M19.4615 9.75C17.3066 9.75 15.24 10.606 13.7163 12.1298C12.1925 13.6535 11.3365 15.7201 11.3365 17.875C11.3365 20.0299 12.1925 22.0965 13.7163 23.6202C15.24 25.144 17.3066 26 19.4615 26C21.6164 26 23.683 25.144 25.2068 23.6202C26.7305 22.0965 27.5865 20.0299 27.5865 17.875C27.5865 15.7201 26.7305 13.6535 25.2068 12.1298C23.683 10.606 21.6164 9.75 19.4615 9.75ZM14.5865 17.875C14.5865 16.5821 15.1001 15.3421 16.0144 14.4279C16.9286 13.5136 18.1686 13 19.4615 13C20.7544 13 21.9944 13.5136 22.9087 14.4279C23.8229 15.3421 24.3365 16.5821 24.3365 17.875C24.3365 19.1679 23.8229 20.4079 22.9087 21.3221C21.9944 22.2364 20.7544 22.75 19.4615 22.75C18.1686 22.75 16.9286 22.2364 16.0144 21.3221C15.1001 20.4079 14.5865 19.1679 14.5865 17.875Z" fill="white"/>
</svg>
