<?xml version="1.0" encoding="utf-8"?>
<!-- Generator: Adobe Illustrator 26.3.1, SVG Export Plug-In . SVG Version: 6.00 Build 0)  -->
<svg version="1.1" id="Layer_2_00000130644790156565484390000008745952042554012847_"
	 xmlns="http://www.w3.org/2000/svg" xmlns:xlink="http://www.w3.org/1999/xlink" x="0px" y="0px" viewBox="0 0 1907.4 737.2"
	 style="enable-background:new 0 0 1907.4 737.2;" xml:space="preserve">
<style type="text/css">
	.st0{opacity:0.55;}
	.st1{opacity:0.15;}
	.st2{fill:#FFFFFF;}
	.st3{opacity:0.14;}
	.st4{opacity:0.25;}
	.st5{opacity:0.3;}
	.st6{opacity:0.2;}
	.st7{opacity:0.22;}
	.st8{opacity:0.4;}
	.st9{opacity:0.8;}
	.st10{opacity:0.26;}
	.st11{opacity:0.6;}
	.st12{opacity:0.19;}
	.st13{opacity:0.17;}
	.st14{opacity:0.18;}
	.st15{opacity:0;}
</style>
<g id="Layer_1-2" class="st0">
	<g>
		<g>
			<g class="st1">
				<path class="st2" d="M666,246.9c-4.4,13-17.6,21.3-34.4,23.6c-1.6,0.2-2.5,11.8-2.5,11.8s-5.3-11.2-6.7-11.2
					c-8.8,0.1-18.4-1.4-27.9-4.6c-32.1-10.8-52.3-37.2-45-58.8c7.3-21.7,39.3-30.5,71.4-19.7C653.1,198.8,673.3,225.2,666,246.9
					L666,246.9z"/>
				<path class="st2" d="M663.7,212.5c-3.1-4.9-7.5-9.3-13.2-13.2c-5.7-3.8-12.3-6.9-19.6-9c-7.6-2.2-15.7-3.5-24.1-3.6
					s-16.5,0.8-24.2,2.7c-7.5,1.9-14.2,4.7-20,8.3c-5.8,3.6-10.4,7.9-13.7,12.6c-3.4,5-5.2,10.3-5.3,15.9s1.5,10.9,4.7,16.1
					c3.1,4.9,7.5,9.3,13.2,13.2c5.7,3.8,12.3,6.8,19.6,9c5.5,1.6,11.3,2.7,17.3,3.2l-9.6-3.4c-25.2-5.1-43.5-20.4-43.1-38.1
					c0.4-21.4,27.8-38.2,61.1-37.6s60,18.5,59.6,39.9l1,7c0.7-2.3,1-4.6,1-6.9C668.5,223.1,666.9,217.7,663.7,212.5L663.7,212.5z"/>
			</g>
			<g class="st3">
				<path class="st2" d="M959.5,233.1c3,9,12.2,14.9,23.9,16.4c1.1,0.2,1.7,8.2,1.7,8.2s3.7-7.8,4.7-7.8c6.2,0,12.8-1,19.4-3.2
					c22.4-7.5,36.4-25.9,31.3-40.9c-5.1-15.1-27.3-21.2-49.7-13.7C968.5,199.7,954.5,218,959.5,233.1L959.5,233.1z"/>
				<path class="st2" d="M961.1,209.2c2.1-3.4,5.2-6.5,9.2-9.2c3.9-2.6,8.5-4.8,13.7-6.3c5.3-1.6,10.9-2.4,16.8-2.5
					c5.8-0.1,11.5,0.5,16.9,1.9c5.2,1.3,9.9,3.2,13.9,5.8c4.1,2.5,7.3,5.5,9.5,8.8c2.4,3.5,3.6,7.2,3.7,11.1c0.1,3.9-1,7.6-3.2,11.2
					c-2.1,3.4-5.2,6.5-9.2,9.2c-3.9,2.6-8.5,4.8-13.7,6.3c-3.8,1.1-7.9,1.9-12,2.3l6.7-2.3c17.5-3.6,30.3-14.2,30-26.5
					c-0.3-14.9-19.4-26.6-42.5-26.1c-23.2,0.4-41.8,12.9-41.5,27.8l-0.7,4.9c-0.5-1.6-0.7-3.2-0.7-4.8
					C957.8,216.6,958.9,212.8,961.1,209.2L961.1,209.2z"/>
			</g>
			<g class="st4">
				<path class="st2" d="M938.7,159.6c2.4,7,9.5,11.5,18.6,12.8c0.9,0.1,1.3,6.4,1.3,6.4s2.8-6.1,3.6-6.1c4.8,0,9.9-0.8,15.1-2.5
					c17.4-5.9,28.2-20.1,24.3-31.8c-3.9-11.7-21.2-16.5-38.6-10.6C945.7,133.7,934.8,147.9,938.7,159.6L938.7,159.6z"/>
				<path class="st2" d="M939.9,141.1c1.7-2.6,4.1-5.1,7.1-7.1c3.1-2.1,6.6-3.7,10.6-4.9c4.1-1.2,8.5-1.9,13-2s8.9,0.4,13.1,1.5
					c4,1,7.7,2.5,10.8,4.5c3.2,1.9,5.6,4.2,7.4,6.8c1.8,2.7,2.8,5.6,2.9,8.6s-0.8,5.9-2.5,8.7c-1.7,2.6-4.1,5.1-7.1,7.1
					c-3.1,2.1-6.6,3.7-10.6,4.9c-3,0.9-6.1,1.5-9.3,1.8l5.2-1.8c13.6-2.8,23.5-11,23.3-20.6c-0.2-11.5-15-20.7-33-20.3
					c-18,0.3-32.4,10-32.2,21.6l-0.5,3.8c-0.3-1.2-0.5-2.5-0.6-3.8C937.3,146.8,938.2,143.8,939.9,141.1L939.9,141.1z"/>
			</g>
			<g class="st5">
				<path class="st2" d="M7.6,718c2.4,7,9.5,11.5,18.6,12.8c0.9,0.1,1.3,6.4,1.3,6.4s2.8-6,3.6-6c4.8,0,9.9-0.8,15.1-2.5
					c17.4-5.8,28.3-20.1,24.3-31.8c-3.9-11.7-21.2-16.5-38.6-10.6C14.6,692.1,3.7,706.3,7.6,718L7.6,718z"/>
				<path class="st2" d="M8.8,699.5c1.7-2.7,4.1-5,7.1-7.1c3.1-2.1,6.6-3.7,10.6-4.9c4.1-1.2,8.5-1.9,13-2s8.9,0.4,13.1,1.5
					c4,1,7.7,2.5,10.8,4.5c3.2,2,5.6,4.2,7.4,6.8c1.8,2.7,2.8,5.6,2.9,8.6s-0.8,5.9-2.5,8.7c-1.7,2.7-4.1,5-7.1,7.1
					c-3.1,2.1-6.6,3.7-10.6,4.9c-3,0.9-6.1,1.5-9.3,1.8l5.2-1.8c13.6-2.8,23.5-11,23.3-20.6c-0.2-11.5-15-20.7-33-20.3
					c-18,0.3-32.4,10-32.2,21.6l-0.5,3.8c-0.4-1.2-0.5-2.5-0.6-3.8C6.2,705.2,7.1,702.2,8.8,699.5L8.8,699.5z"/>
			</g>
			<g class="st6">
				<path class="st2" d="M1818.7,676.1c2.4,7,9.5,11.5,18.6,12.8c0.9,0.1,1.3,6.4,1.3,6.4s2.8-6,3.6-6c4.8,0,9.9-0.8,15.1-2.5
					c17.4-5.8,28.2-20.1,24.3-31.8c-3.9-11.7-21.2-16.5-38.6-10.6C1825.7,650.1,1814.8,664.4,1818.7,676.1L1818.7,676.1z"/>
				<path class="st2" d="M1819.9,657.5c1.7-2.7,4.1-5,7.1-7.1c3.1-2.1,6.6-3.7,10.6-4.9c4.1-1.2,8.5-1.9,13-2s8.9,0.4,13.1,1.5
					c4,1,7.7,2.5,10.8,4.5c3.2,2,5.6,4.2,7.4,6.8c1.8,2.7,2.8,5.6,2.9,8.6c0.1,3-0.8,5.9-2.5,8.7c-1.7,2.7-4.1,5-7.1,7.1
					c-3.1,2.1-6.6,3.7-10.6,4.9c-3,0.9-6.1,1.5-9.3,1.8l5.2-1.8c13.6-2.8,23.5-11,23.3-20.6c-0.2-11.5-15-20.7-33-20.3
					s-32.4,10-32.2,21.6l-0.5,3.8c-0.3-1.2-0.5-2.5-0.6-3.8C1817.3,663.2,1818.2,660.3,1819.9,657.5L1819.9,657.5z"/>
			</g>
			<g class="st7">
				<path class="st2" d="M408.4,190.1c19.8-13.4,51.6-20.9,78.3-4.2c20.4,12.8,38,39.8,30.8,65.7c-2.9,10.4-9.1,18.3-17,24.3
					c-1.8,1.4,5,15.1,3.1,16.2c-2.4,1.4-13.4-9.8-15.9-8.7c-14.2,6.5-30.2,8.7-41.5,8.7c-23.6-0.2-62.8-10.8-69.9-40.6
					C370,225.4,392.5,200.9,408.4,190.1L408.4,190.1z"/>
				<g>
					<path class="st2" d="M489.5,291c-0.3-0.5-1-0.8-1.5-0.5c-11.4,4.7-25.3,7.5-38,7.5c-0.2,0-0.4,0-0.6,0
						c-13.5-0.1-28.7-3.5-40.6-9c-1.9-0.9-4-2-6-3.1c-0.6-0.3-1.3-0.1-1.7,0.4v0c-0.4,0.6-0.2,1.4,0.4,1.7c2,1.1,4,2.2,6.2,3.3
						c12.2,5.7,27.8,9.2,41.7,9.3c0.2,0,0.4,0,0.6,0c13,0,27.3-2.8,39-7.7C489.6,292.5,489.9,291.7,489.5,291L489.5,291L489.5,291z"
						/>
					<path class="st2" d="M516,218.8c-6-10.8-15.1-20.5-25.4-26.9c-6.5-4.1-13.6-6.9-21.1-8.4c-6.9-1.4-14.1-1.7-21.4-0.9
						c-13.1,1.4-26.3,6.2-37.1,13.6c-4.6,3.1-16.1,11.8-24.7,25.4c-3.8,5.9-6.4,11.9-7.8,17.8c-1.6,6.7-1.7,13.4-0.2,19.7
						c1.7,7.2,5.4,13.8,10.9,19.5c1.8,1.8,3.7,3.5,5.8,5.1c0.6,0.5,1.5,0.3,1.8-0.4v0c0.3-0.5,0.2-1.2-0.3-1.6
						c-7-5.4-13.4-12.9-15.8-23.2c-6.3-26.3,16.9-50.2,31.6-60.2c19.9-13.6,51.5-20.1,76.9-4.2c9.5,6,18.5,15.2,24.5,26.1
						c0.3,0.6,1.1,0.8,1.7,0.5h0C516.1,220.2,516.4,219.4,516,218.8L516,218.8z"/>
					<path class="st2" d="M520.1,227.6c-0.2-0.7-1-1-1.7-0.7l-0.1,0.1c-0.6,0.3-0.8,0.9-0.6,1.6c3.6,9.5,4.7,19.8,1.9,29.8
						c-2.2,7.7-6.3,14.5-12.5,20.2c-0.5,0.5-0.5,1.3,0,1.8l0,0c0.5,0.4,1.2,0.5,1.7,0c6.5-6,10.9-13.2,13.2-21.4
						C524.7,249,524,238.3,520.1,227.6L520.1,227.6z"/>
				</g>
			</g>
			<g class="st6">
				<path class="st2" d="M550.7,431l-11.5-2.7l0,16l-13.3-19.1l-66.2-15.6c-8.9-2.1-14.6-10.8-13-19.8l7-39.6c1.6-9,10-15.2,19-14.1
					l93,11c9.8,1.2,16.7,10.4,15,20.2l-8.8,50C570,427,560.4,433.3,550.7,431L550.7,431z"/>
				<g>
					<path class="st2" d="M482.3,411.2l53.9,7.5c0.5,0.1,1-0.3,1.1-0.8v0c0.1-0.6-0.2-1.1-0.8-1.2l-53.9-7.5c-0.5-0.1-1,0.3-1.1,0.8
						v0C481.3,410.6,481.7,411.1,482.3,411.2L482.3,411.2z"/>
					<path class="st2" d="M562.4,345l-90.7-23.2c-4.9-1.3-10-0.5-14.3,2.2s-7.2,6.9-8.2,11.9l-9.8,49.8c-1,5,0.1,10,3,14.1
						c2.7,3.8,6.7,6.4,11.3,7.3c0.4,0.1,0.7,0.1,1,0.2l20.5,2.8c0.5,0.1,1.1-0.3,1.1-0.9v0c0-0.5-0.3-1-0.8-1.1l-20.5-2.8
						c-4.5-0.6-8.4-3-11-6.7c-2.6-3.7-3.6-8.1-2.7-12.6l9.8-49.8c0.9-4.4,3.5-8.2,7.3-10.6s8.3-3.1,12.7-2l90.7,23.2
						c8.3,2.1,13.6,10.5,11.9,18.9l-7.8,39.4c-1.7,8.5-9.7,14.2-18.2,13l-4.7-0.7c-0.5-0.1-1,0.3-1.1,0.9l0,0
						c-0.1,0.5,0.3,1,0.8,1.1l4.7,0.6c9.6,1.3,18.6-5.1,20.4-14.6l7.8-39.4C577.6,356.7,571.7,347.4,562.4,345L562.4,345z"/>
				</g>
			</g>
			<g class="st8">
				<g>
					<g class="st6">
						<path class="st2" d="M186.6,330.1c-9.8,27.4,22.6,62.3,50.1,77.5c5.9,3.3,30,16.6,56.6,14.5c4-0.3,12.7,20.2,16.8,19.1
							c2.1-0.6-0.4-22.5,1.7-23.3c4-1.5,7.9-3.6,11.8-6.1c28-18.5,42.3-59.1,27.3-86.6c-16.9-30.9-61.9-28.6-86.6-27.3
							C247.1,298.8,196.8,301.4,186.6,330.1L186.6,330.1z"/>
						<path class="st2" d="M337.4,305.3c-4.4-7.3-10-13.2-16.5-17.4c-7.2-4.6-15.3-7.1-24.3-7.4c-7.6-0.2-16,1.1-24.9,4
							c-16.1,5.2-30.9,14.3-41.7,20.9c-7.1,4.4-21.8,13.4-33.9,25c-15.1,14.5-21.7,28.7-19.6,42.1c1.1,7.1,4.7,13.8,10.6,19.9
							c5.2,5.3,12.2,10.1,20.8,14.1c15.1,7.1,34.3,11.4,51.3,11.5l-10.4-3.7c-13.6-1.4-27.8-5.1-39.5-10.6
							c-12.1-5.7-27.1-15.8-29.6-31.5c-1.9-12.3,4.3-25.5,18.6-39.3c11.8-11.4,25.9-20,33.4-24.6c10.6-6.5,25.2-15.5,41-20.6
							c18.7-6,33.9-5,46.4,3.1c6.9,4.5,12.7,10.9,16.9,18.7l5.5,4.3C340.4,310.7,339,307.9,337.4,305.3L337.4,305.3z"/>
					</g>
					<g class="st6">
						<path class="st2" d="M367.9,342.9c1.7,8,1.7,16.3,0.2,24.3c-1.5,8.2-4.3,16-8.2,23.4c-2.2,4.1-4.7,8-7.5,11.7
							c-0.5,0.7-0.5,1.6,0.1,2.2c0.6,0.5,1.7,0.6,2.2-0.1c5.3-6.9,9.6-14.5,12.6-22.6c3-8.1,4.8-16.7,5-25.4
							c0.1-4.9-0.4-9.7-1.4-14.5c-0.2-0.8-1.3-1.2-2-1C368,341.1,367.8,342,367.9,342.9L367.9,342.9L367.9,342.9z"/>
					</g>
				</g>
				<g class="st6">
					<path class="st2" d="M264.2,305.6c8.9-4.9,18.1-9.1,27.6-12.6c2.7-1,5.4-1.9,8.1-2.8c0.8-0.3,1.1-1.4,0.8-2.1
						c-0.4-0.9-1.3-1-2.1-0.8c-9.6,3.1-19.1,6.9-28.1,11.4c-2.6,1.3-5.1,2.6-7.6,4c-0.8,0.4-1.1,1.3-0.8,2.1
						C262.5,305.6,263.5,306,264.2,305.6L264.2,305.6L264.2,305.6z"/>
				</g>
			</g>
			<g class="st9">
				<g>
					<g class="st6">
						<path class="st2" d="M380.5,502.1c14.2,12,7.5,41.7-2.8,58.8c-2.2,3.7-11.3,18.8-26.6,26.2c-2.3,1.1-0.5,15.2-3.1,15.9
							c-1.3,0.3-7-12.5-8.4-12.3c-2.7,0.4-5.5,0.6-8.5,0.4c-21.4-1.3-42.3-19.1-42.9-39.1c-0.6-22.5,25-35.6,39.1-42.9
							C337,504.1,365.6,489.5,380.5,502.1L380.5,502.1z"/>
						<path class="st2" d="M289.2,536.7c0.1-5.5,1.3-10.5,3.5-14.9c2.5-4.8,6.2-8.8,11-11.9c4.1-2.6,9.1-4.5,15-5.8
							c10.6-2.3,21.6-2,29.7-1.8c5.3,0.1,16.4,0.4,26.8,3c13,3.2,21.2,8.9,24.3,17c1.7,4.3,1.8,9.1,0.5,14.4
							c-1.2,4.6-3.5,9.5-7,14.4c-6.1,8.8-15.3,17.2-24.6,22.8l4.6-5.4c7.1-5.1,13.7-11.7,18.4-18.5c4.9-7,9.9-17.4,6.2-26.9
							c-2.9-7.4-10.6-12.7-22.9-15.7c-10.2-2.5-20.7-2.8-26.3-2.9c-8-0.2-18.9-0.5-29.2,1.8c-12.2,2.7-20.3,8.1-24.7,16.6
							c-2.4,4.7-3.5,10.1-3.3,15.8l-1.7,4.1C289.3,540.6,289.2,538.6,289.2,536.7L289.2,536.7z"/>
					</g>
					<g class="st6">
						<path class="st2" d="M284.4,567.2c1.6,5,4.3,9.5,7.6,13.5c3.4,4,7.5,7.5,12,10.3c2.5,1.6,5.2,2.9,7.9,4
							c0.5,0.2,0.8,0.7,0.6,1.3c-0.2,0.5-0.8,0.8-1.3,0.7c-5.1-2.1-9.9-4.9-14.2-8.4c-4.3-3.5-8-7.7-10.9-12.4
							c-1.6-2.7-2.9-5.5-3.9-8.5c-0.2-0.5,0.3-1.1,0.8-1.2C283.8,566.3,284.2,566.7,284.4,567.2L284.4,567.2L284.4,567.2z"/>
					</g>
				</g>
				<g class="st6">
					<path class="st2" d="M329.7,513.4c-6.5,0.2-12.9,0.8-19.3,1.9c-1.8,0.3-3.6,0.7-5.4,1.1c-0.5,0.1-1-0.4-1.1-0.9
						c0-0.6,0.4-1,0.9-1.1c6.3-1.4,12.7-2.3,19.2-2.7c1.8-0.1,3.6-0.2,5.5-0.2c0.5,0,1,0.4,1.1,0.9
						C330.7,512.8,330.3,513.4,329.7,513.4L329.7,513.4L329.7,513.4z"/>
				</g>
			</g>
			<g class="st9">
				<g class="st6">
					<path class="st2" d="M33.3,295.6c7.4,22,28.7,30.5,32.3,31.8c7.4,2.1,14.8,3.4,21.9,3.8c1.8,0.1,6.3,13.1,6.3,13.1
						s5.8-13,9.2-13.4c27.9-2.7,51.1-17.7,60.6-39c9-20.1,7.7-50.4-11.3-69c-16.3-15.9-38-15.7-44.8-15.7
						c-32.4,0.3-60.3,23.1-70.9,49.4C33.6,264.2,27.7,278.8,33.3,295.6L33.3,295.6z"/>
					<path class="st2" d="M148.2,214.3c-7.1-7-16.1-11.8-26.6-14.2c-8.5-2-15.7-1.9-19.1-1.9c-15.7,0.2-31,5.4-44.4,15.2
						c-12.4,9.1-22.3,21.5-27.8,35c-1.5,3.7-3.8,9.3-5,16.2c-1.4,8.2-0.9,16.1,1.6,23.6c7.2,21.4,27.1,30.4,33.1,32.7l0.1,0
						c5.2,1.5,16.4,7.1,44.2,2.8c8.3-1.4,16.2-3.9,23.3-7.3c14.6-7.1,26.1-18.1,32.2-31.6c2.3-5.2,3.9-10.9,4.8-17
						c0.9-6.2,0.9-12.6,0.2-18.8C163,235.2,157.3,223.2,148.2,214.3L148.2,214.3z M157.3,283.8c-8.6,19.2-28.6,33.1-53,37.3
						c-23.9,3.6-38.5-1.2-43.3-2.6c-5.7-2.2-24.7-10.8-31.4-31c-5.5-16.3,0.2-30.3,3.3-37.9c11.5-28.3,40.1-48.3,69.7-48.6
						c6.9-0.1,27.9-0.3,43.8,15.3C165.1,234.6,166,264.1,157.3,283.8L157.3,283.8z"/>
				</g>
				<g class="st6">
					<path class="st2" d="M151.5,212.3c3.2,2.9,5.9,6.3,8.2,9.9c2.4,3.8,4.5,7.9,5.8,12.2c0.7,2.3,1.2,4.6,1.5,7
						c0.1,0.8,1,1.3,1.7,1.2c0.8-0.1,1.2-0.9,1.2-1.7c-0.5-4.5-1.9-8.9-3.8-13c-2-4.3-4.5-8.4-7.4-12.1c-1.5-1.9-3.2-3.8-5-5.4
						c-0.6-0.5-1.4-0.7-2.1-0.1C151.1,210.7,150.9,211.8,151.5,212.3L151.5,212.3L151.5,212.3z"/>
				</g>
				<g class="st6">
					<path class="st2" d="M23.2,290.3c-3.7-10-4.5-21-2.5-31.4c0.6-3,1.4-5.9,2.4-8.7c0.6-1.8-2.1-2.7-2.7-1
						c-3.8,10.5-4.6,22.1-2.4,33.1c0.6,3.1,1.5,6.2,2.7,9.2c0.3,0.7,1.3,1,1.9,0.7C23.3,291.9,23.5,291,23.2,290.3L23.2,290.3
						L23.2,290.3z"/>
				</g>
			</g>
			<g class="st8">
				<g class="st6">
					<path class="st2" d="M661.9,430.2c0,0-4.5,8.7-7.5,16.8l-5.6-26.3l-41.1-29.6c-6.8-4.9-8.7-14.2-4.4-21.4l29-48
						c4.9-8,15.6-10.2,23.2-4.7l62.5,45c7.6,5.5,8.9,16.3,2.9,23.5l-37.2,42.1C678.1,434,668.7,435.1,661.9,430.2L661.9,430.2z"/>
					<path class="st2" d="M696.7,422.7l16.7-28.8l13-22.4v0c2.6-4.7,3.2-10.2,1.6-15.2c-1.6-5-5.3-8.9-10.2-10.7l-78.6-30
						c-4.9-1.9-10.3-1.4-14.8,1.2c-4.5,2.6-7.7,7.1-8.9,12.4l-13,57.5c-0.9,4.1-0.3,8.5,1.8,12.2c2.1,3.8,5.4,6.6,9.3,8.1l34.7,13.2
						l-6-4.4l-28-10.7c-7.2-2.7-11.5-10.6-9.8-18l13.1-57.5c1.1-4.7,3.8-8.6,7.8-10.9c4-2.3,8.6-2.7,13-1.1l78.4,29.9
						c4.3,1.6,7.5,5,9,9.4c1.4,4.4,0.9,9.1-1.4,13.3l-18,31.2l-11.5,20v0c-2.8,5-8.2,7.9-13.8,7.9l-2.5,1.7c2.9,0.4,5.8,0.1,8.6-0.9
						C691.3,429.2,694.6,426.4,696.7,422.7L696.7,422.7z"/>
				</g>
				<g class="st6">
					<path class="st2" d="M673.5,326.1c11,3.1,21.8,6.5,32.5,10.4c3,1.1,6,2.2,9,3.3c1.3,0.5,2.1-1.5,0.8-2
						c-10.6-4.1-21.4-7.7-32.3-11c-3-0.9-6.1-1.8-9.2-2.7c-0.6-0.2-1.2,0.1-1.4,0.6C672.7,325.2,672.9,326,673.5,326.1L673.5,326.1z
						"/>
				</g>
				<g class="st6">
					<path class="st2" d="M725.9,347.8c3.3,1.5,5.6,4.8,5.9,8.4c0,0.6,0.7,1,1.2,0.9c0.6-0.1,1-0.7,0.9-1.2c-0.4-4.4-3.3-8.3-7.3-10
						c-0.5-0.2-1.2,0.1-1.4,0.6C725.1,346.9,725.4,347.5,725.9,347.8L725.9,347.8z"/>
				</g>
				<g class="st6">
					<path class="st2" d="M719.2,390c-3.6,6.8-7.2,13.6-10.8,20.4c-0.3,0.5,0.1,1.2,0.6,1.4c0.6,0.2,1.1-0.1,1.4-0.6
						c3.6-6.8,7.2-13.6,10.8-20.4c0.3-0.5-0.1-1.2-0.6-1.4C720,389.1,719.4,389.4,719.2,390L719.2,390z"/>
				</g>
				<g class="st6">
					<path class="st2" d="M610.2,328.1c-1.8,4.7-2.9,9.7-3.3,14.7c-0.1,1.4,2.1,1.6,2.2,0.2c0.3-4.9,1.4-9.6,3.2-14.1
						C612.8,327.6,610.8,326.8,610.2,328.1L610.2,328.1L610.2,328.1z"/>
				</g>
			</g>
			<g class="st6">
				<path class="st2" d="M563.6,343.8c6.1,0.2,12,3.6,15.3,8.7c1,1.5,1.7,3,2.2,4.7c0.4,1.3,2.4,0.6,2-0.7c-2-6.6-7.5-11.7-14-13.8
					c-1.8-0.6-3.8-0.9-5.7-1c-0.6,0-1,0.6-1,1.1C562.5,343.4,563,343.8,563.6,343.8L563.6,343.8L563.6,343.8z"/>
			</g>
			<g class="st6">
				<path class="st2" d="M498.8,324.2c7.1,1.7,14.2,3.5,21.2,5.2c7,1.8,14.1,3.6,21.1,5.4c4,1,8,2.1,11.9,3.2
					c0.6,0.1,1.1-0.3,1.2-0.9c0.1-0.6-0.3-1.1-0.9-1.2c-7-1.9-14.1-3.8-21.1-5.6c-7-1.8-14.1-3.6-21.1-5.3c-4-1-8-2-12-2.9
					c-0.6-0.1-1.1,0.3-1.2,0.9C497.8,323.6,498.2,324.1,498.8,324.2L498.8,324.2z"/>
			</g>
			<g class="st6">
				<path class="st2" d="M439.8,355c-1.1,6.8-2.2,13.6-3.3,20.4c-0.3,1.9-0.6,3.9-1,5.8c-0.2,1.4,1.9,1.7,2.1,0.4
					c1.1-6.8,2.2-13.6,3.3-20.4c0.3-1.9,0.6-3.9,1-5.8C442.1,354,440,353.6,439.8,355L439.8,355z"/>
			</g>
			<g class="st1">
				<path class="st2" d="M114.9,684.2l-11.3-5.8L99.5,695l-9-23.3l-65-33c-8.8-4.5-12.5-15-8.6-24l17.3-39.4c4-9,14.2-13.3,23.4-9.9
					l94,35.1c10,3.7,14.8,15,10.5,24.8l-21.9,49.8C136,684.9,124.4,689,114.9,684.2L114.9,684.2z"/>
				<g>
					<path class="st2" d="M48.6,646.2l54.2,21.4c0.5,0.2,1.1,0,1.3-0.5v0c0.3-0.6,0-1.2-0.6-1.5l-54.2-21.4c-0.5-0.2-1.1,0-1.4,0.6
						v0C47.8,645.3,48,645.9,48.6,646.2L48.6,646.2z"/>
					<path class="st2" d="M148.8,597.6l-88.6-47.2c-4.8-2.6-10.3-3-15.5-1.3s-9.3,5.4-11.5,10.3l-22.8,49.4
						c-2.3,4.9-2.4,10.4-0.4,15.5c1.9,4.7,5.4,8.4,9.9,10.5c0.3,0.2,0.7,0.3,1,0.5l20.6,8.2c0.6,0.2,1.2-0.1,1.4-0.6v0
						c0.2-0.5-0.1-1.1-0.6-1.3l-20.6-8.2c-4.5-1.8-8-5.2-9.8-9.7c-1.8-4.5-1.7-9.4,0.4-13.8l22.8-49.4c2-4.4,5.7-7.7,10.3-9.2
						c4.6-1.5,9.5-1.1,13.8,1.1l88.5,47.2c8.2,4.3,11.5,14.3,7.6,22.7l-18.1,39.1c-3.9,8.4-13.6,12.3-22.2,8.9l-4.8-1.9
						c-0.6-0.2-1.2,0.1-1.4,0.6v0c-0.2,0.5,0.1,1.2,0.6,1.4l4.8,1.9c9.6,3.8,20.6-0.6,25-10l18.1-39.1
						C161.7,613.6,158,602.4,148.8,597.6L148.8,597.6z"/>
				</g>
			</g>
			<g class="st1">
				<path class="st2" d="M17.9,578.4c-2,4.3-4,8.6-6,12.9c-0.6,1.2-1.1,2.4-1.7,3.7c-0.4,0.9,0.9,1.5,1.3,0.6c2-4.3,4-8.6,6-12.9
					c0.6-1.2,1.1-2.4,1.7-3.7C19.7,578.2,18.3,577.6,17.9,578.4L17.9,578.4z"/>
			</g>
			<g class="st8">
				<g class="st6">
					<path class="st2" d="M373.1,463.1l5.6,1.6l-3.8,6.9l10.2-5l32.1,9c4.3,1.2,8.8-1.1,10.3-5.4l6.4-18.6c1.5-4.2-0.6-8.9-4.8-10.6
						l-42.4-17.3c-4.5-1.8-9.6,0.5-11.2,5.1l-8.1,23.5C365.8,456.8,368.4,461.8,373.1,463.1L373.1,463.1z"/>
					<g>
						<path class="st2" d="M407.1,470.8l-24.8-9.6c-0.2-0.1-0.4-0.3-0.3-0.6l0,0c0.1-0.3,0.4-0.4,0.6-0.3l24.8,9.6
							c0.2,0.1,0.4,0.4,0.3,0.6l0,0C407.7,470.8,407.4,470.9,407.1,470.8L407.1,470.8z"/>
						<path class="st2" d="M388.5,423.5l44.3,11.6c2.4,0.6,4.4,2.2,5.6,4.4c1.2,2.2,1.4,4.7,0.7,7l-7.6,23.6
							c-0.8,2.4-2.4,4.3-4.7,5.3c-2.1,1-4.4,1.1-6.6,0.5c-0.2,0-0.3-0.1-0.5-0.2l-9.5-3.6c-0.2-0.1-0.4-0.4-0.3-0.6l0,0
							c0.1-0.2,0.4-0.4,0.6-0.3l9.5,3.6c2.1,0.8,4.3,0.7,6.3-0.2c2-1,3.5-2.6,4.1-4.7l7.6-23.6c0.7-2.1,0.5-4.3-0.6-6.3
							c-1.1-1.9-2.8-3.3-5-3.9l-44.3-11.6c-4.1-1.1-8.3,1.2-9.6,5.3l-6,18.7c-1.3,4,0.8,8.4,4.7,9.9l2.2,0.8
							c0.2,0.1,0.4,0.4,0.3,0.6l0,0c-0.1,0.2-0.4,0.4-0.6,0.3l-2.2-0.8c-4.4-1.7-6.7-6.6-5.3-11.1l6-18.7
							C379.2,424.9,383.9,422.3,388.5,423.5L388.5,423.5z"/>
					</g>
				</g>
				<g class="st6">
					<path class="st2" d="M438.6,456.9c-1.1,3.2-2.3,6.3-3.4,9.5c-0.3,0.9-0.6,1.8-1,2.7c-0.2,0.6-1.2,0.3-1-0.3
						c1.1-3.2,2.3-6.3,3.4-9.5l1-2.7C437.9,455.9,438.8,456.2,438.6,456.9L438.6,456.9z"/>
				</g>
			</g>
			<g class="st8">
				<g class="st6">
					<path class="st2" d="M693.5,260c6.5-28.2,98-55.2,129.4-12.8c18.7,25.3,12.9,70.9-9.5,85c-24,15.1-68-5.1-95.7-29.9
						c-2.5-2.3-21.2,8.6-23.5,6.3c-2-2,12.5-17.3,10.8-19.4C696.4,278.7,691.7,268.1,693.5,260L693.5,260z"/>
					<g>
						<path class="st2" d="M733.4,314.9c0,0-2.3-1.2-2.9-1.5c-5.5-2.7-11.5-6.3-17-10.7l-2.7,0.9c5.1,4.4,11.3,8.4,18.5,12
							c2,1,4,1.9,6.1,2.8c3.1,1.3,6.4,2.6,9.7,3.8L733.4,314.9L733.4,314.9z"/>
						<path class="st2" d="M839,306.1c0.3-4.5-0.2-9.6-1.5-15.2c-2.5-11.1-7.8-23.5-15-34.9c-8.5-13.6-19-24.8-30.2-32.5
							c-6.2-4.3-12.6-7.4-19-9.2c-6.9-2-13.9-2.6-20.7-1.7c-8.5,1.1-17.4,4.6-25.6,10.2c-7.7,5.2-14.7,12-20.2,19.7
							c-7.4,10.4-11.4,21.5-11.4,31.4c0,2.4,0.2,4.7,0.7,7c1,4.9,3.2,9.6,6.6,14.1l1.4-2.1c-2.7-3.8-4.6-7.9-5.6-12.5
							c-2.2-10.8,1.5-24.1,10.4-36.5c11.2-15.7,28-26.8,44.1-28.9c23.7-3.1,48.9,12.7,67.6,42.3c7,11.2,12.3,23.3,14.7,34.2
							c2.4,10.9,1.9,19.9-1.6,25.2c-2.1,3.2-5.7,5.9-10.8,7.9c-0.4,0.1-0.7,0.3-1.1,0.4l-3.3,3.6c1.9-0.5,3.7-1.1,5.3-1.7
							c5.5-2.2,9.5-5.1,11.9-8.8C837.6,314.9,838.7,310.9,839,306.1L839,306.1z"/>
					</g>
				</g>
				<g class="st6">
					<path class="st2" d="M705.9,234.6c4.1-4.7,8.6-9,13.7-12.7c5-3.7,10.3-6.8,16-9.3c3.2-1.4,6.6-2.7,10-3.7
						c0.7-0.2,0.9-1.1,0.7-1.7c-0.3-0.7-1-0.9-1.7-0.7c-6.1,1.8-12,4.4-17.5,7.5c-5.6,3.2-10.8,6.9-15.6,11.2
						c-2.7,2.4-5.2,5-7.6,7.8C702.8,234.3,704.8,235.9,705.9,234.6L705.9,234.6L705.9,234.6z"/>
				</g>
				<g class="st6">
					<path class="st2" d="M752.7,208.1c3-0.2,6.1,0.1,9,0.7c0.7,0.1,1.3-0.5,1.4-1.1c0.1-0.7-0.4-1.3-1.1-1.4
						c-3.2-0.6-6.5-0.9-9.7-0.7c-0.7,0-1.2,0.8-1.1,1.4C751.3,207.7,752,208.1,752.7,208.1L752.7,208.1L752.7,208.1z"/>
				</g>
				<g class="st6">
					<path class="st2" d="M816.6,263.2c3.6,5.7,6.5,11.9,8.5,18.3c0.6,1.8,1.1,3.6,1.5,5.5c0.2,0.7,0.7,1.2,1.4,1.1
						c0.6-0.1,1.3-0.8,1.1-1.4c-1.6-6.9-4-13.5-7.4-19.7c-1-1.8-2-3.6-3.1-5.3c-0.4-0.6-1.3-0.6-1.8-0.3
						C816.3,261.9,816.2,262.6,816.6,263.2L816.6,263.2L816.6,263.2z"/>
				</g>
			</g>
			<g class="st8">
				<g class="st6">
					<path class="st2" d="M137.5,522.3c2.7-23.1,73.8-52.8,102.7-21.5c17.2,18.6,16.5,55.7-0.2,69c-17.9,14.2-55,1.8-79.3-15.7
						c-2.2-1.6-16.3,8.8-18.3,7.1c-1.8-1.5,8.5-15,7-16.5C141.5,537.1,136.7,529.1,137.5,522.3L137.5,522.3z"/>
					<g>
						<path class="st2" d="M174.3,562.9c0,0-1.9-0.8-2.5-1c-4.6-1.7-9.8-4-14.5-7.1l-2.1,1c4.4,3,9.8,5.7,15.9,8
							c1.7,0.6,3.4,1.2,5.1,1.7c2.6,0.8,5.3,1.5,8.1,2.2L174.3,562.9L174.3,562.9z"/>
						<path class="st2" d="M258.2,546.7c-0.2-3.6-1-7.7-2.5-12.1c-3-8.7-8.3-18.2-15.1-26.7c-8-10.2-17.4-18.3-27.1-23.5
							c-5.4-2.9-10.8-4.8-16-5.7c-5.7-1-11.4-0.9-16.8,0.4c-6.7,1.6-13.5,5.2-19.6,10.4c-5.7,4.8-10.8,10.9-14.5,17.6
							c-5,9-7.3,18.3-6.4,26.2c0.2,1.9,0.6,3.8,1.1,5.5c1.2,3.8,3.4,7.4,6.5,10.8l0.9-1.8c-2.5-2.8-4.4-5.9-5.6-9.5
							c-2.7-8.5-0.9-19.5,5.1-30.2c7.6-13.6,20.2-23.9,32.8-27c18.7-4.5,40.4,5.9,57.9,28.1c6.6,8.4,11.9,17.7,14.7,26.1
							c2.9,8.5,3.2,15.8,0.9,20.3c-1.4,2.8-4.1,5.2-7.9,7.2c-0.3,0.2-0.6,0.3-0.8,0.4l-2.4,3.2c1.5-0.6,2.8-1.2,4.1-1.8
							c4.2-2.2,7.2-5,8.8-8.1C257.8,553.9,258.4,550.6,258.2,546.7L258.2,546.7z"/>
					</g>
				</g>
				<g class="st6">
					<path class="st2" d="M145.2,501c2.9-4.1,6.1-8,9.8-11.4c3.7-3.4,7.7-6.4,12-8.9c2.5-1.4,5.1-2.7,7.7-3.8
						c0.5-0.2,0.7-0.9,0.4-1.4c-0.3-0.5-0.9-0.6-1.4-0.4c-4.7,2-9.2,4.5-13.4,7.5c-4.2,3-8.1,6.5-11.5,10.4
						c-1.9,2.2-3.8,4.5-5.4,6.9C142.7,501,144.5,502,145.2,501L145.2,501L145.2,501z"/>
				</g>
				<g class="st6">
					<path class="st2" d="M180.5,475.6c2.4-0.4,4.9-0.5,7.3-0.2c0.6,0,1-0.5,1.1-1c0-0.6-0.4-1-1-1c-2.6-0.2-5.2-0.1-7.8,0.3
						c-0.6,0.1-0.9,0.7-0.8,1.2C179.4,475.4,179.9,475.7,180.5,475.6L180.5,475.6L180.5,475.6z"/>
				</g>
				<g class="st6">
					<path class="st2" d="M236.5,514.3c3.4,4.3,6.2,9,8.4,14c0.6,1.4,1.2,2.8,1.7,4.3c0.2,0.5,0.7,0.9,1.2,0.8
						c0.5-0.1,0.9-0.7,0.8-1.2c-1.9-5.4-4.4-10.5-7.6-15.2c-0.9-1.4-1.9-2.7-2.9-4c-0.4-0.4-1.1-0.4-1.5,0
						C236.1,513.2,236.2,513.8,236.5,514.3L236.5,514.3L236.5,514.3z"/>
				</g>
			</g>
			<g class="st1">
				<path class="st2" d="M584.6,184.8c11.6-2.1,23.5-2.5,35.2-1.1c3.3,0.4,6.5,0.9,9.8,1.5c0.6,0.1,1.2-0.1,1.4-0.7
					c0.2-0.5-0.1-1.3-0.7-1.4c-11.9-2.4-24-3-36.1-1.9c-3.4,0.3-6.7,0.8-10.1,1.4C582.7,182.8,583.2,185,584.6,184.8L584.6,184.8z"
					/>
			</g>
			<g class="st1">
				<path class="st2" d="M642.4,191c3.6,1.7,7,4,9.9,6.7c0.5,0.4,1.1,0.5,1.6,0.1c0.4-0.4,0.6-1.2,0.1-1.6c-3.2-3-6.9-5.5-10.9-7.4
					c-0.5-0.3-1.2,0.2-1.4,0.7C641.5,190.2,641.9,190.8,642.4,191L642.4,191L642.4,191z"/>
			</g>
			<g class="st1">
				<path class="st2" d="M667.9,244.1c-0.7,4.8-2.7,9.4-5.6,13.3c-2.9,3.9-6.8,7.2-11.2,9.3c-2.5,1.2-5.1,2.1-7.8,2.5
					c-1.4,0.2-1,2.5,0.5,2.2c5.2-0.9,10.1-3.2,14.2-6.4c4.2-3.3,7.5-7.5,9.7-12.3c1.3-2.7,2.1-5.6,2.5-8.6c0.1-0.6-0.5-1.2-1.1-1.2
					C668.4,243,668,243.5,667.9,244.1L667.9,244.1L667.9,244.1z"/>
			</g>
			<g class="st7">
				<path class="st2" d="M366.4,228.5c1.1-10.4,7.1-19.5,13.3-27.6c2.7-3.5,5.8-6.8,9-9.8c3-2.8,6-5.5,9.1-8.1
					c1.2-1,2.3-1.9,3.5-2.8c0.2-0.2,0.4-0.3,0.6-0.5c0.1-0.1-0.3,0.2,0,0c0.1-0.1,0.1-0.1,0.2-0.1c0.1-0.1,0.2-0.2,0.4-0.3
					c0.6-0.4,0.9-1.1,0.5-1.8c-0.3-0.6-1.2-0.9-1.8-0.5c-4.7,3.5-9.1,7.3-13.4,11.3c-7.2,6.8-13.6,14.5-18.4,23.2
					c-3,5.3-5.1,11-5.7,17.1c-0.1,0.7,0.7,1.3,1.3,1.3C365.9,229.8,366.3,229.2,366.4,228.5L366.4,228.5L366.4,228.5z"/>
			</g>
			<g class="st7">
				<path class="st2" d="M363.3,240.5c-0.3,7.2,1.2,14.5,4.1,21.1c0.7,1.6,1.5,3.2,2.5,4.6c0.9,1.4,3.2,0.1,2.3-1.3
					c-1.7-2.6-2.9-5.5-3.9-8.4c-1.1-3.3-1.8-6.7-2.2-10.1c-0.2-2-0.3-3.9-0.2-5.9c0-0.7-0.6-1.3-1.3-1.3
					C363.9,239.2,363.3,239.8,363.3,240.5L363.3,240.5L363.3,240.5z"/>
			</g>
			<g class="st4">
				<path class="st2" d="M231.3,186.4c12.8-8.7,33.4-13.5,50.6-2.7c13.2,8.2,24.5,25.7,19.9,42.5c-1.9,6.7-5.9,11.9-11,15.7
					c-1.1,0.9,3.2,9.8,2,10.5c-1.5,0.9-8.7-6.3-10.3-5.6c-9.2,4.2-19.6,5.6-26.9,5.6c-15.3-0.1-40.6-7-45.2-26.2
					C206.5,209.2,221,193.4,231.3,186.4L231.3,186.4z"/>
				<g>
					<path class="st2" d="M283.8,251.6c-0.2-0.3-0.6-0.5-1-0.3c-7.3,3.1-16.4,4.8-24.6,4.8c-0.1,0-0.2,0-0.4,0
						c-8.8-0.1-18.6-2.2-26.3-5.9c-1.2-0.6-2.6-1.3-3.9-2c-0.4-0.2-0.9-0.1-1.1,0.3l0,0c-0.2,0.4-0.1,0.9,0.3,1.1
						c1.3,0.7,2.6,1.4,4,2.1c7.9,3.7,18,5.9,26.9,6c0.1,0,0.2,0,0.4,0c8.4,0,17.6-1.8,25.2-5C283.8,252.6,284,252,283.8,251.6
						L283.8,251.6L283.8,251.6z"/>
					<path class="st2" d="M300.9,205c-3.9-7-9.8-13.3-16.4-17.4c-4.2-2.6-8.8-4.5-13.6-5.4c-4.4-0.9-9.1-1.1-13.9-0.6
						c-8.5,0.9-17,4-24,8.8c-2.9,2-10.4,7.6-16,16.4c-2.4,3.8-4.1,7.7-5,11.5c-1.1,4.4-1.1,8.6-0.1,12.8c1.1,4.7,3.5,8.9,7.1,12.6
						c1.1,1.2,2.4,2.3,3.7,3.3c0.4,0.3,0.9,0.2,1.2-0.2l0,0c0.2-0.4,0.1-0.8-0.2-1.1c-4.6-3.5-8.6-8.4-10.2-15
						c-4.1-17,10.9-32.5,20.5-38.9c12.9-8.8,33.3-13,49.7-2.7c6.2,3.9,12,9.9,15.8,16.9c0.2,0.4,0.7,0.5,1.1,0.3h0
						C300.9,205.9,301.1,205.4,300.9,205L300.9,205z"/>
					<path class="st2" d="M303.5,210.6c-0.2-0.4-0.7-0.6-1.1-0.4l-0.1,0c-0.4,0.2-0.5,0.6-0.4,1c2.3,6.2,3,12.8,1.2,19.3
						c-1.4,5-4.1,9.4-8.1,13.1c-0.3,0.3-0.3,0.8,0,1.1l0,0c0.3,0.3,0.8,0.3,1.1,0c4.2-3.9,7.1-8.6,8.5-13.8
						C306.5,224.4,306.1,217.5,303.5,210.6L303.5,210.6z"/>
				</g>
			</g>
			<g class="st4">
				<path class="st2" d="M204.2,211.2c0.7-6.7,4.6-12.6,8.6-17.8c1.7-2.3,3.8-4.4,5.8-6.4c1.9-1.8,3.9-3.6,5.9-5.2
					c0.8-0.6,1.5-1.2,2.3-1.8c0.1-0.1,0.3-0.2,0.4-0.3c0.1-0.1-0.2,0.1,0,0l0.1-0.1c0.1-0.1,0.2-0.1,0.2-0.2
					c0.4-0.3,0.6-0.7,0.3-1.2c-0.2-0.4-0.8-0.6-1.2-0.3c-3,2.3-5.9,4.7-8.6,7.3c-4.7,4.4-8.8,9.4-11.9,15c-1.9,3.4-3.3,7.1-3.7,11.1
					c-0.1,0.5,0.4,0.9,0.9,0.9C203.8,212.1,204.1,211.7,204.2,211.2L204.2,211.2L204.2,211.2z"/>
			</g>
			<g class="st4">
				<path class="st2" d="M202.1,219c-0.2,4.6,0.8,9.4,2.7,13.6c0.4,1,1,2,1.6,3c0.6,0.9,2.1,0.1,1.5-0.9c-1.1-1.7-1.9-3.5-2.5-5.4
					c-0.7-2.1-1.2-4.3-1.4-6.5c-0.1-1.3-0.2-2.5-0.1-3.8c0-0.5-0.4-0.9-0.9-0.9C202.5,218.1,202.1,218.5,202.1,219L202.1,219
					L202.1,219z"/>
			</g>
			<g class="st10">
				<path class="st2" d="M984.4,298.4c-0.3,0.1-0.6,0.1-0.9,0.2c-9.1-10.3-24.5-15.6-40.5-12.4c-16,3.2-28.3,14-32.7,27.1
					c-13.8,4.3-22.7,17.4-20,30.6c2.8,14.2,17.8,23.3,33.4,20.1l0.5,14.7c5.1-3.7,10.2-16.8,10.2-16.8c8.6-1.5,54.2-10.9,60.2-12.1
					c15.6-3.1,26-17.2,23.2-31.4C1015,304.3,1000.1,295.3,984.4,298.4L984.4,298.4z"/>
				<path class="st2" d="M1003.4,292.2c-6.7-3.9-14.8-5.1-22.8-3.5c-0.1,0-0.3,0.1-0.4,0.1c-4.7-5.1-11-8.9-18.2-11
					c-7.6-2.3-15.9-2.6-24-1c-8.2,1.6-15.7,5.1-21.8,10.2c-5.8,4.8-10.2,10.8-12.6,17.4c-7,2.2-12.9,6.6-16.8,12.3
					c-4,5.9-5.5,12.8-4.2,19.4s5.2,12.2,11,16.1l-2-3.9c-3.6-3.3-6.2-7.6-7.2-12.6c-2.5-12.7,6.1-25.5,20.2-29.8l0.5-0.1l0.2-0.4
					c4.7-13.4,17.4-23.6,33.2-26.8c15.7-3.1,31.3,1.4,40.8,11.9l0.4,0.4l0.5-0.1c0.3-0.1,0.6-0.1,0.9-0.2
					c15.6-3.1,30.5,5.5,33.3,19.3l2.3,4.3c0-1.6-0.2-3.1-0.5-4.7C1014.6,302.2,1010.1,296.1,1003.4,292.2L1003.4,292.2z"/>
			</g>
			<g class="st11">
				<g class="st6">
					<g>
						<path class="st2" d="M32.6,471.1c9.3,20,33.1,27,44.1,29.2c2.5,0.5,7.1,10,7.9,10.1c1.2-1.6-0.2-12.5,1.3-14.2
							c8.4-10,21.1-22.3,39.1-31.6c18.2-9.4,27.2-8.1,32.3-16.9c11.3-19.3-8.8-65.3-41.1-72c-19.2-4-35.7,7.3-44.7,13.5
							C49,404.6,18.6,440.8,32.6,471.1L32.6,471.1z"/>
						<path class="st2" d="M91.3,378.4c-0.4,0-0.7,0.1-1.1,0.1c-7.8,1-15.9,3-24.1,6c-7.6,2.8-14.9,6.3-21,10.1
							c-9.3,5.8-26.7,16.6-30.8,36.2c-0.9,4.4-1.1,9-0.7,13.7c0.5,4.4,1.5,9,3.2,13.5c3.1,8.4,8.1,16.6,14.5,23.6
							c5.1,5.6,10.9,10.2,16.6,13.2c6.1,3.2,11.9,4.6,17,4c1.1-0.1,2.2-0.4,3.2-0.7c1-0.3,2-0.7,2.9-1.2c3.2-1.8,5.9-4.6,9.3-8.2
							c3.3-3.5,7.5-7.9,13.7-13c2.5-2,5.1-3.9,7.7-5.8c0.5-0.4,0.7-1,0.3-1.6v0c-0.4-0.5-1.1-0.6-1.6-0.3c-2.7,1.9-5.3,3.8-7.9,5.9
							c-6.3,5.1-10.5,9.6-13.9,13.2c-5.2,5.5-8.2,8.7-14,9.4c-9.3,1.1-21.5-5.2-31.7-16.5c-10.5-11.5-20.3-30.4-16.5-48.8
							c4-18.7,20.8-29.2,29.8-34.8c1.6-1,3.2-1.9,4.9-2.9c9.6-5.2,20.7-9.3,31.4-11.6c3-0.6,6-1.1,9-1.5c9.5-1.1,21.5-0.9,32,4.1
							c0.5,0.2,1.2,0.1,1.5-0.4v0c0.4-0.6,0.1-1.3-0.5-1.6C115.6,378.4,104.3,376.9,91.3,378.4L91.3,378.4z"/>
					</g>
					<path class="st2" d="M108.1,464.7L108.1,464.7c0.3,0.5,1,0.7,1.5,0.4c6.4-3.7,13.2-6.9,20.3-9.5c0.6-0.2,0.9-1,0.6-1.6v0
						c-0.3-0.5-0.9-0.7-1.4-0.5c-7.3,2.6-14.2,5.9-20.7,9.6C107.9,463.4,107.7,464.1,108.1,464.7L108.1,464.7z"/>
					<path class="st2" d="M131.5,388.5L131.5,388.5c-0.3,0.5-0.2,1.1,0.2,1.5c1.3,1.1,2.6,2.4,3.8,3.8c12.5,14.1,11.5,34.6,9.7,46.3
						c-0.1,0.5,0.2,1,0.6,1.2h0c0.7,0.3,1.5-0.1,1.6-0.8c0.9-5.4,1.5-12.2,0.9-19.4c-0.9-11.7-4.6-21.4-11.2-28.8
						c-1.3-1.4-2.6-2.8-4.1-4C132.7,387.8,131.9,387.9,131.5,388.5L131.5,388.5z"/>
				</g>
				<g class="st6">
					<path class="st2" d="M24.8,455.2c-2.8-7.8-2.9-16.5-0.4-24.3c0.8-2.3,1.7-4.5,2.9-6.6c0.3-0.6-0.1-1.4-0.7-1.7
						c-0.7-0.3-1.3,0.1-1.7,0.7c-4.3,7.7-5.8,16.9-4.5,25.6c0.4,2.5,1,4.9,1.9,7.3C22.9,457.8,25.3,456.8,24.8,455.2L24.8,455.2
						L24.8,455.2z"/>
				</g>
				<g class="st6">
					<path class="st2" d="M82,424.1c2-2.1,4-4.1,6-6.2c0.4-0.4,0.2-1.1-0.2-1.4c-0.5-0.4-1-0.2-1.4,0.2c-2,2.1-4,4.1-6,6.2
						c-0.4,0.4-0.2,1.1,0.2,1.4C81.1,424.6,81.6,424.5,82,424.1L82,424.1z"/>
				</g>
				<g class="st6">
					<path class="st2" d="M109.1,372.7c11.3,0.1,22.3,4.5,30.7,12c2.4,2.1,4.5,4.5,6.3,7.1c1,1.4,3-0.2,2-1.6
						c-6.9-9.6-17.4-16.3-28.9-18.9c-3.2-0.7-6.5-1.1-9.8-1.1c-0.7,0-1.3,0.4-1.4,1.1C107.9,371.9,108.4,372.7,109.1,372.7
						L109.1,372.7L109.1,372.7z"/>
				</g>
			</g>
			<g class="st12">
				<path class="st2" d="M1248.6,235.7c4.4,13,17.6,21.3,34.4,23.6c1.6,0.2,2.4,11.8,2.4,11.8s5.3-11.2,6.7-11.2
					c8.8,0.1,18.4-1.4,27.9-4.6c32.1-10.8,52.3-37.2,45-58.8s-39.3-30.5-71.4-19.7C1261.4,187.6,1241.3,214,1248.6,235.7
					L1248.6,235.7z"/>
				<path class="st2" d="M1250.8,201.3c3.1-4.9,7.5-9.3,13.2-13.2c5.7-3.8,12.3-6.9,19.6-9c7.6-2.2,15.7-3.5,24.1-3.6
					c8.4-0.2,16.5,0.8,24.2,2.7c7.4,1.9,14.2,4.7,20,8.3c5.8,3.6,10.4,7.9,13.7,12.6c3.4,5,5.2,10.3,5.3,15.9s-1.5,10.9-4.7,16.1
					c-3.1,4.9-7.5,9.3-13.2,13.2c-5.7,3.8-12.3,6.9-19.6,9c-5.5,1.6-11.3,2.7-17.3,3.2l9.6-3.4c25.2-5.1,43.5-20.4,43.1-38.1
					c-0.4-21.4-27.8-38.2-61.1-37.6s-60,18.5-59.6,39.9l-1,7c-0.7-2.3-1-4.6-1-6.9C1246,211.9,1247.6,206.5,1250.8,201.3
					L1250.8,201.3z"/>
			</g>
			<g class="st3">
				<path class="st2" d="M1506.2,178.9c-19.8-13.4-51.7-20.9-78.3-4.2c-20.4,12.8-38,39.8-30.8,65.7c2.9,10.4,9.1,18.3,16.9,24.3
					c1.8,1.4-5,15.1-3.1,16.2c2.3,1.4,13.4-9.8,15.9-8.7c14.2,6.5,30.2,8.7,41.5,8.7c23.6-0.2,62.8-10.8,69.9-40.6
					C1544.6,214.2,1522.1,189.7,1506.2,178.9L1506.2,178.9z"/>
				<g>
					<path class="st2" d="M1425,279.8c0.3-0.5,1-0.8,1.5-0.5c11.3,4.7,25.3,7.5,38,7.5c0.2,0,0.4,0,0.6,0c13.6-0.1,28.7-3.5,40.6-9
						c1.9-0.9,3.9-2,6-3.1c0.6-0.3,1.3-0.1,1.7,0.4v0c0.4,0.6,0.2,1.4-0.4,1.7c-2,1.1-4,2.2-6.2,3.3c-12.2,5.7-27.8,9.2-41.7,9.3
						c-0.2,0-0.4,0-0.6,0c-13,0-27.3-2.8-39-7.7C1424.9,281.3,1424.6,280.5,1425,279.8L1425,279.8L1425,279.8z"/>
					<path class="st2" d="M1398.5,207.6c5.9-10.8,15.1-20.5,25.4-26.9c6.5-4.1,13.6-6.9,21.1-8.4c6.9-1.4,14.1-1.7,21.4-0.9
						c13.1,1.4,26.3,6.2,37.1,13.6c4.6,3.1,16.1,11.8,24.7,25.4c3.8,5.9,6.4,11.9,7.8,17.8c1.6,6.7,1.7,13.4,0.2,19.7
						c-1.7,7.2-5.4,13.8-10.9,19.5c-1.8,1.8-3.7,3.5-5.8,5.1c-0.6,0.5-1.4,0.3-1.8-0.4v0c-0.3-0.5-0.2-1.2,0.3-1.6
						c7-5.4,13.4-12.9,15.8-23.2c6.3-26.3-16.9-50.2-31.7-60.2c-19.9-13.6-51.5-20.1-76.9-4.2c-9.5,6-18.5,15.2-24.4,26.1
						c-0.3,0.6-1.1,0.8-1.7,0.5h0C1398.4,209,1398.2,208.2,1398.5,207.6L1398.5,207.6z"/>
					<path class="st2" d="M1394.5,216.4c0.2-0.7,1-1,1.7-0.7l0.1,0.1c0.6,0.3,0.8,0.9,0.6,1.6c-3.6,9.5-4.7,19.8-1.9,29.8
						c2.2,7.7,6.3,14.5,12.5,20.2c0.5,0.5,0.5,1.3,0,1.8l0,0c-0.5,0.4-1.2,0.5-1.7,0c-6.5-6-10.9-13.2-13.2-21.4
						C1389.8,237.8,1390.5,227.1,1394.5,216.4L1394.5,216.4z"/>
				</g>
			</g>
			<g class="st13">
				<path class="st2" d="M1363.8,419.8l11.5-2.7l0,16l13.3-19.1l66.2-15.6c8.9-2.1,14.6-10.8,13.1-19.8l-7-39.6
					c-1.6-9-9.9-15.2-19.1-14.1l-92.9,11c-9.8,1.2-16.7,10.4-15,20.2l8.8,50C1344.6,415.8,1354.2,422.1,1363.8,419.8L1363.8,419.8z"
					/>
				<g>
					<path class="st2" d="M1432.3,400l-53.9,7.5c-0.5,0.1-1-0.3-1.1-0.8v0c-0.1-0.6,0.2-1.1,0.8-1.2l53.9-7.5c0.5-0.1,1,0.3,1.1,0.8
						v0C1433.2,399.4,1432.8,399.9,1432.3,400L1432.3,400z"/>
					<path class="st2" d="M1352.2,333.8l90.7-23.2c4.9-1.3,10-0.5,14.3,2.2s7.2,6.9,8.2,11.9l9.8,49.8c1,5-0.1,10-3.1,14.1
						c-2.7,3.8-6.7,6.4-11.3,7.3c-0.3,0.1-0.7,0.1-1.1,0.2l-20.5,2.8c-0.6,0.1-1.1-0.3-1.1-0.9v0c-0.1-0.5,0.3-1,0.8-1.1l20.5-2.8
						c4.5-0.6,8.4-3,11-6.7c2.6-3.7,3.6-8.1,2.7-12.6l-9.8-49.8c-0.9-4.4-3.5-8.2-7.3-10.6c-3.8-2.4-8.3-3.1-12.7-2l-90.7,23.2
						c-8.3,2.1-13.6,10.5-11.9,18.9l7.8,39.4c1.7,8.5,9.7,14.2,18.2,13l4.7-0.7c0.6-0.1,1.1,0.3,1.1,0.9l0,0c0.1,0.5-0.3,1-0.8,1.1
						l-4.7,0.6c-9.6,1.3-18.6-5.1-20.4-14.6l-7.8-39.4C1336.9,345.5,1342.8,336.2,1352.2,333.8L1352.2,333.8z"/>
				</g>
			</g>
			<g class="st4">
				<path class="st2" d="M1497.8,405.1c0.3,0,0.6,0,0.8,0c6.2-10.6,18.7-17.9,33.2-17.9s27.2,7.3,33.3,18
					c12.8,1.3,22.8,11.2,22.8,23.3c0,12.9-11.5,23.4-25.7,23.4l2.1,13c-5.1-2.4-11.8-12.9-11.8-12.9c-7.7,0.2-49.3-0.1-54.7-0.1
					c-14.2,0-25.7-10.5-25.7-23.4S1483.6,405.1,1497.8,405.1L1497.8,405.1z"/>
				<path class="st2" d="M1480.1,403.1c5.2-4.6,12-7.1,19.3-7.1c0.1,0,0.3,0,0.4,0c3.2-5.2,8.1-9.7,14-12.8
					c6.2-3.3,13.4-5.1,20.8-5.1s14.6,1.8,20.9,5.1c5.9,3.2,10.8,7.7,14,13c6.5,0.7,12.4,3.5,16.8,7.8c4.6,4.5,7.1,10.2,7.1,16.2
					s-2.4,11.6-6.8,16l1.1-3.7c2.6-3.5,4.1-7.8,4.1-12.3c0-11.5-9.8-21.2-22.8-22.5l-0.4,0l-0.2-0.4c-6.4-10.9-19.3-17.6-33.7-17.6
					s-27.1,6.7-33.6,17.5l-0.2,0.4h-0.5c-0.3,0-0.6,0-0.8,0c-14.2,0-25.7,10.1-25.7,22.6l-1.2,4.2c-0.3-1.4-0.4-2.8-0.4-4.2
					C1472.1,413.7,1475,407.6,1480.1,403.1L1480.1,403.1z"/>
			</g>
			<g class="st8">
				<g>
					<g class="st6">
						<path class="st2" d="M1730.7,306c7.2,20.2-16.7,46-37,57.2c-4.3,2.4-22.2,12.3-41.8,10.7c-3-0.2-9.4,15-12.4,14.1
							c-1.5-0.4,0.3-16.6-1.2-17.2c-2.9-1.1-5.8-2.6-8.7-4.5c-20.7-13.7-31.3-43.7-20.2-64c12.5-22.9,45.8-21.1,64-20.2
							C1686,282.8,1723.1,284.7,1730.7,306L1730.7,306z"/>
						<path class="st2" d="M1619.2,287.6c3.2-5.4,7.4-9.7,12.2-12.9c5.3-3.4,11.3-5.2,17.9-5.5c5.6-0.2,11.8,0.8,18.3,2.9
							c11.9,3.8,22.8,10.5,30.8,15.5c5.2,3.2,16.1,9.9,25.1,18.5c11.2,10.7,16,21.2,14.4,31.1c-0.8,5.3-3.5,10.2-7.8,14.7
							c-3.9,3.9-9,7.4-15.3,10.4c-11.2,5.2-25.3,8.4-37.9,8.5l7.7-2.8c10.1-1,20.5-3.8,29.2-7.8c8.9-4.2,20-11.6,21.9-23.3
							c1.4-9.1-3.2-18.9-13.8-29c-8.7-8.4-19.1-14.8-24.7-18.2c-7.9-4.8-18.6-11.5-30.3-15.2c-13.8-4.5-25-3.7-34.3,2.3
							c-5.1,3.3-9.4,8-12.5,13.8l-4.1,3.1C1617.1,291.6,1618.1,289.6,1619.2,287.6L1619.2,287.6z"/>
					</g>
					<g class="st6">
						<path class="st2" d="M1596.7,315.4c-1.2,5.9-1.2,12-0.2,18c1.1,6,3.2,11.9,6.1,17.3c1.6,3,3.5,5.9,5.6,8.6
							c0.4,0.5,0.4,1.2-0.1,1.6c-0.4,0.4-1.3,0.4-1.6-0.1c-3.9-5.1-7.1-10.7-9.3-16.7c-2.2-6-3.6-12.3-3.7-18.8
							c-0.1-3.6,0.3-7.2,1.1-10.7c0.1-0.6,0.9-0.9,1.5-0.7C1596.6,314.1,1596.8,314.7,1596.7,315.4L1596.7,315.4L1596.7,315.4z"/>
					</g>
				</g>
				<g class="st6">
					<path class="st2" d="M1673.3,287.9c-6.6-3.6-13.4-6.7-20.4-9.3c-2-0.7-4-1.4-6-2.1c-0.6-0.2-0.8-1-0.6-1.5
						c0.3-0.6,0.9-0.8,1.6-0.6c7.1,2.3,14.1,5.1,20.8,8.4c1.9,0.9,3.8,1.9,5.6,2.9c0.6,0.3,0.8,1,0.6,1.5
						C1674.6,287.8,1673.9,288.1,1673.3,287.9L1673.3,287.9L1673.3,287.9z"/>
				</g>
			</g>
			<g class="st8">
				<g>
					<g class="st6">
						<path class="st2" d="M1534.1,490.9c-14.2,12-7.5,41.7,2.8,58.8c2.2,3.7,11.3,18.8,26.6,26.2c2.3,1.1,0.5,15.2,3.1,15.9
							c1.3,0.3,7-12.5,8.4-12.3c2.7,0.4,5.5,0.6,8.5,0.4c21.4-1.3,42.3-19.1,42.8-39.1c0.6-22.5-25-35.6-39.1-42.9
							C1577.5,492.9,1548.9,478.3,1534.1,490.9z"/>
						<path class="st2" d="M1625.3,525.5c-0.1-5.5-1.3-10.5-3.6-14.9c-2.5-4.8-6.2-8.8-11-11.9c-4.1-2.6-9.2-4.5-15-5.8
							c-10.6-2.3-21.6-2-29.7-1.8c-5.3,0.1-16.4,0.4-26.8,3c-13,3.2-21.2,8.9-24.3,17c-1.7,4.3-1.8,9.1-0.5,14.4
							c1.2,4.6,3.5,9.5,6.9,14.4c6.1,8.8,15.3,17.2,24.6,22.8l-4.6-5.4c-7.1-5.1-13.7-11.7-18.4-18.5c-4.9-7-9.9-17.4-6.2-26.9
							c2.9-7.4,10.6-12.7,22.9-15.7c10.2-2.5,20.7-2.8,26.3-2.9c8-0.2,18.9-0.5,29.2,1.8c12.2,2.7,20.3,8.1,24.7,16.6
							c2.4,4.7,3.5,10.1,3.3,15.8l1.7,4.1C1625.2,529.4,1625.4,527.4,1625.3,525.5L1625.3,525.5z"/>
					</g>
					<g class="st6">
						<path class="st2" d="M1630.1,556c-1.6,5-4.3,9.5-7.7,13.5c-3.4,4-7.5,7.5-12,10.3c-2.5,1.6-5.2,2.9-7.9,4
							c-0.5,0.2-0.8,0.7-0.7,1.3c0.2,0.5,0.8,0.8,1.3,0.7c5.1-2.1,9.9-4.9,14.2-8.4c4.3-3.5,8-7.7,10.9-12.4
							c1.6-2.7,2.9-5.5,3.8-8.5c0.2-0.5-0.3-1.1-0.8-1.2C1630.8,555.1,1630.3,555.5,1630.1,556L1630.1,556L1630.1,556z"/>
					</g>
				</g>
				<g class="st6">
					<path class="st2" d="M1584.8,502.2c6.5,0.2,12.9,0.8,19.3,1.9c1.8,0.3,3.6,0.7,5.4,1.1c0.5,0.1,1.1-0.4,1.1-0.9
						c0.1-0.6-0.4-1-0.9-1.1c-6.3-1.4-12.7-2.3-19.2-2.7c-1.8-0.1-3.6-0.2-5.5-0.2c-0.5,0-1,0.4-1.1,0.9
						C1583.8,501.6,1584.3,502.2,1584.8,502.2L1584.8,502.2L1584.8,502.2z"/>
				</g>
			</g>
			<g class="st8">
				<g class="st6">
					<path class="st2" d="M1881.2,284.4c-7.4,22-28.7,30.5-32.3,31.8c-7.4,2.1-14.8,3.4-21.9,3.8c-1.8,0.1-6.3,13.1-6.3,13.1
						s-5.8-13-9.2-13.4c-27.9-2.7-51.1-17.7-60.6-39c-9-20.1-7.7-50.4,11.3-69c16.3-15.9,38-15.7,44.8-15.7
						c32.4,0.3,60.3,23.1,70.9,49.4C1880.9,253,1886.9,267.6,1881.2,284.4L1881.2,284.4z"/>
					<path class="st2" d="M1766.3,203.1c7.1-7,16.1-11.8,26.6-14.2c8.5-2,15.7-1.9,19.1-1.9c15.7,0.2,31,5.4,44.4,15.2
						c12.4,9.1,22.3,21.5,27.8,35c1.5,3.7,3.8,9.3,5,16.2c1.4,8.2,0.9,16.1-1.6,23.6c-7.2,21.4-27.1,30.4-33.1,32.7l-0.1,0
						c-5.2,1.5-16.4,7.1-44.2,2.8c-8.3-1.4-16.2-3.9-23.3-7.3c-14.6-7.1-26.1-18.1-32.2-31.6c-2.3-5.2-3.9-10.9-4.8-17
						c-0.9-6.2-0.9-12.6-0.2-18.8C1751.6,224,1757.3,212,1766.3,203.1z M1757.3,272.6c8.6,19.2,28.6,33.1,53,37.3
						c23.9,3.6,38.5-1.2,43.3-2.6c5.7-2.2,24.7-10.8,31.4-31c5.5-16.3-0.2-30.3-3.3-37.9c-11.5-28.3-40.1-48.3-69.7-48.6
						c-6.9-0.1-27.9-0.3-43.8,15.3C1749.5,223.4,1748.5,252.9,1757.3,272.6L1757.3,272.6z"/>
				</g>
				<g class="st6">
					<path class="st2" d="M1763.1,201.1c-3.2,2.9-5.9,6.3-8.2,9.9c-2.4,3.8-4.5,7.9-5.8,12.2c-0.7,2.3-1.2,4.6-1.5,7
						c-0.1,0.8-1,1.3-1.7,1.2c-0.8-0.1-1.2-0.9-1.2-1.7c0.5-4.5,1.9-8.9,3.8-13c2-4.3,4.5-8.4,7.4-12.1c1.5-1.9,3.2-3.8,5-5.4
						c0.6-0.5,1.4-0.7,2.1-0.1C1763.5,199.5,1763.6,200.6,1763.1,201.1L1763.1,201.1L1763.1,201.1z"/>
				</g>
				<g class="st6">
					<path class="st2" d="M1891.4,279.1c3.7-10,4.5-21,2.5-31.4c-0.6-3-1.4-5.9-2.4-8.7c-0.6-1.8,2.1-2.7,2.7-1
						c3.8,10.5,4.7,22.1,2.4,33.1c-0.6,3.1-1.5,6.2-2.7,9.2c-0.3,0.7-1.3,1-1.9,0.7C1891.3,280.7,1891.1,279.8,1891.4,279.1
						L1891.4,279.1L1891.4,279.1z"/>
				</g>
			</g>
			<g class="st4">
				<path class="st2" d="M1541.6,456.6c-10.7-0.9-21.4-1.3-32.1-1.3c-3.1,0-6.1,0-9.2,0.1c-1.2,0-1.2-1.9,0-1.9
					c10.7-0.2,21.4,0,32.2,0.6c3.1,0.2,6.1,0.4,9.2,0.6c0.5,0,0.9,0.4,0.9,0.9C1542.6,456.1,1542.1,456.6,1541.6,456.6L1541.6,456.6
					L1541.6,456.6z"/>
			</g>
			<g class="st14">
				<path class="st2" d="M1474,439.9c2.3,4.4,5.8,8,10.1,10.6c1,0.6,0.1,2.2-0.9,1.6c-4.5-2.7-8.3-6.6-10.8-11.2
					C1471.8,439.8,1473.4,438.9,1474,439.9L1474,439.9L1474,439.9z"/>
			</g>
			<g class="st8">
				<g class="st6">
					<path class="st2" d="M1252.7,419c0,0,4.5,8.7,7.6,16.8l5.6-26.3l41.1-29.6c6.8-4.9,8.7-14.2,4.4-21.4l-29-48
						c-4.9-8-15.6-10.2-23.2-4.7l-62.4,45c-7.6,5.5-8.9,16.3-2.9,23.5l37.2,42.1C1236.4,422.8,1245.9,423.9,1252.7,419L1252.7,419z"
						/>
					<path class="st2" d="M1217.9,411.5l-16.7-28.8l-13-22.4v0c-2.6-4.7-3.2-10.2-1.6-15.2c1.6-5,5.3-8.9,10.2-10.7l78.6-30
						c4.9-1.9,10.3-1.4,14.8,1.2c4.5,2.6,7.7,7.1,8.9,12.4l13,57.5c0.9,4.1,0.3,8.5-1.8,12.2c-2.1,3.8-5.4,6.6-9.3,8.1l-34.7,13.2
						l6.1-4.4l28-10.7c7.2-2.7,11.5-10.6,9.8-18l-13.1-57.5c-1.1-4.7-3.8-8.6-7.8-10.9c-4-2.3-8.6-2.7-13-1.1l-78.4,29.9
						c-4.3,1.6-7.5,5-9,9.4c-1.4,4.4-0.9,9.1,1.4,13.3l18,31.2l11.5,20v0c2.8,5,8.2,7.9,13.8,7.9l2.5,1.7c-2.9,0.4-5.8,0.1-8.6-0.9
						C1223.3,418,1219.9,415.2,1217.9,411.5L1217.9,411.5z"/>
				</g>
				<g class="st6">
					<path class="st2" d="M1241.1,314.9c-10.9,3.1-21.8,6.5-32.5,10.4c-3,1.1-6,2.2-9,3.3c-1.3,0.5-2.1-1.5-0.8-2
						c10.6-4.1,21.4-7.7,32.3-11c3.1-0.9,6.1-1.8,9.2-2.7c0.6-0.2,1.2,0.1,1.4,0.6C1241.9,314,1241.6,314.8,1241.1,314.9
						L1241.1,314.9L1241.1,314.9z"/>
				</g>
				<g class="st6">
					<path class="st2" d="M1188.6,336.6c-3.3,1.5-5.6,4.8-5.9,8.4c-0.1,0.6-0.7,1-1.2,0.9c-0.6-0.1-0.9-0.7-0.9-1.2
						c0.4-4.4,3.3-8.3,7.3-10c0.5-0.2,1.2,0.1,1.4,0.6C1189.5,335.7,1189.2,336.3,1188.6,336.6L1188.6,336.6L1188.6,336.6z"/>
				</g>
				<g class="st6">
					<path class="st2" d="M1195.4,378.8c3.6,6.8,7.2,13.6,10.8,20.4c0.3,0.5-0.1,1.2-0.6,1.4c-0.6,0.2-1.1-0.1-1.4-0.6
						c-3.6-6.8-7.2-13.6-10.8-20.4c-0.3-0.5,0.1-1.2,0.6-1.4C1194.6,377.9,1195.1,378.2,1195.4,378.8L1195.4,378.8z"/>
				</g>
				<g class="st6">
					<path class="st2" d="M1304.3,317c1.8,4.7,2.9,9.7,3.3,14.7c0.1,1.4-2.1,1.6-2.2,0.2c-0.3-4.9-1.4-9.6-3.2-14.1
						C1301.8,316.4,1303.8,315.6,1304.3,317L1304.3,317L1304.3,317z"/>
				</g>
			</g>
			<g class="st13">
				<path class="st2" d="M1344.8,332.2c-5.9,1.6-10.8,6.3-12.9,12c-0.6,1.6-1,3.3-1.1,5.1c-0.1,1.4-2.2,1.2-2.1-0.2
					c0.5-6.9,4.6-13.1,10.4-16.7c1.7-1,3.5-1.8,5.3-2.3c0.6-0.1,1.1,0.3,1.2,0.9C1345.8,331.5,1345.4,332,1344.8,332.2L1344.8,332.2
					L1344.8,332.2z"/>
			</g>
			<g class="st13">
				<path class="st2" d="M1415.8,313c-7.1,1.7-14.2,3.5-21.2,5.2c-7,1.8-14.1,3.6-21.1,5.4c-4,1-8,2.1-11.9,3.2
					c-0.6,0.1-1.1-0.3-1.2-0.9c-0.1-0.6,0.3-1.1,0.9-1.2c7-1.9,14.1-3.8,21.1-5.6c7-1.8,14.1-3.6,21.1-5.3c4-1,8-2,12-2.9
					c0.6-0.1,1.1,0.3,1.2,0.9C1416.8,312.4,1416.4,312.9,1415.8,313L1415.8,313z"/>
			</g>
			<g class="st13">
				<path class="st2" d="M1474.7,343.8c1.1,6.8,2.2,13.6,3.3,20.4c0.3,1.9,0.6,3.9,0.9,5.8c0.2,1.4-1.9,1.7-2.1,0.4
					c-1.1-6.8-2.2-13.6-3.3-20.4c-0.3-1.9-0.6-3.9-0.9-5.8C1472.4,342.8,1474.5,342.4,1474.7,343.8L1474.7,343.8z"/>
			</g>
			<g class="st8">
				<g class="st6">
					<path class="st2" d="M918,244.6l-7.9-2.2l-0.5,11l-8.6-13.5l-45.1-12.6c-6.1-1.7-9.8-7.9-8.4-14l5.9-27
						c1.3-6.2,7.3-10.2,13.5-9.2l63.7,10.2c6.8,1.1,11.2,7.6,9.7,14.3l-7.5,34.1C931.3,242.4,924.6,246.4,918,244.6L918,244.6z"/>
					<g>
						<path class="st2" d="M871.4,229l36.8,6.7c0.3,0.1,0.7-0.1,0.8-0.5l0,0c0.1-0.4-0.1-0.8-0.5-0.9l-36.8-6.7
							c-0.4-0.1-0.7,0.2-0.8,0.5l0,0C870.8,228.6,871,228.9,871.4,229L871.4,229z"/>
						<path class="st2" d="M928.4,185.7l-61.7-18.6c-3.3-1-6.9-0.6-9.9,1.1s-5.2,4.6-6,8l-8.2,34c-0.8,3.4-0.2,6.9,1.7,9.8
							c1.8,2.7,4.5,4.6,7.6,5.4c0.2,0.1,0.5,0.1,0.7,0.1l14,2.5c0.4,0.1,0.7-0.2,0.8-0.6l0,0c0-0.4-0.2-0.7-0.5-0.8l-14-2.5
							c-3.1-0.6-5.7-2.3-7.4-4.9s-2.2-5.7-1.5-8.7l8.2-34c0.7-3,2.6-5.6,5.3-7.1s5.8-1.9,8.8-1L928,187c5.7,1.7,9.1,7.6,7.7,13.4
							l-6.5,26.9c-1.4,5.8-7,9.5-12.9,8.4l-3.2-0.6c-0.4-0.1-0.7,0.2-0.8,0.6l0,0c-0.1,0.4,0.2,0.7,0.5,0.8l3.2,0.6
							c6.6,1.2,12.9-3,14.5-9.4l6.5-26.9C938.6,194.2,934.8,187.6,928.4,185.7L928.4,185.7z"/>
					</g>
				</g>
				<g class="st6">
					<path class="st2" d="M843.8,189.1c-1,4.6-1.9,9.3-2.9,13.9c-0.3,1.3-0.5,2.6-0.8,4c-0.2,0.9,1.2,1.2,1.4,0.3
						c1-4.6,1.9-9.3,2.9-13.9c0.3-1.3,0.5-2.6,0.8-4C845.4,188.5,844,188.2,843.8,189.1L843.8,189.1z"/>
				</g>
			</g>
			<g class="st8">
				<g class="st6">
					<path class="st2" d="M1706,435.9l-5.6,1.6l3.8,6.9l-10.2-5l-32.1,9c-4.3,1.2-8.8-1.1-10.3-5.4l-6.4-18.6
						c-1.5-4.2,0.7-8.9,4.8-10.6l42.4-17.3c4.5-1.8,9.6,0.5,11.2,5.1l8.1,23.5C1713.2,429.6,1710.6,434.6,1706,435.9L1706,435.9z"/>
					<g>
						<path class="st2" d="M1672,443.7l24.8-9.6c0.2-0.1,0.4-0.3,0.3-0.6l0,0c-0.1-0.3-0.4-0.4-0.6-0.3l-24.8,9.6
							c-0.2,0.1-0.4,0.4-0.3,0.6l0,0C1671.4,443.7,1671.7,443.8,1672,443.7L1672,443.7z"/>
						<path class="st2" d="M1690.6,396.4l-44.3,11.6c-2.4,0.6-4.4,2.2-5.6,4.4s-1.4,4.7-0.7,7l7.6,23.6c0.8,2.4,2.4,4.3,4.7,5.3
							c2.1,1,4.4,1.1,6.6,0.5c0.2,0,0.3-0.1,0.5-0.2l9.4-3.6c0.2-0.1,0.4-0.4,0.3-0.6l0,0c-0.1-0.2-0.4-0.4-0.6-0.3l-9.4,3.6
							c-2.1,0.8-4.3,0.7-6.3-0.2c-2-1-3.5-2.6-4.2-4.7l-7.6-23.6c-0.7-2.1-0.5-4.3,0.6-6.3c1.1-1.9,2.8-3.3,5-3.9l44.3-11.6
							c4.1-1.1,8.3,1.2,9.6,5.3l6,18.7c1.3,4-0.8,8.4-4.7,9.9l-2.2,0.8c-0.2,0.1-0.4,0.4-0.3,0.6l0,0c0.1,0.2,0.4,0.4,0.6,0.3
							l2.2-0.8c4.4-1.7,6.7-6.6,5.3-11.1l-6-18.7C1699.9,397.8,1695.1,395.2,1690.6,396.4L1690.6,396.4z"/>
					</g>
				</g>
				<g class="st6">
					<path class="st2" d="M1640.5,429.7c1.1,3.2,2.3,6.3,3.4,9.5c0.3,0.9,0.7,1.8,1,2.7c0.2,0.6,1.2,0.3,1-0.3
						c-1.1-3.2-2.3-6.3-3.4-9.5l-1-2.7C1641.2,428.8,1640.2,429.1,1640.5,429.7L1640.5,429.7z"/>
				</g>
			</g>
			<g class="st8">
				<g class="st6">
					<path class="st2" d="M1221,248.8c-6.5-28.2-98-55.2-129.4-12.8c-18.7,25.3-12.9,70.9,9.5,85c23.9,15.1,68-5.1,95.7-29.9
						c2.5-2.3,21.2,8.6,23.5,6.3c2-2-12.5-17.3-10.8-19.4C1218.1,267.5,1222.9,256.9,1221,248.8z"/>
					<g>
						<path class="st2" d="M1181.1,303.7c0,0,2.3-1.2,2.9-1.5c5.5-2.7,11.6-6.3,16.9-10.7l2.7,0.9c-5.1,4.4-11.3,8.4-18.5,12
							c-2,1-4,1.9-6.1,2.8c-3.1,1.3-6.4,2.6-9.7,3.8L1181.1,303.7L1181.1,303.7z"/>
						<path class="st2" d="M1075.5,294.9c-0.3-4.5,0.2-9.6,1.5-15.2c2.5-11.1,7.8-23.5,15-34.9c8.6-13.6,19-24.8,30.2-32.5
							c6.2-4.3,12.6-7.4,19-9.2c6.9-2,13.9-2.6,20.7-1.7c8.5,1.1,17.4,4.6,25.6,10.2c7.7,5.2,14.7,12,20.2,19.7
							c7.4,10.4,11.4,21.5,11.4,31.4c0,2.4-0.2,4.7-0.7,7c-1,4.9-3.2,9.6-6.6,14.1l-1.4-2.1c2.7-3.8,4.6-7.9,5.6-12.5
							c2.2-10.8-1.5-24.1-10.4-36.5c-11.2-15.7-28.1-26.8-44.1-28.9c-23.7-3.1-48.9,12.7-67.6,42.3c-7.1,11.2-12.3,23.3-14.7,34.2
							c-2.4,10.9-1.9,19.9,1.6,25.2c2.1,3.2,5.7,5.9,10.8,7.9c0.4,0.1,0.7,0.3,1.1,0.4l3.3,3.6c-1.9-0.5-3.7-1.1-5.3-1.7
							c-5.5-2.2-9.5-5.1-11.9-8.8C1077,303.7,1075.8,299.7,1075.5,294.9L1075.5,294.9z"/>
					</g>
				</g>
				<g class="st6">
					<path class="st2" d="M1208.7,223.4c-4.1-4.7-8.6-9-13.7-12.7c-5-3.7-10.3-6.8-16-9.3c-3.2-1.4-6.6-2.7-10-3.7
						c-0.7-0.2-0.9-1.1-0.7-1.7c0.3-0.7,1-0.9,1.7-0.7c6.1,1.8,12,4.4,17.5,7.5c5.6,3.2,10.8,6.9,15.6,11.2c2.7,2.4,5.2,5,7.6,7.8
						C1211.8,223.1,1209.8,224.7,1208.7,223.4L1208.7,223.4L1208.7,223.4z"/>
				</g>
				<g class="st6">
					<path class="st2" d="M1161.9,196.9c-3-0.2-6.1,0.1-9,0.7c-0.7,0.1-1.3-0.5-1.4-1.1c-0.1-0.7,0.4-1.3,1.1-1.4
						c3.2-0.6,6.4-0.9,9.7-0.7c0.7,0,1.2,0.8,1.1,1.4C1163.2,196.5,1162.6,196.9,1161.9,196.9L1161.9,196.9L1161.9,196.9z"/>
				</g>
				<g class="st6">
					<path class="st2" d="M1098,252c-3.6,5.7-6.4,11.9-8.5,18.3c-0.6,1.8-1.1,3.6-1.5,5.5c-0.2,0.7-0.7,1.2-1.4,1.1
						c-0.6-0.1-1.3-0.8-1.1-1.4c1.6-6.9,4.1-13.5,7.4-19.7c1-1.8,2-3.6,3.1-5.3c0.4-0.6,1.3-0.6,1.8-0.3
						C1098.3,250.7,1098.3,251.4,1098,252L1098,252L1098,252z"/>
				</g>
			</g>
			<g class="st8">
				<g class="st6">
					<path class="st2" d="M1766.9,509.5c-2.7-23.1-73.8-52.8-102.7-21.5c-17.2,18.6-16.5,55.7,0.2,69c17.9,14.2,55,1.8,79.3-15.7
						c2.2-1.6,16.3,8.8,18.3,7.1c1.8-1.5-8.5-15-7-16.5C1762.9,524.2,1767.7,516.2,1766.9,509.5L1766.9,509.5z"/>
					<g>
						<path class="st2" d="M1730.1,550c0,0,1.9-0.8,2.5-1c4.6-1.7,9.8-4,14.5-7.1l2.1,1c-4.4,3-9.8,5.7-15.9,8
							c-1.7,0.6-3.4,1.2-5.1,1.7c-2.6,0.8-5.3,1.5-8.1,2.2L1730.1,550L1730.1,550z"/>
						<path class="st2" d="M1646.2,533.8c0.2-3.6,1-7.7,2.5-12.1c2.9-8.7,8.3-18.2,15.1-26.7c8-10.2,17.4-18.3,27.1-23.5
							c5.4-2.9,10.8-4.8,16-5.7c5.7-1,11.4-0.9,16.8,0.4c6.7,1.6,13.5,5.2,19.6,10.4c5.7,4.8,10.8,10.9,14.5,17.6
							c5,9,7.3,18.3,6.4,26.2c-0.2,1.9-0.6,3.8-1.2,5.5c-1.2,3.8-3.4,7.4-6.5,10.8l-0.9-1.8c2.5-2.8,4.4-5.9,5.6-9.5
							c2.7-8.5,0.8-19.5-5.1-30.2c-7.6-13.6-20.2-23.9-32.8-27c-18.7-4.5-40.3,5.9-57.9,28.1c-6.6,8.4-11.9,17.7-14.7,26.1
							c-2.9,8.5-3.2,15.8-0.9,20.3c1.4,2.8,4.1,5.2,7.9,7.2c0.3,0.2,0.6,0.3,0.8,0.4l2.3,3.2c-1.5-0.6-2.8-1.2-4.1-1.8
							c-4.2-2.2-7.2-5-8.8-8.1C1646.6,541,1646,537.7,1646.2,533.8L1646.2,533.8z"/>
					</g>
				</g>
				<g class="st6">
					<path class="st2" d="M1759.2,488c-2.8-4.1-6.2-8-9.8-11.4c-3.7-3.4-7.7-6.4-12-8.9c-2.5-1.4-5.1-2.7-7.7-3.8
						c-0.5-0.2-0.7-0.9-0.4-1.4c0.3-0.5,0.9-0.6,1.4-0.4c4.7,2,9.2,4.5,13.4,7.5c4.2,3,8.1,6.5,11.5,10.4c1.9,2.2,3.8,4.5,5.4,6.9
						C1761.7,488.1,1759.9,489.1,1759.2,488L1759.2,488L1759.2,488z"/>
				</g>
				<g class="st6">
					<path class="st2" d="M1723.9,462.7c-2.4-0.4-4.9-0.5-7.3-0.2c-0.6,0-1-0.5-1.1-1c0-0.6,0.4-1,1-1c2.6-0.2,5.2-0.1,7.8,0.3
						c0.6,0.1,0.9,0.7,0.8,1.2C1725.1,462.5,1724.5,462.8,1723.9,462.7L1723.9,462.7L1723.9,462.7z"/>
				</g>
				<g class="st6">
					<path class="st2" d="M1667.9,501.4c-3.4,4.3-6.2,9-8.4,14c-0.6,1.4-1.2,2.8-1.7,4.3c-0.2,0.5-0.7,0.9-1.2,0.8
						c-0.5-0.1-0.9-0.7-0.8-1.2c1.9-5.4,4.4-10.5,7.6-15.2c0.9-1.4,1.9-2.7,2.9-4c0.3-0.4,1.1-0.4,1.5,0
						C1668.3,500.3,1668.2,500.9,1667.9,501.4L1667.9,501.4L1667.9,501.4z"/>
				</g>
			</g>
			<g class="st8">
				<g class="st6">
					<path class="st2" d="M1767.3,568.2c2.7-23.1,73.8-52.8,102.7-21.5c17.2,18.6,16.5,55.7-0.2,69c-17.9,14.2-55,1.8-79.3-15.7
						c-2.2-1.6-16.3,8.8-18.3,7.1c-1.8-1.5,8.5-15,7-16.5C1771.3,583,1766.5,574.9,1767.3,568.2L1767.3,568.2z"/>
					<g>
						<path class="st2" d="M1804.1,608.8c0,0-1.9-0.8-2.5-1c-4.6-1.7-9.8-4-14.5-7.1l-2.1,1c4.4,3,9.8,5.7,15.9,8
							c1.7,0.6,3.4,1.2,5.1,1.7c2.6,0.8,5.3,1.5,8.1,2.2L1804.1,608.8L1804.1,608.8z"/>
						<path class="st2" d="M1888,592.6c-0.2-3.6-1-7.7-2.5-12.1c-2.9-8.7-8.3-18.2-15.1-26.7c-8-10.2-17.4-18.3-27.1-23.5
							c-5.4-2.9-10.8-4.8-16-5.7c-5.7-1-11.4-0.9-16.8,0.4c-6.7,1.6-13.5,5.2-19.6,10.4c-5.7,4.8-10.8,10.9-14.5,17.6
							c-5,9-7.3,18.3-6.4,26.2c0.2,1.9,0.6,3.8,1.2,5.5c1.2,3.8,3.4,7.4,6.5,10.8l0.9-1.8c-2.5-2.8-4.4-5.9-5.6-9.5
							c-2.7-8.5-0.8-19.5,5.1-30.2c7.6-13.6,20.2-23.9,32.8-27c18.7-4.5,40.3,5.9,57.9,28.1c6.6,8.4,11.9,17.7,14.7,26.1
							c2.9,8.5,3.2,15.8,0.9,20.3c-1.4,2.8-4.1,5.2-7.9,7.2c-0.3,0.2-0.6,0.3-0.8,0.4l-2.3,3.2c1.5-0.6,2.8-1.2,4.1-1.8
							c4.2-2.2,7.2-5,8.8-8.1C1887.6,599.7,1888.2,596.4,1888,592.6L1888,592.6z"/>
					</g>
				</g>
				<g class="st6">
					<path class="st2" d="M1775,546.8c2.8-4.1,6.2-8,9.8-11.4c3.7-3.4,7.7-6.4,12-8.9c2.5-1.4,5.1-2.7,7.7-3.8
						c0.5-0.2,0.7-0.9,0.4-1.4c-0.3-0.5-0.9-0.6-1.4-0.4c-4.7,2-9.2,4.5-13.4,7.5c-4.2,3-8.1,6.5-11.5,10.3
						c-1.9,2.2-3.8,4.5-5.4,6.9C1772.5,546.8,1774.3,547.9,1775,546.8L1775,546.8L1775,546.8z"/>
				</g>
				<g class="st6">
					<path class="st2" d="M1810.3,521.5c2.4-0.4,4.9-0.5,7.3-0.2c0.6,0,1-0.5,1.1-1c0-0.6-0.4-1-1-1c-2.6-0.2-5.2-0.1-7.8,0.3
						c-0.6,0.1-0.9,0.7-0.8,1.2C1809.1,521.3,1809.7,521.6,1810.3,521.5L1810.3,521.5L1810.3,521.5z"/>
				</g>
				<g class="st6">
					<path class="st2" d="M1866.3,560.1c3.4,4.3,6.2,9,8.4,14c0.6,1.4,1.2,2.8,1.7,4.3c0.2,0.5,0.7,0.9,1.2,0.8
						c0.5-0.1,0.9-0.7,0.8-1.2c-1.9-5.4-4.4-10.5-7.6-15.2c-0.9-1.4-1.9-2.7-2.9-4c-0.3-0.4-1.1-0.4-1.5,0
						C1865.9,559.1,1866,559.7,1866.3,560.1L1866.3,560.1L1866.3,560.1z"/>
				</g>
			</g>
			<g class="st12">
				<path class="st2" d="M1329.9,173.6c-11.6-2.1-23.5-2.5-35.2-1.1c-3.3,0.4-6.5,0.9-9.8,1.5c-0.6,0.1-1.2-0.1-1.4-0.7
					c-0.2-0.5,0.1-1.3,0.7-1.4c11.9-2.4,24-3,36.1-1.9c3.4,0.3,6.7,0.8,10.1,1.4C1331.8,171.6,1331.4,173.8,1329.9,173.6
					L1329.9,173.6z"/>
			</g>
			<g class="st12">
				<path class="st2" d="M1272.1,179.8c-3.6,1.7-7,4-9.9,6.7c-0.4,0.4-1.1,0.5-1.6,0.1c-0.4-0.4-0.6-1.2-0.1-1.6
					c3.2-3,6.9-5.5,10.9-7.4c0.6-0.3,1.2,0.2,1.4,0.7C1273,179,1272.6,179.6,1272.1,179.8L1272.1,179.8L1272.1,179.8z"/>
			</g>
			<g class="st12">
				<path class="st2" d="M1246.7,232.9c0.7,4.8,2.7,9.4,5.6,13.3c2.9,3.9,6.8,7.2,11.2,9.3c2.5,1.2,5.1,2.1,7.8,2.5
					c1.4,0.2,1,2.5-0.5,2.2c-5.2-0.9-10.1-3.2-14.2-6.4c-4.2-3.3-7.5-7.5-9.7-12.3c-1.3-2.7-2.1-5.6-2.5-8.6
					c-0.1-0.6,0.5-1.2,1.1-1.2C1246.1,231.8,1246.6,232.3,1246.7,232.9L1246.7,232.9L1246.7,232.9z"/>
			</g>
			<g class="st10">
				<path class="st2" d="M1496.6,342.3c2.9,8.6,11.7,14.2,22.8,15.7c1.1,0.1,1.6,7.9,1.6,7.9s3.5-7.4,4.4-7.4
					c5.9,0,12.2-0.9,18.5-3.1c21.3-7.2,34.7-24.7,29.9-39.1c-4.8-14.4-26.1-20.2-47.4-13C1505.1,310.4,1491.8,327.9,1496.6,342.3z"
					/>
				<path class="st2" d="M1498.1,319.5c2-3.3,5-6.2,8.8-8.7c3.8-2.5,8.1-4.5,13-6c5.1-1.5,10.4-2.3,16-2.4s11,0.5,16.1,1.8
					c4.9,1.2,9.4,3.1,13.3,5.5c3.9,2.4,6.9,5.2,9.1,8.4c2.3,3.3,3.4,6.9,3.5,10.5c0.1,3.7-1,7.3-3.1,10.7c-2,3.3-5,6.2-8.8,8.7
					c-3.8,2.5-8.1,4.5-13,6c-3.7,1.1-7.5,1.8-11.5,2.2l6.4-2.2c16.7-3.4,28.9-13.6,28.6-25.3c-0.3-14.2-18.5-25.4-40.6-25
					s-39.9,12.3-39.6,26.5l-0.7,4.6c-0.4-1.5-0.7-3-0.7-4.6C1494.9,326.5,1496,322.9,1498.1,319.5L1498.1,319.5z"/>
			</g>
			<g class="st10">
				<path class="st2" d="M1550.6,301c-7.7-1.4-15.6-1.6-23.4-0.8c-2.2,0.2-4.3,0.6-6.5,1c-0.4,0.1-0.8,0-0.9-0.5
					c-0.1-0.4,0.1-0.9,0.5-1c7.9-1.6,15.9-2,23.9-1.2c2.2,0.2,4.5,0.5,6.7,0.9C1551.9,299.7,1551.6,301.2,1550.6,301L1550.6,301
					L1550.6,301z"/>
			</g>
			<g class="st10">
				<path class="st2" d="M1512.2,305.2c-2.4,1.1-4.7,2.6-6.6,4.5c-0.3,0.3-0.7,0.4-1.1,0.1c-0.3-0.2-0.4-0.8-0.1-1.1
					c2.2-2,4.6-3.7,7.2-4.9c0.4-0.2,0.8,0.1,0.9,0.5C1512.8,304.7,1512.6,305,1512.2,305.2L1512.2,305.2L1512.2,305.2z"/>
			</g>
			<g class="st10">
				<path class="st2" d="M1495.3,340.4c0.5,3.2,1.8,6.2,3.7,8.8c1.9,2.6,4.5,4.8,7.4,6.2c1.7,0.8,3.4,1.4,5.2,1.7
					c0.9,0.2,0.7,1.6-0.3,1.5c-3.4-0.6-6.7-2.1-9.4-4.3c-2.8-2.2-5-5-6.4-8.2c-0.8-1.8-1.4-3.7-1.7-5.7c-0.1-0.4,0.3-0.8,0.7-0.8
					C1495,339.7,1495.3,340,1495.3,340.4L1495.3,340.4L1495.3,340.4z"/>
			</g>
			<g class="st3">
				<path class="st2" d="M1548.1,217.3c-1.1-10.4-7.2-19.5-13.3-27.6c-2.7-3.5-5.8-6.8-9-9.8c-2.9-2.8-6-5.5-9.2-8.1
					c-1.2-1-2.3-1.9-3.5-2.8c-0.2-0.2-0.4-0.3-0.6-0.5c-0.1-0.1,0.3,0.2,0,0c-0.1-0.1-0.1-0.1-0.2-0.1c-0.1-0.1-0.2-0.2-0.4-0.3
					c-0.6-0.4-0.9-1.1-0.5-1.8c0.3-0.6,1.2-0.9,1.8-0.5c4.7,3.5,9.1,7.3,13.4,11.3c7.2,6.8,13.6,14.5,18.4,23.2
					c2.9,5.3,5.1,11,5.7,17.1c0.1,0.7-0.7,1.3-1.3,1.3C1548.7,218.6,1548.2,218,1548.1,217.3L1548.1,217.3L1548.1,217.3z"/>
			</g>
			<g class="st3">
				<path class="st2" d="M1551.3,229.3c0.3,7.2-1.2,14.5-4.1,21.1c-0.7,1.6-1.5,3.2-2.4,4.6c-0.9,1.4-3.2,0.1-2.3-1.3
					c1.7-2.6,2.9-5.4,3.8-8.4c1.1-3.3,1.8-6.7,2.2-10.1c0.2-2,0.3-3.9,0.2-5.9c0-0.7,0.6-1.3,1.3-1.3
					C1550.7,228,1551.2,228.6,1551.3,229.3L1551.3,229.3L1551.3,229.3z"/>
			</g>
			<g class="st1">
				<path class="st2" d="M1683.2,175.2c-12.8-8.7-33.4-13.5-50.6-2.7c-13.2,8.2-24.5,25.7-19.9,42.5c1.9,6.7,5.9,11.9,11,15.7
					c1.1,0.9-3.2,9.8-2,10.5c1.5,0.9,8.7-6.3,10.3-5.6c9.2,4.2,19.6,5.6,26.8,5.6c15.3-0.1,40.6-7,45.2-26.2
					C1708.1,198,1693.5,182.2,1683.2,175.2L1683.2,175.2z"/>
				<g>
					<path class="st2" d="M1630.8,240.4c0.2-0.3,0.6-0.5,1-0.3c7.3,3.1,16.4,4.8,24.6,4.8c0.1,0,0.2,0,0.4,0
						c8.8-0.1,18.6-2.2,26.3-5.9c1.2-0.6,2.6-1.3,3.9-2c0.4-0.2,0.9-0.1,1.1,0.3l0,0c0.2,0.4,0.1,0.9-0.3,1.1
						c-1.3,0.7-2.6,1.4-4,2.1c-7.9,3.7-18,5.9-26.9,6c-0.1,0-0.2,0-0.4,0c-8.4,0-17.7-1.8-25.2-5
						C1630.7,241.4,1630.5,240.8,1630.8,240.4L1630.8,240.4L1630.8,240.4z"/>
					<path class="st2" d="M1613.7,193.8c3.8-7,9.8-13.3,16.4-17.4c4.2-2.6,8.8-4.5,13.7-5.4c4.4-0.9,9.1-1.1,13.8-0.6
						c8.5,0.9,17,4,24,8.8c2.9,2,10.4,7.6,16,16.4c2.4,3.8,4.1,7.7,5,11.5c1.1,4.4,1.1,8.6,0.1,12.8c-1.1,4.7-3.5,8.9-7.1,12.6
						c-1.1,1.2-2.4,2.3-3.7,3.3c-0.4,0.3-0.9,0.2-1.2-0.2l0,0c-0.2-0.4-0.1-0.8,0.2-1.1c4.6-3.5,8.6-8.4,10.2-15
						c4.1-17-10.9-32.5-20.5-38.9c-12.9-8.8-33.3-13-49.7-2.7c-6.2,3.9-12,9.9-15.8,16.9c-0.2,0.4-0.7,0.5-1.1,0.3h0
						C1613.6,194.7,1613.5,194.2,1613.7,193.8L1613.7,193.8z"/>
					<path class="st2" d="M1611,199.4c0.2-0.4,0.7-0.6,1.1-0.4l0.1,0c0.4,0.2,0.6,0.6,0.4,1c-2.3,6.2-3,12.8-1.2,19.3
						c1.4,5,4.1,9.4,8.1,13.1c0.3,0.3,0.3,0.8,0,1.1l0,0c-0.3,0.3-0.8,0.3-1.1,0c-4.2-3.9-7.1-8.6-8.5-13.8
						C1608,213.2,1608.5,206.3,1611,199.4L1611,199.4z"/>
				</g>
			</g>
			<g class="st1">
				<path class="st2" d="M1710.4,200c-0.7-6.7-4.6-12.6-8.6-17.8c-1.7-2.3-3.8-4.4-5.8-6.4c-1.9-1.8-3.9-3.6-5.9-5.2
					c-0.8-0.6-1.5-1.2-2.3-1.8c-0.1-0.1-0.3-0.2-0.4-0.3c-0.1-0.1,0.2,0.1,0,0l-0.1-0.1c-0.1-0.1-0.2-0.1-0.2-0.2
					c-0.4-0.3-0.6-0.7-0.3-1.2c0.2-0.4,0.8-0.6,1.2-0.3c3,2.3,5.9,4.7,8.6,7.3c4.7,4.4,8.8,9.4,11.9,15c1.9,3.4,3.3,7.1,3.7,11.1
					c0.1,0.5-0.4,0.9-0.9,0.9C1710.8,200.9,1710.4,200.5,1710.4,200L1710.4,200L1710.4,200z"/>
			</g>
			<g class="st1">
				<path class="st2" d="M1712.4,207.8c0.2,4.6-0.8,9.4-2.7,13.6c-0.4,1-1,2-1.6,3c-0.6,0.9-2.1,0.1-1.5-0.9
					c1.1-1.7,1.9-3.5,2.5-5.4c0.7-2.1,1.2-4.3,1.4-6.5c0.1-1.3,0.2-2.5,0.1-3.8c0-0.5,0.4-0.9,0.9-0.9
					C1712,206.9,1712.4,207.3,1712.4,207.8L1712.4,207.8L1712.4,207.8z"/>
			</g>
			<g class="st4">
				<path class="st2" d="M1571.1,391.2c-3.1-5.5-8.3-9.9-14.2-12c-1.7-0.6-3.5-1.1-5.3-1.3c-0.5-0.1-0.8-0.7-0.7-1.2
					c0.2-0.5,0.7-0.7,1.2-0.7c6.7,1,12.9,4.5,17.3,9.5c1.3,1.5,2.4,3,3.3,4.7C1573.3,391.3,1571.7,392.3,1571.1,391.2L1571.1,391.2
					L1571.1,391.2z"/>
			</g>
			<g class="st4">
				<path class="st2" d="M1474,405.4c-3,3.5-4.8,7.9-5,12.5c0,0.5-0.4,0.9-0.9,0.9c-0.5,0-1-0.4-0.9-0.9c0.2-5.1,2.2-10,5.6-13.9
					c0.3-0.4,1-0.3,1.3,0C1474.4,404.4,1474.4,405,1474,405.4L1474,405.4L1474,405.4z"/>
			</g>
			<g class="st8">
				<g class="st6">
					<g>
						<path class="st2" d="M1881.9,459.9c-9.3,20-33.1,27-44.1,29.2c-2.5,0.5-7.1,10-7.9,10.1c-1.2-1.6,0.2-12.5-1.3-14.2
							c-8.4-10-21.1-22.3-39.1-31.6c-18.2-9.4-27.2-8.1-32.3-16.9c-11.3-19.3,8.8-65.3,41.1-72c19.2-4,35.7,7.3,44.7,13.5
							C1865.6,393.4,1895.9,429.6,1881.9,459.9L1881.9,459.9z"/>
						<path class="st2" d="M1823.2,367.2c0.4,0,0.7,0.1,1.1,0.1c7.8,1,15.9,3,24.1,6c7.6,2.8,14.9,6.3,21,10.1
							c9.3,5.8,26.7,16.6,30.8,36.2c0.9,4.4,1.2,9,0.7,13.7c-0.4,4.4-1.5,9-3.2,13.5c-3.1,8.4-8.1,16.6-14.5,23.6
							c-5.1,5.6-10.9,10.2-16.7,13.2c-6.1,3.2-11.9,4.6-17,4c-1.1-0.1-2.2-0.4-3.2-0.7c-1-0.3-2-0.7-2.9-1.2
							c-3.2-1.8-5.9-4.6-9.3-8.2c-3.3-3.5-7.5-7.9-13.7-13c-2.5-2-5.1-3.9-7.7-5.8c-0.5-0.4-0.7-1-0.3-1.6v0
							c0.4-0.5,1.1-0.6,1.6-0.3c2.7,1.9,5.3,3.8,7.9,5.9c6.3,5.1,10.5,9.6,13.9,13.2c5.2,5.5,8.2,8.7,14,9.4
							c9.3,1.1,21.5-5.2,31.7-16.5c10.5-11.5,20.3-30.4,16.4-48.8c-4-18.7-20.8-29.2-29.8-34.8c-1.6-1-3.2-1.9-4.9-2.9
							c-9.6-5.2-20.7-9.3-31.4-11.6c-3-0.6-6-1.1-9-1.5c-9.5-1.1-21.5-0.9-32,4.1c-0.5,0.2-1.2,0.1-1.5-0.4v0
							c-0.4-0.6-0.1-1.3,0.5-1.6C1798.9,367.2,1810.2,365.7,1823.2,367.2L1823.2,367.2z"/>
					</g>
					<path class="st2" d="M1806.5,453.5L1806.5,453.5c-0.3,0.5-1,0.7-1.5,0.4c-6.4-3.7-13.2-6.9-20.3-9.5c-0.7-0.2-0.9-1-0.6-1.6v0
						c0.3-0.5,0.9-0.7,1.4-0.5c7.3,2.6,14.2,5.9,20.7,9.6C1806.6,452.2,1806.8,452.9,1806.5,453.5L1806.5,453.5z"/>
					<path class="st2" d="M1783,377.3L1783,377.3c0.3,0.5,0.2,1.1-0.2,1.5c-1.3,1.1-2.6,2.4-3.8,3.8c-12.5,14.1-11.5,34.6-9.7,46.3
						c0.1,0.5-0.2,1-0.6,1.2h0c-0.7,0.3-1.5-0.1-1.6-0.8c-0.9-5.4-1.5-12.2-0.9-19.4c0.9-11.7,4.7-21.4,11.2-28.8
						c1.3-1.4,2.6-2.8,4.1-4C1781.9,376.6,1782.7,376.7,1783,377.3L1783,377.3z"/>
				</g>
				<g class="st6">
					<path class="st2" d="M1889.8,444c2.8-7.8,2.9-16.5,0.3-24.3c-0.8-2.3-1.7-4.5-2.9-6.6c-0.3-0.6,0.1-1.4,0.7-1.7
						c0.7-0.3,1.3,0.1,1.7,0.7c4.3,7.7,5.8,16.9,4.4,25.6c-0.4,2.5-1,4.9-1.9,7.3C1891.6,446.6,1889.2,445.6,1889.8,444L1889.8,444
						L1889.8,444z"/>
				</g>
				<g class="st6">
					<path class="st2" d="M1832.5,412.9c-2-2.1-4-4.1-6-6.2c-0.4-0.4-0.2-1.1,0.2-1.4c0.5-0.4,1-0.2,1.4,0.2c2,2.1,4,4.1,6,6.2
						c0.4,0.4,0.2,1.1-0.2,1.4C1833.5,413.4,1832.9,413.3,1832.5,412.9L1832.5,412.9z"/>
				</g>
				<g class="st6">
					<path class="st2" d="M1805.5,361.5c-11.3,0.1-22.3,4.5-30.7,12c-2.3,2.1-4.5,4.5-6.3,7.1c-1,1.4-3-0.2-2-1.6
						c6.9-9.6,17.4-16.3,28.9-18.9c3.2-0.7,6.5-1.1,9.8-1.1c0.7,0,1.3,0.4,1.4,1.1C1806.7,360.6,1806.2,361.4,1805.5,361.5
						L1805.5,361.5L1805.5,361.5z"/>
				</g>
			</g>
		</g>
		<g class="st15">
			<g class="st6">
				<path class="st2" d="M145.6,54.5c-6.5-28.2-98-55.2-129.4-12.8c-18.7,25.3-12.9,70.9,9.5,85c23.9,15.1,68-5.1,95.7-29.9
					c2.5-2.3,21.2,8.6,23.5,6.3c2-2-12.5-17.3-10.8-19.4C142.7,73.2,147.4,62.7,145.6,54.5z"/>
				<g>
					<path class="st2" d="M105.7,109.4c0,0,2.3-1.2,2.9-1.5c5.5-2.7,11.6-6.3,16.9-10.7l2.7,0.9c-5.1,4.3-11.3,8.4-18.5,12
						c-2,1-4,1.9-6.1,2.8c-3.1,1.3-6.4,2.6-9.7,3.8L105.7,109.4L105.7,109.4z"/>
					<path class="st2" d="M0.1,100.6c-0.3-4.5,0.2-9.6,1.5-15.2c2.5-11.1,7.8-23.5,15-34.9c8.6-13.6,19-24.8,30.2-32.5
						c6.2-4.3,12.6-7.4,19-9.2c6.9-2,13.9-2.6,20.7-1.7c8.5,1.1,17.4,4.6,25.6,10.2c7.7,5.2,14.7,12,20.2,19.7
						c7.4,10.4,11.4,21.5,11.4,31.4c0,2.4-0.2,4.7-0.7,6.9c-1,4.9-3.2,9.6-6.6,14.1l-1.4-2.2c2.7-3.8,4.6-7.9,5.6-12.5
						c2.2-10.8-1.5-24.1-10.4-36.5c-11.2-15.7-28.1-26.8-44.1-28.9C62.5,6.3,37.3,22.1,18.6,51.7C11.6,62.9,6.4,75.1,3.9,85.9
						c-2.4,10.9-1.9,19.9,1.6,25.2c2.1,3.2,5.7,5.9,10.8,7.9c0.4,0.1,0.7,0.3,1.1,0.4l3.3,3.6c-1.9-0.5-3.7-1.1-5.3-1.7
						c-5.5-2.2-9.5-5.2-11.9-8.8C1.5,109.4,0.4,105.4,0.1,100.6L0.1,100.6z"/>
				</g>
			</g>
			<g class="st6">
				<path class="st2" d="M133.2,29.1c-4.1-4.7-8.6-9-13.7-12.7c-5-3.7-10.3-6.8-16-9.3c-3.2-1.4-6.6-2.7-10-3.7
					c-0.7-0.2-0.9-1.1-0.7-1.7c0.3-0.7,1-0.9,1.7-0.7c6.1,1.8,12,4.4,17.5,7.5c5.6,3.2,10.8,6.9,15.6,11.2c2.7,2.4,5.2,5,7.6,7.8
					C136.3,28.8,134.3,30.4,133.2,29.1L133.2,29.1L133.2,29.1z"/>
			</g>
			<g class="st6">
				<path class="st2" d="M86.4,2.6c-3-0.2-6.1,0.1-9,0.7C76.7,3.4,76,2.8,76,2.2c-0.1-0.7,0.4-1.3,1.1-1.4c3.2-0.6,6.4-0.9,9.7-0.7
					c0.7,0,1.2,0.8,1.1,1.4C87.8,2.2,87.1,2.7,86.4,2.6L86.4,2.6L86.4,2.6z"/>
			</g>
			<g class="st6">
				<path class="st2" d="M22.5,57.8C18.9,63.5,16,69.7,14,76.1c-0.6,1.8-1.1,3.6-1.5,5.5c-0.2,0.7-0.7,1.2-1.4,1.1
					c-0.6-0.1-1.3-0.8-1.1-1.4c1.6-6.9,4.1-13.5,7.4-19.7c1-1.8,2-3.6,3.1-5.3c0.4-0.6,1.3-0.7,1.8-0.3
					C22.8,56.4,22.8,57.2,22.5,57.8L22.5,57.8L22.5,57.8z"/>
			</g>
		</g>
	</g>
</g>
</svg>
