<?xml version="1.0" encoding="utf-8"?>
<!-- Generator: Adobe Illustrator 26.3.1, SVG Export Plug-In . SVG Version: 6.00 Build 0)  -->
<svg version="1.1" id="Layer_2_00000176733305741301511430000017972787437304857238_"
	 xmlns="http://www.w3.org/2000/svg" xmlns:xlink="http://www.w3.org/1999/xlink" x="0px" y="0px" viewBox="0 0 2483.5 690.1"
	 style="enable-background:new 0 0 2483.5 690.1;" xml:space="preserve">
<style type="text/css">
	.st0{opacity:0.55;}
	.st1{opacity:0.6;}
	.st2{opacity:0.15;}
	.st3{fill:#FFFFFF;}
	.st4{opacity:0.14;}
	.st5{opacity:0.3;}
	.st6{opacity:0.2;}
	.st7{opacity:0.22;}
	.st8{opacity:0.4;}
	.st9{opacity:0.8;}
	.st10{opacity:0.25;}
	.st11{opacity:0.26;}
	.st12{opacity:0.19;}
	.st13{opacity:0.17;}
	.st14{opacity:0.18;}
</style>
<g id="Layer_1-2" class="st0">
	<g class="st1">
		<g>
			<g class="st2">
				<path class="st3" d="M864.6,47.5c-5.7,17-23,28-45.1,31c-2.1,0.3-3.2,15.5-3.2,15.5s-6.9-14.7-8.8-14.7
					c-10,0.1-20.7-1.4-31.5-4.5h0c-1.7-0.5-3.3-1-5-1.6c-2.6-0.9-5.1-1.8-7.5-2.8l-0.1,0c-31.1-12.9-52.1-37-53.3-60.1h148.9
					c3.2,5.3,5.4,10.8,6.5,16.3c0.4,2,0.7,3.9,0.8,5.9v0.1C866.8,37.7,866.2,42.6,864.6,47.5z"/>
				<g>
					<path class="st3" d="M776,74.8c-7.8-0.7-15.4-2.1-22.6-4.3c-9.7-2.8-18.3-6.8-25.7-11.8c-7.5-5-13.3-10.8-17.3-17.3
						c-4.2-6.7-6.3-13.8-6.1-21.1c0.1-3.4,0.6-6.8,1.7-10.1h2.8c-1.1,3.3-1.7,6.6-1.8,10.1c-0.4,23.2,23.5,43.2,56.5,50l0.1,0
						L776,74.8L776,74.8L776,74.8z"/>
					<path class="st3" d="M867.8,23.5c-0.1,3.1-0.5,6.1-1.4,9.1v-0.1l-0.8-5.9l-0.5-3.2c0.1-4.5-0.8-8.9-2.4-13.2h2.8
						C867.2,14.6,867.9,19,867.8,23.5L867.8,23.5z"/>
				</g>
			</g>
			<g class="st4">
				<path class="st3" d="M1355.7,10.3c-3.9,13.9-17.3,27.4-35.9,35.1l-0.1,0c-1.7,0.7-3.4,1.3-5.2,2c-1.2,0.4-2.3,0.8-3.5,1.1h0
					c-7.5,2.2-14.9,3.2-21.9,3.1c-1.3,0-6.1,10.2-6.1,10.2s-0.8-10.6-2.2-10.8c-15.3-2.1-27.4-9.7-31.4-21.5
					c-1.1-3.4-1.6-6.9-1.3-10.5c0.1-1.3,0.3-2.7,0.6-4c0.3-1.6,0.8-3.1,1.4-4.7C1250,10.3,1355.7,10.3,1355.7,10.3z"/>
				<g>
					<path class="st3" d="M1247.3,10.3h1.8c-0.1,0.8-0.1,1.6-0.1,2.5l-0.3,2.2l-0.6,4l0,0.1c-0.6-2.1-0.9-4.2-0.9-6.3
						C1247.2,12,1247.2,11.1,1247.3,10.3z"/>
					<path class="st3" d="M1361,10.6c0.1,5.1-1.3,10-4.3,14.6c-2.8,4.5-6.8,8.5-12,12c-5.2,3.5-11.2,6.2-17.9,8.2
						c-5,1.5-10.3,2.5-15.8,3h0l8.7-3l0.1,0c23-4.7,39.6-18.6,39.3-34.8c0-0.1,0-0.2,0-0.4h1.8C1361,10.4,1361,10.5,1361,10.6z"/>
				</g>
			</g>
			<g class="st5">
				<path class="st3" d="M1.8,665c3.1,9.2,12.5,15.1,24.4,16.7c1.2,0.2,1.7,8.4,1.7,8.4s3.7-7.9,4.7-7.9c6.3,0,13-1,19.8-3.3
					c22.8-7.7,37-26.3,31.8-41.7c-5.2-15.3-27.8-21.6-50.6-13.9C10.9,631-3.4,649.6,1.8,665L1.8,665z"/>
				<path class="st3" d="M3.3,640.7c2.2-3.5,5.3-6.6,9.4-9.3c4-2.7,8.7-4.8,13.9-6.4c5.4-1.6,11.1-2.5,17.1-2.6
					c5.9-0.1,11.7,0.5,17.2,1.9c5.3,1.3,10,3.3,14.1,5.8c4.1,2.6,7.4,5.6,9.7,9c2.4,3.5,3.7,7.3,3.7,11.2c0.1,3.9-1,7.8-3.3,11.4
					c-2.2,3.5-5.3,6.6-9.3,9.3c-4,2.7-8.7,4.8-13.9,6.4c-3.9,1.2-8,1.9-12.2,2.3l6.8-2.4c17.9-3.6,30.8-14.5,30.5-27
					c-0.3-15.1-19.7-27.1-43.3-26.6S1.1,636.9,1.4,652L0.7,657C0.3,655.3,0,653.7,0,652C-0.1,648.1,1,644.3,3.3,640.7L3.3,640.7z"/>
			</g>
			<g class="st6">
				<path class="st3" d="M2375.5,610c3.1,9.2,12.5,15.1,24.4,16.7c1.2,0.2,1.7,8.4,1.7,8.4s3.7-7.9,4.7-7.9c6.3,0,13-1,19.8-3.3
					c22.8-7.7,37-26.3,31.9-41.7s-27.8-21.6-50.6-13.9C2384.6,576,2370.3,594.6,2375.5,610L2375.5,610z"/>
				<path class="st3" d="M2377.1,585.7c2.2-3.5,5.3-6.6,9.4-9.3c4-2.7,8.7-4.8,13.9-6.4c5.4-1.6,11.1-2.5,17.1-2.6
					c5.9-0.1,11.7,0.5,17.2,1.9c5.3,1.3,10,3.3,14.1,5.8c4.1,2.6,7.4,5.6,9.7,9c2.4,3.5,3.7,7.3,3.7,11.2c0.1,3.9-1,7.8-3.3,11.4
					c-2.2,3.5-5.3,6.6-9.4,9.3c-4,2.7-8.7,4.8-13.9,6.4c-3.9,1.2-8,1.9-12.2,2.3l6.8-2.4c17.9-3.6,30.8-14.5,30.6-27
					c-0.3-15.1-19.7-27.1-43.3-26.6s-42.5,13.1-42.2,28.3l-0.7,4.9c-0.5-1.6-0.7-3.3-0.7-4.9
					C2373.6,593.1,2374.8,589.3,2377.1,585.7L2377.1,585.7z"/>
			</g>
			<g class="st7">
				<path class="st3" d="M670,53.7c-3.8,13.6-11.9,24-22.2,31.8c-2.3,1.8,6.5,19.8,4,21.3c-3.1,1.9-17.6-12.8-20.8-11.3
					c-18.6,8.5-39.7,11.4-54.4,11.3c-24.6-0.2-62-9-81.1-32.1c-3.5-4.3-6.4-9-8.5-14.3c-0.9-2.2-1.5-4.4-2.1-6.7
					c-3.7-15.4,0.2-30.3,7.5-43.4h173.9c0.4,0.9,0.8,1.8,1.1,2.7c1.2,3,2.1,6.1,2.9,9.3l0,0c0.2,1,0.4,1.9,0.6,2.8c0,0,0,0,0,0
					C672.7,34.5,672.6,44.1,670,53.7L670,53.7z"/>
				<g>
					<path class="st3" d="M633.4,105.3c-0.4-0.7-1.3-1-2-0.7c-14.9,6.2-33.2,9.8-49.8,9.8c-0.2,0-0.5,0-0.8,0
						c-17.8-0.1-37.7-4.6-53.2-11.9c-2.5-1.2-5.2-2.6-7.8-4.1c-0.8-0.4-1.8-0.2-2.2,0.6l0,0c-0.5,0.8-0.2,1.8,0.5,2.2
						c2.6,1.5,5.3,2.9,8.1,4.3c16,7.5,36.4,12.1,54.6,12.2c0.3,0,0.5,0,0.8,0c17,0,35.8-3.7,51.1-10.1
						C633.5,107.2,633.9,106.1,633.4,105.3L633.4,105.3L633.4,105.3z"/>
					<path class="st3" d="M511.5,92.9c0.7,0.5,0.8,1.4,0.4,2.1c0,0,0,0,0,0c-0.5,0.8-1.6,1.1-2.4,0.4c-2.8-2.1-5.3-4.3-7.6-6.7
						c-7.2-7.4-12-16-14.3-25.5c-0.2-1-0.4-1.9-0.6-2.9c-1.4-7.4-1.1-15.2,0.8-23c1.9-7.7,5.3-15.5,10.2-23.3
						c0.8-1.3,1.7-2.6,2.6-3.9h4c-10.9,14.7-18.4,33-13.8,52.2c1,4.4,2.7,8.5,4.7,12.1C499.6,82.2,505.3,88.2,511.5,92.9L511.5,92.9
						z"/>
					<path class="st3" d="M667.4,13L667.4,13L667.4,13c-0.9,0.4-1.8,0.1-2.3-0.7c-0.4-0.7-0.8-1.4-1.2-2h3.9l0.2,0.4
						C668.5,11.5,668.2,12.6,667.4,13z"/>
					<path class="st3" d="M673.4,22.2c-0.3-0.9-1.3-1.3-2.2-0.9l-0.1,0.1c-0.8,0.4-1.1,1.2-0.8,2c4.7,12.5,6.1,26,2.4,39.1
						c-2.8,10.1-8.3,19-16.3,26.5c-0.7,0.6-0.7,1.7,0,2.3l0,0.1c0.6,0.6,1.6,0.6,2.2,0c8.5-7.9,14.3-17.3,17.3-28.1
						C679.5,50.2,678.6,36.1,673.4,22.2L673.4,22.2z"/>
				</g>
			</g>
			<g class="st6">
				<path class="st3" d="M713.6,288.8l-15.1-3.6l0,20.9L681,281.1l-86.8-20.5c-11.7-2.8-19.2-14.1-17.1-26l9.2-51.9
					c2.1-11.8,13-20,25-18.5L733,178.7c12.9,1.5,21.9,13.6,19.6,26.4l-11.6,65.5C738.8,283.5,726.3,291.7,713.6,288.8L713.6,288.8z"
					/>
				<g>
					<path class="st3" d="M623.8,262.8l70.6,9.8c0.7,0.1,1.3-0.3,1.4-1v0c0.2-0.7-0.3-1.5-1.1-1.6l-70.6-9.8
						c-0.7-0.1-1.3,0.4-1.5,1.1v0C622.6,262,623.1,262.7,623.8,262.8L623.8,262.8z"/>
					<path class="st3" d="M728.8,176.1L610,145.6c-6.4-1.6-13.1-0.6-18.7,2.9c-5.6,3.6-9.4,9.1-10.7,15.6l-12.8,65.3
						c-1.3,6.5,0.1,13.1,4,18.5c3.6,5,8.8,8.4,14.8,9.6c0.5,0.1,0.9,0.2,1.4,0.2l26.9,3.7c0.7,0.1,1.4-0.4,1.5-1.1v0
						c0.1-0.7-0.4-1.3-1.1-1.4l-26.9-3.7c-5.9-0.8-11-3.9-14.4-8.7c-3.4-4.8-4.7-10.7-3.6-16.5l12.8-65.3c1.1-5.8,4.5-10.8,9.5-13.9
						c5-3.2,10.9-4.1,16.7-2.6l118.8,30.4c11,2.8,17.8,13.7,15.6,24.8L733.7,255c-2.2,11.1-12.7,18.6-23.9,17l-6.2-0.9
						c-0.7-0.1-1.4,0.4-1.5,1.1v0c-0.1,0.7,0.4,1.4,1.1,1.4l6.2,0.9c12.6,1.7,24.3-6.6,26.8-19.1l10.2-51.7
						C748.9,191.4,741.1,179.2,728.8,176.1L728.8,176.1z"/>
				</g>
			</g>
			<g class="st8">
				<g>
					<g class="st6">
						<path class="st3" d="M236.3,156.6c-12.8,35.9,29.7,81.7,65.6,101.6c7.7,4.3,39.4,21.8,74.2,19c5.3-0.4,16.6,26.5,22,25.1
							c2.7-0.8-0.5-29.5,2.2-30.5c5.2-2,10.4-4.7,15.5-8c36.6-24.2,55.5-77.5,35.8-113.5c-22.1-40.6-81.2-37.5-113.5-35.8
							C315.6,115.5,249.7,118.9,236.3,156.6L236.3,156.6z"/>
						<path class="st3" d="M434,124c-5.8-9.6-13-17.3-21.7-22.8c-9.4-6-20.1-9.3-31.8-9.7c-9.9-0.3-20.9,1.4-32.6,5.2
							c-21.1,6.8-40.5,18.7-54.6,27.4c-9.3,5.7-28.6,17.6-44.5,32.8c-19.8,19-28.4,37.6-25.6,55.1c1.5,9.4,6.2,18.1,13.9,26
							c6.9,7,16,13.2,27.2,18.4c19.8,9.3,44.9,14.9,67.2,15l-13.7-4.9c-17.9-1.8-36.4-6.7-51.7-13.9c-15.9-7.4-35.5-20.7-38.8-41.4
							c-2.6-16.2,5.7-33.5,24.4-51.5c15.5-14.9,33.9-26.2,43.8-32.3c14-8.6,33.1-20.3,53.7-27c24.5-7.9,44.4-6.6,60.9,4
							c9.1,5.9,16.6,14.2,22.2,24.5l7.2,5.6C437.9,131.1,436.1,127.5,434,124L434,124z"/>
					</g>
					<g class="st6">
						<path class="st3" d="M474,173.2c2.2,10.5,2.2,21.4,0.3,31.9c-1.9,10.7-5.6,21-10.7,30.6c-2.9,5.4-6.2,10.5-9.9,15.3
							c-0.7,0.9-0.7,2.1,0.1,2.9c0.8,0.7,2.2,0.7,2.9-0.1c6.9-9,12.6-19,16.6-29.6c4-10.7,6.3-21.9,6.5-33.3
							c0.1-6.4-0.6-12.7-1.9-19c-0.2-1.1-1.6-1.6-2.6-1.3C474.1,171,473.8,172.2,474,173.2L474,173.2L474,173.2z"/>
					</g>
				</g>
				<g class="st6">
					<path class="st3" d="M338.1,124.4c11.7-6.4,23.8-11.9,36.2-16.5c3.5-1.3,7.1-2.5,10.6-3.7c1.1-0.3,1.4-1.8,1-2.8
						c-0.5-1.1-1.7-1.3-2.8-1c-12.6,4.1-25,9.1-36.9,14.9c-3.4,1.7-6.7,3.4-10,5.2c-1,0.5-1.5,1.7-1,2.8
						C335.8,124.4,337.1,125,338.1,124.4L338.1,124.4z"/>
				</g>
			</g>
			<g class="st9">
				<g>
					<g class="st6">
						<path class="st3" d="M490.5,381.9c18.6,15.7,9.8,54.6-3.7,77.1c-2.9,4.8-14.8,24.6-34.9,34.3c-3,1.5-0.7,20-4.1,20.9
							c-1.8,0.5-9.2-16.5-11-16.2c-3.5,0.5-7.2,0.8-11.1,0.5c-28-1.6-55.5-25-56.2-51.2c-0.8-29.5,32.8-46.7,51.2-56.2
							C433.5,384.7,471,365.4,490.5,381.9L490.5,381.9z"/>
						<path class="st3" d="M370.8,427.3c0.1-7.1,1.7-13.7,4.7-19.6c3.2-6.3,8.1-11.6,14.5-15.5c5.4-3.4,12-5.9,19.6-7.6
							c13.9-3,28.4-2.6,39-2.4c7,0.2,21.5,0.5,35.1,3.9c17,4.2,27.7,11.6,31.8,22.2c2.2,5.6,2.4,12,0.7,18.8
							c-1.5,6.1-4.6,12.4-9.1,18.9c-8,11.5-20,22.6-32.3,29.8l6-7.1c9.3-6.7,18-15.4,24.1-24.2c6.4-9.2,13-22.8,8.2-35.3
							c-3.8-9.7-13.9-16.7-30-20.6c-13.3-3.3-27.1-3.6-34.5-3.8c-10.5-0.3-24.8-0.6-38.3,2.3c-16,3.5-26.6,10.6-32.3,21.7
							c-3.1,6.1-4.6,13.2-4.4,20.6l-2.2,5.4C370.9,432.4,370.8,429.8,370.8,427.3L370.8,427.3z"/>
					</g>
					<g class="st6">
						<path class="st3" d="M364.5,467.3c2.1,6.5,5.6,12.5,10,17.7c4.5,5.3,9.8,9.8,15.7,13.5c3.3,2,6.8,3.8,10.4,5.3
							c0.7,0.3,1.1,1,0.9,1.7c-0.2,0.6-1,1.1-1.7,0.9c-6.7-2.8-13-6.4-18.6-11c-5.6-4.6-10.5-10.1-14.2-16.3
							c-2.1-3.5-3.8-7.2-5-11.1c-0.2-0.7,0.4-1.4,1-1.5C363.7,466.1,364.3,466.6,364.5,467.3L364.5,467.3L364.5,467.3z"/>
					</g>
				</g>
				<g class="st6">
					<path class="st3" d="M423.9,396.8c-8.5,0.2-16.9,1-25.3,2.5c-2.4,0.4-4.7,0.9-7,1.4c-0.7,0.1-1.4-0.6-1.4-1.2
						c-0.1-0.8,0.5-1.3,1.2-1.4c8.3-1.8,16.7-3,25.2-3.6c2.4-0.2,4.8-0.3,7.2-0.3c0.7,0,1.4,0.5,1.4,1.2
						C425.2,396,424.7,396.8,423.9,396.8L423.9,396.8L423.9,396.8z"/>
				</g>
			</g>
			<g class="st9">
				<g class="st6">
					<path class="st3" d="M206.2,106.7c-12.4,27.9-42.8,47.5-79.4,51.1c-4.4,0.4-12,17.5-12,17.5s-6-17-8.3-17.2
						c-9.4-0.6-19-2.2-28.7-5c-3.6-1.4-21.3-8.4-33.5-25c-3.4-4.6-6.4-10-8.6-16.2c-0.1-0.2-0.1-0.3-0.2-0.5
						c-7.4-22,0.4-41.2,4.3-50.9c8-19.8,23.5-38.1,43.3-50.2h101.4c2,1.5,4,3.2,6,5c0.3,0.3,0.7,0.6,1,0.9
						c4.7,4.6,8.6,9.8,11.7,15.3C216.5,55.1,215.7,85.3,206.2,106.7L206.2,106.7z"/>
					<path class="st3" d="M207.7,50.3c-0.8-6.6-2.4-12.9-4.5-18.8c-2.9-7.9-6.9-15-12.1-21.2h-4.7c1.5,1.6,2.8,3.3,4.1,5
						c17.8,24,17.8,57.5,7.5,80.5c-11.2,25.1-37.4,43.4-69.5,48.9c-31.4,4.8-50.4-1.6-56.8-3.4c-6.3-2.4-25-10.9-36-29.4
						c-2-3.4-3.8-7.1-5.1-11.2c-7.2-21.4,0.3-39.8,4.3-49.6C41.2,35,51.9,21,65,10.3h-5.3C47.2,21.3,37.4,35,31.4,49.6
						c-2,4.9-5,12.2-6.5,21.2c-1.9,10.7-1.1,21.1,2.1,30.9c3.8,11.2,10.2,19.8,17.1,26.3c10.3,9.7,21.6,14.7,26.2,16.5l0.2,0.1
						c6.8,2,21.5,9.4,58,3.6c10.9-1.8,21.2-5.1,30.5-9.6c19.2-9.2,34.2-23.7,42.1-41.4c3-6.8,5.1-14.3,6.3-22.3
						C208.6,66.8,208.7,58.5,207.7,50.3L207.7,50.3z"/>
				</g>
				<g class="st6">
					<path class="st3" d="M212.9,41.8c-0.9,0.2-2.1-0.5-2.2-1.5c-0.3-3.1-1-6.2-2-9.2c-1.8-5.6-4.5-11-7.7-16
						c-1-1.6-2.1-3.2-3.3-4.8h4.7c2.7,3.9,5.1,8,7.1,12.3c2.4,5.4,4.4,11.1,5,17C214.6,40.6,214,41.6,212.9,41.8L212.9,41.8z"/>
				</g>
				<g class="st6">
					<path class="st3" d="M22.2,104.4c-4.9-13.1-5.9-27.5-3.3-41.1c0.7-3.9,1.8-7.7,3.2-11.4c0.8-2.3-2.8-3.6-3.6-1.2
						c-5,13.8-6.1,29-3.2,43.4c0.8,4.1,2,8.1,3.5,12.1c0.4,1,1.7,1.3,2.5,0.9C22.3,106.4,22.5,105.3,22.2,104.4
						C22.2,104.4,22.2,104.4,22.2,104.4z"/>
				</g>
			</g>
			<g class="st8">
				<g class="st6">
					<path class="st3" d="M859.3,287.8c0,0-5.9,11.4-9.9,22.1l-7.4-34.5l-53.9-38.8c-8.9-6.4-11.4-18.6-5.7-28.1l38.1-62.8
						c6.4-10.5,20.4-13.4,30.4-6.2l81.8,59c10,7.2,11.7,21.4,3.8,30.8l-48.8,55.1C880.6,292.7,868.2,294.2,859.3,287.8L859.3,287.8z
						"/>
					<path class="st3" d="M904.8,277.9l21.8-37.7l17-29.4v0c3.4-6.2,4.2-13.4,2.1-19.9c-2.1-6.5-7-11.6-13.4-14.1l-103.1-39.3
						c-6.4-2.4-13.4-1.8-19.3,1.6c-5.8,3.4-10.1,9.4-11.6,16.2l-17,75.4c-1.2,5.4-0.4,11.1,2.3,16c2.7,4.9,7,8.7,12.2,10.7
						l45.5,17.3l-7.9-5.7l-36.7-14c-9.4-3.6-15-13.9-12.8-23.6l17.2-75.4c1.4-6.2,5-11.2,10.3-14.3c5.3-3.1,11.3-3.6,17-1.4
						l102.8,39.2c5.7,2.2,9.9,6.6,11.8,12.4c1.9,5.8,1.2,12-1.8,17.5l-23.5,40.9l-15.1,26.3v0c-3.6,6.5-10.7,10.4-18,10.4l-3.2,2.3
						c3.7,0.5,7.6,0.2,11.2-1.1C897.7,286.4,902.2,282.7,904.8,277.9L904.8,277.9z"/>
				</g>
				<g class="st6">
					<path class="st3" d="M874.5,151.3c14.4,4,28.6,8.6,42.6,13.6c3.9,1.4,7.8,2.9,11.8,4.4c1.7,0.6,2.7-2,1-2.7
						c-13.9-5.3-28-10.1-42.3-14.5c-4-1.2-8-2.4-12-3.5c-0.7-0.2-1.5,0.1-1.8,0.8C873.4,150.2,873.7,151.1,874.5,151.3L874.5,151.3
						L874.5,151.3z"/>
				</g>
				<g class="st6">
					<path class="st3" d="M943.2,179.7c4.3,1.9,7.3,6.2,7.8,10.9c0.1,0.8,0.9,1.3,1.6,1.2c0.8-0.1,1.2-0.9,1.2-1.6
						c-0.5-5.7-4.3-10.9-9.6-13.1c-0.7-0.3-1.6,0.1-1.8,0.8C942.1,178.6,942.5,179.4,943.2,179.7L943.2,179.7L943.2,179.7z"/>
				</g>
				<g class="st6">
					<path class="st3" d="M934.3,235c-4.7,8.9-9.5,17.8-14.2,26.7c-0.4,0.7,0.2,1.6,0.8,1.8c0.8,0.3,1.5-0.2,1.8-0.8
						c4.7-8.9,9.5-17.8,14.2-26.7c0.4-0.7-0.2-1.6-0.8-1.8C935.4,233.9,934.7,234.3,934.3,235L934.3,235L934.3,235z"/>
				</g>
				<g class="st6">
					<path class="st3" d="M791.6,154c-2.4,6.1-3.8,12.7-4.3,19.2c-0.1,1.8,2.7,2.1,2.8,0.3c0.5-6.4,1.8-12.6,4.1-18.5
						C794.9,153.3,792.3,152.3,791.6,154L791.6,154L791.6,154z"/>
				</g>
			</g>
			<g class="st6">
				<path class="st3" d="M730.4,174.4c8,0.2,15.7,4.8,20.1,11.4c1.3,1.9,2.2,3.9,2.9,6.1c0.5,1.7,3.2,0.8,2.6-0.9
					c-2.7-8.6-9.8-15.4-18.3-18.1c-2.4-0.8-5-1.2-7.5-1.3c-0.8,0-1.3,0.8-1.3,1.5C729,173.9,729.7,174.4,730.4,174.4L730.4,174.4
					L730.4,174.4z"/>
			</g>
			<g class="st6">
				<path class="st3" d="M645.5,148.8c9.3,2.2,18.6,4.5,27.8,6.9c9.2,2.3,18.4,4.7,27.6,7.1c5.2,1.4,10.4,2.8,15.6,4.2
					c0.7,0.2,1.5-0.4,1.6-1.1c0.1-0.8-0.4-1.4-1.1-1.6c-9.2-2.5-18.5-4.9-27.7-7.3c-9.2-2.4-18.4-4.7-27.7-7
					c-5.2-1.3-10.5-2.6-15.7-3.8c-0.7-0.2-1.5,0.4-1.6,1.1C644.2,148,644.7,148.6,645.5,148.8L645.5,148.8L645.5,148.8z"/>
			</g>
			<g class="st6">
				<path class="st3" d="M568.2,189.1c-1.5,8.9-2.9,17.8-4.4,26.7c-0.4,2.5-0.8,5.1-1.2,7.6c-0.3,1.8,2.5,2.3,2.8,0.5
					c1.5-8.9,2.9-17.8,4.4-26.7c0.4-2.5,0.8-5.1,1.2-7.6C571.3,187.9,568.5,187.4,568.2,189.1L568.2,189.1z"/>
			</g>
			<g class="st2">
				<path class="st3" d="M142.4,620.6l-14.8-7.5l-5.4,21.8l-11.8-30.5L25.1,561c-11.5-5.8-16.4-19.6-11.2-31.4L36.6,478
					c5.2-11.8,18.6-17.5,30.7-13l123.2,46c13.1,4.9,19.3,19.7,13.7,32.5l-28.7,65.3C170,621.5,154.8,626.9,142.4,620.6L142.4,620.6z
					"/>
				<g>
					<path class="st3" d="M55.5,570.8l71,28.1c0.7,0.3,1.4,0,1.8-0.7v0c0.4-0.7,0-1.6-0.7-1.9l-71.1-28.1c-0.7-0.3-1.5,0.1-1.8,0.8
						v0C54.4,569.7,54.7,570.5,55.5,570.8L55.5,570.8z"/>
					<path class="st3" d="M186.8,507.1L70.8,445.2c-6.3-3.4-13.5-4-20.2-1.7c-6.8,2.3-12.1,7.1-15.1,13.6L5.5,521.9
						c-3,6.5-3.2,13.7-0.5,20.3c2.5,6.2,7.1,11,13,13.7c0.5,0.2,0.9,0.4,1.4,0.6l27,10.7c0.7,0.3,1.5-0.1,1.8-0.8v0
						c0.3-0.7-0.1-1.5-0.8-1.8l-27-10.7c-5.9-2.3-10.5-6.9-12.8-12.8S5.4,528.8,8,523l29.9-64.7c2.7-5.8,7.5-10.1,13.5-12.1
						s12.4-1.5,18,1.5l116.1,61.9c10.7,5.7,15.1,18.8,10,29.8l-23.7,51.2c-5.1,11-17.9,16.1-29.2,11.7l-6.2-2.5
						c-0.7-0.3-1.5,0.1-1.8,0.8v0c-0.3,0.7,0.1,1.5,0.8,1.8l6.2,2.5c12.6,5,27-0.8,32.7-13.1l23.7-51.2
						C203.8,528.2,198.8,513.5,186.8,507.1L186.8,507.1z"/>
				</g>
			</g>
			<g class="st2">
				<path class="st3" d="M15.3,482c-2.6,5.6-5.2,11.3-7.8,16.9c-0.7,1.6-1.5,3.2-2.2,4.8c-0.5,1.1,1.2,2,1.7,0.8
					c2.6-5.6,5.2-11.3,7.8-16.9c0.7-1.6,1.5-3.2,2.2-4.8C17.5,481.7,15.8,480.9,15.3,482L15.3,482z"/>
			</g>
			<g class="st8">
				<g class="st6">
					<path class="st3" d="M480.8,330.8l7.3,2.1l-5,9l13.4-6.6l42,11.9c5.7,1.6,11.6-1.5,13.5-7.1l8.4-24.4
						c1.9-5.6-0.8-11.6-6.3-13.9l-55.6-22.7c-5.9-2.4-12.6,0.6-14.7,6.6l-10.6,30.8C471.2,322.6,474.6,329.1,480.8,330.8
						L480.8,330.8z"/>
					<g>
						<path class="st3" d="M525.4,341l-32.5-12.6c-0.3-0.1-0.5-0.5-0.4-0.8l0,0c0.1-0.4,0.5-0.6,0.8-0.4l32.5,12.6
							c0.3,0.1,0.5,0.5,0.4,0.8l0,0C526.1,341,525.7,341.1,525.4,341L525.4,341z"/>
						<path class="st3" d="M501,279l58.1,15.2c3.2,0.8,5.8,2.9,7.3,5.7c1.6,2.9,1.9,6.1,0.9,9.2l-10,31c-1,3.1-3.2,5.6-6.1,7
							c-2.7,1.3-5.8,1.5-8.6,0.6c-0.2-0.1-0.4-0.1-0.7-0.2l-12.4-4.8c-0.3-0.1-0.5-0.5-0.3-0.8l0,0c0.1-0.3,0.5-0.5,0.8-0.4
							l12.4,4.8c2.7,1,5.6,0.9,8.3-0.3s4.5-3.5,5.4-6.2l10-31c0.9-2.8,0.6-5.7-0.8-8.2c-1.4-2.5-3.7-4.4-6.5-5.1l-58.1-15.2
							c-5.4-1.4-10.9,1.6-12.6,6.9l-7.9,24.5c-1.7,5.3,1,11,6.2,12.9l2.9,1.1c0.3,0.1,0.5,0.5,0.4,0.8l0,0c-0.1,0.3-0.5,0.5-0.8,0.4
							l-2.9-1.1c-5.8-2.2-8.8-8.6-6.9-14.5l7.9-24.5C488.8,280.8,495,277.4,501,279L501,279z"/>
					</g>
				</g>
				<g class="st6">
					<path class="st3" d="M566.6,322.7c-1.5,4.1-3,8.3-4.5,12.5c-0.4,1.2-0.8,2.4-1.3,3.5c-0.3,0.8-1.6,0.4-1.3-0.4
						c1.5-4.1,3-8.3,4.5-12.5c0.4-1.2,0.8-2.4,1.3-3.5C565.7,321.4,566.9,321.9,566.6,322.7L566.6,322.7z"/>
				</g>
			</g>
			<g class="st8">
				<g class="st6">
					<path class="st3" d="M900.7,64.6c8.5-36.9,128.5-72.4,169.6-16.7c24.5,33.1,17,92.9-12.4,111.5c-31.4,19.8-89.2-6.7-125.4-39.2
						c-3.3-3-27.8,11.3-30.8,8.3c-2.6-2.7,16.4-22.7,14.2-25.4C904.5,89.1,898.3,75.3,900.7,64.6L900.7,64.6z"/>
					<g>
						<path class="st3" d="M953,136.6c0,0-3-1.6-3.8-2c-7.2-3.6-15.1-8.2-22.2-14l-3.5,1.2c6.6,5.7,14.8,11,24.3,15.7
							c2.6,1.3,5.2,2.5,8,3.7c4.1,1.8,8.3,3.4,12.7,4.9L953,136.6L953,136.6z"/>
						<path class="st3" d="M953.7,10.3h7.6c-13.9,5.8-27.2,16-37.5,29c-1,1.3-2.1,2.7-3,4.1c-11.3,16-16.3,33.1-13.7,47.1l0,0
							c0,0.3,0.1,0.5,0.1,0.8c1.2,6,3.8,11.4,7.3,16.3l-1.7,2.7l-0.1,0.2c-4.4-5.9-7.3-12.1-8.6-18.5c-0.6-2.9-0.9-6-0.9-9.1l0,0
							c0-12.1,4.5-25.5,13-38.2c0.7-1,1.3-2,2-3c7.2-10.1,16.3-19,26.4-25.8C947.6,13.7,950.6,11.9,953.7,10.3L953.7,10.3z"/>
						<path class="st3" d="M1091.4,125.1c-0.4,6.3-1.9,11.5-4.5,15.5c-3.1,4.8-8.4,8.7-15.6,11.6c-2.2,0.9-4.5,1.6-6.9,2.3l0.1-0.1
							h0l4.1-4.4l0,0l0.1-0.1c0.5-0.2,1-0.4,1.4-0.6c6.6-2.6,11.3-6.1,14.1-10.3c4.6-7,5.3-18.7,2.1-33c-0.4-1.8-0.9-3.7-1.4-5.5
							l0,0c-3.6-12.7-9.8-26.5-17.9-39.3c-9.7-15.5-20.8-28-32.6-37.3c-7.3-5.7-14.8-10.2-22.5-13.4h7.5c3.6,1.8,7.2,4,10.7,6.4
							c4.3,3,8.5,6.3,12.6,10c9.9,8.9,19.1,20,27,32.6c6.1,9.7,11.2,19.9,14.9,29.8c2.5,6.6,2.5,6.6,0,0c2,5.4,3.6,10.8,4.8,15.9
							C1091.1,112.4,1091.8,119.2,1091.4,125.1z"/>
					</g>
				</g>
				<g class="st6">
					<path class="st3" d="M941.3,10.3c-2.2,1.4-4.4,2.9-6.5,4.5c-6.6,4.9-12.6,10.4-17.9,16.6c-1.4,1.6-4-0.4-2.6-2.1
						c3.1-3.6,6.4-7,10-10.2c3.5-3.2,7.2-6.1,11.1-8.8H941.3z"/>
				</g>
				<g class="st6">
					<path class="st3" d="M1062,68.9c4.7,7.5,8.4,15.6,11.1,24c0.7,2.4,1.4,4.8,2,7.2c0.2,0.9,0.9,1.6,1.9,1.4
						c0.8-0.1,1.7-1,1.4-1.9c-2.1-9-5.3-17.7-9.7-25.8c-1.3-2.4-2.6-4.7-4-7c-0.5-0.8-1.7-0.8-2.3-0.3
						C1061.6,67.1,1061.5,68.1,1062,68.9L1062,68.9L1062,68.9z"/>
				</g>
			</g>
			<g class="st8">
				<g class="st6">
					<path class="st3" d="M172,408.5c3.6-30.3,96.7-69.2,134.6-28.1c22.5,24.4,21.7,73-0.3,90.5c-23.5,18.6-72.1,2.4-104-20.5
						c-2.9-2.1-21.3,11.5-23.9,9.3c-2.3-1.9,11.2-19.6,9.2-21.6C177.2,427.8,171,417.3,172,408.5L172,408.5z"/>
					<g>
						<path class="st3" d="M220.2,461.7c0,0-2.5-1-3.2-1.3c-6.1-2.2-12.9-5.3-19-9.3l-2.7,1.3c5.8,4,12.8,7.5,20.9,10.5
							c2.2,0.8,4.4,1.5,6.7,2.2c3.4,1.1,7,2,10.6,2.8L220.2,461.7L220.2,461.7z"/>
						<path class="st3" d="M330.2,440.4c-0.2-4.8-1.3-10.1-3.3-15.9c-3.9-11.4-10.9-23.8-19.7-35c-10.5-13.3-22.8-23.9-35.5-30.7
							c-7-3.8-14.1-6.3-21-7.5c-7.5-1.3-14.9-1.1-22,0.6c-8.8,2.1-17.7,6.9-25.7,13.6c-7.5,6.4-14.1,14.3-19,23
							c-6.6,11.8-9.5,23.9-8.4,34.4c0.3,2.5,0.8,4.9,1.5,7.2c1.6,5,4.5,9.7,8.5,14.1l1.2-2.4c-3.2-3.6-5.8-7.8-7.3-12.5
							c-3.6-11.1-1.1-25.5,6.7-39.5c9.9-17.8,26.4-31.3,43.1-35.4c24.5-6,52.9,7.8,75.8,36.8c8.7,11,15.5,23.1,19.3,34.2
							c3.8,11.2,4.2,20.7,1.2,26.7c-1.9,3.6-5.4,6.8-10.4,9.5c-0.4,0.2-0.7,0.4-1.1,0.6l-3.1,4.1c1.9-0.7,3.7-1.5,5.4-2.4
							c5.5-2.9,9.4-6.5,11.5-10.6C329.7,449.8,330.5,445.5,330.2,440.4L330.2,440.4z"/>
					</g>
				</g>
				<g class="st6">
					<path class="st3" d="M182.1,380.5c3.7-5.4,8.1-10.4,12.9-14.9c4.8-4.5,10.1-8.4,15.8-11.6c3.2-1.9,6.6-3.6,10.1-5
						c0.7-0.3,0.9-1.2,0.6-1.8c-0.4-0.7-1.2-0.8-1.8-0.5c-6.2,2.6-12.1,5.9-17.6,9.9c-5.5,4-10.6,8.5-15.1,13.6
						c-2.6,2.9-4.9,5.9-7.1,9.1C178.8,380.5,181.1,381.9,182.1,380.5L182.1,380.5L182.1,380.5z"/>
				</g>
				<g class="st6">
					<path class="st3" d="M228.3,347.2c3.2-0.5,6.4-0.6,9.6-0.3c0.7,0.1,1.4-0.6,1.4-1.3c0-0.8-0.6-1.3-1.3-1.4
						c-3.4-0.3-6.9-0.2-10.3,0.4c-0.7,0.1-1.2,1-1,1.6C226.8,347,227.6,347.4,228.3,347.2L228.3,347.2L228.3,347.2z"/>
				</g>
				<g class="st6">
					<path class="st3" d="M301.8,397.9c4.4,5.6,8.1,11.8,11,18.3c0.8,1.8,1.5,3.7,2.2,5.6c0.2,0.7,0.9,1.2,1.6,1
						c0.7-0.2,1.2-0.9,1-1.6c-2.5-7-5.8-13.7-10-19.9c-1.2-1.8-2.5-3.5-3.9-5.2c-0.5-0.6-1.4-0.5-1.9-0.1
						C301.2,396.5,301.3,397.3,301.8,397.9L301.8,397.9L301.8,397.9z"/>
				</g>
			</g>
			<g class="st2">
				<path class="st3" d="M867.2,43.8c-0.9,6.3-3.5,12.3-7.4,17.4c-3.8,5.1-8.9,9.4-14.7,12.2c-3.3,1.6-6.7,2.7-10.3,3.3
					c-1.9,0.3-1.3,3.2,0.6,2.9c6.8-1.2,13.2-4.2,18.6-8.4c5.4-4.3,9.8-9.8,12.7-16.1c1.7-3.5,2.8-7.3,3.3-11.2
					c0.1-0.8-0.7-1.5-1.4-1.6C867.8,42.3,867.2,43,867.2,43.8L867.2,43.8L867.2,43.8z"/>
			</g>
			<g class="st7">
				<path class="st3" d="M475.4,10.3c-1.7,4.2-2.9,8.5-3.3,13c-0.1,0.9-0.7,1.8-1.8,1.8c-0.9,0-1.8-0.8-1.7-1.8
					c0.5-4.5,1.6-8.8,3.1-13L475.4,10.3L475.4,10.3z"/>
			</g>
			<g class="st7">
				<path class="st3" d="M467.9,39.1c-0.4,9.4,1.6,19,5.4,27.6c0.9,2.1,2,4.1,3.2,6.1c1.2,1.9,4.2,0.1,3-1.8c-2.2-3.4-3.8-7.1-5-11
					c-1.4-4.3-2.4-8.8-2.8-13.2c-0.3-2.6-0.4-5.1-0.2-7.7c0-0.9-0.8-1.7-1.7-1.7C468.6,37.4,467.9,38.2,467.9,39.1L467.9,39.1
					L467.9,39.1z"/>
			</g>
			<g class="st10">
				<path class="st3" d="M387.9,1.8c-0.1-0.4-0.3-0.7-0.4-1.1c-0.1-0.2-0.1-0.5,0-0.7C387.7,0.6,387.8,1.2,387.9,1.8z"/>
				<path class="st3" d="M388.7,10.3c0,3.3-0.5,6.7-1.4,10c-2.5,8.8-7.7,15.5-14.4,20.6c-1.5,1.1,4.2,12.8,2.6,13.8
					c-2,1.2-11.4-8.3-13.5-7.3c-12,5.5-25.6,7.4-35.2,7.3c-15.9-0.1-40-5.8-52.4-20.7c-2.3-2.8-4.2-5.9-5.5-9.4
					c-0.5-1.4-1-2.8-1.4-4.3c-0.8-3.4-1-6.7-0.8-10L388.7,10.3L388.7,10.3z"/>
				<g>
					<path class="st3" d="M363.7,53.7c-0.3-0.5-0.8-0.6-1.3-0.4c-9.6,4-21.4,6.3-32.2,6.3c-0.2,0-0.3,0-0.5,0
						c-11.5-0.1-24.4-2.9-34.4-7.7c-1.6-0.8-3.3-1.7-5.1-2.7c-0.5-0.3-1.1-0.1-1.4,0.4v0c-0.3,0.5-0.1,1.1,0.4,1.4
						c1.7,1,3.4,1.9,5.3,2.8c10.3,4.8,23.5,7.8,35.3,7.9c0.2,0,0.3,0,0.5,0c11,0,23.1-2.4,33-6.5C363.8,54.9,364,54.2,363.7,53.7
						L363.7,53.7L363.7,53.7z"/>
					<path class="st3" d="M284.9,45.7c0.4,0.3,0.5,0.9,0.3,1.4c-0.2,0.3-0.2,0.3,0,0c-0.3,0.5-1,0.7-1.5,0.3
						c-1.8-1.4-3.4-2.8-4.9-4.3c-4.7-4.8-7.8-10.4-9.2-16.5c-0.1-0.6-0.3-1.3-0.4-1.9c-0.8-4.6-0.7-9.4,0.4-14.3h2.1
						c-1.2,5-1.4,10.3-0.1,15.7c0.7,2.9,1.7,5.5,3.1,7.9C277.2,38.8,280.9,42.6,284.9,45.7L284.9,45.7z"/>
					<path class="st3" d="M387.5,0.7c-0.1-0.2-0.1-0.5,0-0.7c0.1,0.6,0.3,1.2,0.4,1.8C387.8,1.4,387.7,1.1,387.5,0.7z"/>
					<path class="st3" d="M391.1,26.6c-1.9,6.9-5.7,13-11.2,18.1c-0.4,0.4-1,0.4-1.4,0c0,0,0,0,0,0c-0.4-0.4-0.4-1.1,0-1.5
						c5.2-4.9,8.8-10.6,10.6-17.2c1.5-5.2,1.7-10.5,0.9-15.7h2.2C392.9,15.9,392.6,21.3,391.1,26.6z"/>
				</g>
			</g>
			<g class="st10">
				<path class="st3" d="M262.2,32.7c-0.8-1.2-1.5-2.6-2.1-3.9c-2.4-5.6-3.8-11.8-3.5-17.9c0-0.2,0.1-0.4,0.2-0.6
					c0.2-0.3,0.5-0.5,0.9-0.5c0.4,0,0.7,0.2,1,0.5c0.1,0.2,0.2,0.4,0.2,0.6c-0.1,1.7,0,3.3,0.1,5c0.3,2.9,0.9,5.8,1.8,8.6
					c0.8,2.5,1.9,4.9,3.3,7.1C265,32.8,263,33.9,262.2,32.7L262.2,32.7z"/>
			</g>
			<g class="st11">
				<path class="st3" d="M1282,114.9c-0.4,0.1-0.8,0.2-1.2,0.3c-11.9-13.5-32.1-20.4-53.1-16.2c-21,4.2-37.1,18.4-42.8,35.6
					c-18.1,5.6-29.7,22.8-26.2,40.1c3.7,18.7,23.3,30.5,43.8,26.4l0.7,19.3c6.7-4.9,13.4-22,13.4-22c11.2-2,71-14.3,78.9-15.9
					c20.5-4.1,34.1-22.5,30.3-41.2S1302.5,110.9,1282,114.9L1282,114.9z"/>
				<path class="st3" d="M1306.9,106.9c-8.8-5.1-19.4-6.7-29.9-4.6c-0.2,0-0.4,0.1-0.6,0.1c-6.2-6.6-14.4-11.6-23.8-14.5
					c-9.9-3-20.8-3.4-31.4-1.3c-10.7,2.1-20.6,6.8-28.6,13.4c-7.7,6.3-13.4,14.2-16.5,22.7c-9.1,2.9-16.9,8.6-22,16.1
					c-5.3,7.7-7.2,16.8-5.5,25.4s6.8,16,14.4,21.1l-2.6-5.1c-4.8-4.4-8.2-10-9.5-16.5c-3.3-16.6,8.1-33.4,26.4-39l0.6-0.2l0.2-0.6
					c6.1-17.5,22.8-31,43.5-35.1c20.6-4.1,41.1,1.9,53.5,15.6l0.5,0.5l0.7-0.2c0.5-0.1,0.8-0.2,1.2-0.3c20.4-4.1,40,7.2,43.6,25.2
					l3,5.7c0-2.1-0.2-4.1-0.6-6.1C1321.6,120,1315.7,112,1306.9,106.9L1306.9,106.9z"/>
			</g>
			<g class="st1">
				<g class="st6">
					<g>
						<path class="st3" d="M34.5,341.4c12.2,26.2,43.4,35.4,57.7,38.3c3.3,0.7,9.3,13.1,10.4,13.2c1.6-2.1-0.3-16.3,1.7-18.6
							c11-13.1,27.6-29.2,51.2-41.4c23.9-12.3,35.7-10.7,42.4-22.2c14.8-25.2-11.5-85.6-53.9-94.4c-25.2-5.2-46.8,9.6-58.6,17.7
							C55.9,254.2,16.2,301.6,34.5,341.4L34.5,341.4z"/>
						<path class="st3" d="M111.5,219.8c-0.5,0.1-0.9,0.1-1.4,0.2c-10.2,1.3-20.8,4-31.5,7.9c-10,3.6-19.5,8.2-27.6,13.2
							c-12.2,7.6-35,21.7-40.4,47.5c-1.2,5.7-1.5,11.8-0.9,18c0.6,5.8,2,11.7,4.2,17.6c4,11,10.6,21.7,19,30.9
							c6.7,7.4,14.3,13.4,21.8,17.3c7.9,4.2,15.7,6,22.3,5.2c1.5-0.2,2.9-0.5,4.2-0.9c1.3-0.4,2.6-1,3.7-1.6
							c4.2-2.3,7.7-6,12.2-10.8c4.4-4.6,9.8-10.4,18-17c3.3-2.6,6.7-5.2,10.1-7.5c0.7-0.5,0.8-1.4,0.4-2.1l0,0
							c-0.5-0.7-1.4-0.9-2.1-0.4c-3.6,2.4-7,5-10.3,7.7c-8.3,6.7-13.8,12.6-18.2,17.3c-6.8,7.1-10.8,11.5-18.3,12.3
							c-12.2,1.4-28.2-6.8-41.6-21.6C21.2,338,8.4,313.3,13.5,289.2c5.2-24.5,27.2-38.2,39.1-45.6c2.1-1.3,4.2-2.5,6.4-3.7
							C71.5,233,86,227.7,100,224.7c4-0.9,7.9-1.5,11.8-1.9c12.4-1.4,28.2-1.2,42,5.4c0.7,0.3,1.5,0.1,1.9-0.6l0,0
							c0.4-0.8,0.2-1.7-0.6-2.1C143.2,219.8,128.5,217.8,111.5,219.8L111.5,219.8z"/>
					</g>
					<path class="st3" d="M133.4,332.9L133.4,332.9c0.4,0.7,1.3,0.9,2,0.5c8.4-4.9,17.3-9,26.7-12.4c0.9-0.3,1.2-1.3,0.8-2.1v0
						c-0.4-0.6-1.1-0.9-1.8-0.7c-9.5,3.5-18.6,7.7-27.1,12.6C133.2,331.3,133,332.2,133.4,332.9L133.4,332.9z"/>
					<path class="st3" d="M164.1,233L164.1,233c-0.4,0.7-0.3,1.5,0.3,2c1.8,1.5,3.4,3.1,5,4.9c16.3,18.5,15.1,45.3,12.7,60.7
						c-0.1,0.7,0.2,1.3,0.8,1.6h0c0.9,0.4,1.9-0.1,2.1-1.1c1.1-7.1,2-16,1.2-25.4c-1.2-15.4-6.1-28.1-14.6-37.8
						c-1.7-1.9-3.4-3.6-5.3-5.2C165.7,232.2,164.6,232.3,164.1,233L164.1,233z"/>
				</g>
				<g class="st6">
					<path class="st3" d="M24.2,320.5c-3.7-10.2-3.8-21.6-0.5-31.9c1-3,2.3-5.9,3.8-8.6c0.5-0.8-0.2-1.9-0.9-2.2
						c-0.9-0.4-1.8,0.1-2.2,0.9c-5.6,10.1-7.6,22.1-5.8,33.5c0.5,3.3,1.4,6.5,2.5,9.6C21.8,323.9,25,322.6,24.2,320.5
						C24.2,320.5,24.2,320.5,24.2,320.5z"/>
				</g>
				<g class="st6">
					<path class="st3" d="M99.2,279.7c2.6-2.7,5.2-5.4,7.9-8.1c0.5-0.5,0.2-1.4-0.3-1.8c-0.6-0.5-1.3-0.2-1.8,0.3
						c-2.6,2.7-5.2,5.4-7.9,8.1c-0.5,0.5-0.2,1.4,0.3,1.8C98,280.4,98.8,280.2,99.2,279.7L99.2,279.7z"/>
				</g>
				<g class="st6">
					<path class="st3" d="M134.7,212.3c14.8,0.1,29.2,5.9,40.2,15.8c3.1,2.8,5.9,5.9,8.3,9.3c1.3,1.8,3.9-0.3,2.7-2.1
						c-9.1-12.6-22.9-21.4-37.9-24.8c-4.2-0.9-8.5-1.4-12.8-1.5c-0.9,0-1.8,0.5-1.9,1.5C133.1,211.2,133.8,212.3,134.7,212.3
						L134.7,212.3L134.7,212.3z"/>
				</g>
			</g>
			<g class="st12">
				<path class="st3" d="M1779.3,10.3c-7.2,18.1-25.4,35.2-49.9,45.4h0c-2.5,1-5,2-7.6,2.8c-1.7,0.6-3.3,1.1-5,1.6h0
					c-10.8,3.1-21.5,4.6-31.5,4.5c-1.8,0-8.8,14.7-8.8,14.7s-1.1-15.2-3.2-15.5c-22-3-39.3-14-45.1-31c-1.6-4.8-2.2-9.8-1.9-14.8
					v-0.1c0.2-1.9,0.4-3.8,0.8-5.8c0.1-0.6,0.2-1.2,0.4-1.8C1627.6,10.3,1779.3,10.3,1779.3,10.3z"/>
				<g>
					<path class="st3" d="M1625.1,10.3h2.4l-0.2,1.8l-0.8,5.8v0.1C1625.7,15.4,1625.2,12.9,1625.1,10.3z"/>
					<path class="st3" d="M1788.4,10.3c-0.6,5.7-2.6,11.2-5.9,16.5c-4,6.4-9.8,12.2-17.3,17.3c-7.4,5-16.1,9-25.7,11.8
						c-7.2,2.1-14.8,3.6-22.6,4.3h0l12.6-4.4h0c30.8-6.2,53.8-24.2,56.3-45.4C1785.7,10.3,1788.4,10.3,1788.4,10.3z"/>
				</g>
			</g>
			<g class="st4">
				<path class="st3" d="M2008,39c-0.6,2.3-1.3,4.6-2.1,6.7c-2.1,5.3-4.9,10-8.5,14.3c-19,23.2-56.5,32-81,32.1
					c-14.8,0.1-35.8-2.9-54.4-11.4c-3.3-1.5-17.8,13.2-20.8,11.4c-2.5-1.5,6.3-19.5,4-21.3c-10.3-7.8-18.4-18.2-22.2-31.8
					c-2.7-9.5-2.7-19.2-0.9-28.5c0-0.1,0-0.1,0-0.2c0.2-0.9,0.4-1.8,0.6-2.7c0.1,0.4,0.1,0.8,0,1.1c-0.2,0.5-0.4,1.1-0.6,1.6h184.7
					C2009.6,19.4,2010.3,29.1,2008,39L2008,39z"/>
				<g>
					<path class="st3" d="M1859.5,90.6c0.4-0.7,1.3-1,2-0.7c14.9,6.2,33.2,9.8,49.8,9.8c0.2,0,0.5,0,0.8,0
						c17.8-0.1,37.7-4.6,53.2-11.9c2.5-1.2,5.2-2.6,7.8-4.1c0.8-0.4,1.8-0.2,2.2,0.6l0,0c0.5,0.8,0.2,1.8-0.6,2.2
						c-2.6,1.5-5.3,2.9-8.1,4.3c-16,7.5-36.4,12.1-54.6,12.2c-0.3,0-0.5,0-0.8,0c-17,0-35.8-3.7-51.1-10.1
						C1859.3,92.6,1859,91.5,1859.5,90.6L1859.5,90.6L1859.5,90.6z"/>
					<path class="st3" d="M2005.9,45.7c-0.2,1-0.4,1.9-0.6,2.9c-2.3,9.5-7.1,18.1-14.3,25.5c-2.3,2.3-4.8,4.6-7.6,6.7
						c-0.8,0.6-1.9,0.4-2.4-0.5c0,0,0,0,0,0c-0.4-0.7-0.2-1.6,0.4-2.1c6.2-4.8,11.9-10.7,16-18.2c2-3.7,3.6-7.7,4.7-12.2
						c3.2-13.3,0.6-26.1-4.8-37.5h3.5c1.9,4.2,3.3,8.3,4.3,12.5C2006.9,30.6,2007.2,38.3,2005.9,45.7z"/>
					<path class="st3" d="M1836.5,76.7C1836.5,76.7,1836.5,76.7,1836.5,76.7c-0.7,0.6-1.6,0.6-2.2,0.1c-8.5-7.9-14.3-17.3-17.3-28.1
						c-3.4-12.3-2.9-25.3,1.5-38.4h3.5c0.2-0.9,0.4-1.8,0.6-2.7c0.1,0.4,0.1,0.8,0,1.1c-0.2,0.5-0.4,1.1-0.6,1.6
						c0,0.1-0.1,0.1-0.1,0.2c-4.2,12-5.3,24.8-1.8,37.3c2.8,10.1,8.3,19,16.4,26.5C1837.2,75,1837.2,76,1836.5,76.7z"/>
				</g>
			</g>
			<g class="st13">
				<path class="st3" d="M1779.3,274.1l15.1-3.6l0.1,20.9l17.4-25.1l86.8-20.5c11.7-2.8,19.2-14.1,17.1-26l-9.2-51.9
					c-2.1-11.8-13-20-25-18.5L1759.8,164c-12.9,1.5-21.9,13.6-19.6,26.4l11.6,65.5C1754,268.8,1766.6,277.1,1779.3,274.1z"/>
				<g>
					<path class="st3" d="M1869,248.1l-70.6,9.8c-0.7,0.1-1.3-0.3-1.4-1v0c-0.2-0.7,0.3-1.5,1.1-1.6l70.6-9.8
						c0.7-0.1,1.3,0.4,1.4,1.1v0C1870.2,247.3,1869.7,248,1869,248.1L1869,248.1z"/>
					<path class="st3" d="M1764,161.4l118.8-30.4c6.4-1.6,13.1-0.6,18.7,2.9s9.4,9.1,10.7,15.6l12.8,65.3c1.3,6.5-0.1,13.1-4,18.5
						c-3.6,5-8.8,8.4-14.8,9.6c-0.5,0.1-0.9,0.2-1.4,0.2l-26.9,3.7c-0.7,0.1-1.4-0.4-1.5-1.1v0c-0.1-0.7,0.4-1.3,1.1-1.4l26.9-3.7
						c5.9-0.8,11-3.9,14.4-8.7c3.4-4.8,4.7-10.7,3.6-16.5l-12.8-65.3c-1.1-5.8-4.5-10.8-9.6-13.9c-5-3.2-10.9-4.1-16.7-2.6
						l-118.8,30.4c-10.9,2.8-17.8,13.7-15.6,24.8l10.2,51.7c2.2,11.1,12.7,18.6,23.9,17l6.2-0.9c0.7-0.1,1.4,0.4,1.5,1.1v0
						c0.1,0.7-0.4,1.4-1.1,1.4l-6.2,0.9c-12.6,1.7-24.3-6.6-26.8-19.1l-10.2-51.7C1744,176.7,1751.7,164.5,1764,161.4L1764,161.4z"
						/>
				</g>
			</g>
			<g class="st10">
				<path class="st3" d="M1954.9,254.9c0.4,0,0.7,0,1.1,0c8.1-13.9,24.5-23.4,43.6-23.4s35.6,9.6,43.7,23.6
					c16.8,1.7,29.9,14.7,29.9,30.5c0,17-15.1,30.7-33.7,30.7l2.7,17c-6.7-3.1-15.5-16.9-15.5-16.9c-10.2,0.2-64.6-0.1-71.7-0.1
					c-18.6,0-33.7-13.8-33.7-30.7S1936.3,254.9,1954.9,254.9L1954.9,254.9z"/>
				<path class="st3" d="M1931.7,252.2c6.8-6,15.8-9.3,25.3-9.3c0.2,0,0.3,0,0.5,0c4.2-6.9,10.6-12.7,18.3-16.8
					c8.2-4.3,17.6-6.6,27.2-6.6s19.2,2.3,27.3,6.7c7.8,4.2,14.2,10.1,18.4,17c8.5,1,16.3,4.6,22.1,10.2c6,5.8,9.2,13.4,9.2,21.3
					s-3.2,15.2-8.9,21l1.4-4.9c3.4-4.6,5.4-10.2,5.4-16.1c0-15.1-12.9-27.8-29.9-29.5l-0.6-0.1l-0.3-0.5
					c-8.4-14.2-25.3-23.1-44.1-23.1s-35.6,8.8-44,22.9l-0.3,0.5l-0.7,0c-0.4,0-0.8,0-1.1,0c-18.6,0-33.7,13.3-33.7,29.7l-1.6,5.5
					c-0.3-1.8-0.5-3.6-0.5-5.5C1921.2,266.2,1925,258.2,1931.7,252.2L1931.7,252.2z"/>
			</g>
			<g class="st8">
				<g>
					<g class="st6">
						<path class="st3" d="M2260.1,124.9c9.5,26.5-21.9,60.3-48.5,75c-5.7,3.1-29.1,16.1-54.8,14.1c-3.9-0.3-12.3,19.6-16.2,18.5
							c-2-0.6,0.4-21.8-1.6-22.6c-3.9-1.5-7.7-3.4-11.4-5.9c-27.1-17.9-41-57.2-26.5-83.8c16.3-30,60-27.7,83.9-26.5
							C2201.5,94.6,2250.2,97.1,2260.1,124.9z"/>
						<path class="st3" d="M2114,100.9c4.2-7.1,9.6-12.8,16-16.9c6.9-4.5,14.8-6.9,23.5-7.2c7.4-0.2,15.4,1.1,24.1,3.8
							c15.6,5,29.9,13.8,40.4,20.2c6.9,4.2,21.1,13,32.8,24.2c14.6,14.1,21,27.8,18.9,40.7c-1.1,6.9-4.6,13.4-10.3,19.2
							c-5.1,5.2-11.8,9.8-20.1,13.6c-14.6,6.9-33.2,11-49.6,11.1l10.1-3.6c13.2-1.3,26.9-5,38.2-10.2c11.7-5.5,26.2-15.3,28.6-30.6
							c1.9-11.9-4.2-24.7-18-38.1c-11.4-11-25-19.3-32.3-23.8c-10.3-6.3-24.4-15-39.7-19.9c-18.1-5.8-32.8-4.8-45,3
							c-6.7,4.3-12.3,10.5-16.4,18.1l-5.3,4.1C2111.2,106,2112.5,103.3,2114,100.9L2114,100.9z"/>
					</g>
					<g class="st6">
						<path class="st3" d="M2084.5,137.2c-1.6,7.7-1.6,15.8-0.2,23.5c1.4,7.9,4.1,15.5,7.9,22.6c2.1,4,4.6,7.7,7.3,11.3
							c0.5,0.6,0.5,1.6-0.1,2.1c-0.6,0.5-1.6,0.5-2.1-0.1c-5.1-6.6-9.3-14-12.2-21.9c-2.9-7.9-4.7-16.2-4.8-24.6
							c-0.1-4.7,0.4-9.4,1.4-14c0.2-0.8,1.2-1.2,1.9-1C2084.4,135.6,2084.7,136.4,2084.5,137.2L2084.5,137.2L2084.5,137.2z"/>
					</g>
				</g>
				<g class="st6">
					<path class="st3" d="M2184.9,101.2c-8.6-4.7-17.6-8.8-26.8-12.2c-2.6-1-5.2-1.9-7.9-2.7c-0.8-0.2-1.1-1.3-0.7-2
						c0.4-0.8,1.2-1,2-0.7c9.3,3,18.5,6.7,27.3,11c2.5,1.2,4.9,2.5,7.4,3.8c0.7,0.4,1.1,1.2,0.7,2
						C2186.6,101.1,2185.6,101.6,2184.9,101.2C2184.9,101.2,2184.9,101.2,2184.9,101.2z"/>
				</g>
			</g>
			<g class="st8">
				<g>
					<g class="st6">
						<path class="st3" d="M2002.4,367.2c-18.6,15.7-9.8,54.6,3.7,77.1c2.9,4.8,14.8,24.6,34.9,34.3c3.1,1.5,0.7,20,4.1,20.9
							c1.8,0.5,9.2-16.5,11-16.2c3.5,0.5,7.2,0.8,11.1,0.5c28-1.6,55.5-25,56.2-51.2c0.8-29.5-32.8-46.7-51.2-56.2
							C2059.3,370,2021.9,350.7,2002.4,367.2L2002.4,367.2z"/>
						<path class="st3" d="M2122,412.6c-0.1-7.1-1.7-13.7-4.7-19.6c-3.2-6.3-8.1-11.6-14.5-15.5c-5.4-3.4-12-5.9-19.6-7.6
							c-13.9-3-28.4-2.6-38.9-2.4c-7,0.2-21.4,0.5-35.1,3.9c-17,4.2-27.7,11.6-31.8,22.2c-2.2,5.6-2.4,12-0.7,18.8
							c1.6,6.1,4.6,12.4,9.1,18.9c8,11.5,20,22.6,32.3,29.8l-6-7.1c-9.3-6.7-18-15.4-24.1-24.2c-6.4-9.2-13-22.8-8.2-35.3
							c3.8-9.7,13.9-16.7,30-20.6c13.3-3.3,27.1-3.6,34.5-3.8c10.5-0.3,24.8-0.6,38.3,2.3c16,3.5,26.6,10.6,32.3,21.7
							c3.1,6.1,4.6,13.2,4.4,20.6l2.2,5.4C2121.9,417.7,2122.1,415.2,2122,412.6L2122,412.6z"/>
					</g>
					<g class="st6">
						<path class="st3" d="M2128.3,452.6c-2.1,6.5-5.6,12.5-10,17.7c-4.5,5.3-9.8,9.8-15.7,13.5c-3.3,2-6.8,3.8-10.4,5.3
							c-0.7,0.3-1.1,1-0.9,1.7c0.2,0.6,1,1.1,1.7,0.9c6.7-2.8,13-6.4,18.6-11c5.6-4.6,10.5-10.1,14.2-16.3c2.1-3.5,3.8-7.2,5-11.1
							c0.2-0.7-0.4-1.4-1-1.5C2129.1,451.4,2128.6,451.9,2128.3,452.6L2128.3,452.6L2128.3,452.6z"/>
					</g>
				</g>
				<g class="st6">
					<path class="st3" d="M2068.9,382.1c8.5,0.2,16.9,1,25.3,2.5c2.4,0.4,4.7,0.9,7,1.4c0.7,0.1,1.4-0.6,1.4-1.2
						c0.1-0.8-0.5-1.3-1.2-1.4c-8.3-1.8-16.7-3-25.2-3.6c-2.4-0.2-4.8-0.3-7.2-0.3c-0.7,0-1.4,0.5-1.4,1.2
						C2067.7,381.4,2068.2,382.1,2068.9,382.1L2068.9,382.1L2068.9,382.1z"/>
				</g>
			</g>
			<g class="st8">
				<g class="st6">
					<path class="st3" d="M2457.4,96.7c-0.1,0.2-0.1,0.3-0.1,0.4c0,0,0,0,0,0s0,0,0,0l0,0c0,0,0,0,0,0l0,0c0,0,0,0,0,0
						c-2.1,6.2-5.1,11.6-8.6,16.2c-12.2,16.6-29.9,23.6-33.5,25c-9.7,2.8-19.4,4.4-28.8,5c-2.3,0.1-8.3,17.2-8.3,17.2
						s-7.6-17.1-12-17.5c-36.6-3.6-67-23.2-79.4-51.1c-9.5-21.3-10.3-51.5,3-75.1l0,0c1.3-2.3,2.7-4.5,4.2-6.6h134.9
						c10.7,10.3,19.1,22.6,24.3,35.5C2457.1,55.5,2464.8,74.7,2457.4,96.7L2457.4,96.7z"/>
					<path class="st3" d="M2467.9,56.2c-1.5-8.9-4.5-16.3-6.5-21.2c-3.5-8.7-8.4-17-14.4-24.7h-4.4c6.4,7.8,11.7,16.5,15.5,26
						c4,9.9,11.4,28.3,4.3,49.6c-1.4,4.1-3.1,7.8-5.1,11.2c0,0,0,0,0,0s0,0,0,0l0,0c0,0,0,0,0,0l0,0c0,0,0,0,0,0
						c-11,18.5-29.7,26.9-36,29.4c-6.4,1.8-25.4,8.2-56.8,3.5c-32.1-5.5-58.3-23.7-69.5-48.9c-9-20.1-10.2-48.1,1.5-70.8h-3.9
						c-1,2.1-1.9,4.3-2.8,6.6l0,0c-2.2,5.9-3.7,12.2-4.5,18.8c-1,8.2-0.9,16.4,0.2,24.6c1.1,8,3.2,15.5,6.3,22.3
						c7.9,17.8,22.9,32.2,42.1,41.4c9.3,4.5,19.6,7.7,30.5,9.6c36.5,5.7,51.1-1.7,58-3.6l0.1-0.1c4.7-1.8,15.9-6.8,26.2-16.5
						c6.9-6.5,13.4-15.1,17.1-26.4C2469.1,77.3,2469.8,66.9,2467.9,56.2L2467.9,56.2z"/>
				</g>
				<g class="st6">
					<path class="st3" d="M2286.4,10.3c-0.9,2-1.7,4-2.3,6.1c-0.9,3-1.6,6-2,9.2c-0.1,1-1.2,1.7-2.2,1.5c-1.1-0.2-1.6-1.2-1.5-2.2
						c0.5-5,2-9.9,3.9-14.6C2282.3,10.3,2286.4,10.3,2286.4,10.3z"/>
				</g>
				<g class="st6">
					<path class="st3" d="M2470.7,89.7c4.9-13.1,5.9-27.5,3.3-41.1c-0.7-3.9-1.8-7.7-3.2-11.4c-0.8-2.3,2.8-3.6,3.6-1.2
						c5,13.8,6.1,29,3.2,43.4c-0.8,4.1-2,8.1-3.5,12.1c-0.4,1-1.7,1.3-2.5,0.9C2470.6,91.8,2470.3,90.7,2470.7,89.7L2470.7,89.7
						L2470.7,89.7z"/>
				</g>
			</g>
			<g class="st10">
				<path class="st3" d="M2012.3,322.4c-14-1.1-28.1-1.7-42.1-1.7c-4,0-8,0-12,0.1c-1.6,0-1.6-2.4,0-2.5c14.1-0.3,28.1,0,42.2,0.8
					c4,0.2,8,0.5,12,0.8c0.7,0,1.2,0.5,1.2,1.2C2013.6,321.8,2013,322.4,2012.3,322.4L2012.3,322.4L2012.3,322.4z"/>
			</g>
			<g class="st14">
				<path class="st3" d="M1923.7,300.5c3.1,5.7,7.6,10.5,13.2,13.9c1.4,0.8,0.1,3-1.2,2.1c-5.9-3.5-10.9-8.7-14.1-14.8
					C1920.8,300.3,1922.9,299,1923.7,300.5L1923.7,300.5L1923.7,300.5z"/>
			</g>
			<g class="st8">
				<g class="st6">
					<path class="st3" d="M1633.6,273.1c0,0,5.9,11.4,9.9,22.1l7.4-34.5l53.9-38.8c8.9-6.4,11.4-18.6,5.7-28.1l-38.1-62.8
						c-6.4-10.5-20.4-13.4-30.4-6.2l-81.8,59c-10,7.2-11.7,21.4-3.8,30.8l48.8,55.1C1612.3,278,1624.7,279.5,1633.6,273.1z"/>
					<path class="st3" d="M1588,263.2l-21.8-37.7l-17-29.4v0c-3.4-6.2-4.2-13.4-2.1-19.9c2.1-6.5,7-11.6,13.4-14.1l103.1-39.3
						c6.4-2.4,13.4-1.8,19.3,1.6c5.8,3.4,10.1,9.4,11.6,16.2l17,75.4c1.2,5.4,0.4,11.1-2.3,16c-2.7,4.9-7,8.7-12.2,10.7l-45.5,17.3
						l7.9-5.7l36.7-14c9.4-3.6,15-13.9,12.8-23.6l-17.2-75.4c-1.4-6.2-5.1-11.2-10.3-14.3c-5.3-3.1-11.3-3.6-17-1.4L1561.7,165
						c-5.7,2.2-9.9,6.6-11.8,12.4c-1.9,5.8-1.2,12,1.8,17.5l23.6,40.9l15.1,26.3v0c3.6,6.5,10.7,10.4,18,10.4l3.2,2.3
						c-3.7,0.5-7.6,0.2-11.2-1.1C1595.1,271.7,1590.7,268.1,1588,263.2L1588,263.2z"/>
				</g>
				<g class="st6">
					<path class="st3" d="M1618.4,136.6c-14.4,4-28.6,8.6-42.6,13.6c-3.9,1.4-7.8,2.9-11.8,4.4c-1.7,0.6-2.7-2-1-2.7
						c13.9-5.3,28-10.1,42.3-14.5c4-1.2,8-2.4,12-3.5c0.7-0.2,1.6,0.1,1.8,0.8C1619.5,135.5,1619.1,136.4,1618.4,136.6L1618.4,136.6
						z"/>
				</g>
				<g class="st6">
					<path class="st3" d="M1549.7,165c-4.3,1.9-7.3,6.2-7.8,10.9c-0.1,0.8-0.9,1.3-1.6,1.2c-0.8-0.1-1.2-0.9-1.2-1.6
						c0.5-5.7,4.3-10.9,9.6-13.1c0.7-0.3,1.6,0.1,1.8,0.8C1550.8,163.9,1550.4,164.7,1549.7,165L1549.7,165L1549.7,165z"/>
				</g>
				<g class="st6">
					<path class="st3" d="M1558.5,220.3c4.7,8.9,9.5,17.8,14.2,26.7c0.4,0.7-0.2,1.6-0.8,1.8c-0.8,0.3-1.5-0.2-1.8-0.8
						c-4.7-8.9-9.5-17.8-14.2-26.7c-0.4-0.7,0.2-1.6,0.8-1.8C1557.5,219.2,1558.2,219.7,1558.5,220.3L1558.5,220.3z"/>
				</g>
				<g class="st6">
					<path class="st3" d="M1701.3,139.3c2.4,6.1,3.8,12.7,4.3,19.2c0.1,1.8-2.7,2.1-2.8,0.3c-0.4-6.4-1.8-12.6-4.1-18.5
						C1697.9,138.6,1700.6,137.6,1701.3,139.3L1701.3,139.3L1701.3,139.3z"/>
				</g>
			</g>
			<g class="st13">
				<path class="st3" d="M1754.4,159.3c-7.7,2.1-14.1,8.3-16.9,15.8c-0.8,2.1-1.3,4.3-1.4,6.6c-0.1,1.8-2.9,1.5-2.8-0.3
					c0.6-9,6-17.2,13.6-21.9c2.2-1.3,4.5-2.3,7-3c0.7-0.2,1.5,0.4,1.6,1.1C1755.7,158.4,1755.1,159.1,1754.4,159.3L1754.4,159.3
					L1754.4,159.3z"/>
			</g>
			<g class="st13">
				<path class="st3" d="M1847.4,134.1c-9.3,2.2-18.6,4.5-27.8,6.9c-9.2,2.3-18.4,4.7-27.6,7.1c-5.2,1.4-10.4,2.8-15.6,4.2
					c-0.7,0.2-1.5-0.4-1.6-1.1c-0.1-0.8,0.4-1.4,1.1-1.6c9.2-2.5,18.5-4.9,27.7-7.3c9.2-2.4,18.4-4.7,27.7-7
					c5.2-1.3,10.5-2.6,15.7-3.8c0.7-0.2,1.5,0.4,1.6,1.1C1848.7,133.3,1848.1,134,1847.4,134.1L1847.4,134.1z"/>
			</g>
			<g class="st13">
				<path class="st3" d="M1924.6,174.4c1.4,8.9,2.9,17.8,4.4,26.7c0.4,2.5,0.8,5.1,1.2,7.6c0.3,1.8-2.5,2.3-2.8,0.5
					c-1.4-8.9-2.9-17.8-4.4-26.7c-0.4-2.5-0.8-5.1-1.2-7.6C1921.6,173.2,1924.3,172.7,1924.6,174.4L1924.6,174.4z"/>
			</g>
			<g class="st8">
				<g class="st6">
					<path class="st3" d="M1219.3,10.3l-4.9,22.5c-1.9,8.8-10.8,14.1-19.4,11.7l-10.3-2.9L1184,56l-11.3-17.7l-59.2-16.6
						c-1.7-0.5-3.3-1.2-4.7-2.2h0c-1.2-0.9-2.3-1.9-3.2-3c-1.4-1.8-2.5-3.9-3-6.1L1219.3,10.3L1219.3,10.3z"/>
					<g>
						<path class="st3" d="M1133.9,24l48.3,8.7c0.4,0.1,0.9-0.2,1-0.6v0c0.1-0.5-0.2-1-0.7-1.1l-48.3-8.7c-0.5-0.1-0.9,0.2-1,0.7v0
							C1133.1,23.5,1133.4,23.9,1133.9,24z"/>
						<path class="st3" d="M1128.8,22.1L1128.8,22.1c-0.1,0.5-0.6,0.8-1.1,0.8l-18.4-3.3c-0.2,0-0.3-0.1-0.5-0.1h0
							c-0.2,0-0.3-0.1-0.5-0.1c-4.1-1-7.6-3.4-9.9-7c-0.4-0.7-0.8-1.4-1.2-2.1h2c0.2,0.4,0.4,0.7,0.6,1.1c1.4,2.2,3.4,3.9,5.7,5.1
							c1.2,0.6,2.6,1.1,4,1.4l18.4,3.3C1128.5,21.2,1128.8,21.6,1128.8,22.1L1128.8,22.1z"/>
						<path class="st3" d="M1214.3,10.3l-2.9,11.9c-2,8.5-10.4,13.9-19,12.4l-4.2-0.8c-0.5-0.1-0.8-0.5-0.7-1h0
							c0.1-0.5,0.5-0.8,1-0.8l4.2,0.8c7.7,1.4,15.1-3.5,16.9-11l2.8-11.5L1214.3,10.3L1214.3,10.3z"/>
					</g>
				</g>
			</g>
			<g class="st8">
				<g class="st6">
					<path class="st3" d="M2227.7,295.3l-7.3,2.1l4.9,9l-13.4-6.6l-42,11.9c-5.7,1.6-11.6-1.5-13.5-7.1l-8.4-24.4
						c-1.9-5.6,0.9-11.6,6.3-13.9l55.6-22.7c5.9-2.4,12.6,0.6,14.7,6.6l10.6,30.8C2237.3,287,2233.9,293.5,2227.7,295.3
						L2227.7,295.3z"/>
					<g>
						<path class="st3" d="M2183.1,305.4l32.5-12.6c0.3-0.1,0.5-0.5,0.4-0.8l0,0c-0.1-0.4-0.5-0.6-0.8-0.4l-32.5,12.6
							c-0.3,0.1-0.5,0.5-0.4,0.8l0,0C2182.4,305.4,2182.8,305.6,2183.1,305.4L2183.1,305.4z"/>
						<path class="st3" d="M2207.5,243.4l-58.1,15.2c-3.1,0.8-5.8,2.9-7.3,5.7c-1.6,2.9-1.9,6.1-0.9,9.2l10,31c1,3.1,3.2,5.6,6.1,7
							c2.7,1.3,5.8,1.5,8.6,0.6c0.2-0.1,0.4-0.1,0.6-0.2l12.4-4.8c0.3-0.1,0.5-0.5,0.4-0.8l0,0c-0.1-0.3-0.5-0.5-0.8-0.4l-12.4,4.8
							c-2.7,1-5.6,0.9-8.3-0.3s-4.6-3.5-5.4-6.2l-10-31c-0.9-2.8-0.6-5.7,0.8-8.2c1.4-2.5,3.7-4.4,6.5-5.1l58.1-15.2
							c5.4-1.4,10.9,1.6,12.6,6.9l7.9,24.5c1.7,5.3-1,11-6.2,12.9l-2.9,1.1c-0.3,0.1-0.5,0.5-0.4,0.8l0,0c0.1,0.3,0.5,0.5,0.8,0.4
							l2.9-1.1c5.8-2.2,8.8-8.6,6.9-14.5l-7.9-24.5C2219.7,245.2,2213.5,241.8,2207.5,243.4L2207.5,243.4z"/>
					</g>
				</g>
				<g class="st6">
					<path class="st3" d="M2141.9,287.1c1.5,4.1,3,8.3,4.5,12.5c0.4,1.2,0.9,2.4,1.3,3.5c0.3,0.8,1.6,0.4,1.3-0.4
						c-1.5-4.1-3-8.3-4.5-12.5c-0.4-1.2-0.9-2.4-1.3-3.5C2142.9,285.8,2141.6,286.3,2141.9,287.1L2141.9,287.1z"/>
				</g>
			</g>
			<g class="st8">
				<g class="st6">
					<path class="st3" d="M1580.2,95.7c4.8,6.9,12.6,16.3,10.9,18.1c-1.9,2-13.3-3.5-21.7-6.7c-1.2-0.5-2.4-0.9-3.5-1.2
						c-2.7-0.8-4.8-1.1-5.6-0.4c-7.7,6.9-16.4,13.6-25.6,19.5l-0.2,0.1c-3.3,2.1-6.6,4.2-10,6.1l-0.2,0.1
						c-31.7,18.1-67.2,27.4-89.5,13.3c-2.3-1.4-4.4-3.1-6.4-5l0,0c-1.5-1.4-2.9-3-4.3-4.6c-10-12.3-15.7-30.6-16.3-49.4l0,0
						c-0.1-3.7,0-7.4,0.3-11.1c0.2-2.5,0.2-2.5,0,0c1.2-15.1,5.8-29.8,14.3-41.2c7.1-9.7,16.7-16.6,27.6-21.2
						c1.4-0.6,2.9-1.2,4.3-1.7c1.3-0.5,2.7-0.9,4-1.3c-0.6,0.4-1.1,0.9-1.7,1.3h77.9c12.9,3.6,24.8,8.6,34.4,14.3l0,0
						c2.8,1.7,5.3,3.4,7.7,5.2c8.2,6.3,13.8,13.1,15.4,20.1c1.2,5.4,0.3,11.5-2.4,18.1c-1,2.5-2.3,5.1-3.9,7.7l0,0
						c-2.4,4.2-5.4,8.4-8.9,12.7c-0.5,0.6,0.2,2.3,1.5,4.4C1578.9,93.7,1579.5,94.7,1580.2,95.7L1580.2,95.7z"/>
					<g>
						<path class="st3" d="M1539.8,121.9c0,0,3-1.6,3.8-2c7.2-3.6,15.1-8.2,22.2-14l3.5,1.2c-6.6,5.7-14.8,11-24.3,15.7
							c-2.6,1.3-5.2,2.5-7.9,3.7c-4.1,1.8-8.3,3.4-12.7,4.9L1539.8,121.9L1539.8,121.9z"/>
						<path class="st3" d="M1458.4,9c-0.6,0.4-1.1,0.9-1.7,1.3c-11.2,9.2-21.7,21.3-31,36c-8.1,12.8-14.3,26.5-17.9,39.2l0,0
							c-0.5,1.9-1,3.7-1.4,5.5c-3.2,14.3-2.4,26,2.1,33c2.8,4.2,7.5,7.7,14.1,10.3c0.5,0.2,0.9,0.4,1.4,0.6l4.3,4.6l0,0
							c-2.5-0.7-4.8-1.4-6.9-2.3c-7.2-2.9-12.5-6.8-15.6-11.6c-2.6-4-4.1-9.2-4.5-15.5c-0.3-5.9,0.3-12.6,1.9-20
							c1.1-5.1,2.8-10.5,4.8-15.9c1.3-3.6,1.3-3.6,0,0c3.7-9.9,8.8-20.2,14.9-29.8c7.9-12.6,17.1-23.7,27-32.6
							c0.6-0.6,1.3-1.1,1.9-1.7h2.4C1455.7,9.8,1457.1,9.4,1458.4,9L1458.4,9z"/>
						<path class="st3" d="M1589.7,68L1589.7,68c0,3.2-0.3,6.2-0.9,9.1c-1.3,6.4-4.2,12.6-8.6,18.5l-1.8-2.8
							c3.5-4.9,6.1-10.3,7.3-16.3c0.1-0.3,0.1-0.5,0.2-0.8l0,0c2.6-14-2.4-31.1-13.7-47c-1-1.4-2-2.7-3-4.1l0,0
							c-4.2-5.3-8.8-10.1-13.8-14.4h4.8c5.5,5,10.4,10.6,14.7,16.6c0.7,1,1.4,2,2,3C1585.1,42.6,1589.6,56,1589.7,68L1589.7,68z"/>
					</g>
				</g>
				<g class="st6">
					<path class="st3" d="M1575.9,16.7c-1.9-2.2-3.9-4.4-6-6.4h4.7c1.4,1.4,2.7,2.9,3.9,4.4C1580,16.3,1577.3,18.4,1575.9,16.7z"/>
				</g>
				<g class="st6">
					<path class="st3" d="M1430.8,54.2c-4.7,7.5-8.4,15.6-11.1,24c-0.7,2.4-1.4,4.8-2,7.2c-0.2,0.9-0.9,1.6-1.9,1.4
						c-0.8-0.1-1.7-1-1.4-1.9c2.1-9,5.3-17.7,9.7-25.8c1.3-2.4,2.6-4.7,4-7c0.5-0.8,1.7-0.8,2.3-0.3
						C1431.3,52.5,1431.3,53.5,1430.8,54.2L1430.8,54.2L1430.8,54.2z"/>
				</g>
			</g>
			<g class="st8">
				<g class="st6">
					<path class="st3" d="M2307.5,391.6c-3.6-30.3-96.7-69.2-134.6-28.1c-22.5,24.4-21.7,73.1,0.3,90.5c23.5,18.6,72.1,2.4,104-20.5
						c2.9-2.1,21.3,11.5,23.9,9.3c2.3-1.9-11.2-19.6-9.2-21.6C2302.3,410.9,2308.6,400.4,2307.5,391.6L2307.5,391.6z"/>
					<g>
						<path class="st3" d="M2259.4,444.8c0,0,2.5-1,3.2-1.3c6.1-2.2,12.9-5.3,19-9.3l2.7,1.3c-5.8,4-12.8,7.5-20.9,10.5
							c-2.2,0.8-4.4,1.5-6.7,2.2c-3.4,1.1-7,2-10.6,2.8L2259.4,444.8L2259.4,444.8z"/>
						<path class="st3" d="M2149.4,423.5c0.2-4.8,1.3-10.1,3.3-15.9c3.9-11.4,10.9-23.8,19.7-35c10.5-13.3,22.8-23.9,35.5-30.7
							c7-3.8,14.1-6.3,21-7.5c7.5-1.3,14.9-1.1,22,0.6c8.8,2.1,17.7,6.9,25.7,13.6c7.5,6.4,14.1,14.3,19,23
							c6.6,11.8,9.5,23.9,8.4,34.4c-0.3,2.5-0.8,4.9-1.5,7.2c-1.6,5-4.5,9.7-8.5,14.1l-1.2-2.4c3.2-3.6,5.8-7.8,7.3-12.5
							c3.6-11.1,1.1-25.5-6.7-39.5c-9.9-17.8-26.4-31.3-43.1-35.4c-24.5-6-52.9,7.8-75.8,36.8c-8.7,11-15.6,23.1-19.3,34.2
							c-3.8,11.2-4.2,20.7-1.2,26.7c1.9,3.6,5.4,6.8,10.4,9.5c0.4,0.2,0.7,0.4,1.1,0.6l3.1,4.1c-1.9-0.7-3.7-1.5-5.4-2.4
							c-5.6-2.9-9.4-6.5-11.5-10.6C2149.9,432.9,2149.1,428.6,2149.4,423.5L2149.4,423.5z"/>
					</g>
				</g>
				<g class="st6">
					<path class="st3" d="M2297.4,363.5c-3.7-5.4-8.1-10.4-12.9-14.9c-4.8-4.5-10.1-8.4-15.8-11.6c-3.2-1.9-6.6-3.6-10.1-5
						c-0.7-0.3-0.9-1.2-0.6-1.8c0.4-0.7,1.2-0.8,1.8-0.5c6.2,2.6,12.1,5.9,17.6,9.9c5.5,4,10.6,8.5,15.1,13.6
						c2.6,2.9,4.9,5.9,7.1,9.1C2300.7,363.6,2298.4,365,2297.4,363.5L2297.4,363.5L2297.4,363.5z"/>
				</g>
				<g class="st6">
					<path class="st3" d="M2251.3,330.3c-3.2-0.5-6.4-0.6-9.6-0.3c-0.7,0.1-1.4-0.6-1.4-1.3c0-0.8,0.6-1.3,1.3-1.4
						c3.4-0.3,6.9-0.2,10.3,0.4c0.7,0.1,1.2,1,1,1.6C2252.7,330.1,2252,330.5,2251.3,330.3L2251.3,330.3L2251.3,330.3z"/>
				</g>
				<g class="st6">
					<path class="st3" d="M2177.8,381c-4.4,5.6-8.1,11.8-11,18.3c-0.8,1.8-1.5,3.7-2.2,5.6c-0.2,0.7-0.9,1.2-1.6,1
						c-0.7-0.2-1.2-0.9-1-1.6c2.5-7,5.8-13.7,10-19.9c1.2-1.8,2.5-3.5,3.9-5.2c0.4-0.6,1.4-0.5,1.9-0.1
						C2178.3,379.6,2178.3,380.4,2177.8,381L2177.8,381L2177.8,381z"/>
				</g>
			</g>
			<g class="st8">
				<g class="st6">
					<path class="st3" d="M2308.1,468.6c3.6-30.3,96.7-69.2,134.6-28.1c22.5,24.4,21.7,73-0.3,90.5c-23.5,18.6-72.1,2.4-104-20.5
						c-2.9-2.1-21.3,11.5-23.9,9.3c-2.3-1.9,11.2-19.6,9.2-21.6C2313.3,487.9,2307.1,477.4,2308.1,468.6L2308.1,468.6z"/>
					<g>
						<path class="st3" d="M2356.3,521.8c0,0-2.5-1-3.2-1.3c-6.1-2.2-12.9-5.3-19-9.3l-2.7,1.3c5.8,4,12.8,7.5,20.9,10.5
							c2.2,0.8,4.4,1.5,6.7,2.2c3.4,1.1,7,2,10.6,2.8L2356.3,521.8L2356.3,521.8z"/>
						<path class="st3" d="M2466.3,500.5c-0.2-4.8-1.3-10.1-3.3-15.9c-3.9-11.4-10.9-23.8-19.7-35c-10.5-13.3-22.8-23.9-35.5-30.7
							c-7-3.8-14.1-6.3-21-7.5c-7.5-1.3-14.9-1.1-22,0.6c-8.8,2.1-17.7,6.9-25.7,13.6c-7.5,6.4-14.1,14.3-19,23
							c-6.6,11.8-9.5,23.9-8.4,34.4c0.3,2.5,0.8,4.9,1.5,7.2c1.6,5,4.5,9.7,8.5,14.1l1.2-2.4c-3.2-3.6-5.8-7.8-7.3-12.5
							c-3.6-11.1-1.1-25.5,6.7-39.5c9.9-17.8,26.4-31.3,43.1-35.4c24.5-6,52.9,7.8,75.8,36.8c8.7,11,15.6,23.1,19.3,34.2
							c3.8,11.2,4.2,20.7,1.2,26.7c-1.9,3.6-5.4,6.8-10.4,9.5c-0.4,0.2-0.7,0.4-1.1,0.6l-3.1,4.1c1.9-0.7,3.7-1.5,5.4-2.4
							c5.6-2.9,9.4-6.5,11.5-10.6C2465.8,509.9,2466.6,505.6,2466.3,500.5L2466.3,500.5z"/>
					</g>
				</g>
				<g class="st6">
					<path class="st3" d="M2318.2,440.6c3.7-5.4,8.1-10.4,12.9-14.9c4.8-4.5,10.1-8.4,15.8-11.6c3.2-1.9,6.6-3.6,10.1-5
						c0.7-0.3,0.9-1.2,0.6-1.8c-0.4-0.7-1.2-0.8-1.8-0.5c-6.2,2.6-12.1,5.9-17.6,9.9c-5.5,4-10.6,8.5-15.1,13.6
						c-2.6,2.9-4.9,5.9-7.1,9.1C2314.9,440.6,2317.2,442,2318.2,440.6L2318.2,440.6L2318.2,440.6z"/>
				</g>
				<g class="st6">
					<path class="st3" d="M2364.4,407.3c3.2-0.5,6.4-0.6,9.6-0.3c0.7,0.1,1.4-0.6,1.4-1.3c0-0.8-0.6-1.3-1.3-1.4
						c-3.4-0.3-6.9-0.2-10.3,0.4c-0.7,0.1-1.2,1-1,1.6C2362.9,407.1,2363.7,407.5,2364.4,407.3L2364.4,407.3L2364.4,407.3z"/>
				</g>
				<g class="st6">
					<path class="st3" d="M2437.9,458c4.4,5.6,8.1,11.8,11,18.3c0.8,1.8,1.5,3.7,2.2,5.6c0.2,0.7,0.9,1.2,1.6,1
						c0.7-0.2,1.2-0.9,1-1.6c-2.5-7-5.8-13.7-10-19.9c-1.2-1.8-2.5-3.5-3.9-5.2c-0.4-0.6-1.4-0.5-1.9-0.1
						C2437.4,456.6,2437.4,457.5,2437.9,458L2437.9,458L2437.9,458z"/>
				</g>
			</g>
			<g class="st12">
				<path class="st3" d="M1625.7,29.1c0.9,6.3,3.6,12.3,7.4,17.4c3.8,5.1,8.9,9.4,14.7,12.2c3.3,1.6,6.7,2.7,10.3,3.3
					c1.9,0.3,1.3,3.2-0.6,2.9c-6.8-1.2-13.2-4.2-18.6-8.4c-5.4-4.3-9.8-9.8-12.7-16.1c-1.7-3.5-2.8-7.3-3.3-11.2
					c-0.1-0.8,0.7-1.5,1.4-1.6C1625,27.6,1625.6,28.3,1625.7,29.1L1625.7,29.1L1625.7,29.1z"/>
			</g>
			<g class="st11">
				<path class="st3" d="M1953.3,172.5c3.8,11.3,15.3,18.6,29.9,20.6c1.4,0.2,2.1,10.3,2.1,10.3s4.6-9.8,5.8-9.7
					c7.7,0.1,16-1.2,24.3-4c28-9.4,45.5-32.3,39.1-51.2s-34.2-26.5-62.1-17.1S1947,153.6,1953.3,172.5L1953.3,172.5z"/>
				<path class="st3" d="M1955.2,142.6c2.7-4.3,6.5-8.1,11.5-11.5c4.9-3.3,10.7-6,17.1-7.8c6.6-1.9,13.7-3,21-3.2s14.4,0.7,21.1,2.3
					c6.5,1.6,12.3,4.1,17.4,7.2c5.1,3.1,9.1,6.9,11.9,11c3,4.3,4.5,9,4.6,13.8s-1.3,9.5-4.1,14c-2.7,4.3-6.5,8.1-11.5,11.5
					c-4.9,3.3-10.7,6-17.1,7.9c-4.8,1.4-9.8,2.4-15,2.8l8.4-2.9c21.9-4.4,37.8-17.8,37.5-33.2c-0.4-18.6-24.2-33.3-53.2-32.7
					c-29,0.6-52.2,16.1-51.9,34.7l-0.9,6.1c-0.6-2-0.9-4-0.9-6C1951.1,151.8,1952.5,147.1,1955.2,142.6L1955.2,142.6z"/>
			</g>
			<g class="st11">
				<path class="st3" d="M2024.1,118.4c-10.1-1.8-20.4-2.2-30.6-1c-2.8,0.3-5.7,0.8-8.5,1.3c-0.5,0.1-1.1-0.1-1.2-0.6
					c-0.2-0.4,0.1-1.1,0.6-1.2c10.3-2.1,20.9-2.6,31.4-1.6c2.9,0.3,5.9,0.7,8.8,1.2C2025.7,116.7,2025.3,118.7,2024.1,118.4
					L2024.1,118.4L2024.1,118.4z"/>
			</g>
			<g class="st11">
				<path class="st3" d="M1973.8,123.9c-3.2,1.5-6.1,3.5-8.7,5.9c-0.4,0.4-1,0.5-1.4,0.1c-0.4-0.3-0.5-1-0.1-1.4
					c2.8-2.6,6-4.8,9.5-6.4c0.5-0.2,1.1,0.2,1.2,0.6C1974.6,123.2,1974.3,123.7,1973.8,123.9L1973.8,123.9L1973.8,123.9z"/>
			</g>
			<g class="st11">
				<path class="st3" d="M1951.6,170.1c0.6,4.2,2.4,8.2,4.9,11.6c2.5,3.4,5.9,6.2,9.7,8.1c2.2,1.1,4.4,1.8,6.8,2.2
					c1.2,0.2,0.8,2.1-0.4,1.9c-4.5-0.8-8.8-2.8-12.4-5.6c-3.6-2.8-6.5-6.5-8.4-10.7c-1.1-2.4-1.8-4.9-2.2-7.4c-0.1-0.5,0.4-1,0.9-1
					C1951.2,169.1,1951.6,169.5,1951.6,170.1L1951.6,170.1L1951.6,170.1z"/>
			</g>
			<g class="st4">
				<path class="st3" d="M2023.1,10.3c-0.2,0.1-0.3,0.1-0.5,0.1c-0.2,0-0.3,0-0.5-0.1H2023.1z"/>
			</g>
			<g class="st4">
				<path class="st3" d="M2025,24.4c0.4,9.4-1.6,19-5.4,27.6c-0.9,2.1-2,4.1-3.2,6.1c-1.2,1.9-4.2,0.1-3-1.8c2.2-3.4,3.8-7.1,5.1-11
					c1.4-4.3,2.4-8.8,2.8-13.2c0.3-2.6,0.3-5.1,0.2-7.7c0-0.9,0.8-1.7,1.7-1.7C2024.2,22.7,2024.9,23.5,2025,24.4
					C2025,24.4,2025,24.4,2025,24.4z"/>
			</g>
			<g class="st2">
				<path class="st3" d="M2223.7,10.3c-1.3,3.3-3.2,6.3-5.4,9c-12.3,14.9-36.5,20.6-52.3,20.7c-9.6,0.1-23.2-1.8-35.2-7.3
					c-2.1-1-11.5,8.5-13.5,7.3c-1.6-1,4.1-12.6,2.6-13.8c-5.4-4.1-9.9-9.4-12.7-15.9L2223.7,10.3L2223.7,10.3z"/>
				<g>
					<path class="st3" d="M2129.2,39c0.3-0.5,0.8-0.6,1.3-0.4c9.6,4,21.4,6.3,32.2,6.3c0.2,0,0.3,0,0.5,0
						c11.5-0.1,24.4-2.9,34.4-7.7c1.6-0.8,3.3-1.7,5.1-2.7c0.5-0.3,1.1-0.1,1.4,0.4v0c0.3,0.5,0.1,1.1-0.4,1.4
						c-1.7,1-3.4,1.9-5.3,2.8c-10.3,4.8-23.5,7.8-35.3,7.9c-0.2,0-0.3,0-0.5,0c-11,0-23.1-2.4-33-6.5
						C2129.1,40.3,2128.8,39.6,2129.2,39L2129.2,39L2129.2,39z"/>
					<path class="st3" d="M2223.8,10l-0.1,0.3c-0.1,0.5-0.2,1-0.3,1.5c-1.5,6.1-4.6,11.7-9.2,16.5c-1.5,1.5-3.1,3-4.9,4.3
						c-0.5,0.4-1.2,0.2-1.6-0.3c0,0,0,0,0,0c-0.3-0.5-0.2-1,0.3-1.4c4-3,7.7-6.9,10.3-11.7c1.3-2.4,2.4-5,3.1-7.9
						c0.1-0.4,0.2-0.7,0.2-1.1h2.1C2223.7,10.2,2223.8,10.1,2223.8,10z"/>
					<path class="st3" d="M2114.3,30C2114.3,30,2114.3,30,2114.3,30c-0.4,0.4-1,0.4-1.4,0c-5.5-5.1-9.2-11.2-11.2-18.1
						c-0.1-0.5-0.3-1.1-0.4-1.6h2.2c0.1,0.3,0.2,0.7,0.3,1c1.8,6.6,5.4,12.3,10.6,17.2C2114.8,28.9,2114.8,29.6,2114.3,30L2114.3,30
						z"/>
				</g>
			</g>
			<g class="st2">
				<path class="st3" d="M2234.1,10.3c-0.4,1.3-0.9,2.6-1.4,3.8c-0.6,1.4-1.3,2.7-2.1,3.9c-0.8,1.2-2.7,0.1-1.9-1.1
					c1.3-2,2.3-4.3,3.1-6.6L2234.1,10.3L2234.1,10.3z"/>
			</g>
			<g class="st10">
				<path class="st3" d="M2051,236.6c-4.1-7.3-10.8-13-18.7-15.8c-2.2-0.8-4.6-1.4-6.9-1.7c-0.7-0.1-1-0.9-0.9-1.5
					c0.2-0.7,0.9-1,1.5-0.9c8.7,1.3,16.9,5.9,22.7,12.5c1.6,1.9,3.1,4,4.3,6.1C2053.9,236.8,2051.7,238,2051,236.6L2051,236.6
					L2051,236.6z"/>
			</g>
			<g class="st10">
				<path class="st3" d="M1923.7,255.2c-3.9,4.5-6.3,10.4-6.6,16.4c0,0.7-0.5,1.2-1.2,1.2c-0.6,0-1.3-0.6-1.2-1.2
					c0.3-6.7,2.9-13.1,7.3-18.1c0.4-0.5,1.3-0.4,1.8,0C1924.2,254,1924.1,254.7,1923.7,255.2L1923.7,255.2L1923.7,255.2z"/>
			</g>
			<g class="st8">
				<g class="st6">
					<g>
						<path class="st3" d="M2458.3,326.7c-12.1,26.2-43.4,35.4-57.7,38.3c-3.3,0.7-9.3,13.1-10.4,13.2c-1.6-2.1,0.3-16.3-1.7-18.6
							c-11-13.1-27.6-29.2-51.2-41.4c-23.9-12.3-35.7-10.7-42.4-22.2c-14.8-25.2,11.5-85.6,53.9-94.4c25.2-5.2,46.8,9.6,58.6,17.7
							C2436.9,239.5,2476.7,287,2458.3,326.7L2458.3,326.7z"/>
						<path class="st3" d="M2381.4,205.1c0.5,0.1,0.9,0.1,1.4,0.2c10.2,1.3,20.8,4,31.6,7.9c10,3.6,19.5,8.2,27.6,13.2
							c12.2,7.6,35,21.7,40.4,47.5c1.2,5.7,1.5,11.8,0.9,18c-0.6,5.8-2,11.7-4.1,17.6c-4,11-10.6,21.7-19,30.9
							c-6.7,7.4-14.3,13.4-21.8,17.3c-7.9,4.2-15.7,6-22.3,5.2c-1.5-0.2-2.9-0.5-4.1-0.9c-1.3-0.4-2.6-1-3.7-1.6
							c-4.2-2.3-7.7-6-12.2-10.8c-4.4-4.6-9.8-10.4-18-17c-3.3-2.6-6.6-5.2-10.1-7.5c-0.7-0.5-0.9-1.4-0.4-2.1l0,0
							c0.5-0.7,1.4-0.9,2.1-0.4c3.6,2.4,7,5,10.3,7.7c8.3,6.7,13.8,12.6,18.2,17.3c6.8,7.1,10.8,11.5,18.3,12.3
							c12.2,1.4,28.1-6.8,41.6-21.6c13.8-15.1,26.6-39.8,21.6-63.9c-5.2-24.6-27.2-38.2-39.1-45.6c-2.1-1.3-4.2-2.5-6.4-3.7
							c-12.6-6.9-27.1-12.2-41.1-15.2c-4-0.9-7.9-1.5-11.8-1.9c-12.4-1.4-28.2-1.2-42,5.4c-0.7,0.3-1.5,0.1-1.9-0.6l0,0
							c-0.4-0.8-0.2-1.7,0.6-2.1C2349.6,205.1,2364.4,203.1,2381.4,205.1L2381.4,205.1z"/>
					</g>
					<path class="st3" d="M2359.4,318.2L2359.4,318.2c-0.4,0.7-1.3,0.9-2,0.5c-8.4-4.9-17.3-9-26.7-12.4c-0.9-0.3-1.2-1.3-0.8-2.1v0
						c0.4-0.6,1.1-0.9,1.8-0.7c9.5,3.5,18.6,7.7,27.1,12.6C2359.6,316.6,2359.9,317.5,2359.4,318.2L2359.4,318.2z"/>
					<path class="st3" d="M2328.7,218.3L2328.7,218.3c0.4,0.7,0.3,1.5-0.3,2c-1.8,1.5-3.4,3.1-5,4.9c-16.3,18.5-15.1,45.3-12.7,60.7
						c0.1,0.7-0.2,1.3-0.8,1.6h0c-0.9,0.4-1.9-0.1-2.1-1.1c-1.1-7.1-2-16-1.2-25.4c1.2-15.4,6.1-28.1,14.6-37.8
						c1.7-1.9,3.4-3.6,5.3-5.2C2327.2,217.5,2328.2,217.6,2328.7,218.3L2328.7,218.3z"/>
				</g>
				<g class="st6">
					<path class="st3" d="M2468.6,305.9c3.7-10.2,3.8-21.6,0.5-31.9c-1-3-2.3-5.9-3.8-8.6c-0.4-0.8,0.2-1.9,0.9-2.2
						c0.9-0.4,1.8,0.1,2.2,0.9c5.6,10.1,7.6,22.1,5.8,33.5c-0.5,3.3-1.4,6.5-2.5,9.6C2471,309.2,2467.9,307.9,2468.6,305.9
						L2468.6,305.9z"/>
				</g>
				<g class="st6">
					<path class="st3" d="M2393.6,265c-2.6-2.7-5.2-5.4-7.9-8.1c-0.5-0.5-0.2-1.4,0.3-1.8c0.6-0.5,1.3-0.2,1.8,0.3
						c2.6,2.7,5.2,5.4,7.9,8.1c0.5,0.5,0.2,1.4-0.3,1.8C2394.8,265.8,2394.1,265.6,2393.6,265L2393.6,265z"/>
				</g>
				<g class="st6">
					<path class="st3" d="M2358.1,197.6c-14.8,0.1-29.2,5.9-40.2,15.8c-3.1,2.8-5.9,5.9-8.3,9.3c-1.3,1.8-3.9-0.3-2.7-2.1
						c9.1-12.6,22.9-21.4,37.9-24.8c4.2-0.9,8.5-1.4,12.8-1.5c0.9,0,1.8,0.5,1.9,1.5C2359.7,196.6,2359.1,197.6,2358.1,197.6
						L2358.1,197.6L2358.1,197.6z"/>
				</g>
			</g>
		</g>
	</g>
</g>
</svg>
