<?xml version="1.0" encoding="utf-8"?>
<!-- Generator: Adobe Illustrator 26.3.1, SVG Export Plug-In . SVG Version: 6.00 Build 0)  -->
<svg version="1.1" id="Layer_2_00000167364522687806644990000017764382082071688081_"
	 xmlns="http://www.w3.org/2000/svg" xmlns:xlink="http://www.w3.org/1999/xlink" x="0px" y="0px" viewBox="0 0 2483.5 749.8"
	 style="enable-background:new 0 0 2483.5 749.8;" xml:space="preserve">
<style type="text/css">
	.st0{opacity:0.55;}
	.st1{opacity:0.6;}
	.st2{opacity:0.15;}
	.st3{fill:#FFFFFF;}
	.st4{opacity:0.14;}
	.st5{opacity:0.3;}
	.st6{opacity:0.2;}
	.st7{opacity:0.22;}
	.st8{opacity:0.4;}
	.st9{opacity:0.8;}
	.st10{opacity:0.25;}
	.st11{opacity:0.26;}
	.st12{opacity:0.19;}
	.st13{opacity:0.17;}
	.st14{opacity:0.18;}
</style>
<g id="Layer_1-2" class="st0">
	<g class="st1">
		<g>
			<g class="st2">
				<path class="st3" d="M864.6,107.2c-5.7,17-23,28-45.1,31c-2.1,0.3-3.2,15.5-3.2,15.5s-6.9-14.7-8.8-14.7
					c-11.6,0.1-24.1-1.9-36.5-6.1c-42.1-14.2-68.5-48.7-59-77.1c9.6-28.4,51.5-39.9,93.6-25.8S874.2,78.7,864.6,107.2L864.6,107.2z"
					/>
				<path class="st3" d="M861.7,62.2c-4-6.4-9.8-12.2-17.3-17.3c-7.4-5-16.1-9-25.7-11.8c-10-2.9-20.6-4.5-31.6-4.8
					s-21.7,1-31.8,3.5c-9.8,2.5-18.6,6.1-26.2,10.8c-7.6,4.7-13.7,10.3-18,16.6c-4.5,6.5-6.8,13.5-6.9,20.8s1.9,14.4,6.1,21.1
					c4,6.4,9.8,12.2,17.3,17.3c7.4,5,16.1,9,25.7,11.8c7.2,2.1,14.8,3.6,22.6,4.3l-12.6-4.4c-33-6.7-57-26.8-56.5-49.9
					c0.5-28,36.5-50.1,80.1-49.2c43.6,0.8,78.7,24.3,78.2,52.3l1.3,9.1c0.8-3,1.3-6,1.4-9.1C868,75.9,865.9,68.8,861.7,62.2
					L861.7,62.2z"/>
			</g>
			<g class="st4">
				<path class="st3" d="M1249.4,89.2c4,11.8,16,19.5,31.4,21.6c1.5,0.2,2.2,10.8,2.2,10.8s4.8-10.2,6.1-10.2
					c8.1,0.1,16.7-1.3,25.4-4.2c29.3-9.9,47.7-33.9,41-53.7s-35.8-27.8-65.1-17.9C1261.1,45.4,1242.8,69.4,1249.4,89.2z"/>
				<path class="st3" d="M1251.4,57.8c2.8-4.5,6.8-8.5,12-12c5.2-3.5,11.2-6.2,17.9-8.2c6.9-2,14.3-3.2,22-3.3
					c7.6-0.2,15.1,0.7,22.1,2.5c6.8,1.7,12.9,4.2,18.2,7.5c5.3,3.3,9.5,7.2,12.5,11.5c3.1,4.5,4.7,9.4,4.8,14.5s-1.3,10-4.3,14.7
					c-2.8,4.5-6.8,8.5-12,12c-5.2,3.5-11.2,6.2-17.9,8.2c-5,1.5-10.3,2.5-15.8,3l8.8-3.1c23-4.7,39.7-18.6,39.3-34.8
					c-0.4-19.5-25.4-34.8-55.7-34.3c-30.4,0.6-54.8,16.9-54.4,36.4l-0.9,6.4c-0.6-2.1-0.9-4.2-0.9-6.3
					C1247.1,67.4,1248.5,62.5,1251.4,57.8L1251.4,57.8z"/>
			</g>
			<g class="st5">
				<path class="st3" d="M1.8,724.7c3.1,9.2,12.5,15.1,24.4,16.7c1.2,0.2,1.7,8.4,1.7,8.4s3.7-7.9,4.7-7.9c6.3,0,13-1,19.8-3.3
					c22.8-7.7,37-26.3,31.8-41.7C79,681.6,56.4,675.3,33.6,683C10.9,690.7-3.4,709.3,1.8,724.7L1.8,724.7z"/>
				<path class="st3" d="M3.3,700.4c2.2-3.5,5.3-6.6,9.4-9.3c4-2.7,8.7-4.8,13.9-6.4c5.4-1.6,11.1-2.5,17.1-2.6
					c5.9-0.1,11.7,0.5,17.2,1.9c5.3,1.3,10,3.3,14.1,5.8c4.1,2.6,7.4,5.6,9.7,9c2.4,3.5,3.7,7.3,3.7,11.2c0.1,3.9-1,7.8-3.3,11.4
					c-2.2,3.5-5.3,6.6-9.3,9.3c-4,2.7-8.7,4.8-13.9,6.4c-3.9,1.2-8,1.9-12.2,2.3l6.8-2.4c17.9-3.6,30.8-14.5,30.5-27
					c-0.3-15.1-19.7-27.1-43.3-26.6S1.1,696.6,1.4,711.7l-0.7,4.9C0.3,715,0,713.4,0,711.8C-0.1,707.8,1,704,3.3,700.4L3.3,700.4z"
					/>
			</g>
			<g class="st6">
				<path class="st3" d="M2375.5,669.7c3.1,9.2,12.5,15.1,24.4,16.7c1.2,0.2,1.7,8.4,1.7,8.4s3.7-7.9,4.7-7.9c6.3,0,13-1,19.8-3.3
					c22.8-7.7,37-26.3,31.9-41.7s-27.8-21.6-50.6-13.9C2384.6,635.7,2370.3,654.3,2375.5,669.7L2375.5,669.7z"/>
				<path class="st3" d="M2377.1,645.4c2.2-3.5,5.3-6.6,9.4-9.3c4-2.7,8.7-4.8,13.9-6.4c5.4-1.6,11.1-2.5,17.1-2.6
					c5.9-0.1,11.7,0.5,17.2,1.9c5.3,1.3,10,3.3,14.1,5.8c4.1,2.6,7.4,5.6,9.7,9c2.4,3.5,3.7,7.3,3.7,11.2c0.1,3.9-1,7.8-3.3,11.4
					c-2.2,3.5-5.3,6.6-9.4,9.3c-4,2.7-8.7,4.8-13.9,6.4c-3.9,1.2-8,1.9-12.2,2.3l6.8-2.4c17.9-3.6,30.8-14.5,30.6-27
					c-0.3-15.1-19.7-27.1-43.3-26.6s-42.5,13.1-42.2,28.3l-0.7,4.9c-0.5-1.6-0.7-3.3-0.7-4.9C2373.6,652.8,2374.8,649,2377.1,645.4
					L2377.1,645.4z"/>
			</g>
			<g class="st7">
				<path class="st3" d="M527,32.7c25.9-17.6,67.7-27.3,102.6-5.5c26.7,16.7,49.8,52.1,40.3,86.1c-3.8,13.6-11.9,24-22.2,31.9
					c-2.3,1.8,6.5,19.8,4,21.3c-3.1,1.9-17.6-12.9-20.8-11.4c-18.6,8.5-39.7,11.4-54.4,11.4c-31-0.2-82.3-14.1-91.6-53.1
					C476.7,79,506.2,46.9,527,32.7L527,32.7z"/>
				<g>
					<path class="st3" d="M633.4,165c-0.4-0.7-1.3-1-2-0.7c-14.9,6.2-33.2,9.8-49.8,9.8c-0.2,0-0.5,0-0.8,0
						c-17.8-0.1-37.7-4.6-53.2-11.9c-2.5-1.2-5.2-2.6-7.8-4.1c-0.8-0.4-1.8-0.2-2.2,0.6l0,0c-0.5,0.8-0.2,1.8,0.5,2.2
						c2.6,1.5,5.3,2.9,8.1,4.3c16,7.5,36.4,12.1,54.6,12.2c0.3,0,0.5,0,0.8,0c17,0,35.8-3.7,51.1-10.1
						C633.5,167,633.9,165.9,633.4,165L633.4,165L633.4,165z"/>
					<path class="st3" d="M668.1,70.4c-7.8-14.1-19.8-26.9-33.3-35.3c-8.5-5.3-17.8-9-27.7-11c-9-1.8-18.4-2.2-28.1-1.2
						c-17.2,1.8-34.4,8.1-48.7,17.8c-6,4.1-21.1,15.4-32.4,33.2c-4.9,7.7-8.3,15.6-10.2,23.3c-2.1,8.8-2.2,17.5-0.2,25.8
						c2.3,9.5,7.1,18.1,14.3,25.5c2.3,2.4,4.8,4.6,7.6,6.7c0.8,0.6,1.9,0.4,2.4-0.5l0,0c0.4-0.7,0.2-1.6-0.4-2.1
						c-9.2-7.1-17.5-16.9-20.7-30.4c-8.2-34.4,22.2-65.8,41.5-78.9c26.1-17.8,67.5-26.3,100.8-5.5c12.5,7.8,24.2,20,32,34.2
						c0.4,0.8,1.4,1.1,2.2,0.7l0,0C668.3,72.2,668.6,71.2,668.1,70.4L668.1,70.4z"/>
					<path class="st3" d="M673.4,81.9c-0.3-0.9-1.3-1.3-2.2-0.9l-0.1,0.1c-0.8,0.4-1.1,1.2-0.8,2c4.7,12.5,6.1,25.9,2.4,39.1
						c-2.8,10.1-8.3,19-16.3,26.5c-0.7,0.6-0.7,1.7,0,2.3l0,0.1c0.6,0.6,1.6,0.6,2.2,0c8.5-7.9,14.3-17.3,17.3-28.1
						C679.5,109.9,678.6,95.8,673.4,81.9L673.4,81.9z"/>
				</g>
			</g>
			<g class="st6">
				<path class="st3" d="M713.6,348.5l-15.1-3.6l0,20.9L681,340.8l-86.8-20.5c-11.7-2.8-19.2-14.1-17.1-26l9.2-51.9
					c2.1-11.8,13-20,25-18.5L733,238.4c12.9,1.5,21.9,13.6,19.6,26.4l-11.6,65.5C738.8,343.2,726.3,351.4,713.6,348.5L713.6,348.5z"
					/>
				<g>
					<path class="st3" d="M623.8,322.5l70.6,9.8c0.7,0.1,1.3-0.3,1.4-1v0c0.2-0.7-0.3-1.5-1.1-1.6l-70.6-9.8
						c-0.7-0.1-1.3,0.4-1.5,1.1v0C622.6,321.7,623.1,322.4,623.8,322.5L623.8,322.5z"/>
					<path class="st3" d="M728.8,235.8L610,205.3c-6.4-1.6-13.1-0.6-18.7,2.9c-5.6,3.6-9.4,9.1-10.7,15.6l-12.8,65.3
						c-1.3,6.5,0.1,13.1,4,18.5c3.6,5,8.8,8.4,14.8,9.6c0.5,0.1,0.9,0.2,1.4,0.2l26.9,3.7c0.7,0.1,1.4-0.4,1.5-1.1v0
						c0.1-0.7-0.4-1.3-1.1-1.4l-26.9-3.7c-5.9-0.8-11-3.9-14.4-8.7c-3.4-4.8-4.7-10.7-3.6-16.5l12.8-65.3c1.1-5.8,4.5-10.8,9.5-13.9
						c5-3.2,10.9-4.1,16.7-2.6l118.8,30.4c11,2.8,17.8,13.7,15.6,24.8l-10.2,51.7c-2.2,11.1-12.7,18.6-23.9,17l-6.2-0.9
						c-0.7-0.1-1.4,0.4-1.5,1.1v0c-0.1,0.7,0.4,1.4,1.1,1.4l6.2,0.9c12.6,1.7,24.3-6.6,26.8-19.1l10.2-51.7
						C748.9,251.1,741.1,238.9,728.8,235.8L728.8,235.8z"/>
				</g>
			</g>
			<g class="st8">
				<g>
					<g class="st6">
						<path class="st3" d="M236.3,216.3c-12.8,35.9,29.7,81.7,65.6,101.6c7.7,4.3,39.4,21.8,74.2,19c5.3-0.4,16.6,26.5,22,25.1
							c2.7-0.8-0.5-29.5,2.2-30.5c5.2-2,10.4-4.7,15.5-8c36.6-24.2,55.5-77.5,35.8-113.5c-22.1-40.6-81.2-37.5-113.5-35.8
							C315.6,175.2,249.7,178.6,236.3,216.3L236.3,216.3z"/>
						<path class="st3" d="M434,183.8c-5.8-9.6-13-17.3-21.7-22.8c-9.4-6-20.1-9.3-31.8-9.7c-9.9-0.3-20.9,1.4-32.6,5.2
							c-21.1,6.8-40.5,18.7-54.6,27.4c-9.3,5.7-28.6,17.6-44.5,32.8c-19.8,19-28.4,37.6-25.6,55.1c1.5,9.4,6.2,18.1,13.9,26
							c6.9,7,16,13.2,27.2,18.5c19.8,9.3,44.9,14.9,67.2,15l-13.7-4.9c-17.9-1.8-36.4-6.7-51.7-13.9c-15.9-7.4-35.5-20.7-38.8-41.4
							c-2.6-16.2,5.7-33.5,24.4-51.5c15.5-14.9,33.9-26.2,43.8-32.3c14-8.6,33.1-20.3,53.7-27c24.5-7.9,44.4-6.6,60.9,4
							c9.1,5.9,16.6,14.2,22.2,24.5l7.2,5.6C437.9,190.8,436.1,187.2,434,183.8L434,183.8z"/>
					</g>
					<g class="st6">
						<path class="st3" d="M474,232.9c2.2,10.5,2.2,21.4,0.3,31.8c-1.9,10.7-5.6,21-10.7,30.6c-2.9,5.4-6.2,10.5-9.9,15.3
							c-0.7,0.9-0.7,2.1,0.1,2.9c0.8,0.7,2.2,0.7,2.9-0.1c6.9-9,12.6-19,16.6-29.6c4-10.7,6.3-21.9,6.5-33.3
							c0.1-6.4-0.6-12.7-1.9-19c-0.2-1.1-1.6-1.6-2.6-1.3C474.1,230.7,473.8,231.8,474,232.9L474,232.9L474,232.9z"/>
					</g>
				</g>
				<g class="st6">
					<path class="st3" d="M338.1,184.1c11.7-6.4,23.8-11.9,36.2-16.5c3.5-1.3,7.1-2.5,10.6-3.7c1.1-0.3,1.4-1.8,1-2.8
						c-0.5-1.1-1.7-1.3-2.8-1c-12.6,4.1-25,9.1-36.9,14.9c-3.4,1.7-6.7,3.4-10,5.2c-1,0.5-1.5,1.7-1,2.8
						C335.8,184.1,337.1,184.7,338.1,184.1L338.1,184.1z"/>
				</g>
			</g>
			<g class="st9">
				<g>
					<g class="st6">
						<path class="st3" d="M490.5,441.6c18.6,15.7,9.8,54.6-3.7,77.1c-2.9,4.8-14.8,24.6-34.9,34.3c-3,1.5-0.7,20-4.1,20.9
							c-1.8,0.5-9.2-16.5-11-16.2c-3.5,0.5-7.2,0.8-11.1,0.5c-28-1.7-55.5-25-56.2-51.2c-0.8-29.5,32.8-46.7,51.2-56.2
							C433.5,444.4,471,425.1,490.5,441.6L490.5,441.6z"/>
						<path class="st3" d="M370.8,487c0.1-7.1,1.7-13.7,4.7-19.6c3.2-6.3,8.1-11.6,14.5-15.5c5.4-3.4,12-5.9,19.6-7.6
							c13.9-3,28.4-2.6,39-2.4c7,0.2,21.5,0.5,35.1,3.9c17,4.2,27.7,11.6,31.8,22.2c2.2,5.6,2.4,12,0.7,18.8
							c-1.5,6.1-4.6,12.4-9.1,18.9c-8,11.5-20,22.6-32.3,29.8l6-7.1c9.3-6.7,18-15.4,24.1-24.2c6.4-9.2,13-22.8,8.2-35.3
							c-3.8-9.7-13.9-16.7-30-20.6c-13.3-3.3-27.1-3.6-34.5-3.8c-10.5-0.3-24.8-0.6-38.3,2.3c-16,3.5-26.6,10.6-32.3,21.7
							c-3.1,6.1-4.6,13.2-4.4,20.6l-2.2,5.4C370.9,492.1,370.8,489.6,370.8,487L370.8,487z"/>
					</g>
					<g class="st6">
						<path class="st3" d="M364.5,527c2.1,6.5,5.6,12.5,10,17.7c4.5,5.3,9.8,9.8,15.7,13.5c3.3,2,6.8,3.8,10.4,5.3
							c0.7,0.3,1.1,1,0.9,1.7c-0.2,0.6-1,1.1-1.7,0.8c-6.7-2.8-13-6.4-18.6-11c-5.6-4.6-10.5-10.1-14.2-16.3
							c-2.1-3.5-3.8-7.2-5-11.1c-0.2-0.7,0.4-1.4,1-1.5C363.7,525.8,364.3,526.3,364.5,527L364.5,527L364.5,527z"/>
					</g>
				</g>
				<g class="st6">
					<path class="st3" d="M423.9,456.5c-8.5,0.2-16.9,1-25.3,2.5c-2.4,0.4-4.7,0.9-7,1.4c-0.7,0.1-1.4-0.6-1.4-1.2
						c-0.1-0.8,0.5-1.3,1.2-1.4c8.3-1.8,16.7-3,25.2-3.6c2.4-0.2,4.8-0.3,7.2-0.3c0.7,0,1.4,0.5,1.4,1.2
						C425.2,455.8,424.7,456.5,423.9,456.5L423.9,456.5L423.9,456.5z"/>
				</g>
			</g>
			<g class="st9">
				<g class="st6">
					<path class="st3" d="M35.4,171.1c9.7,28.8,37.7,40,42.3,41.7c9.7,2.8,19.3,4.4,28.8,5c2.3,0.1,8.3,17.2,8.3,17.2
						s7.6-17.1,12-17.5c36.6-3.6,67-23.2,79.4-51.1c11.8-26.4,10.1-66.1-14.8-90.5c-21.4-20.9-49.8-20.6-58.7-20.5
						c-42.5,0.5-79,30.3-93,64.8C35.8,129.9,28.1,149,35.4,171.1L35.4,171.1z"/>
					<path class="st3" d="M186,64.5c-9.3-9.1-21.1-15.4-34.9-18.6c-11.1-2.6-20.6-2.5-25.1-2.4c-20.5,0.2-40.7,7.1-58.2,20
						c-16.3,11.9-29.2,28.2-36.4,45.9c-2,4.9-5,12.2-6.5,21.2c-1.9,10.7-1.1,21.1,2.1,30.9c9.4,28,35.5,39.9,43.3,42.8l0.1,0.1
						c6.8,2,21.5,9.4,58,3.6c10.9-1.8,21.2-5.1,30.5-9.6c19.2-9.2,34.2-23.7,42.1-41.4c3-6.8,5.2-14.3,6.3-22.3
						c1.2-8.2,1.2-16.5,0.2-24.6C205.4,91.9,197.9,76.1,186,64.5L186,64.5z M197.9,155.5c-11.2,25.1-37.4,43.4-69.5,48.9
						c-31.4,4.8-50.4-1.6-56.8-3.4c-7.5-2.9-32.3-14.2-41.2-40.6c-7.2-21.4,0.3-39.8,4.3-49.6c15-37.1,52.6-63.2,91.4-63.7
						c9.1-0.1,36.6-0.4,57.4,20C208.1,91.1,209.4,129.8,197.9,155.5L197.9,155.5z"/>
				</g>
				<g class="st6">
					<path class="st3" d="M190.3,61.9c4.2,3.8,7.8,8.2,10.8,12.9c3.2,5,5.9,10.4,7.7,16c0.9,3,1.6,6.1,2,9.2c0.1,1,1.2,1.7,2.2,1.5
						c1.1-0.2,1.6-1.2,1.5-2.2c-0.6-5.9-2.5-11.6-5-17c-2.6-5.6-5.9-11-9.7-15.8c-2-2.5-4.2-4.9-6.6-7.1c-0.8-0.7-1.8-0.9-2.7-0.2
						C189.8,59.8,189.6,61.2,190.3,61.9L190.3,61.9L190.3,61.9z"/>
				</g>
				<g class="st6">
					<path class="st3" d="M22.2,164.1c-4.9-13.1-5.9-27.5-3.3-41.1c0.7-3.9,1.8-7.7,3.2-11.4c0.8-2.3-2.8-3.6-3.6-1.2
						c-5,13.8-6.1,29-3.2,43.4c0.8,4.1,2,8.1,3.5,12.1c0.4,1,1.7,1.3,2.5,0.9C22.3,166.1,22.5,165.1,22.2,164.1L22.2,164.1
						L22.2,164.1z"/>
				</g>
			</g>
			<g class="st8">
				<g class="st6">
					<path class="st3" d="M859.3,347.5c0,0-5.9,11.4-9.9,22.1L842,335l-53.9-38.8c-8.9-6.4-11.4-18.6-5.7-28l38.1-62.8
						c6.4-10.5,20.4-13.4,30.4-6.2l81.8,59c10,7.2,11.7,21.4,3.8,30.8L887.7,344C880.6,352.4,868.2,353.9,859.3,347.5L859.3,347.5z"
						/>
					<path class="st3" d="M904.8,337.6l21.8-37.7l17-29.4v0c3.4-6.2,4.2-13.4,2.1-19.9c-2.1-6.5-7-11.6-13.4-14.1l-103.1-39.3
						c-6.4-2.4-13.4-1.8-19.3,1.6c-5.8,3.4-10.1,9.4-11.6,16.2l-17,75.4c-1.2,5.4-0.4,11.1,2.3,16c2.7,4.9,7,8.7,12.2,10.7
						l45.5,17.3l-7.9-5.7l-36.7-14c-9.4-3.6-15-13.9-12.8-23.6l17.2-75.4c1.4-6.2,5-11.2,10.3-14.3c5.3-3.1,11.3-3.6,17-1.4
						l102.8,39.2c5.7,2.2,9.9,6.6,11.8,12.4c1.9,5.8,1.2,12-1.8,17.5l-23.5,40.9l-15.1,26.3v0c-3.6,6.5-10.7,10.4-18,10.4l-3.2,2.3
						c3.7,0.5,7.6,0.2,11.2-1.1C897.7,346.1,902.2,342.4,904.8,337.6L904.8,337.6z"/>
				</g>
				<g class="st6">
					<path class="st3" d="M874.5,211c14.4,4,28.6,8.6,42.6,13.6c3.9,1.4,7.8,2.9,11.8,4.4c1.7,0.6,2.7-2,1-2.7
						c-13.9-5.3-28-10.1-42.3-14.5c-4-1.2-8-2.4-12-3.5c-0.7-0.2-1.5,0.1-1.8,0.8C873.4,209.9,873.7,210.8,874.5,211L874.5,211
						L874.5,211z"/>
				</g>
				<g class="st6">
					<path class="st3" d="M943.2,239.4c4.3,1.9,7.3,6.2,7.8,10.9c0.1,0.8,0.9,1.3,1.6,1.2c0.8-0.1,1.2-0.9,1.2-1.6
						c-0.5-5.7-4.3-10.9-9.6-13.1c-0.7-0.3-1.6,0.1-1.8,0.8C942.1,238.3,942.5,239.1,943.2,239.4L943.2,239.4L943.2,239.4z"/>
				</g>
				<g class="st6">
					<path class="st3" d="M934.3,294.7c-4.7,8.9-9.5,17.8-14.2,26.7c-0.4,0.7,0.2,1.6,0.8,1.8c0.8,0.3,1.5-0.2,1.8-0.8
						c4.7-8.9,9.5-17.8,14.2-26.7c0.4-0.7-0.2-1.6-0.8-1.8C935.4,293.6,934.7,294,934.3,294.7L934.3,294.7z"/>
				</g>
				<g class="st6">
					<path class="st3" d="M791.6,213.7c-2.4,6.1-3.8,12.7-4.3,19.2c-0.1,1.8,2.7,2.1,2.8,0.3c0.5-6.4,1.8-12.6,4.1-18.5
						C794.9,213,792.3,212,791.6,213.7L791.6,213.7L791.6,213.7z"/>
				</g>
			</g>
			<g class="st6">
				<path class="st3" d="M730.4,234.1c8,0.2,15.7,4.8,20.1,11.4c1.3,1.9,2.2,3.9,2.9,6.1c0.5,1.7,3.2,0.8,2.6-0.9
					c-2.7-8.6-9.8-15.4-18.3-18.1c-2.4-0.8-5-1.2-7.5-1.3c-0.8,0-1.3,0.8-1.3,1.5C729,233.6,729.7,234.1,730.4,234.1L730.4,234.1
					L730.4,234.1z"/>
			</g>
			<g class="st6">
				<path class="st3" d="M645.5,208.5c9.3,2.2,18.6,4.5,27.8,6.9c9.2,2.3,18.4,4.7,27.6,7.1c5.2,1.4,10.4,2.8,15.6,4.2
					c0.7,0.2,1.5-0.4,1.6-1.1c0.1-0.8-0.4-1.4-1.1-1.6c-9.2-2.5-18.5-4.9-27.7-7.3c-9.2-2.4-18.4-4.7-27.7-7
					c-5.2-1.3-10.5-2.6-15.7-3.8c-0.7-0.2-1.5,0.4-1.6,1.1C644.2,207.7,644.7,208.4,645.5,208.5L645.5,208.5L645.5,208.5z"/>
			</g>
			<g class="st6">
				<path class="st3" d="M568.2,248.8c-1.5,8.9-2.9,17.8-4.4,26.7c-0.4,2.5-0.8,5.1-1.2,7.6c-0.3,1.8,2.5,2.3,2.8,0.5
					c1.5-8.9,2.9-17.8,4.4-26.7c0.4-2.5,0.8-5.1,1.2-7.6C571.3,247.5,568.5,247.1,568.2,248.8L568.2,248.8L568.2,248.8z"/>
			</g>
			<g class="st2">
				<path class="st3" d="M142.4,680.3l-14.8-7.5l-5.4,21.8L110.4,664l-85.2-43.3c-11.5-5.8-16.4-19.6-11.2-31.4l22.7-51.7
					c5.2-11.8,18.6-17.5,30.7-13l123.2,46c13.1,4.9,19.3,19.7,13.7,32.5l-28.7,65.3C170,681.2,154.8,686.6,142.4,680.3L142.4,680.3z
					"/>
				<g>
					<path class="st3" d="M55.5,630.5l71,28.1c0.7,0.3,1.4,0,1.8-0.7v0c0.4-0.7,0-1.6-0.7-1.9l-71.1-28.1c-0.7-0.3-1.5,0.1-1.8,0.8
						v0C54.4,629.4,54.7,630.2,55.5,630.5L55.5,630.5z"/>
					<path class="st3" d="M186.8,566.8L70.8,504.9c-6.3-3.4-13.5-4-20.2-1.7c-6.8,2.3-12.1,7.1-15.1,13.6L5.5,581.6
						c-3,6.5-3.2,13.7-0.5,20.3c2.5,6.2,7.1,11,13,13.7c0.5,0.2,0.9,0.4,1.4,0.6l27,10.7c0.7,0.3,1.5-0.1,1.8-0.8v0
						c0.3-0.7-0.1-1.5-0.8-1.8l-27-10.7c-5.9-2.3-10.5-6.9-12.8-12.8S5.4,588.5,8,582.7L37.9,518c2.7-5.8,7.5-10.1,13.5-12.1
						s12.4-1.5,18,1.5l116.1,61.9c10.7,5.7,15.1,18.8,10,29.8l-23.7,51.2c-5.1,11-17.9,16.1-29.2,11.7l-6.2-2.5
						c-0.7-0.3-1.5,0.1-1.8,0.8v0c-0.3,0.7,0.1,1.5,0.8,1.8l6.2,2.5c12.6,5,27-0.8,32.7-13.1l23.7-51.2
						C203.8,587.9,198.8,573.2,186.8,566.8L186.8,566.8z"/>
				</g>
			</g>
			<g class="st2">
				<path class="st3" d="M15.3,541.7c-2.6,5.6-5.2,11.3-7.8,16.9c-0.7,1.6-1.5,3.2-2.2,4.8c-0.5,1.1,1.2,2,1.7,0.8
					c2.6-5.6,5.2-11.3,7.8-16.9c0.7-1.6,1.5-3.2,2.2-4.8C17.5,541.4,15.8,540.6,15.3,541.7L15.3,541.7z"/>
			</g>
			<g class="st8">
				<g class="st6">
					<path class="st3" d="M480.8,390.5l7.3,2.1l-5,9l13.4-6.6l42,11.9c5.7,1.6,11.6-1.5,13.5-7.1l8.4-24.4
						c1.9-5.6-0.8-11.6-6.3-13.9l-55.6-22.7c-5.9-2.4-12.6,0.6-14.7,6.6l-10.6,30.8C471.2,382.3,474.6,388.8,480.8,390.5
						L480.8,390.5z"/>
					<g>
						<path class="st3" d="M525.4,400.7l-32.5-12.6c-0.3-0.1-0.5-0.5-0.4-0.8l0,0c0.1-0.4,0.5-0.6,0.8-0.4l32.5,12.6
							c0.3,0.1,0.5,0.5,0.4,0.8l0,0C526.1,400.7,525.7,400.8,525.4,400.7L525.4,400.7z"/>
						<path class="st3" d="M501,338.7l58.1,15.2c3.2,0.8,5.8,2.9,7.3,5.7c1.6,2.9,1.9,6.1,0.9,9.2l-10,31c-1,3.1-3.2,5.6-6.1,7
							c-2.7,1.3-5.8,1.5-8.6,0.6c-0.2-0.1-0.4-0.1-0.7-0.2l-12.4-4.8c-0.3-0.1-0.5-0.5-0.3-0.8l0,0c0.1-0.3,0.5-0.5,0.8-0.4
							l12.4,4.8c2.7,1,5.6,0.9,8.3-0.3s4.5-3.5,5.4-6.2l10-31c0.9-2.8,0.6-5.7-0.8-8.2c-1.4-2.5-3.7-4.4-6.5-5.1l-58.1-15.2
							c-5.4-1.4-10.9,1.6-12.6,6.9l-7.9,24.5c-1.7,5.3,1,11,6.2,12.9l2.9,1.1c0.3,0.1,0.5,0.5,0.4,0.8l0,0c-0.1,0.3-0.5,0.5-0.8,0.4
							l-2.9-1.1c-5.8-2.2-8.8-8.6-6.9-14.5l7.9-24.5C488.8,340.5,495,337.1,501,338.7L501,338.7z"/>
					</g>
				</g>
				<g class="st6">
					<path class="st3" d="M566.6,382.4c-1.5,4.1-3,8.3-4.5,12.5c-0.4,1.2-0.8,2.4-1.3,3.5c-0.3,0.8-1.6,0.4-1.3-0.4
						c1.5-4.1,3-8.3,4.5-12.5c0.4-1.2,0.8-2.4,1.3-3.5C565.7,381.1,566.9,381.6,566.6,382.4L566.6,382.4z"/>
				</g>
			</g>
			<g class="st8">
				<g class="st6">
					<path class="st3" d="M900.7,124.3c8.5-36.9,128.5-72.4,169.6-16.7c24.5,33.1,17,92.9-12.4,111.5
						c-31.4,19.8-89.2-6.7-125.4-39.2c-3.3-3-27.8,11.3-30.8,8.3c-2.6-2.7,16.4-22.7,14.2-25.4C904.5,148.9,898.3,135.1,900.7,124.3
						L900.7,124.3z"/>
					<g>
						<path class="st3" d="M953,196.3c0,0-3-1.6-3.8-2c-7.2-3.6-15.1-8.2-22.2-14l-3.5,1.2c6.6,5.7,14.8,11,24.3,15.7
							c2.6,1.3,5.2,2.5,8,3.7c4.1,1.8,8.3,3.4,12.7,4.9L953,196.3L953,196.3z"/>
						<path class="st3" d="M1091.4,184.8c0.3-5.9-0.3-12.6-1.9-20c-3.2-14.5-10.2-30.8-19.7-45.8c-11.2-17.8-24.9-32.6-39.6-42.6
							c-8.2-5.6-16.5-9.6-24.9-12.1c-9.1-2.6-18.2-3.4-27.1-2.2c-11.2,1.5-22.8,6.1-33.5,13.3c-10.1,6.8-19.3,15.8-26.4,25.8
							c-9.7,13.7-14.9,28.2-15,41.2c0,3.1,0.3,6.2,0.9,9.1c1.3,6.4,4.2,12.6,8.6,18.5l1.8-2.8c-3.5-4.9-6.1-10.4-7.3-16.3
							c-2.9-14.1,2-31.6,13.6-47.8c14.6-20.6,36.8-35.1,57.8-37.8c31-4.1,64.1,16.7,88.6,55.4c9.2,14.7,16.1,30.6,19.2,44.8
							c3.2,14.3,2.4,26-2.1,33c-2.8,4.2-7.5,7.7-14.1,10.3c-0.5,0.2-0.9,0.4-1.4,0.5l-4.3,4.7c2.5-0.7,4.8-1.4,6.9-2.3
							c7.2-2.9,12.5-6.8,15.6-11.6C1089.5,196.2,1091,191,1091.4,184.8L1091.4,184.8z"/>
					</g>
				</g>
				<g class="st6">
					<path class="st3" d="M916.9,91.1c5.3-6.2,11.3-11.8,17.9-16.6c6.5-4.8,13.6-8.9,21-12.2c4.3-1.9,8.6-3.5,13.1-4.8
						c0.9-0.3,1.2-1.4,0.9-2.2c-0.4-0.9-1.3-1.2-2.2-0.9c-8,2.4-15.7,5.7-23,9.8c-7.3,4.1-14.2,9.1-20.4,14.7
						c-3.5,3.2-6.9,6.6-10,10.2C912.9,90.7,915.5,92.7,916.9,91.1L916.9,91.1L916.9,91.1z"/>
				</g>
				<g class="st6">
					<path class="st3" d="M978.3,56.3c4-0.2,7.9,0.1,11.8,0.9c0.9,0.2,1.8-0.6,1.9-1.5c0.1-1-0.6-1.7-1.5-1.9
						c-4.2-0.8-8.5-1.1-12.7-0.9c-0.9,0-1.6,1-1.4,1.9C976.5,55.8,977.3,56.4,978.3,56.3L978.3,56.3L978.3,56.3z"/>
				</g>
				<g class="st6">
					<path class="st3" d="M1062,128.6c4.7,7.5,8.4,15.6,11.1,24c0.7,2.4,1.4,4.8,2,7.2c0.2,0.9,0.9,1.6,1.9,1.4
						c0.8-0.1,1.7-1,1.4-1.9c-2.1-9-5.3-17.7-9.7-25.9c-1.3-2.4-2.6-4.7-4-7c-0.5-0.8-1.7-0.8-2.3-0.3
						C1061.6,126.8,1061.5,127.8,1062,128.6L1062,128.6L1062,128.6z"/>
				</g>
			</g>
			<g class="st8">
				<g class="st6">
					<path class="st3" d="M172,468.2c3.6-30.3,96.7-69.2,134.6-28.1c22.5,24.4,21.7,73.1-0.3,90.5c-23.5,18.6-72.1,2.4-104-20.5
						c-2.9-2.1-21.3,11.5-23.9,9.3c-2.3-1.9,11.2-19.6,9.2-21.6C177.2,487.5,171,477,172,468.2L172,468.2z"/>
					<g>
						<path class="st3" d="M220.2,521.4c0,0-2.5-1-3.2-1.3c-6.1-2.2-12.9-5.3-19-9.3l-2.7,1.3c5.8,4,12.8,7.5,20.9,10.5
							c2.2,0.8,4.4,1.5,6.7,2.2c3.4,1.1,7,2,10.6,2.8L220.2,521.4L220.2,521.4z"/>
						<path class="st3" d="M330.2,500.1c-0.2-4.8-1.3-10.1-3.3-15.9c-3.9-11.4-10.9-23.8-19.7-35c-10.5-13.3-22.8-23.9-35.5-30.7
							c-7-3.8-14.1-6.3-21-7.5c-7.5-1.3-14.9-1.1-22,0.6c-8.8,2.1-17.7,6.9-25.7,13.6c-7.5,6.4-14.1,14.3-19,23
							c-6.6,11.8-9.5,23.9-8.4,34.4c0.3,2.5,0.8,4.9,1.5,7.2c1.6,5,4.5,9.7,8.5,14.1l1.2-2.4c-3.2-3.6-5.8-7.8-7.3-12.5
							c-3.6-11.1-1.1-25.5,6.7-39.5c9.9-17.8,26.4-31.3,43.1-35.4c24.5-6,52.9,7.8,75.8,36.8c8.7,11,15.5,23.1,19.3,34.2
							c3.8,11.2,4.2,20.7,1.2,26.7c-1.9,3.6-5.4,6.8-10.4,9.5c-0.4,0.2-0.7,0.4-1.1,0.6l-3.1,4.1c1.9-0.7,3.7-1.5,5.4-2.4
							c5.5-2.9,9.4-6.5,11.5-10.6C329.7,509.5,330.5,505.2,330.2,500.1L330.2,500.1z"/>
					</g>
				</g>
				<g class="st6">
					<path class="st3" d="M182.1,440.2c3.7-5.4,8.1-10.4,12.9-14.9c4.8-4.5,10.1-8.4,15.8-11.6c3.2-1.9,6.6-3.6,10.1-5
						c0.7-0.3,0.9-1.2,0.6-1.8c-0.4-0.7-1.2-0.8-1.8-0.5c-6.2,2.6-12.1,5.9-17.6,9.9c-5.5,4-10.6,8.5-15.1,13.6
						c-2.6,2.9-4.9,5.9-7.1,9.1C178.8,440.2,181.1,441.6,182.1,440.2L182.1,440.2L182.1,440.2z"/>
				</g>
				<g class="st6">
					<path class="st3" d="M228.3,406.9c3.2-0.5,6.4-0.6,9.6-0.3c0.7,0.1,1.4-0.6,1.4-1.3c0-0.8-0.6-1.3-1.3-1.4
						c-3.4-0.3-6.9-0.2-10.3,0.4c-0.7,0.1-1.2,1-1,1.6C226.8,406.7,227.6,407.1,228.3,406.9L228.3,406.9L228.3,406.9z"/>
				</g>
				<g class="st6">
					<path class="st3" d="M301.8,457.6c4.4,5.6,8.1,11.8,11,18.3c0.8,1.8,1.5,3.7,2.2,5.6c0.2,0.7,0.9,1.2,1.6,1
						c0.7-0.2,1.2-0.9,1-1.6c-2.5-7-5.8-13.7-10-19.9c-1.2-1.8-2.5-3.5-3.9-5.2c-0.5-0.6-1.4-0.5-1.9-0.1
						C301.2,456.2,301.3,457.1,301.8,457.6L301.8,457.6L301.8,457.6z"/>
				</g>
			</g>
			<g class="st2">
				<path class="st3" d="M758,25.7c15.2-2.8,30.8-3.2,46.1-1.5c4.3,0.5,8.6,1.1,12.8,2c0.8,0.2,1.6-0.1,1.9-0.9
					c0.2-0.7-0.1-1.7-0.9-1.9c-15.5-3.1-31.5-4-47.3-2.5c-4.4,0.4-8.8,1-13.2,1.8C755.5,23.2,756.1,26.1,758,25.7L758,25.7L758,25.7
					z"/>
			</g>
			<g class="st2">
				<path class="st3" d="M833.8,34c4.8,2.2,9.2,5.2,13,8.8c0.6,0.5,1.5,0.7,2.1,0.1c0.6-0.5,0.7-1.5,0.1-2.1c-4.2-4-9-7.2-14.3-9.7
					c-0.7-0.3-1.6,0.2-1.9,0.9C832.6,32.9,833.1,33.6,833.8,34L833.8,34L833.8,34z"/>
			</g>
			<g class="st2">
				<path class="st3" d="M867.2,103.5c-0.9,6.3-3.5,12.3-7.4,17.4c-3.8,5.1-8.9,9.4-14.7,12.2c-3.3,1.6-6.7,2.7-10.3,3.3
					c-1.9,0.3-1.3,3.2,0.6,2.9c6.8-1.2,13.2-4.2,18.6-8.4c5.4-4.3,9.8-9.8,12.7-16.1c1.7-3.6,2.8-7.3,3.3-11.2
					c0.1-0.8-0.7-1.5-1.4-1.6C867.8,102,867.2,102.7,867.2,103.5L867.2,103.5L867.2,103.5z"/>
			</g>
			<g class="st7">
				<path class="st3" d="M472,83c1.4-13.6,9.4-25.5,17.5-36.2c3.5-4.6,7.6-8.9,11.8-12.9c3.9-3.7,7.9-7.2,12-10.6
					c1.5-1.3,3.1-2.5,4.6-3.7c0.3-0.2,0.5-0.4,0.8-0.6c0.1-0.1-0.4,0.3,0,0c0.1-0.1,0.2-0.1,0.3-0.2c0.2-0.1,0.3-0.2,0.5-0.4
					c0.8-0.6,1.1-1.5,0.6-2.4c-0.4-0.7-1.6-1.2-2.4-0.6c-6.1,4.6-12,9.6-17.5,14.8c-9.5,8.8-17.8,19-24.1,30.3
					c-3.9,7-6.7,14.5-7.5,22.4c-0.1,0.9,0.9,1.7,1.7,1.7C471.3,84.8,471.9,84,472,83L472,83L472,83z"/>
			</g>
			<g class="st7">
				<path class="st3" d="M467.9,98.8c-0.4,9.4,1.6,19,5.4,27.6c0.9,2.1,2,4.1,3.2,6.1c1.2,1.9,4.2,0.1,3-1.8c-2.2-3.4-3.8-7.1-5-11
					c-1.4-4.3-2.4-8.8-2.8-13.2c-0.3-2.6-0.4-5.1-0.2-7.7c0-0.9-0.8-1.7-1.7-1.7C468.6,97.1,467.9,97.9,467.9,98.8L467.9,98.8
					L467.9,98.8z"/>
			</g>
			<g class="st10">
				<path class="st3" d="M294.9,27.9c16.7-11.4,43.8-17.7,66.4-3.5C378.6,35.1,393.5,58,387.4,80c-2.4,8.8-7.7,15.5-14.4,20.6
					c-1.5,1.1,4.2,12.8,2.6,13.8c-2,1.2-11.4-8.3-13.5-7.3c-12,5.5-25.6,7.4-35.2,7.3c-20-0.1-53.2-9.1-59.2-34.4
					C262.4,57.8,281.5,37,294.9,27.9L294.9,27.9z"/>
				<g>
					<path class="st3" d="M363.7,113.4c-0.3-0.4-0.8-0.6-1.3-0.4c-9.6,4-21.4,6.3-32.2,6.3c-0.2,0-0.3,0-0.5,0
						c-11.5-0.1-24.4-2.9-34.4-7.7c-1.6-0.8-3.3-1.7-5.1-2.7c-0.5-0.3-1.1-0.1-1.4,0.4v0c-0.3,0.5-0.1,1.1,0.4,1.4
						c1.7,1,3.4,1.9,5.3,2.8c10.3,4.8,23.5,7.8,35.3,7.9c0.2,0,0.3,0,0.5,0c11,0,23.1-2.4,33-6.5C363.8,114.7,364,113.9,363.7,113.4
						L363.7,113.4L363.7,113.4z"/>
					<path class="st3" d="M386.1,52.2c-5-9.1-12.8-17.4-21.5-22.8c-5.5-3.4-11.5-5.8-17.9-7.1c-5.8-1.2-11.9-1.5-18.1-0.8
						c-11.1,1.2-22.3,5.3-31.5,11.5c-3.9,2.6-13.6,10-21,21.5c-3.2,5-5.4,10.1-6.6,15c-1.4,5.7-1.4,11.3-0.1,16.7
						c1.5,6.1,4.6,11.7,9.2,16.5c1.5,1.5,3.1,3,4.9,4.3c0.5,0.4,1.2,0.2,1.5-0.3v0c0.3-0.5,0.2-1.1-0.2-1.4
						c-6-4.6-11.3-10.9-13.4-19.6c-5.3-22.3,14.4-42.5,26.8-51c16.9-11.5,43.6-17,65.2-3.5c8.1,5.1,15.7,12.9,20.7,22.1
						c0.3,0.5,0.9,0.7,1.5,0.4h0C386.2,53.4,386.5,52.8,386.1,52.2L386.1,52.2z"/>
					<path class="st3" d="M389.6,59.7c-0.2-0.6-0.9-0.8-1.4-0.6l-0.1,0c-0.5,0.2-0.7,0.8-0.5,1.3c3,8.1,3.9,16.8,1.6,25.3
						c-1.8,6.6-5.4,12.3-10.6,17.2c-0.4,0.4-0.5,1.1,0,1.5l0,0c0.4,0.4,1,0.4,1.4,0c5.5-5.1,9.2-11.2,11.2-18.1
						C393.5,77.8,392.9,68.7,389.6,59.7L389.6,59.7z"/>
				</g>
			</g>
			<g class="st10">
				<path class="st3" d="M259.4,60.4c0.9-8.8,6.1-16.5,11.3-23.4c2.2-3,4.9-5.7,7.6-8.3c2.5-2.4,5.1-4.7,7.8-6.9c1-0.8,2-1.6,3-2.4
					c0.2-0.1,0.3-0.3,0.5-0.4c0.1-0.1-0.2,0.2,0,0l0.2-0.1c0.1-0.1,0.2-0.2,0.3-0.2c0.5-0.4,0.7-1,0.4-1.5c-0.3-0.5-1-0.8-1.5-0.4
					c-4,3-7.7,6.2-11.3,9.6c-6.1,5.7-11.5,12.3-15.6,19.6c-2.5,4.5-4.3,9.3-4.9,14.5c-0.1,0.6,0.6,1.1,1.1,1.1
					C258.9,61.5,259.3,61,259.4,60.4L259.4,60.4L259.4,60.4z"/>
			</g>
			<g class="st10">
				<path class="st3" d="M256.7,70.6c-0.3,6.1,1.1,12.3,3.5,17.9c0.6,1.4,1.3,2.7,2.1,3.9c0.8,1.2,2.7,0.1,2-1.1
					c-1.4-2.2-2.5-4.6-3.3-7.1c-0.9-2.8-1.5-5.7-1.8-8.6c-0.2-1.7-0.2-3.3-0.1-5c0-0.6-0.5-1.1-1.1-1.1
					C257.2,69.5,256.7,70,256.7,70.6L256.7,70.6L256.7,70.6z"/>
			</g>
			<g class="st11">
				<path class="st3" d="M1282,174.6c-0.4,0.1-0.8,0.2-1.2,0.3c-11.9-13.5-32.1-20.4-53.1-16.2c-21,4.2-37.1,18.4-42.8,35.6
					c-18.1,5.6-29.7,22.8-26.2,40.1c3.7,18.7,23.3,30.5,43.8,26.4l0.7,19.3c6.7-4.9,13.4-22,13.4-22c11.2-2,71-14.3,78.9-15.9
					c20.5-4.1,34.1-22.5,30.3-41.2S1302.5,170.6,1282,174.6L1282,174.6z"/>
				<path class="st3" d="M1306.9,166.6c-8.8-5.1-19.4-6.7-29.9-4.6c-0.2,0-0.4,0.1-0.6,0.1c-6.2-6.6-14.4-11.6-23.8-14.5
					c-9.9-3-20.8-3.4-31.4-1.3c-10.7,2.1-20.6,6.8-28.6,13.4c-7.7,6.3-13.4,14.2-16.5,22.7c-9.1,2.9-16.9,8.6-22,16.1
					c-5.3,7.7-7.2,16.8-5.5,25.4s6.8,16,14.4,21.1l-2.6-5.1c-4.8-4.4-8.2-10-9.5-16.5c-3.3-16.6,8.1-33.4,26.4-39l0.6-0.2l0.2-0.6
					c6.1-17.5,22.8-31,43.5-35.1c20.6-4.1,41.1,1.9,53.5,15.6l0.5,0.5l0.7-0.2c0.5-0.1,0.8-0.2,1.2-0.3c20.4-4.1,40,7.2,43.6,25.2
					l3,5.7c0-2.1-0.2-4.1-0.6-6.1C1321.6,179.7,1315.7,171.7,1306.9,166.6L1306.9,166.6z"/>
			</g>
			<g class="st1">
				<g class="st6">
					<g>
						<path class="st3" d="M34.5,401.1c12.2,26.2,43.4,35.4,57.7,38.3c3.3,0.7,9.3,13.1,10.4,13.2c1.6-2.1-0.3-16.3,1.7-18.6
							c11-13.1,27.6-29.2,51.2-41.4c23.9-12.3,35.7-10.7,42.4-22.2c14.8-25.2-11.5-85.6-53.9-94.4c-25.2-5.2-46.8,9.6-58.6,17.7
							C55.9,313.9,16.2,361.4,34.5,401.1L34.5,401.1z"/>
						<path class="st3" d="M111.5,279.5c-0.5,0-0.9,0.1-1.4,0.2c-10.2,1.3-20.8,4-31.5,7.9c-10,3.6-19.5,8.2-27.6,13.2
							c-12.2,7.6-35,21.7-40.4,47.5c-1.2,5.7-1.5,11.8-0.9,18c0.6,5.8,2,11.7,4.2,17.6c4,11,10.6,21.7,19,30.9
							c6.7,7.4,14.3,13.4,21.8,17.3c7.9,4.2,15.7,6,22.3,5.2c1.5-0.2,2.9-0.5,4.2-0.9c1.3-0.4,2.6-1,3.7-1.6
							c4.2-2.3,7.7-6,12.2-10.8c4.4-4.6,9.8-10.4,18-17c3.3-2.6,6.7-5.2,10.1-7.5c0.7-0.5,0.8-1.4,0.4-2.1l0,0
							c-0.5-0.7-1.4-0.9-2.1-0.4c-3.6,2.4-7,5-10.3,7.7c-8.3,6.7-13.8,12.6-18.2,17.3c-6.8,7.1-10.8,11.5-18.3,12.3
							c-12.2,1.4-28.2-6.8-41.6-21.6C21.2,397.7,8.4,373,13.5,348.9c5.2-24.5,27.2-38.2,39.1-45.6c2.1-1.3,4.2-2.5,6.4-3.7
							c12.6-6.9,27.1-12.2,41.1-15.2c4-0.9,7.9-1.5,11.8-2c12.4-1.5,28.2-1.2,42,5.4c0.7,0.3,1.5,0.1,1.9-0.6l0,0
							c0.4-0.8,0.2-1.7-0.6-2.1C143.2,279.5,128.5,277.5,111.5,279.5L111.5,279.5z"/>
					</g>
					<path class="st3" d="M133.4,392.6L133.4,392.6c0.4,0.7,1.3,0.9,2,0.5c8.4-4.9,17.3-9,26.7-12.4c0.9-0.3,1.2-1.3,0.8-2.1v0
						c-0.4-0.6-1.1-0.9-1.8-0.7c-9.5,3.5-18.6,7.7-27.1,12.6C133.2,391,133,391.9,133.4,392.6L133.4,392.6z"/>
					<path class="st3" d="M164.1,292.7L164.1,292.7c-0.4,0.6-0.3,1.5,0.3,2c1.8,1.5,3.4,3.1,5,4.9c16.3,18.5,15.1,45.3,12.7,60.7
						c-0.1,0.7,0.2,1.3,0.8,1.6h0c0.9,0.4,1.9-0.1,2.1-1.1c1.1-7.1,2-16,1.2-25.4c-1.2-15.4-6.1-28.1-14.6-37.8
						c-1.7-1.9-3.4-3.6-5.3-5.2C165.7,291.9,164.6,292,164.1,292.7L164.1,292.7z"/>
				</g>
				<g class="st6">
					<path class="st3" d="M24.2,380.2c-3.7-10.2-3.8-21.6-0.5-31.9c1-3,2.3-5.9,3.8-8.6c0.5-0.8-0.2-1.9-0.9-2.2
						c-0.9-0.4-1.8,0.1-2.2,0.9c-5.6,10.1-7.6,22.1-5.8,33.5c0.5,3.3,1.4,6.5,2.5,9.6C21.8,383.6,25,382.3,24.2,380.2
						C24.2,380.2,24.2,380.2,24.2,380.2z"/>
				</g>
				<g class="st6">
					<path class="st3" d="M99.2,339.4c2.6-2.7,5.2-5.4,7.9-8.1c0.5-0.5,0.2-1.4-0.3-1.8c-0.6-0.5-1.3-0.2-1.8,0.3
						c-2.6,2.7-5.2,5.4-7.9,8.1c-0.5,0.5-0.2,1.4,0.3,1.8C98,340.1,98.8,339.9,99.2,339.4L99.2,339.4z"/>
				</g>
				<g class="st6">
					<path class="st3" d="M134.7,272c14.8,0.1,29.2,5.9,40.2,15.8c3.1,2.8,5.9,5.9,8.3,9.3c1.3,1.8,3.9-0.3,2.7-2.1
						c-9.1-12.6-22.9-21.4-37.9-24.8c-4.2-1-8.5-1.5-12.8-1.5c-0.9,0-1.8,0.5-1.9,1.5C133.1,271,133.8,272,134.7,272L134.7,272
						L134.7,272z"/>
				</g>
			</g>
			<g class="st12">
				<path class="st3" d="M1628.2,92.5c5.7,17,23.1,28,45.1,31c2.1,0.3,3.2,15.5,3.2,15.5s6.9-14.7,8.8-14.7
					c11.6,0.1,24.1-1.9,36.5-6.1c42.1-14.2,68.5-48.7,58.9-77.1c-9.6-28.4-51.5-39.9-93.6-25.8S1618.7,64.1,1628.2,92.5L1628.2,92.5
					z"/>
				<path class="st3" d="M1631.2,47.5c4-6.4,9.8-12.2,17.3-17.3c7.4-5,16.1-9,25.7-11.8c10-2.9,20.6-4.5,31.6-4.8s21.7,1,31.8,3.5
					c9.8,2.5,18.6,6.1,26.2,10.8c7.6,4.7,13.7,10.3,17.9,16.6c4.5,6.5,6.8,13.5,6.9,20.8s-1.9,14.4-6.1,21.1
					c-4,6.4-9.8,12.2-17.3,17.3c-7.4,5-16.1,9-25.7,11.8c-7.2,2.1-14.8,3.6-22.6,4.3l12.6-4.4c33-6.7,57-26.8,56.5-49.9
					c-0.5-28-36.5-50.1-80.1-49.2c-43.6,0.8-78.7,24.3-78.2,52.3l-1.3,9.1c-0.8-3-1.3-6-1.4-9.1C1624.9,61.3,1627,54.2,1631.2,47.5
					L1631.2,47.5z"/>
			</g>
			<g class="st4">
				<path class="st3" d="M1965.8,18.1c-25.9-17.6-67.7-27.3-102.6-5.5c-26.7,16.7-49.8,52.1-40.3,86.1c3.8,13.6,11.9,24,22.2,31.9
					c2.3,1.8-6.5,19.8-4,21.3c3.1,1.9,17.6-12.9,20.8-11.4c18.6,8.5,39.7,11.4,54.4,11.4c31-0.2,82.3-14.1,91.6-53.1
					C2016.2,64.4,1986.6,32.2,1965.8,18.1L1965.8,18.1z"/>
				<g>
					<path class="st3" d="M1859.5,150.3c0.4-0.7,1.3-1,2-0.7c14.9,6.2,33.2,9.8,49.8,9.8c0.2,0,0.5,0,0.8,0
						c17.8-0.1,37.7-4.6,53.2-11.9c2.5-1.2,5.2-2.6,7.8-4.1c0.8-0.4,1.8-0.2,2.2,0.6l0,0c0.5,0.8,0.2,1.8-0.6,2.2
						c-2.6,1.5-5.3,2.9-8.1,4.3c-16,7.5-36.4,12.1-54.6,12.2c-0.3,0-0.5,0-0.8,0c-17,0-35.8-3.7-51.1-10.1
						C1859.3,152.3,1859,151.2,1859.5,150.3L1859.5,150.3L1859.5,150.3z"/>
					<path class="st3" d="M1824.8,55.7c7.8-14.1,19.8-26.9,33.3-35.3c8.5-5.3,17.8-9,27.7-11c9-1.8,18.4-2.2,28.1-1.2
						c17.2,1.8,34.4,8.1,48.7,17.8c6,4.1,21.1,15.4,32.4,33.2c4.9,7.7,8.3,15.6,10.2,23.3c2.1,8.8,2.2,17.5,0.2,25.8
						c-2.3,9.5-7.1,18.1-14.3,25.5c-2.3,2.4-4.8,4.6-7.6,6.7c-0.8,0.6-1.9,0.4-2.4-0.5l0,0c-0.4-0.7-0.2-1.6,0.4-2.1
						c9.2-7.1,17.5-16.9,20.7-30.4c8.2-34.4-22.2-65.8-41.5-78.9c-26.1-17.8-67.4-26.3-100.8-5.5c-12.5,7.8-24.2,20-32.1,34.2
						c-0.4,0.8-1.4,1.1-2.2,0.7l0,0C1824.6,57.6,1824.3,56.5,1824.8,55.7L1824.8,55.7z"/>
					<path class="st3" d="M1819.5,67.2c0.3-0.9,1.3-1.3,2.2-0.9l0.1,0.1c0.8,0.4,1.1,1.2,0.8,2c-4.7,12.5-6.1,26-2.4,39.1
						c2.8,10.1,8.3,19,16.3,26.5c0.7,0.6,0.7,1.7,0,2.3l-0.1,0.1c-0.6,0.6-1.6,0.6-2.2,0c-8.5-7.9-14.3-17.3-17.3-28.1
						C1813.4,95.2,1814.2,81.2,1819.5,67.2L1819.5,67.2z"/>
				</g>
			</g>
			<g class="st13">
				<path class="st3" d="M1779.3,333.8l15.1-3.6l0.1,20.9l17.4-25.1l86.8-20.5c11.7-2.8,19.2-14.1,17.1-26l-9.2-51.9
					c-2.1-11.8-13-20-25-18.5l-121.8,14.5c-12.9,1.5-21.9,13.6-19.6,26.4l11.6,65.5C1754,328.5,1766.6,336.8,1779.3,333.8z"/>
				<g>
					<path class="st3" d="M1869,307.8l-70.6,9.8c-0.7,0.1-1.3-0.3-1.4-1v0c-0.2-0.7,0.3-1.5,1.1-1.6l70.6-9.8
						c0.7-0.1,1.3,0.4,1.4,1.1v0C1870.2,307,1869.7,307.7,1869,307.8L1869,307.8z"/>
					<path class="st3" d="M1764,221.1l118.8-30.4c6.4-1.6,13.1-0.6,18.7,2.9s9.4,9.1,10.7,15.6l12.8,65.3c1.3,6.5-0.1,13.1-4,18.5
						c-3.6,5-8.8,8.4-14.8,9.6c-0.5,0.1-0.9,0.2-1.4,0.2l-26.9,3.7c-0.7,0.1-1.4-0.4-1.5-1.1v0c-0.1-0.7,0.4-1.3,1.1-1.4l26.9-3.7
						c5.9-0.8,11-3.9,14.4-8.7c3.4-4.8,4.7-10.7,3.6-16.5l-12.8-65.3c-1.1-5.8-4.5-10.8-9.6-13.9c-5-3.2-10.9-4.1-16.7-2.6
						l-118.8,30.4c-10.9,2.8-17.8,13.7-15.6,24.8l10.2,51.7c2.2,11.1,12.7,18.6,23.9,17l6.2-0.9c0.7-0.1,1.4,0.4,1.5,1.1v0
						c0.1,0.7-0.4,1.4-1.1,1.4l-6.2,0.9c-12.6,1.7-24.3-6.6-26.8-19.1l-10.2-51.7C1744,236.4,1751.7,224.2,1764,221.1L1764,221.1z"
						/>
				</g>
			</g>
			<g class="st10">
				<path class="st3" d="M1954.9,314.6c0.4,0,0.7,0,1.1,0c8.1-13.9,24.5-23.5,43.6-23.5s35.6,9.6,43.7,23.6
					c16.8,1.7,29.9,14.7,29.9,30.5c0,17-15.1,30.7-33.7,30.7l2.7,17c-6.7-3.1-15.5-16.9-15.5-16.9c-10.2,0.2-64.6-0.1-71.7-0.1
					c-18.6,0-33.7-13.8-33.7-30.7S1936.3,314.6,1954.9,314.6L1954.9,314.6z"/>
				<path class="st3" d="M1931.7,311.9c6.8-6,15.8-9.3,25.3-9.3c0.2,0,0.3,0,0.5,0c4.2-6.9,10.6-12.7,18.3-16.8
					c8.2-4.3,17.6-6.6,27.2-6.6s19.2,2.3,27.3,6.7c7.8,4.2,14.2,10,18.4,17c8.5,1,16.3,4.6,22.1,10.2c6,5.8,9.2,13.4,9.2,21.3
					s-3.2,15.2-8.9,21l1.4-4.9c3.4-4.6,5.4-10.2,5.4-16.1c0-15.1-12.9-27.8-29.9-29.5l-0.6,0l-0.3-0.5
					c-8.4-14.2-25.3-23.1-44.1-23.1s-35.6,8.8-44,22.9l-0.3,0.5l-0.7,0c-0.4,0-0.8,0-1.1,0c-18.6,0-33.7,13.3-33.7,29.7l-1.6,5.5
					c-0.3-1.8-0.5-3.6-0.5-5.5C1921.2,325.9,1925,317.9,1931.7,311.9L1931.7,311.9z"/>
			</g>
			<g class="st8">
				<g>
					<g class="st6">
						<path class="st3" d="M2260.1,184.6c9.5,26.5-21.9,60.3-48.5,75c-5.7,3.1-29.1,16.1-54.8,14c-3.9-0.3-12.3,19.6-16.2,18.5
							c-2-0.5,0.4-21.8-1.6-22.6c-3.9-1.5-7.7-3.5-11.4-5.9c-27.1-17.9-41-57.2-26.5-83.9c16.3-29.9,60-27.7,83.9-26.5
							C2201.5,154.3,2250.2,156.8,2260.1,184.6L2260.1,184.6z"/>
						<path class="st3" d="M2114,160.6c4.2-7.1,9.6-12.8,16-16.9c6.9-4.5,14.8-6.9,23.5-7.1c7.4-0.2,15.4,1.1,24.1,3.8
							c15.6,5,29.9,13.8,40.4,20.2c6.9,4.2,21.1,13,32.8,24.2c14.6,14.1,21,27.8,18.9,40.7c-1.1,6.9-4.6,13.4-10.3,19.2
							c-5.1,5.2-11.8,9.8-20.1,13.6c-14.6,6.9-33.2,11-49.6,11.1l10.1-3.6c13.2-1.3,26.9-5,38.2-10.2c11.7-5.5,26.2-15.3,28.6-30.6
							c1.9-11.9-4.2-24.7-18-38.1c-11.4-11-25-19.4-32.3-23.8c-10.3-6.3-24.4-15-39.7-19.9c-18.1-5.8-32.8-4.9-45,3
							c-6.7,4.3-12.3,10.5-16.4,18.1l-5.3,4.1C2111.2,165.7,2112.5,163.1,2114,160.6L2114,160.6z"/>
					</g>
					<g class="st6">
						<path class="st3" d="M2084.5,196.9c-1.6,7.7-1.6,15.8-0.2,23.5c1.4,7.9,4.1,15.5,7.9,22.6c2.1,4,4.6,7.7,7.3,11.3
							c0.5,0.6,0.5,1.6-0.1,2.2c-0.6,0.5-1.6,0.5-2.1-0.1c-5.1-6.6-9.3-14-12.2-21.9c-2.9-7.9-4.7-16.2-4.8-24.6
							c-0.1-4.7,0.4-9.4,1.4-14c0.2-0.8,1.2-1.2,1.9-1C2084.4,195.3,2084.7,196.1,2084.5,196.9L2084.5,196.9L2084.5,196.9z"/>
					</g>
				</g>
				<g class="st6">
					<path class="st3" d="M2184.9,160.9c-8.6-4.7-17.6-8.8-26.8-12.2c-2.6-1-5.2-1.9-7.9-2.7c-0.8-0.2-1.1-1.4-0.7-2
						c0.4-0.8,1.2-1,2-0.7c9.3,3,18.5,6.7,27.3,11c2.5,1.2,4.9,2.5,7.4,3.8c0.7,0.4,1.1,1.2,0.7,2
						C2186.6,160.8,2185.6,161.3,2184.9,160.9L2184.9,160.9z"/>
				</g>
			</g>
			<g class="st8">
				<g>
					<g class="st6">
						<path class="st3" d="M2002.4,427c-18.6,15.7-9.8,54.6,3.7,77.1c2.9,4.8,14.8,24.6,34.9,34.3c3.1,1.5,0.7,20,4.1,20.9
							c1.8,0.5,9.2-16.5,11-16.2c3.5,0.5,7.2,0.8,11.1,0.5c28-1.7,55.5-25,56.2-51.2c0.8-29.5-32.8-46.7-51.2-56.2
							C2059.3,429.7,2021.9,410.5,2002.4,427L2002.4,427z"/>
						<path class="st3" d="M2122,472.3c-0.1-7.1-1.7-13.7-4.7-19.6c-3.2-6.3-8.1-11.6-14.5-15.5c-5.4-3.4-12-5.9-19.6-7.6
							c-13.9-3-28.4-2.6-38.9-2.4c-7,0.2-21.4,0.5-35.1,3.9c-17,4.2-27.7,11.6-31.8,22.2c-2.2,5.6-2.4,12-0.7,18.8
							c1.6,6.1,4.6,12.4,9.1,18.9c8,11.5,20,22.6,32.3,29.8l-6-7.1c-9.3-6.7-18-15.4-24.1-24.2c-6.4-9.2-13-22.8-8.2-35.3
							c3.8-9.7,13.9-16.7,30-20.6c13.3-3.3,27.1-3.6,34.5-3.8c10.5-0.3,24.8-0.6,38.3,2.3c16,3.5,26.6,10.6,32.3,21.7
							c3.1,6.1,4.6,13.2,4.4,20.6l2.2,5.4C2121.9,477.4,2122.1,474.9,2122,472.3L2122,472.3z"/>
					</g>
					<g class="st6">
						<path class="st3" d="M2128.3,512.3c-2.1,6.5-5.6,12.5-10,17.7c-4.5,5.3-9.8,9.8-15.7,13.5c-3.3,2-6.8,3.8-10.4,5.3
							c-0.7,0.3-1.1,1-0.9,1.7c0.2,0.6,1,1.1,1.7,0.8c6.7-2.8,13-6.4,18.6-11c5.6-4.6,10.5-10.1,14.2-16.3c2.1-3.5,3.8-7.2,5-11.1
							c0.2-0.7-0.4-1.4-1-1.5C2129.1,511.1,2128.6,511.6,2128.3,512.3L2128.3,512.3L2128.3,512.3z"/>
					</g>
				</g>
				<g class="st6">
					<path class="st3" d="M2068.9,441.8c8.5,0.2,16.9,1,25.3,2.5c2.4,0.4,4.7,0.9,7,1.4c0.7,0.1,1.4-0.6,1.4-1.2
						c0.1-0.8-0.5-1.3-1.2-1.4c-8.3-1.8-16.7-3-25.2-3.6c-2.4-0.2-4.8-0.3-7.2-0.3c-0.7,0-1.4,0.5-1.4,1.2
						C2067.7,441.1,2068.2,441.8,2068.9,441.8L2068.9,441.8L2068.9,441.8z"/>
				</g>
			</g>
			<g class="st8">
				<g class="st6">
					<path class="st3" d="M2457.4,156.4c-9.6,28.8-37.7,40-42.3,41.7c-9.7,2.8-19.4,4.4-28.8,5c-2.3,0.1-8.3,17.2-8.3,17.2
						s-7.6-17.1-12-17.5c-36.6-3.6-67-23.2-79.4-51.1c-11.8-26.4-10.1-66.1,14.8-90.5c21.4-20.9,49.8-20.6,58.7-20.5
						c42.5,0.5,79,30.3,93,64.8C2457,115.2,2464.8,134.4,2457.4,156.4L2457.4,156.4z"/>
					<path class="st3" d="M2306.8,49.8c9.3-9.1,21.1-15.4,34.9-18.6c11.1-2.6,20.6-2.5,25.1-2.4c20.5,0.2,40.6,7.1,58.2,20
						c16.3,11.9,29.2,28.2,36.4,45.9c2,4.9,5,12.2,6.5,21.2c1.9,10.7,1.1,21.1-2.1,30.9c-9.4,28-35.5,39.9-43.3,42.8l-0.1,0.1
						c-6.8,2-21.5,9.4-58,3.6c-10.9-1.8-21.2-5.1-30.5-9.6c-19.2-9.2-34.2-23.7-42.1-41.4c-3-6.8-5.2-14.3-6.3-22.3
						c-1.2-8.2-1.2-16.5-0.2-24.6C2287.5,77.2,2295,61.4,2306.8,49.8L2306.8,49.8z M2295,140.8c11.2,25.1,37.4,43.4,69.5,48.9
						c31.4,4.8,50.4-1.6,56.8-3.4c7.5-2.9,32.3-14.2,41.2-40.6c7.2-21.4-0.3-39.8-4.3-49.6c-15-37.1-52.6-63.2-91.4-63.7
						c-9.1-0.1-36.6-0.4-57.4,20C2284.7,76.4,2283.5,115.1,2295,140.8L2295,140.8z"/>
				</g>
				<g class="st6">
					<path class="st3" d="M2302.5,47.2c-4.2,3.8-7.8,8.2-10.8,12.9c-3.2,5-5.9,10.4-7.7,16c-0.9,3-1.6,6.1-2,9.2
						c-0.1,1-1.2,1.7-2.2,1.5c-1.1-0.2-1.6-1.2-1.5-2.2c0.6-5.9,2.5-11.6,5-17c2.6-5.6,5.9-11,9.7-15.8c2-2.5,4.2-4.9,6.6-7.1
						c0.8-0.7,1.8-0.9,2.7-0.2C2303,45.1,2303.3,46.5,2302.5,47.2L2302.5,47.2L2302.5,47.2z"/>
				</g>
				<g class="st6">
					<path class="st3" d="M2470.7,149.4c4.9-13.1,5.9-27.5,3.3-41.1c-0.7-3.9-1.8-7.7-3.2-11.4c-0.8-2.3,2.8-3.6,3.6-1.2
						c5,13.8,6.1,29,3.2,43.4c-0.8,4.1-2,8.1-3.5,12.1c-0.4,1-1.7,1.3-2.5,0.9C2470.6,151.5,2470.3,150.4,2470.7,149.4L2470.7,149.4
						L2470.7,149.4z"/>
				</g>
			</g>
			<g class="st10">
				<path class="st3" d="M2012.3,382.1c-14-1.1-28.1-1.7-42.1-1.7c-4,0-8,0-12,0.1c-1.6,0-1.6-2.4,0-2.5c14.1-0.3,28.1,0,42.2,0.8
					c4,0.2,8,0.5,12,0.8c0.7,0,1.2,0.5,1.2,1.2C2013.6,381.5,2013,382.1,2012.3,382.1L2012.3,382.1L2012.3,382.1z"/>
			</g>
			<g class="st14">
				<path class="st3" d="M1923.7,360.2c3.1,5.7,7.6,10.5,13.2,13.9c1.4,0.8,0.1,3-1.2,2.1c-5.9-3.5-10.9-8.7-14.1-14.8
					C1920.8,360,1922.9,358.8,1923.7,360.2L1923.7,360.2L1923.7,360.2z"/>
			</g>
			<g class="st8">
				<g class="st6">
					<path class="st3" d="M1633.6,332.8c0,0,5.9,11.4,9.9,22.1l7.4-34.5l53.9-38.8c8.9-6.4,11.4-18.6,5.7-28.1l-38.1-62.8
						c-6.4-10.5-20.4-13.4-30.4-6.2l-81.8,59c-10,7.2-11.7,21.4-3.8,30.8l48.8,55.1C1612.3,337.7,1624.7,339.2,1633.6,332.8z"/>
					<path class="st3" d="M1588,322.9l-21.8-37.7l-17-29.4v0c-3.4-6.2-4.2-13.4-2.1-19.9c2.1-6.5,7-11.6,13.4-14.1l103.1-39.3
						c6.4-2.4,13.4-1.8,19.3,1.6c5.8,3.4,10.1,9.4,11.6,16.2l17,75.4c1.2,5.4,0.4,11.1-2.3,16c-2.7,4.9-7,8.7-12.2,10.7l-45.5,17.3
						l7.9-5.7l36.7-14c9.4-3.6,15-13.9,12.8-23.6l-17.2-75.4c-1.4-6.2-5.1-11.2-10.3-14.3c-5.3-3.1-11.3-3.6-17-1.4l-102.8,39.2
						c-5.7,2.2-9.9,6.6-11.8,12.4c-1.9,5.8-1.2,12,1.8,17.5l23.6,40.9l15.1,26.3v0c3.6,6.5,10.7,10.4,18,10.4l3.2,2.3
						c-3.7,0.5-7.6,0.2-11.2-1.1C1595.1,331.4,1590.7,327.8,1588,322.9L1588,322.9z"/>
				</g>
				<g class="st6">
					<path class="st3" d="M1618.4,196.3c-14.4,4-28.6,8.6-42.6,13.6c-3.9,1.4-7.8,2.9-11.8,4.4c-1.7,0.6-2.7-2-1-2.7
						c13.9-5.3,28-10.1,42.3-14.5c4-1.2,8-2.4,12-3.5c0.7-0.2,1.6,0.1,1.8,0.8C1619.5,195.2,1619.1,196.1,1618.4,196.3L1618.4,196.3
						z"/>
				</g>
				<g class="st6">
					<path class="st3" d="M1549.7,224.7c-4.3,1.9-7.3,6.2-7.8,10.9c-0.1,0.8-0.9,1.3-1.6,1.2c-0.8-0.1-1.2-0.9-1.2-1.6
						c0.5-5.7,4.3-10.9,9.6-13.1c0.7-0.3,1.6,0.1,1.8,0.8C1550.8,223.6,1550.4,224.4,1549.7,224.7L1549.7,224.7L1549.7,224.7z"/>
				</g>
				<g class="st6">
					<path class="st3" d="M1558.5,280c4.7,8.9,9.5,17.8,14.2,26.7c0.4,0.7-0.2,1.6-0.8,1.8c-0.8,0.3-1.5-0.2-1.8-0.8
						c-4.7-8.9-9.5-17.8-14.2-26.7c-0.4-0.7,0.2-1.6,0.8-1.8C1557.5,278.9,1558.2,279.4,1558.5,280L1558.5,280z"/>
				</g>
				<g class="st6">
					<path class="st3" d="M1701.3,199c2.4,6.1,3.8,12.7,4.3,19.2c0.1,1.8-2.7,2.1-2.8,0.3c-0.4-6.4-1.8-12.6-4.1-18.5
						C1697.9,198.3,1700.6,197.3,1701.3,199L1701.3,199L1701.3,199z"/>
				</g>
			</g>
			<g class="st13">
				<path class="st3" d="M1754.4,219c-7.7,2.1-14.1,8.3-16.9,15.8c-0.8,2.1-1.3,4.3-1.4,6.6c-0.1,1.8-2.9,1.5-2.8-0.3
					c0.6-9,6-17.2,13.6-21.9c2.2-1.3,4.5-2.3,7-3c0.7-0.2,1.5,0.4,1.6,1.1C1755.7,218.1,1755.1,218.8,1754.4,219L1754.4,219
					L1754.4,219z"/>
			</g>
			<g class="st13">
				<path class="st3" d="M1847.4,193.9c-9.3,2.2-18.6,4.5-27.8,6.9c-9.2,2.3-18.4,4.7-27.6,7.1c-5.2,1.4-10.4,2.8-15.6,4.2
					c-0.7,0.2-1.5-0.4-1.6-1.1c-0.1-0.8,0.4-1.4,1.1-1.6c9.2-2.5,18.5-4.9,27.7-7.3c9.2-2.4,18.4-4.7,27.7-7
					c5.2-1.3,10.5-2.6,15.7-3.8c0.7-0.2,1.5,0.4,1.6,1.1C1848.7,193,1848.1,193.7,1847.4,193.9L1847.4,193.9z"/>
			</g>
			<g class="st13">
				<path class="st3" d="M1924.6,234.1c1.4,8.9,2.9,17.8,4.4,26.7c0.4,2.5,0.8,5.1,1.2,7.6c0.3,1.8-2.5,2.3-2.8,0.5
					c-1.4-8.9-2.9-17.8-4.4-26.7c-0.4-2.5-0.8-5.1-1.2-7.6C1921.6,232.9,1924.3,232.4,1924.6,234.1L1924.6,234.1z"/>
			</g>
			<g class="st8">
				<g class="st6">
					<path class="st3" d="M1194.9,104.2l-10.3-2.9l-0.6,14.4l-11.3-17.7l-59.2-16.6c-8-2.2-12.8-10.3-11-18.4l7.8-35.4
						c1.8-8.1,9.5-13.4,17.7-12.1l83.4,13.4c8.8,1.4,14.7,10,12.8,18.7l-9.8,44.8C1212.4,101.2,1203.5,106.6,1194.9,104.2
						L1194.9,104.2z"/>
					<g>
						<path class="st3" d="M1133.9,83.7l48.3,8.7c0.4,0.1,0.9-0.2,1-0.6v0c0.1-0.5-0.2-1-0.7-1.1l-48.3-8.7c-0.5-0.1-0.9,0.2-1,0.7
							v0C1133.1,83.1,1133.4,83.6,1133.9,83.7z"/>
						<path class="st3" d="M1208.6,27l-80.9-24.4c-4.4-1.3-9-0.8-13,1.5c-4,2.3-6.8,6-7.8,10.4l-10.7,44.6c-1.1,4.5-0.3,9,2.2,12.9
							c2.3,3.6,5.8,6,9.9,7c0.3,0.1,0.6,0.1,0.9,0.2l18.4,3.3c0.5,0.1,1-0.2,1-0.8v0c0.1-0.5-0.2-0.9-0.7-1l-18.4-3.3
							c-4-0.7-7.5-3-9.7-6.4s-2.9-7.5-2-11.5l10.7-44.6c0.9-4,3.4-7.3,7-9.3c3.5-2,7.6-2.5,11.6-1.3l80.9,24.3
							c7.4,2.2,11.9,9.9,10.1,17.5l-8.5,35.3c-1.8,7.6-9.2,12.4-16.9,11l-4.2-0.8c-0.5-0.1-1,0.2-1,0.7l0,0c-0.1,0.5,0.2,0.9,0.7,1
							l4.2,0.8c8.6,1.6,16.9-3.9,19-12.4l8.5-35.3C1221.9,38.2,1217,29.6,1208.6,27L1208.6,27z"/>
					</g>
				</g>
				<g class="st6">
					<path class="st3" d="M1097.7,31.4c-1.2,6.1-2.5,12.1-3.8,18.2c-0.4,1.7-0.7,3.5-1.1,5.2c-0.2,1.2,1.6,1.6,1.9,0.4
						c1.2-6.1,2.5-12.2,3.8-18.2c0.4-1.7,0.7-3.5,1.1-5.2C1099.8,30.6,1098,30.2,1097.7,31.4C1097.7,31.4,1097.7,31.4,1097.7,31.4z"
						/>
				</g>
			</g>
			<g class="st8">
				<g class="st6">
					<path class="st3" d="M2227.7,355l-7.3,2.1l4.9,9l-13.4-6.6l-42,11.9c-5.7,1.6-11.6-1.5-13.5-7.1l-8.4-24.4
						c-1.9-5.6,0.9-11.6,6.3-13.9l55.6-22.7c5.9-2.4,12.6,0.6,14.7,6.6l10.6,30.8C2237.3,346.7,2233.9,353.2,2227.7,355L2227.7,355z
						"/>
					<g>
						<path class="st3" d="M2183.1,365.1l32.5-12.6c0.3-0.1,0.5-0.5,0.4-0.8l0,0c-0.1-0.4-0.5-0.6-0.8-0.4l-32.5,12.6
							c-0.3,0.1-0.5,0.5-0.4,0.8l0,0C2182.4,365.1,2182.8,365.3,2183.1,365.1L2183.1,365.1z"/>
						<path class="st3" d="M2207.5,303.1l-58.1,15.2c-3.1,0.8-5.8,2.9-7.3,5.7c-1.6,2.9-1.9,6.1-0.9,9.2l10,31c1,3.1,3.2,5.6,6.1,7
							c2.7,1.3,5.8,1.5,8.6,0.6c0.2-0.1,0.4-0.1,0.6-0.2l12.4-4.8c0.3-0.1,0.5-0.5,0.4-0.8l0,0c-0.1-0.3-0.5-0.5-0.8-0.4l-12.4,4.8
							c-2.7,1-5.6,0.9-8.3-0.3s-4.6-3.5-5.4-6.2l-10-31c-0.9-2.8-0.6-5.7,0.8-8.2c1.4-2.5,3.7-4.4,6.5-5.1l58.1-15.2
							c5.4-1.4,10.9,1.6,12.6,6.9l7.9,24.5c1.7,5.3-1,11-6.2,12.9l-2.9,1.1c-0.3,0.1-0.5,0.5-0.4,0.8l0,0c0.1,0.3,0.5,0.5,0.8,0.4
							l2.9-1.1c5.8-2.2,8.8-8.6,6.9-14.5l-7.9-24.5C2219.7,304.9,2213.5,301.5,2207.5,303.1L2207.5,303.1z"/>
					</g>
				</g>
				<g class="st6">
					<path class="st3" d="M2141.9,346.8c1.5,4.1,3,8.3,4.5,12.5c0.4,1.2,0.9,2.4,1.3,3.5c0.3,0.8,1.6,0.4,1.3-0.4
						c-1.5-4.1-3-8.3-4.5-12.5c-0.4-1.2-0.9-2.4-1.3-3.5C2142.9,345.5,2141.6,346,2141.9,346.8L2141.9,346.8z"/>
				</g>
			</g>
			<g class="st8">
				<g class="st6">
					<path class="st3" d="M1592.1,109.6c-8.5-36.9-128.5-72.4-169.6-16.7c-24.5,33.1-17,92.9,12.4,111.5
						c31.4,19.8,89.2-6.7,125.4-39.2c3.3-3,27.8,11.3,30.8,8.3c2.6-2.7-16.4-22.7-14.2-25.4C1588.3,134.2,1594.6,120.4,1592.1,109.6
						L1592.1,109.6z"/>
					<g>
						<path class="st3" d="M1539.8,181.6c0,0,3-1.6,3.8-2c7.2-3.6,15.1-8.2,22.2-14l3.5,1.2c-6.6,5.7-14.8,11-24.3,15.7
							c-2.6,1.3-5.2,2.5-7.9,3.7c-4.1,1.8-8.3,3.4-12.7,4.9L1539.8,181.6L1539.8,181.6z"/>
						<path class="st3" d="M1401.4,170.1c-0.3-5.9,0.3-12.6,1.9-20c3.2-14.5,10.2-30.8,19.7-45.8c11.2-17.8,24.9-32.6,39.6-42.6
							c8.2-5.6,16.5-9.6,24.9-12.1c9.1-2.6,18.2-3.4,27.1-2.2c11.2,1.5,22.8,6.1,33.5,13.3c10.1,6.8,19.3,15.8,26.4,25.8
							c9.7,13.7,14.9,28.2,15,41.2c0,3.1-0.3,6.2-0.9,9.1c-1.3,6.4-4.2,12.6-8.6,18.5l-1.8-2.8c3.5-4.9,6.1-10.4,7.3-16.3
							c2.9-14.1-2-31.6-13.6-47.8c-14.6-20.6-36.8-35.1-57.8-37.8c-31-4.1-64.1,16.6-88.6,55.5c-9.2,14.7-16.1,30.6-19.2,44.8
							c-3.2,14.3-2.4,26,2.1,33c2.8,4.2,7.5,7.7,14.1,10.3c0.5,0.2,0.9,0.4,1.4,0.5l4.3,4.7c-2.5-0.7-4.8-1.4-6.9-2.3
							c-7.2-2.9-12.5-6.8-15.6-11.6C1403.3,181.5,1401.8,176.3,1401.4,170.1L1401.4,170.1z"/>
					</g>
				</g>
				<g class="st6">
					<path class="st3" d="M1575.9,76.4c-5.3-6.2-11.3-11.8-17.9-16.6c-6.5-4.8-13.6-9-21-12.2c-4.3-1.9-8.6-3.5-13.1-4.8
						c-0.9-0.3-1.2-1.4-0.9-2.2c0.4-0.9,1.3-1.2,2.2-0.9c8,2.4,15.7,5.7,23,9.8c7.3,4.1,14.2,9.1,20.4,14.7c3.5,3.2,6.9,6.6,10,10.2
						C1580,76,1577.3,78.1,1575.9,76.4L1575.9,76.4L1575.9,76.4z"/>
				</g>
				<g class="st6">
					<path class="st3" d="M1514.6,41.6c-4-0.2-7.9,0.1-11.8,0.9c-0.9,0.2-1.8-0.6-1.9-1.5c-0.1-1,0.6-1.7,1.4-1.9
						c4.2-0.8,8.4-1.1,12.7-0.9c0.9,0,1.6,1,1.4,1.9C1516.3,41.1,1515.5,41.7,1514.6,41.6L1514.6,41.6L1514.6,41.6z"/>
				</g>
				<g class="st6">
					<path class="st3" d="M1430.8,113.9c-4.7,7.5-8.4,15.6-11.1,24c-0.7,2.4-1.4,4.8-2,7.2c-0.2,0.9-0.9,1.6-1.9,1.4
						c-0.8-0.1-1.7-1-1.4-1.9c2.1-9,5.3-17.7,9.7-25.8c1.3-2.4,2.6-4.7,4-7c0.5-0.8,1.7-0.8,2.3-0.3
						C1431.3,112.1,1431.3,113.1,1430.8,113.9L1430.8,113.9L1430.8,113.9z"/>
				</g>
			</g>
			<g class="st8">
				<g class="st6">
					<path class="st3" d="M2307.5,451.3c-3.6-30.3-96.7-69.2-134.6-28.1c-22.5,24.4-21.7,73,0.3,90.5c23.5,18.6,72.1,2.4,104-20.5
						c2.9-2.1,21.3,11.5,23.9,9.3c2.3-1.9-11.2-19.6-9.2-21.6C2302.3,470.6,2308.6,460.1,2307.5,451.3L2307.5,451.3z"/>
					<g>
						<path class="st3" d="M2259.4,504.5c0,0,2.5-1,3.2-1.3c6.1-2.2,12.9-5.3,19-9.3l2.7,1.3c-5.8,4-12.8,7.5-20.9,10.5
							c-2.2,0.8-4.4,1.5-6.7,2.2c-3.4,1.1-7,2-10.6,2.8L2259.4,504.5L2259.4,504.5z"/>
						<path class="st3" d="M2149.4,483.2c0.2-4.8,1.3-10.1,3.3-15.9c3.9-11.4,10.9-23.8,19.7-35c10.5-13.3,22.8-23.9,35.5-30.7
							c7-3.8,14.1-6.3,21-7.5c7.5-1.3,14.9-1.1,22,0.6c8.8,2.1,17.7,6.9,25.7,13.6c7.5,6.4,14.1,14.3,19,23
							c6.6,11.8,9.5,23.9,8.4,34.4c-0.3,2.5-0.8,4.9-1.5,7.2c-1.6,5-4.5,9.7-8.5,14.1l-1.2-2.4c3.2-3.6,5.8-7.8,7.3-12.5
							c3.6-11.1,1.1-25.5-6.7-39.5c-9.9-17.8-26.4-31.3-43.1-35.4c-24.5-6-52.9,7.8-75.8,36.8c-8.7,11-15.6,23.1-19.3,34.2
							c-3.8,11.2-4.2,20.7-1.2,26.7c1.9,3.6,5.4,6.8,10.4,9.5c0.4,0.2,0.7,0.4,1.1,0.6l3.1,4.1c-1.9-0.7-3.7-1.5-5.4-2.4
							c-5.6-2.9-9.4-6.5-11.5-10.6C2149.9,492.6,2149.1,488.3,2149.4,483.2L2149.4,483.2z"/>
					</g>
				</g>
				<g class="st6">
					<path class="st3" d="M2297.4,423.3c-3.7-5.4-8.1-10.4-12.9-14.9c-4.8-4.5-10.1-8.4-15.8-11.6c-3.2-1.9-6.6-3.6-10.1-5
						c-0.7-0.3-0.9-1.2-0.6-1.8c0.4-0.7,1.2-0.8,1.8-0.5c6.2,2.6,12.1,5.9,17.6,9.9c5.5,4,10.6,8.5,15.1,13.6
						c2.6,2.9,4.9,5.9,7.1,9.1C2300.7,423.3,2298.4,424.7,2297.4,423.3L2297.4,423.3L2297.4,423.3z"/>
				</g>
				<g class="st6">
					<path class="st3" d="M2251.3,390c-3.2-0.5-6.4-0.6-9.6-0.3c-0.7,0.1-1.4-0.6-1.4-1.3c0-0.8,0.6-1.3,1.3-1.4
						c3.4-0.3,6.9-0.2,10.3,0.4c0.7,0.1,1.2,1,1,1.6C2252.7,389.8,2252,390.2,2251.3,390L2251.3,390L2251.3,390z"/>
				</g>
				<g class="st6">
					<path class="st3" d="M2177.8,440.7c-4.4,5.6-8.1,11.8-11,18.3c-0.8,1.8-1.5,3.7-2.2,5.6c-0.2,0.7-0.9,1.2-1.6,1
						c-0.7-0.2-1.2-0.9-1-1.6c2.5-7,5.8-13.7,10-19.9c1.2-1.8,2.5-3.5,3.9-5.2c0.4-0.6,1.4-0.5,1.9-0.1
						C2178.3,439.3,2178.3,440.1,2177.8,440.7L2177.8,440.7L2177.8,440.7z"/>
				</g>
			</g>
			<g class="st8">
				<g class="st6">
					<path class="st3" d="M2308.1,528.3c3.6-30.3,96.7-69.2,134.6-28.1c22.5,24.4,21.7,73-0.3,90.5c-23.5,18.6-72.1,2.4-104-20.5
						c-2.9-2.1-21.3,11.5-23.9,9.3c-2.3-1.9,11.2-19.6,9.2-21.6C2313.3,547.6,2307.1,537.1,2308.1,528.3L2308.1,528.3z"/>
					<g>
						<path class="st3" d="M2356.3,581.5c0,0-2.5-1-3.2-1.3c-6.1-2.2-12.9-5.3-19-9.3l-2.7,1.3c5.8,4,12.8,7.5,20.9,10.5
							c2.2,0.8,4.4,1.5,6.7,2.2c3.4,1.1,7,2,10.6,2.8L2356.3,581.5L2356.3,581.5z"/>
						<path class="st3" d="M2466.3,560.2c-0.2-4.8-1.3-10.1-3.3-15.9c-3.9-11.4-10.9-23.8-19.7-35c-10.5-13.3-22.8-23.9-35.5-30.7
							c-7-3.8-14.1-6.3-21-7.5c-7.5-1.3-14.9-1.1-22,0.6c-8.8,2.1-17.7,6.9-25.7,13.6c-7.5,6.4-14.1,14.3-19,23
							c-6.6,11.8-9.5,23.9-8.4,34.4c0.3,2.5,0.8,4.9,1.5,7.2c1.6,5,4.5,9.7,8.5,14.1l1.2-2.4c-3.2-3.6-5.8-7.8-7.3-12.5
							c-3.6-11.1-1.1-25.5,6.7-39.5c9.9-17.8,26.4-31.3,43.1-35.4c24.5-6,52.9,7.8,75.8,36.8c8.7,11,15.6,23.1,19.3,34.2
							c3.8,11.2,4.2,20.7,1.2,26.7c-1.9,3.6-5.4,6.8-10.4,9.5c-0.4,0.2-0.7,0.4-1.1,0.6l-3.1,4.1c1.9-0.7,3.7-1.5,5.4-2.4
							c5.6-2.9,9.4-6.5,11.5-10.6C2465.8,569.6,2466.6,565.3,2466.3,560.2L2466.3,560.2z"/>
					</g>
				</g>
				<g class="st6">
					<path class="st3" d="M2318.2,500.3c3.7-5.4,8.1-10.4,12.9-14.9c4.8-4.5,10.1-8.4,15.8-11.6c3.2-1.9,6.6-3.6,10.1-5
						c0.7-0.3,0.9-1.2,0.6-1.8c-0.4-0.7-1.2-0.8-1.8-0.5c-6.2,2.6-12.1,5.9-17.6,9.9c-5.5,4-10.6,8.5-15.1,13.6
						c-2.6,2.9-4.9,5.9-7.1,9.1C2314.9,500.3,2317.2,501.7,2318.2,500.3L2318.2,500.3L2318.2,500.3z"/>
				</g>
				<g class="st6">
					<path class="st3" d="M2364.4,467c3.2-0.5,6.4-0.6,9.6-0.3c0.7,0.1,1.4-0.6,1.4-1.3c0-0.8-0.6-1.3-1.3-1.4
						c-3.4-0.3-6.9-0.2-10.3,0.4c-0.7,0.1-1.2,1-1,1.6C2362.9,466.8,2363.7,467.2,2364.4,467L2364.4,467L2364.4,467z"/>
				</g>
				<g class="st6">
					<path class="st3" d="M2437.9,517.7c4.4,5.6,8.1,11.8,11,18.3c0.8,1.8,1.5,3.7,2.2,5.6c0.2,0.7,0.9,1.2,1.6,1
						c0.7-0.2,1.2-0.9,1-1.6c-2.5-7-5.8-13.7-10-19.9c-1.2-1.8-2.5-3.5-3.9-5.2c-0.4-0.6-1.4-0.5-1.9-0.1
						C2437.4,516.4,2437.4,517.2,2437.9,517.7L2437.9,517.7L2437.9,517.7z"/>
				</g>
			</g>
			<g class="st12">
				<path class="st3" d="M1734.8,11.1c-15.2-2.8-30.8-3.2-46.1-1.5c-4.3,0.5-8.6,1.1-12.8,2c-0.8,0.2-1.6-0.1-1.9-0.9
					c-0.2-0.7,0.1-1.7,0.9-1.9c15.6-3.1,31.5-3.9,47.3-2.4c4.4,0.4,8.8,1,13.2,1.8C1737.3,8.5,1736.7,11.4,1734.8,11.1L1734.8,11.1
					L1734.8,11.1z"/>
			</g>
			<g class="st12">
				<path class="st3" d="M1659.1,19.3c-4.8,2.2-9.2,5.2-13,8.8c-0.6,0.5-1.4,0.7-2.1,0.1c-0.6-0.5-0.7-1.5-0.1-2.1
					c4.2-4,9.1-7.2,14.3-9.7c0.7-0.3,1.6,0.2,1.9,0.9C1660.3,18.2,1659.8,19,1659.1,19.3L1659.1,19.3L1659.1,19.3z"/>
			</g>
			<g class="st12">
				<path class="st3" d="M1625.7,88.8c0.9,6.3,3.6,12.3,7.4,17.4c3.8,5.1,8.9,9.4,14.7,12.2c3.3,1.6,6.7,2.7,10.3,3.3
					c1.9,0.3,1.3,3.2-0.6,2.9c-6.8-1.2-13.2-4.2-18.6-8.4c-5.4-4.3-9.8-9.8-12.7-16.1c-1.7-3.6-2.8-7.3-3.3-11.2
					c-0.1-0.8,0.7-1.5,1.4-1.6C1625,87.3,1625.6,88,1625.7,88.8L1625.7,88.8L1625.7,88.8z"/>
			</g>
			<g class="st11">
				<path class="st3" d="M1953.3,232.2c3.8,11.3,15.3,18.6,29.9,20.6c1.4,0.2,2.1,10.3,2.1,10.3s4.6-9.8,5.8-9.7
					c7.7,0.1,16-1.2,24.3-4c28-9.4,45.5-32.3,39.1-51.2s-34.2-26.5-62.1-17.1S1947,213.3,1953.3,232.2L1953.3,232.2z"/>
				<path class="st3" d="M1955.2,202.3c2.7-4.3,6.5-8.1,11.5-11.5c4.9-3.3,10.7-6,17.1-7.9c6.6-1.9,13.7-3,21-3.1s14.4,0.6,21.1,2.3
					c6.5,1.6,12.3,4.1,17.4,7.2c5.1,3.1,9.1,6.9,11.9,11c3,4.3,4.5,9,4.6,13.8c0.1,4.8-1.3,9.5-4.1,14c-2.7,4.3-6.5,8.1-11.5,11.5
					c-4.9,3.3-10.7,6-17.1,7.9c-4.8,1.4-9.8,2.4-15,2.8l8.4-2.9c21.9-4.4,37.8-17.8,37.5-33.2c-0.4-18.6-24.2-33.3-53.2-32.7
					c-29,0.6-52.2,16.1-51.9,34.7l-0.9,6.1c-0.6-2-0.9-4-0.9-6C1951.1,211.5,1952.5,206.8,1955.2,202.3L1955.2,202.3z"/>
			</g>
			<g class="st11">
				<path class="st3" d="M2024.1,178.1c-10.1-1.8-20.4-2.1-30.6-1c-2.8,0.3-5.7,0.8-8.5,1.3c-0.5,0.1-1.1-0.1-1.2-0.6
					c-0.2-0.4,0.1-1.1,0.6-1.2c10.3-2.1,20.9-2.6,31.4-1.6c2.9,0.3,5.9,0.7,8.8,1.2C2025.7,176.4,2025.3,178.4,2024.1,178.1
					L2024.1,178.1L2024.1,178.1z"/>
			</g>
			<g class="st11">
				<path class="st3" d="M1973.8,183.6c-3.2,1.5-6.1,3.5-8.7,5.9c-0.4,0.4-1,0.5-1.4,0.1c-0.4-0.3-0.5-1-0.1-1.4
					c2.8-2.6,6-4.8,9.5-6.4c0.5-0.2,1.1,0.2,1.2,0.6C1974.6,182.9,1974.3,183.4,1973.8,183.6L1973.8,183.6L1973.8,183.6z"/>
			</g>
			<g class="st11">
				<path class="st3" d="M1951.6,229.8c0.6,4.2,2.4,8.2,4.9,11.6c2.5,3.4,5.9,6.2,9.7,8.1c2.2,1.1,4.4,1.8,6.8,2.2
					c1.2,0.2,0.8,2.1-0.4,1.9c-4.5-0.8-8.8-2.8-12.4-5.6c-3.6-2.8-6.5-6.5-8.4-10.7c-1.1-2.4-1.8-4.9-2.2-7.4c-0.1-0.5,0.4-1,0.9-1
					C1951.2,228.8,1951.6,229.2,1951.6,229.8L1951.6,229.8L1951.6,229.8z"/>
			</g>
			<g class="st4">
				<path class="st3" d="M2020.8,68.3c-1.4-13.6-9.4-25.5-17.4-36.2c-3.5-4.6-7.6-8.9-11.8-12.9c-3.9-3.7-7.9-7.2-12-10.6
					c-1.5-1.3-3.1-2.5-4.6-3.7c-0.3-0.2-0.5-0.4-0.8-0.6c-0.1-0.1,0.4,0.3,0,0c-0.1-0.1-0.2-0.1-0.3-0.2c-0.2-0.1-0.3-0.2-0.5-0.4
					c-0.8-0.6-1.1-1.5-0.6-2.4c0.4-0.7,1.6-1.2,2.4-0.6c6.1,4.6,11.9,9.6,17.5,14.8c9.5,8.8,17.8,19,24.1,30.3
					c3.9,7,6.7,14.5,7.5,22.4c0.1,0.9-0.9,1.7-1.7,1.7C2021.5,70.1,2020.9,69.3,2020.8,68.3L2020.8,68.3L2020.8,68.3z"/>
			</g>
			<g class="st4">
				<path class="st3" d="M2025,84.1c0.4,9.4-1.6,19.1-5.4,27.6c-0.9,2.1-2,4.1-3.2,6.1c-1.2,1.9-4.2,0.1-3-1.8
					c2.2-3.4,3.8-7.1,5.1-11c1.4-4.3,2.4-8.8,2.8-13.2c0.3-2.6,0.3-5.1,0.2-7.7c0-0.9,0.8-1.7,1.7-1.7
					C2024.2,82.4,2024.9,83.2,2025,84.1C2025,84.1,2025,84.1,2025,84.1z"/>
			</g>
			<g class="st2">
				<path class="st3" d="M2197.9,13.2c-16.7-11.4-43.8-17.7-66.4-3.6c-17.3,10.8-32.2,33.7-26.1,55.7c2.4,8.8,7.7,15.5,14.4,20.6
					c1.5,1.1-4.2,12.8-2.6,13.8c2,1.2,11.4-8.3,13.5-7.3c12,5.5,25.6,7.4,35.2,7.3c20-0.1,53.2-9.1,59.2-34.4
					C2230.5,43.1,2211.4,22.4,2197.9,13.2L2197.9,13.2z"/>
				<g>
					<path class="st3" d="M2129.2,98.7c0.3-0.4,0.8-0.6,1.3-0.4c9.6,4,21.4,6.3,32.2,6.3c0.2,0,0.3,0,0.5,0
						c11.5-0.1,24.4-2.9,34.4-7.7c1.6-0.8,3.3-1.7,5.1-2.7c0.5-0.3,1.1-0.1,1.4,0.4v0c0.3,0.5,0.1,1.1-0.4,1.4
						c-1.7,1-3.4,1.9-5.3,2.8c-10.3,4.8-23.5,7.8-35.3,7.9c-0.2,0-0.3,0-0.5,0c-11,0-23.1-2.4-33-6.5
						C2129.1,100,2128.8,99.3,2129.2,98.7L2129.2,98.7L2129.2,98.7z"/>
					<path class="st3" d="M2106.7,37.5c5-9.1,12.8-17.4,21.5-22.8c5.5-3.4,11.5-5.8,17.9-7.1c5.8-1.2,11.9-1.5,18.1-0.8
						c11.1,1.2,22.3,5.3,31.5,11.5c3.9,2.6,13.6,10,21,21.5c3.2,5,5.4,10.1,6.6,15c1.4,5.7,1.4,11.3,0.1,16.7
						c-1.5,6.1-4.6,11.7-9.2,16.5c-1.5,1.5-3.1,3-4.9,4.3c-0.5,0.4-1.2,0.2-1.6-0.3v0c-0.3-0.5-0.2-1.1,0.2-1.4
						c6-4.6,11.3-10.9,13.4-19.6c5.3-22.3-14.4-42.5-26.8-51c-16.9-11.5-43.6-17-65.2-3.5c-8.1,5.1-15.7,12.9-20.7,22.1
						c-0.3,0.5-0.9,0.7-1.4,0.4h0C2106.6,38.7,2106.4,38.1,2106.7,37.5L2106.7,37.5z"/>
					<path class="st3" d="M2103.3,45c0.2-0.6,0.9-0.8,1.4-0.6l0.1,0c0.5,0.2,0.7,0.8,0.5,1.3c-3,8.1-3.9,16.8-1.6,25.3
						c1.8,6.6,5.4,12.3,10.6,17.2c0.4,0.4,0.4,1.1,0,1.5l0,0c-0.4,0.4-1,0.4-1.4,0c-5.5-5.1-9.2-11.2-11.2-18.1
						C2099.4,63.1,2099.9,54,2103.3,45L2103.3,45z"/>
				</g>
			</g>
			<g class="st2">
				<path class="st3" d="M2233.5,45.7c-0.9-8.8-6.1-16.5-11.3-23.4c-2.2-3-4.9-5.7-7.6-8.3c-2.5-2.4-5.1-4.7-7.8-6.9
					c-1-0.8-2-1.6-3-2.4c-0.2-0.1-0.3-0.3-0.5-0.4c-0.1-0.1,0.2,0.2,0,0l-0.2-0.1c-0.1-0.1-0.2-0.2-0.3-0.2c-0.5-0.4-0.7-1-0.4-1.5
					c0.3-0.5,1.1-0.8,1.5-0.4c3.9,3,7.7,6.2,11.3,9.6c6.1,5.7,11.5,12.3,15.6,19.6c2.5,4.5,4.3,9.4,4.9,14.5
					c0.1,0.6-0.6,1.1-1.1,1.1C2234,46.9,2233.6,46.3,2233.5,45.7L2233.5,45.7L2233.5,45.7z"/>
			</g>
			<g class="st2">
				<path class="st3" d="M2236.2,55.9c0.3,6.1-1.1,12.3-3.5,17.9c-0.6,1.4-1.3,2.7-2.1,3.9c-0.8,1.2-2.7,0.1-1.9-1.1
					c1.4-2.2,2.5-4.6,3.3-7.1c0.9-2.8,1.5-5.7,1.8-8.6c0.2-1.7,0.2-3.3,0.1-5c0-0.6,0.5-1.1,1.1-1.1
					C2235.7,54.8,2236.1,55.3,2236.2,55.9L2236.2,55.9L2236.2,55.9z"/>
			</g>
			<g class="st10">
				<path class="st3" d="M2051,296.4c-4.1-7.3-10.8-13-18.7-15.8c-2.2-0.8-4.6-1.4-6.9-1.7c-0.7-0.1-1-0.9-0.9-1.5
					c0.2-0.7,0.9-1,1.5-0.9c8.7,1.3,16.9,5.9,22.7,12.5c1.6,1.9,3.1,4,4.3,6.1C2053.9,296.5,2051.7,297.7,2051,296.4L2051,296.4
					L2051,296.4z"/>
			</g>
			<g class="st10">
				<path class="st3" d="M1923.7,314.9c-3.9,4.5-6.3,10.4-6.6,16.4c0,0.7-0.5,1.2-1.2,1.2c-0.6,0-1.3-0.6-1.2-1.2
					c0.3-6.7,2.9-13.1,7.3-18.1c0.4-0.5,1.3-0.5,1.8,0C1924.2,313.6,1924.1,314.4,1923.7,314.9L1923.7,314.9L1923.7,314.9z"/>
			</g>
			<g class="st8">
				<g class="st6">
					<g>
						<path class="st3" d="M2458.3,386.4c-12.1,26.2-43.4,35.4-57.7,38.3c-3.3,0.7-9.3,13.1-10.4,13.2c-1.6-2.1,0.3-16.3-1.7-18.6
							c-11-13.1-27.6-29.2-51.2-41.4c-23.9-12.3-35.7-10.7-42.4-22.2c-14.8-25.2,11.5-85.6,53.9-94.4c25.2-5.2,46.8,9.6,58.6,17.7
							C2436.9,299.2,2476.7,346.7,2458.3,386.4L2458.3,386.4z"/>
						<path class="st3" d="M2381.4,264.8c0.5,0,0.9,0.1,1.4,0.2c10.2,1.3,20.8,4,31.6,7.9c10,3.6,19.5,8.2,27.6,13.2
							c12.2,7.6,35,21.7,40.4,47.5c1.2,5.7,1.5,11.8,0.9,18c-0.6,5.8-2,11.7-4.1,17.6c-4,11-10.6,21.7-19,30.9
							c-6.7,7.4-14.3,13.4-21.8,17.3c-7.9,4.2-15.7,6-22.3,5.2c-1.5-0.2-2.9-0.5-4.1-0.9c-1.3-0.4-2.6-1-3.7-1.6
							c-4.2-2.3-7.7-6-12.2-10.8c-4.4-4.6-9.8-10.4-18-17c-3.3-2.6-6.6-5.2-10.1-7.5c-0.7-0.5-0.9-1.4-0.4-2.1l0,0
							c0.5-0.7,1.4-0.9,2.1-0.4c3.6,2.4,7,5,10.3,7.7c8.3,6.7,13.8,12.6,18.2,17.3c6.8,7.1,10.8,11.5,18.3,12.3
							c12.2,1.4,28.1-6.8,41.6-21.6c13.8-15.1,26.6-39.8,21.6-63.9c-5.2-24.5-27.2-38.2-39.1-45.6c-2.1-1.3-4.2-2.5-6.4-3.7
							c-12.6-6.9-27.1-12.2-41.1-15.2c-4-0.9-7.9-1.5-11.8-2c-12.4-1.5-28.2-1.2-42,5.4c-0.7,0.3-1.5,0.1-1.9-0.6l0,0
							c-0.4-0.8-0.2-1.7,0.6-2.1C2349.6,264.8,2364.4,262.8,2381.4,264.8L2381.4,264.8z"/>
					</g>
					<path class="st3" d="M2359.4,377.9L2359.4,377.9c-0.4,0.7-1.3,0.9-2,0.5c-8.4-4.9-17.3-9-26.7-12.4c-0.9-0.3-1.2-1.3-0.8-2.1v0
						c0.4-0.6,1.1-0.9,1.8-0.7c9.5,3.5,18.6,7.7,27.1,12.6C2359.6,376.3,2359.9,377.2,2359.4,377.9L2359.4,377.9z"/>
					<path class="st3" d="M2328.7,278L2328.7,278c0.4,0.6,0.3,1.5-0.3,2c-1.8,1.5-3.4,3.1-5,4.9c-16.3,18.5-15.1,45.3-12.7,60.7
						c0.1,0.7-0.2,1.3-0.8,1.6h0c-0.9,0.4-1.9-0.1-2.1-1.1c-1.1-7.1-2-16-1.2-25.4c1.2-15.4,6.1-28.1,14.6-37.8
						c1.7-1.9,3.4-3.6,5.3-5.2C2327.2,277.2,2328.2,277.3,2328.7,278L2328.7,278z"/>
				</g>
				<g class="st6">
					<path class="st3" d="M2468.6,365.6c3.7-10.2,3.8-21.6,0.5-31.9c-1-3-2.3-5.9-3.8-8.6c-0.4-0.8,0.2-1.9,0.9-2.2
						c0.9-0.4,1.8,0.1,2.2,0.9c5.6,10.1,7.6,22.1,5.8,33.5c-0.5,3.3-1.4,6.5-2.5,9.6C2471,368.9,2467.9,367.6,2468.6,365.6
						L2468.6,365.6z"/>
				</g>
				<g class="st6">
					<path class="st3" d="M2393.6,324.7c-2.6-2.7-5.2-5.4-7.9-8.1c-0.5-0.5-0.2-1.4,0.3-1.8c0.6-0.5,1.3-0.2,1.8,0.3
						c2.6,2.7,5.2,5.4,7.9,8.1c0.5,0.5,0.2,1.4-0.3,1.8C2394.8,325.5,2394.1,325.2,2393.6,324.7L2393.6,324.7z"/>
				</g>
				<g class="st6">
					<path class="st3" d="M2358.1,257.4c-14.8,0.1-29.2,5.9-40.2,15.8c-3.1,2.8-5.9,5.9-8.3,9.3c-1.3,1.8-3.9-0.3-2.7-2.1
						c9.1-12.6,22.9-21.4,37.9-24.8c4.2-0.9,8.5-1.4,12.8-1.5c0.9,0,1.8,0.5,1.9,1.5C2359.7,256.3,2359.1,257.3,2358.1,257.4
						L2358.1,257.4L2358.1,257.4z"/>
				</g>
			</g>
		</g>
	</g>
</g>
</svg>
