<svg width="75" height="75" viewBox="0 0 75 75" fill="none" xmlns="http://www.w3.org/2000/svg">
<circle r="3.04764" transform="matrix(-1 0 0 1 15.0149 25.5906)" stroke="#51C8FF" stroke-width="4"/>
<circle r="3.04764" transform="matrix(-1 0 0 1 15.0149 49.4988)" stroke="#51C8FF" stroke-width="4"/>
<path d="M17.1953 27.2031L21.2344 31.242C21.3094 31.317 21.3516 31.4187 21.3516 31.5248V44.4086C21.3516 44.5146 21.3094 44.6164 21.2344 44.6914L17.1953 48.7305" stroke="#51C8FF" stroke-width="4"/>
<circle cx="60.4305" cy="16.1883" r="3.04764" stroke="#51C8FF" stroke-width="4"/>
<circle cx="60.4305" cy="60.0965" r="3.04764" stroke="#51C8FF" stroke-width="4"/>
<path d="M58.25 17.8008L53.2109 22.8396C53.1359 22.9146 53.0938 23.0164 53.0938 23.1225V54.0062C53.0938 54.1123 53.1359 54.214 53.2109 54.2891L58.25 59.3282" stroke="#51C8FF" stroke-width="4"/>
<circle cx="31.2838" cy="12.69" r="3.19" stroke="#51C8FF" stroke-width="4"/>
<circle cx="31.2838" cy="63.1451" r="3.19" stroke="#51C8FF" stroke-width="4"/>
<path d="M31.2852 16.9062V21.574C31.2852 21.7158 31.3454 21.851 31.4508 21.9458L37.8662 27.7162C37.9716 27.811 38.0318 27.9461 38.0318 28.0879V46.4795C38.0318 46.6213 37.9716 46.7564 37.8662 46.8512L31.4508 52.6216C31.3454 52.7164 31.2852 52.8516 31.2852 52.9934V58.9286" stroke="#51C8FF" stroke-width="4"/>
</svg>
