<svg width="75" height="75" viewBox="0 0 75 75" fill="none" xmlns="http://www.w3.org/2000/svg">
<path d="M52.7123 34.9148L51.2843 33.5145L52.7123 34.9148ZM38.2141 49.6998L39.6421 51.1001L38.2141 49.6998ZM22.288 34.9148L20.86 36.3151L22.288 34.9148ZM33 13H42V9H33V13ZM34 32.2146V12H30V32.2146H34ZM31 31.2146H23.002V35.2146H31V31.2146ZM20.86 36.3151L35.3581 51.1001L38.2141 48.2996L23.716 33.5145L20.86 36.3151ZM39.6421 51.1001L54.1403 36.3151L51.2843 33.5145L36.7861 48.2996L39.6421 51.1001ZM51.9983 31.2146H44V35.2146H51.9983V31.2146ZM41 12V32.2146H45V12H41ZM44 31.2146C44.5523 31.2146 45 31.6624 45 32.2146H41C41 33.8715 42.3432 35.2146 44 35.2146V31.2146ZM54.1403 36.3151C56.0016 34.4169 54.6568 31.2146 51.9983 31.2146V35.2146C51.1121 35.2146 50.6638 34.1472 51.2843 33.5145L54.1403 36.3151ZM35.3581 51.1001C36.5343 52.2996 38.466 52.2996 39.6421 51.1001L36.7861 48.2996C37.1782 47.8997 37.8221 47.8997 38.2141 48.2996L35.3581 51.1001ZM23.002 31.2146C20.3434 31.2146 18.9986 34.4169 20.86 36.3151L23.716 33.5145C24.3365 34.1472 23.8882 35.2146 23.002 35.2146V31.2146ZM30 32.2146C30 31.6624 30.4477 31.2146 31 31.2146V35.2146C32.6569 35.2146 34 33.8715 34 32.2146H30ZM42 13C41.4477 13 41 12.5523 41 12H45C45 10.3431 43.6569 9 42 9V13ZM33 9C31.3431 9 30 10.3431 30 12H34C34 12.5523 33.5523 13 33 13V9Z" fill="#51C8FF"/>
<path d="M10 65H65" stroke="#51C8FF" stroke-width="4" stroke-linecap="round" stroke-linejoin="round"/>
</svg>
