<svg width="75" height="75" viewBox="0 0 75 75" fill="none" xmlns="http://www.w3.org/2000/svg">
<path d="M54.5094 52.3011C45.8856 50.0922 43.8711 46.3628 41.6908 38.4687C40.1534 32.9022 35.4096 32.4508 32.7506 34.1077C29.9101 35.8777 29.4108 39.6648 31.5916 44.2889C33.1229 47.5359 36.9848 55.914 45.3751 59.8979" stroke="#51C8FF" stroke-width="4" stroke-linecap="round"/>
<path d="M19.6055 37.604L19.6136 37.5729C20.3001 34.9427 22.022 28.3458 30.1111 24.9332C35.3637 22.7173 43.0555 22.8786 49.3686 29.0749C52.9937 32.6329 53.391 37.604 54.1652 39.2105C55.6346 42.2598 59.3075 42.9683 60.5507 43.3357" stroke="#51C8FF" stroke-width="4" stroke-linecap="round"/>
<path d="M63.7099 32.5618C63.1973 30.6143 62.0294 28.488 61.3672 27.2148" stroke="#51C8FF" stroke-width="4" stroke-linecap="round"/>
<path d="M20.125 46.2031C20.5727 47.3438 21.2858 49.2886 22.2515 50.7114C23.2172 52.1341 25.2486 54.5257 28.5271 56.2614" stroke="#51C8FF" stroke-width="4" stroke-linecap="round"/>
<path d="M55.5496 20.0841C49.7189 14.5715 41.9994 13 36.9994 13C31.0608 13 22.1028 14.9425 15 23.6355" stroke="#51C8FF" stroke-width="4" stroke-linecap="round"/>
<path d="M9.91475 34.0935C7.91985 40.9332 9.58276 48.7973 11.8396 53.259C13.5325 56.6059 16.3587 60.7869 20.9733 64.0217" stroke="#51C8FF" stroke-width="4" stroke-linecap="round"/>
</svg>
