<svg width="50" height="50" viewBox="0 0 50 50" fill="none" xmlns="http://www.w3.org/2000/svg">
<path fill-rule="evenodd" clip-rule="evenodd" d="M7.29297 11.459V38.5423H42.7096V11.459H7.29297ZM6.2513 8.33398C5.10071 8.33398 4.16797 9.26672 4.16797 10.4173V39.584C4.16797 40.7346 5.10071 41.6673 6.2513 41.6673H43.7513C44.9019 41.6673 45.8346 40.7346 45.8346 39.584V10.4173C45.8346 9.26672 44.9019 8.33398 43.7513 8.33398H6.2513Z" fill="#51C8FF"/>
<path fill-rule="evenodd" clip-rule="evenodd" d="M32.6971 17.1211C33.1934 17.124 33.6588 17.3626 33.9509 17.7637L37.7228 22.9427C38.2308 23.6403 38.0772 24.6176 37.3796 25.1256C36.682 25.6337 35.7047 25.48 35.1967 24.7825L32.6724 21.3164L24.51 32.2507C24.2228 32.6355 23.7747 32.8668 23.2947 32.8781C22.8147 32.8894 22.3562 32.6794 22.0512 32.3086L17.1866 26.3945L14.795 29.5973C14.2787 30.2887 13.2996 30.4307 12.6082 29.9144C11.9168 29.3981 11.7748 28.419 12.2911 27.7276L15.8752 22.9277C16.1624 22.5431 16.6106 22.3118 17.0905 22.3005C17.5705 22.2893 18.0289 22.4993 18.3339 22.87L23.1983 28.7839L31.4358 17.7489C31.7327 17.3512 32.2008 17.1182 32.6971 17.1211Z" fill="#51C8FF"/>
</svg>
