<svg width="219" height="71" viewBox="0 0 219 71" fill="none" xmlns="http://www.w3.org/2000/svg">
<path d="M98.5008 18.9989C94.1221 18.9989 90.5689 20.5786 87.8369 23.7358C85.105 26.8931 83.7401 31.0392 83.7401 36.1733C83.7401 41.307 85.0715 45.4386 87.7353 48.5664C90.3992 51.6956 93.8707 53.2602 98.153 53.2602C102.724 53.2602 106.329 51.7688 108.962 48.7853C111.597 45.802 112.916 41.6265 112.916 36.26C112.916 30.7584 111.637 26.5065 109.08 23.5033C106.523 20.5 102.996 18.9989 98.5008 18.9989ZM98.153 57.6484C92.2439 57.6484 87.5122 55.7011 83.9579 51.8076C80.4016 47.9138 78.625 42.8468 78.625 36.6087C78.625 29.9068 80.4362 24.5592 84.0596 20.5681C87.6819 16.5781 92.6116 14.5815 98.8506 14.5815C104.604 14.5815 109.24 16.5194 112.757 20.3942C116.272 24.269 118.029 29.3348 118.029 35.591C118.029 42.3922 116.228 47.7681 112.626 51.7192C109.022 55.6717 104.198 57.6484 98.153 57.6484Z" fill="#EA3021"/>
<path d="M151.823 16.2977C153.004 16.2977 154.062 16.5575 154.99 17.0813V12.7812C154.137 12.4313 152.985 12.2574 151.533 12.2574C148.84 12.2574 146.592 13.1635 144.791 14.9747C142.988 16.7869 142.089 19.2507 142.089 22.3702V27.1941H137.136H137.003H130.16V22.6028C130.16 18.3991 131.828 16.2977 135.159 16.2977C136.342 16.2977 137.398 16.5575 138.326 17.0813V12.7812C137.473 12.4313 136.321 12.2574 134.868 12.2574C132.176 12.2574 129.93 13.1635 128.127 14.9747C126.324 16.7869 125.425 19.2507 125.425 22.3702V27.1941H120.34V31.2627H125.425V56.9512H130.16V31.2627H137.003H137.136H142.089V56.9512H146.825V31.2627H153.798V27.1941H146.825V22.6028C146.825 18.3991 148.49 16.2977 151.823 16.2977Z" fill="#EA3021"/>
<path d="M163.019 56.9512H158.254V27.1941H163.019V56.9512ZM160.693 19.6383C159.841 19.6383 159.115 19.3481 158.514 18.7667C157.912 18.1864 157.613 17.45 157.613 16.5575C157.613 15.6671 157.912 14.9265 158.514 14.3347C159.115 13.7438 159.841 13.4484 160.693 13.4484C161.567 13.4484 162.307 13.7438 162.917 14.3347C163.527 14.9265 163.831 15.6671 163.831 16.5575C163.831 17.4112 163.527 18.1372 162.917 18.7385C162.307 19.3387 161.567 19.6383 160.693 19.6383Z" fill="#EA3021"/>
<path d="M189.685 55.5856C187.399 56.9614 184.686 57.6484 181.548 57.6484C177.306 57.6484 173.882 56.2678 171.277 53.5074C168.67 50.7462 167.367 47.167 167.367 42.7695C167.367 37.8682 168.771 33.931 171.581 30.9564C174.391 27.9825 178.139 26.4961 182.829 26.4961C185.443 26.4961 187.747 26.98 189.743 27.949V32.8315C187.534 31.2812 185.171 30.507 182.653 30.507C179.612 30.507 177.119 31.5965 175.17 33.775C173.223 35.9552 172.251 38.8171 172.251 42.3631C172.251 45.849 173.165 48.6009 174.996 50.6165C176.825 52.6309 179.283 53.6383 182.361 53.6383C184.958 53.6383 187.399 52.7762 189.685 51.051V55.5856Z" fill="#EA3021"/>
<path d="M213.957 39.2247C213.938 36.4728 213.274 34.3328 211.967 32.8022C210.66 31.2717 208.845 30.507 206.519 30.507C204.27 30.507 202.363 31.3105 200.794 32.9184C199.225 34.5259 198.257 36.6284 197.889 39.2247H213.957ZM218.84 43.2637H197.83C197.907 46.5761 198.8 49.1339 200.504 50.9361C202.208 52.7365 204.553 53.6383 207.536 53.6383C210.887 53.6383 213.968 52.5336 216.777 50.3252V54.8C214.163 56.6995 210.703 57.6484 206.403 57.6484C202.198 57.6484 198.896 56.2972 196.494 53.5953C194.09 50.8919 192.891 47.0893 192.891 42.1893C192.891 37.5585 194.202 33.7857 196.827 30.8695C199.452 27.9542 202.713 26.4961 206.607 26.4961C210.501 26.4961 213.514 27.7562 215.644 30.2745C217.774 32.7927 218.84 36.2895 218.84 40.7657V43.2637Z" fill="#EA3021"/>
<path d="M0 57.1308L37.6541 70.6055L58.5306 63.8678V7.63437L37.6541 0.605469L0 15.1409V57.1308Z" fill="#EA3021"/>
<path d="M0 57.1456L13.4913 51.5152V18.4396L37.8881 12.8102V62.0723L0 57.1456Z" fill="white"/>
</svg>
